M48
; DRILL file {KiCad 7.0.2} date Tue Nov 21 14:40:07 2023
; FORMAT={-:-/ absolute / metric / decimal}
; #@! TF.CreationDate,2023-11-21T14:40:07-06:00
; #@! TF.GenerationSoftware,Kicad,Pcbnew,7.0.2
; #@! TF.FileFunction,Plated,1,4,PTH
FMAT,2
METRIC
; #@! TA.AperFunction,Plated,PTH,ViaDrill
T1C0.300
; #@! TA.AperFunction,Plated,PTH,ViaDrill
T2C0.400
; #@! TA.AperFunction,Plated,PTH,ComponentDrill
T3C0.600
; #@! TA.AperFunction,Plated,PTH,ComponentDrill
T4C0.850
; #@! TA.AperFunction,Plated,PTH,ComponentDrill
T5C1.000
; #@! TA.AperFunction,Plated,PTH,ComponentDrill
T6C1.020
; #@! TA.AperFunction,Plated,PTH,ComponentDrill
T7C1.150
%
G90
G05
T1
X97.5Y-85.0
X98.95Y-56.8
X99.6Y-57.7
X100.5Y-59.0
X100.5Y-60.3
X100.6Y-68.2
X100.825Y-94.875
X101.5Y-68.9
X101.562Y-61.649
X101.587Y-75.5
X101.6Y-81.0
X101.6Y-84.5
X102.5Y-66.5
X102.5Y-88.8
X103.9Y-84.5
X104.5Y-60.9
X105.1Y-67.6
X105.1Y-82.0
X105.1Y-94.3
X105.5Y-64.9
X106.5Y-74.5
X106.8Y-57.2
X107.5Y-64.3
X107.6Y-68.4
X108.0Y-78.7
X108.05Y-55.2
X108.975Y-72.2
X109.362Y-66.549
X109.45Y-65.0
X109.5Y-77.5
X109.95Y-54.8
X110.3Y-82.5
X111.1Y-83.3
X111.2Y-74.0
X111.3Y-68.7
X111.5Y-70.6
X112.5Y-95.0
X112.6Y-61.8
X113.5Y-82.2
X114.4Y-79.5
X114.515Y-74.873
X115.5Y-79.8
X116.1Y-82.5
X116.2Y-81.1
X116.6Y-63.1
X116.9Y-81.8
X117.3Y-72.8
X117.5Y-85.0
X118.8Y-66.7
X119.1Y-61.8
X120.0Y-76.95
X120.0Y-82.45
X120.2Y-71.9
X120.3Y-74.7
X120.6Y-65.0
X120.749Y-72.702
X120.8Y-68.542
X121.3Y-74.5
X122.0Y-65.4
X122.504Y-69.499
X122.65Y-64.65
X123.1Y-62.5
X123.4Y-70.2
X123.5Y-64.7
X123.7Y-76.6
X123.9Y-65.4
X123.9Y-68.4
X123.9Y-69.5
X124.0Y-70.751
X124.0Y-82.45
X124.5Y-76.1
X124.6Y-71.3
X124.8Y-69.5
X125.0Y-95.0
X125.2Y-71.9
X125.4Y-79.8
X125.5Y-56.1
X125.7Y-69.5
X126.4Y-79.8
X126.5Y-65.549
X126.5Y-75.6
X126.6Y-80.6
X126.75Y-76.9
X126.789Y-62.635
X127.0Y-91.912
X127.2Y-68.8
X127.3Y-69.65
X127.7Y-73.7
X127.9Y-80.0
X128.0Y-56.912
X128.45Y-70.5
X128.45Y-72.5
X128.5Y-65.549
X128.5Y-75.6
X128.6Y-73.7
X128.6Y-88.0
X129.2Y-83.1
X129.6Y-60.3
X129.6Y-61.9
X130.5Y-65.412
X130.8Y-61.9
X131.2Y-77.1
X131.2Y-77.9
X131.4Y-85.5
X131.4Y-88.989
X131.7Y-74.75
X131.7Y-93.3
X131.703Y-73.799
X132.0Y-68.5
X132.05Y-90.0
X132.3Y-83.6
X132.4Y-70.5
X132.4Y-87.7
X132.5Y-65.412
X132.6Y-82.4
X132.8Y-80.2
X133.2Y-68.45
X133.4Y-79.65
X133.5Y-76.0
X133.5Y-78.0
X133.5Y-83.5
X133.588Y-70.5
X133.7Y-81.9
X133.905Y-71.8
X133.95Y-90.0
X134.375Y-88.0
X136.0Y-92.0
X136.3Y-76.0
X136.4Y-68.5
X136.4Y-70.5
X136.4Y-72.5
X137.0Y-66.95
X137.5Y-85.0
X137.6Y-67.5
X137.6Y-68.5
X137.6Y-70.5
X137.6Y-72.5
X137.6Y-81.5
X139.9Y-67.2
X139.95Y-79.15
X140.412Y-68.5
X140.412Y-70.5
X140.412Y-72.5
X140.412Y-78.0
X140.412Y-81.5
X140.412Y-83.5
X140.5Y-91.95
X141.625Y-88.0
X142.0Y-63.0
X142.8Y-66.0
X142.8Y-66.8
X142.8Y-69.2
X142.8Y-70.0
X142.8Y-78.8
X142.8Y-81.2
X144.05Y-78.0
X145.0Y-95.0
X145.5Y-69.4
X146.1Y-66.2
X146.6Y-67.4
X146.6Y-68.6
X146.6Y-78.0
X146.6Y-78.8
X147.85Y-69.2
X147.85Y-81.2
X147.85Y-82.0
T2
X101.0Y-92.5
X106.0Y-59.0
X106.9Y-77.5
X108.1Y-76.5
X109.8Y-68.8
X110.3Y-60.0
X110.7Y-58.725
X111.4Y-65.6
X113.05Y-60.0
X113.2Y-65.3
X114.95Y-60.0
X117.2Y-56.299
X117.3Y-65.5
X118.7Y-56.3
X132.6Y-57.0
X144.7Y-84.2
X145.4Y-64.1
X145.4Y-71.8
X145.5Y-79.7
X146.5Y-64.7
X146.5Y-71.4
X148.6Y-84.2
T4
X131.0Y-94.737
X136.0Y-94.737
T5
X98.5Y-66.985
X98.5Y-69.525
X139.7Y-61.0
X142.24Y-61.0
X144.78Y-61.0
X147.32Y-61.0
T6
X93.45Y-55.0
X93.45Y-58.0
X93.45Y-61.0
X93.45Y-64.0
X93.45Y-90.0
X93.45Y-93.0
X93.5Y-72.5
X93.5Y-75.5
X93.5Y-78.5
X93.5Y-81.5
X101.5Y-52.45
X104.5Y-52.45
X107.5Y-52.45
X110.5Y-52.45
T7
X128.055Y-52.1
X130.595Y-52.1
X133.135Y-52.1
X138.215Y-52.1
X140.755Y-52.1
X143.295Y-52.1
X145.835Y-52.1
T3
G00X130.0Y-97.787
M15
G01X130.0Y-97.087
M16
G05
G00X137.0Y-97.087
M15
G01X137.0Y-97.787
M16
G05
T0
M30
