%TF.GenerationSoftware,KiCad,Pcbnew,7.0.2*%
%TF.CreationDate,2023-11-21T14:40:01-06:00*%
%TF.ProjectId,LeaderSOM,4c656164-6572-4534-9f4d-2e6b69636164,rev?*%
%TF.SameCoordinates,Original*%
%TF.FileFunction,Copper,L2,Inr*%
%TF.FilePolarity,Positive*%
%FSLAX46Y46*%
G04 Gerber Fmt 4.6, Leading zero omitted, Abs format (unit mm)*
G04 Created by KiCad (PCBNEW 7.0.2) date 2023-11-21 14:40:01*
%MOMM*%
%LPD*%
G01*
G04 APERTURE LIST*
%TA.AperFunction,ComponentPad*%
%ADD10R,1.700000X1.700000*%
%TD*%
%TA.AperFunction,ComponentPad*%
%ADD11O,1.700000X1.700000*%
%TD*%
%TA.AperFunction,ComponentPad*%
%ADD12C,1.700000*%
%TD*%
%TA.AperFunction,ComponentPad*%
%ADD13C,1.725000*%
%TD*%
%TA.AperFunction,ComponentPad*%
%ADD14O,1.200000X1.900000*%
%TD*%
%TA.AperFunction,ComponentPad*%
%ADD15C,1.450000*%
%TD*%
%TA.AperFunction,ViaPad*%
%ADD16C,0.500000*%
%TD*%
%TA.AperFunction,ViaPad*%
%ADD17C,0.800000*%
%TD*%
%TA.AperFunction,Conductor*%
%ADD18C,0.200000*%
%TD*%
G04 APERTURE END LIST*
D10*
X139700000Y-61000000D03*
D11*
X142240000Y-61000000D03*
X144780000Y-61000000D03*
X147320000Y-61000000D03*
D12*
X93450000Y-93000000D03*
X93450000Y-90000000D03*
X101500000Y-52450000D03*
X104500000Y-52450000D03*
X107500000Y-52450000D03*
X110500000Y-52450000D03*
D10*
X98500000Y-69525000D03*
D11*
X98500000Y-66985000D03*
D12*
X93450000Y-64000000D03*
X93450000Y-61000000D03*
X93450000Y-58000000D03*
X93450000Y-55000000D03*
D13*
X128055000Y-52100000D03*
X130595000Y-52100000D03*
X133135000Y-52100000D03*
X138215000Y-52100000D03*
X140755000Y-52100000D03*
X143295000Y-52100000D03*
X145835000Y-52100000D03*
D14*
X130000000Y-97437500D03*
D15*
X131000000Y-94737500D03*
X136000000Y-94737500D03*
D14*
X137000000Y-97437500D03*
D12*
X93500000Y-81500000D03*
X93500000Y-78500000D03*
X93500000Y-75500000D03*
X93500000Y-72500000D03*
D16*
X101600000Y-84500000D03*
D17*
X146500000Y-64700000D03*
X145400000Y-64100000D03*
D16*
X107600000Y-68400000D03*
D17*
X106900000Y-77500000D03*
X108100000Y-76500000D03*
D16*
X109500000Y-77500000D03*
X105100000Y-82000000D03*
X117500000Y-85000000D03*
X136000000Y-92000000D03*
X129200000Y-83100000D03*
X128500000Y-75600000D03*
X120300000Y-74700000D03*
X127000000Y-91912500D03*
X106500000Y-74500000D03*
X100825000Y-94875000D03*
X145000000Y-95000000D03*
X125000000Y-95000000D03*
X116600000Y-63100000D03*
X111300000Y-68700000D03*
X140500000Y-91950000D03*
X101600000Y-81000000D03*
X97500000Y-85000000D03*
X126500000Y-75600000D03*
X112500000Y-95000000D03*
D17*
X101000000Y-92500000D03*
D16*
X102500000Y-66500000D03*
X122504121Y-69498894D03*
X103900000Y-84500000D03*
X127300000Y-69650500D03*
X116100000Y-82500000D03*
X137500000Y-85000000D03*
X123100000Y-62500000D03*
X111200000Y-74000000D03*
D17*
X132600000Y-57000000D03*
X111400000Y-65600000D03*
X146500000Y-71400000D03*
D16*
X109362500Y-66549500D03*
D17*
X145400000Y-71800000D03*
D16*
X108975000Y-72200000D03*
X101562500Y-61649500D03*
D17*
X114950000Y-60000000D03*
D16*
X109450000Y-65000000D03*
X119100000Y-61800000D03*
X101500000Y-68900000D03*
D17*
X113200000Y-65300000D03*
D16*
X145500000Y-69400000D03*
X120800000Y-68541518D03*
D17*
X148600000Y-84200000D03*
X144700000Y-84200000D03*
D16*
X112600000Y-61800000D03*
X128450000Y-70500000D03*
X126789000Y-62635000D03*
X131400000Y-85500000D03*
X105100000Y-67600000D03*
X100600000Y-68200000D03*
X108000000Y-78700000D03*
X120000000Y-76950000D03*
D17*
X109800000Y-68800000D03*
X117300000Y-65500000D03*
X145500000Y-79700000D03*
D16*
X126750000Y-76900000D03*
D17*
X106000000Y-59000000D03*
X117200000Y-56299500D03*
X110700000Y-58725000D03*
X118700000Y-56300000D03*
D16*
X106800000Y-57200000D03*
D17*
X113050000Y-60000000D03*
D16*
X100500000Y-60300000D03*
X128450000Y-72500000D03*
X120000000Y-82450000D03*
X124000000Y-82450000D03*
X141625000Y-88000000D03*
X123900000Y-68400000D03*
X131700000Y-74750000D03*
X110300000Y-82500000D03*
X134375000Y-88000000D03*
X128600000Y-88000000D03*
X113500000Y-82200000D03*
X116900000Y-81800000D03*
D17*
X110300000Y-60000000D03*
D16*
X114400000Y-79500000D03*
X121300000Y-74500000D03*
X142800000Y-66000000D03*
X130500000Y-65412500D03*
X142800000Y-66800000D03*
X132500000Y-65412500D03*
X116200000Y-81100000D03*
X111100000Y-83300000D03*
X146100000Y-66200000D03*
X122000000Y-65400000D03*
X115500000Y-79800000D03*
X131702707Y-73798652D03*
X131700000Y-93300000D03*
X132050000Y-90000000D03*
X131400000Y-88988556D03*
X133950000Y-90000000D03*
X107500000Y-64300000D03*
X105100000Y-94300000D03*
X102500000Y-88800000D03*
X100500000Y-59000000D03*
X129600000Y-60300000D03*
X129600000Y-61900000D03*
X130800000Y-61900000D03*
X118800000Y-66700000D03*
X120600000Y-65000000D03*
X146600000Y-67400000D03*
X122650000Y-64650000D03*
X99600000Y-57700000D03*
X98950000Y-56800000D03*
X123500000Y-64700000D03*
X146600000Y-68600000D03*
X128500000Y-65549500D03*
X120749076Y-72701931D03*
X142800000Y-69200000D03*
X147850000Y-69200000D03*
X123900000Y-65400000D03*
X144050000Y-78000000D03*
X126400000Y-79800000D03*
X146600000Y-78000000D03*
X131200000Y-77100000D03*
X142800000Y-78800000D03*
X124500000Y-76100000D03*
X131200000Y-77900000D03*
X146600000Y-78800000D03*
X142800000Y-81200000D03*
X125400000Y-79800000D03*
X147850000Y-81200000D03*
X132000000Y-68500000D03*
X139950000Y-79150000D03*
X123700000Y-76600000D03*
X147850000Y-82000000D03*
X133200000Y-68449500D03*
X140412500Y-83500000D03*
X140412500Y-81500000D03*
X140412500Y-78000000D03*
X142800000Y-70000000D03*
X120200000Y-71900000D03*
X126500000Y-65549500D03*
X125500000Y-56100000D03*
X108050000Y-55200000D03*
X109950000Y-54800000D03*
X128000000Y-56912500D03*
X133400000Y-79650500D03*
X137600000Y-81500000D03*
X136400000Y-68500000D03*
X127200000Y-68800000D03*
X136300000Y-76000000D03*
X132400000Y-70500000D03*
X132800000Y-80200000D03*
X132600000Y-82400000D03*
X124000000Y-70750500D03*
X137600000Y-72500000D03*
X137600000Y-70500000D03*
X123400000Y-70200000D03*
X137600000Y-68500000D03*
X125700000Y-69500000D03*
X123900000Y-69500000D03*
X137000000Y-66950500D03*
X124800000Y-69500000D03*
X137600000Y-67500000D03*
X124600000Y-71300000D03*
X136400000Y-70500000D03*
X136400000Y-72500000D03*
X125200000Y-71900000D03*
X101587500Y-75500000D03*
X132400000Y-87700000D03*
X132300000Y-83600000D03*
X133500000Y-76000000D03*
X133500000Y-78000000D03*
X133700000Y-81900000D03*
X133500000Y-83500000D03*
X140412500Y-72500000D03*
X140412500Y-70500000D03*
X140412500Y-68500000D03*
X142000000Y-63000000D03*
X139900000Y-67200000D03*
X133587500Y-70500000D03*
X133904614Y-71800000D03*
X127700000Y-73700000D03*
X114514666Y-74873019D03*
X128600000Y-73700000D03*
X111500000Y-70600000D03*
X117300000Y-72800000D03*
X127900000Y-80000000D03*
X126600000Y-80600000D03*
X105500000Y-64900000D03*
X104500000Y-60900000D03*
D18*
X122600000Y-74700000D02*
X120700000Y-76600000D01*
X112450000Y-80350000D02*
X110300000Y-82500000D01*
X131650000Y-74700000D02*
X122600000Y-74700000D01*
X120200000Y-77600000D02*
X119700000Y-77600000D01*
X120700000Y-77100000D02*
X120200000Y-77600000D01*
X120700000Y-76600000D02*
X120700000Y-77100000D01*
X131700000Y-74750000D02*
X131650000Y-74700000D01*
X119700000Y-77600000D02*
X116950000Y-80350000D01*
X116950000Y-80350000D02*
X112450000Y-80350000D01*
X114107107Y-81800000D02*
X116900000Y-81800000D01*
X113500000Y-82200000D02*
X113753554Y-81946446D01*
X114107107Y-81800005D02*
G75*
G03*
X113753554Y-81946446I-7J-499995D01*
G01*
X121300000Y-74500000D02*
X121300000Y-74800000D01*
X119634314Y-75900000D02*
X119000000Y-76534315D01*
X121300000Y-74800000D02*
X120200000Y-75900000D01*
X119000000Y-76534315D02*
X119000000Y-77168628D01*
X120200000Y-75900000D02*
X119634314Y-75900000D01*
X114700000Y-79200000D02*
X114400000Y-79500000D01*
X116968628Y-79200000D02*
X114700000Y-79200000D01*
X119000000Y-77168628D02*
X116968628Y-79200000D01*
X142800000Y-66000000D02*
X142000000Y-65200000D01*
X131050000Y-64862500D02*
X130500000Y-65412500D01*
X133282659Y-65200000D02*
X132945159Y-64862500D01*
X142000000Y-65200000D02*
X133282659Y-65200000D01*
X132945159Y-64862500D02*
X131050000Y-64862500D01*
X132687500Y-65600000D02*
X141600000Y-65600000D01*
X141600000Y-65600000D02*
X142800000Y-66800000D01*
X132500000Y-65412500D02*
X132687500Y-65600000D01*
X111100000Y-83300000D02*
X113300000Y-81100000D01*
X113300000Y-81100000D02*
X116200000Y-81100000D01*
X146100000Y-66200000D02*
X145531372Y-66200000D01*
X142931372Y-63600000D02*
X133945400Y-63600000D01*
X121950000Y-64550000D02*
X121950000Y-65350000D01*
X133945400Y-63600000D02*
X133607899Y-63262500D01*
X145531372Y-66200000D02*
X142931372Y-63600000D01*
X123237500Y-63262500D02*
X121950000Y-64550000D01*
X133607899Y-63262500D02*
X123237500Y-63262500D01*
X121950000Y-65350000D02*
X122000000Y-65400000D01*
X131201359Y-74300000D02*
X122400000Y-74300000D01*
X116934314Y-79800000D02*
X115500000Y-79800000D01*
X119800000Y-76300000D02*
X119400000Y-76700000D01*
X119400000Y-77334314D02*
X116934314Y-79800000D01*
X119400000Y-76700000D02*
X119400000Y-77334314D01*
X120400000Y-76300000D02*
X119800000Y-76300000D01*
X122400000Y-74300000D02*
X120400000Y-76300000D01*
X131702707Y-73798652D02*
X131201359Y-74300000D01*
X122650000Y-61550000D02*
X127253186Y-61550000D01*
X128165686Y-62462500D02*
X140777500Y-62462500D01*
X118800000Y-66700000D02*
X118800000Y-65400000D01*
X140777500Y-62462500D02*
X142240000Y-61000000D01*
X127253186Y-61550000D02*
X128165686Y-62462500D01*
X118800000Y-65400000D02*
X122650000Y-61550000D01*
X127087500Y-61950000D02*
X128000000Y-62862500D01*
X141037500Y-62862500D02*
X141450000Y-62450000D01*
X120600000Y-65000000D02*
X120600000Y-64222182D01*
X141450000Y-62450000D02*
X143330000Y-62450000D01*
X120600000Y-64222182D02*
X122872182Y-61950000D01*
X143330000Y-62450000D02*
X144780000Y-61000000D01*
X122872182Y-61950000D02*
X127087500Y-61950000D01*
X128000000Y-62862500D02*
X141037500Y-62862500D01*
X146165686Y-67400000D02*
X146600000Y-67400000D01*
X122650000Y-64650000D02*
X123637500Y-63662500D01*
X142765686Y-64000000D02*
X146165686Y-67400000D01*
X123637500Y-63662500D02*
X133442214Y-63662500D01*
X133779715Y-64000000D02*
X142765686Y-64000000D01*
X133442214Y-63662500D02*
X133779715Y-64000000D01*
X133276529Y-64062500D02*
X133614030Y-64400000D01*
X133614030Y-64400000D02*
X142600000Y-64400000D01*
X144100000Y-65900000D02*
X144100000Y-66134314D01*
X124137500Y-64062500D02*
X133276529Y-64062500D01*
X146565686Y-68600000D02*
X146600000Y-68600000D01*
X123500000Y-64700000D02*
X124137500Y-64062500D01*
X142600000Y-64400000D02*
X144100000Y-65900000D01*
X144100000Y-66134314D02*
X146565686Y-68600000D01*
X141100000Y-66000000D02*
X142800000Y-67700000D01*
X136200000Y-66300000D02*
X136500000Y-66000000D01*
X142800000Y-67700000D02*
X142800000Y-69200000D01*
X128500000Y-65549500D02*
X129250500Y-66300000D01*
X136500000Y-66000000D02*
X141100000Y-66000000D01*
X129250500Y-66300000D02*
X136200000Y-66300000D01*
X124837500Y-64462500D02*
X123900000Y-65400000D01*
X147850000Y-69200000D02*
X146400000Y-69200000D01*
X146400000Y-69200000D02*
X143700000Y-66500000D01*
X133448345Y-64800000D02*
X133110844Y-64462500D01*
X143700000Y-66500000D02*
X143700000Y-66100000D01*
X133110844Y-64462500D02*
X124837500Y-64462500D01*
X143700000Y-66100000D02*
X142400000Y-64800000D01*
X142400000Y-64800000D02*
X133448345Y-64800000D01*
X133100000Y-80900000D02*
X134300000Y-79700000D01*
X134300000Y-79700000D02*
X142788909Y-79700000D01*
X142788909Y-79700000D02*
X144050000Y-78438909D01*
X128000000Y-80900000D02*
X133100000Y-80900000D01*
X126900000Y-79800000D02*
X128000000Y-80900000D01*
X144050000Y-78438909D02*
X144050000Y-78000000D01*
X126400000Y-79800000D02*
X126900000Y-79800000D01*
X131200000Y-77100000D02*
X131300000Y-77000000D01*
X145600000Y-77000000D02*
X146600000Y-78000000D01*
X131300000Y-77000000D02*
X145600000Y-77000000D01*
X127000000Y-78600000D02*
X142600000Y-78600000D01*
X124500000Y-76100000D02*
X127000000Y-78600000D01*
X142600000Y-78600000D02*
X142800000Y-78800000D01*
X133300000Y-77400000D02*
X145200000Y-77400000D01*
X145200000Y-77400000D02*
X146600000Y-78800000D01*
X131700000Y-77400000D02*
X133300000Y-77400000D01*
X131200000Y-77900000D02*
X131700000Y-77400000D01*
X126400000Y-81300000D02*
X133265686Y-81300000D01*
X125400000Y-80300000D02*
X126400000Y-81300000D01*
X134465686Y-80100000D02*
X141700000Y-80100000D01*
X141700000Y-80100000D02*
X142800000Y-81200000D01*
X125400000Y-79800000D02*
X125400000Y-80300000D01*
X133265686Y-81300000D02*
X134465686Y-80100000D01*
X139950000Y-79150000D02*
X139800000Y-79000000D01*
X126100000Y-79000000D02*
X123700000Y-76600000D01*
X139800000Y-79000000D02*
X126100000Y-79000000D01*
X126500000Y-65549500D02*
X127650500Y-66700000D01*
X140934314Y-66400000D02*
X142250000Y-67715686D01*
X142250000Y-69450000D02*
X142800000Y-70000000D01*
X136400000Y-66700000D02*
X136700000Y-66400000D01*
X127650500Y-66700000D02*
X136400000Y-66700000D01*
X136700000Y-66400000D02*
X140934314Y-66400000D01*
X142250000Y-67715686D02*
X142250000Y-69450000D01*
X136400000Y-68500000D02*
X135800000Y-69100000D01*
X127500000Y-69100000D02*
X127200000Y-68800000D01*
X135800000Y-69100000D02*
X127500000Y-69100000D01*
X124000000Y-70750500D02*
X124050500Y-70700000D01*
X125800000Y-71100000D02*
X130800000Y-71100000D01*
X136677818Y-69900000D02*
X137000000Y-70222182D01*
X137000000Y-70222182D02*
X137000000Y-71900000D01*
X137000000Y-71900000D02*
X137600000Y-72500000D01*
X125400000Y-70700000D02*
X125800000Y-71100000D01*
X130800000Y-71100000D02*
X132000000Y-69900000D01*
X124050500Y-70700000D02*
X125400000Y-70700000D01*
X132000000Y-69900000D02*
X136677818Y-69900000D01*
X137600000Y-70256496D02*
X137600000Y-70500000D01*
X128500000Y-69500000D02*
X136843504Y-69500000D01*
X136843504Y-69500000D02*
X137600000Y-70256496D01*
X127800000Y-70200000D02*
X128500000Y-69500000D01*
X123400000Y-70200000D02*
X127800000Y-70200000D01*
X125700000Y-69500000D02*
X127300000Y-67900000D01*
X127300000Y-67900000D02*
X137222182Y-67900000D01*
X137600000Y-68277818D02*
X137600000Y-68500000D01*
X137222182Y-67900000D02*
X137600000Y-68277818D01*
X137000000Y-66950500D02*
X136850500Y-67100000D01*
X126300000Y-67100000D02*
X123900000Y-69500000D01*
X136850500Y-67100000D02*
X126300000Y-67100000D01*
X124800000Y-69500000D02*
X126800000Y-67500000D01*
X126800000Y-67500000D02*
X137600000Y-67500000D01*
X134137500Y-70727818D02*
X134137500Y-70725898D01*
X133815318Y-71050000D02*
X134137500Y-70727818D01*
X125377818Y-71300000D02*
X125577818Y-71500000D01*
X133363398Y-71500000D02*
X133813398Y-71050000D01*
X133813398Y-71050000D02*
X133815318Y-71050000D01*
X134363398Y-70500000D02*
X136400000Y-70500000D01*
X125577818Y-71500000D02*
X133363398Y-71500000D01*
X124600000Y-71300000D02*
X125377818Y-71300000D01*
X134137500Y-70725898D02*
X134363398Y-70500000D01*
X133063398Y-71900000D02*
X133663398Y-72500000D01*
X133663398Y-72500000D02*
X136400000Y-72500000D01*
X125200000Y-71900000D02*
X133063398Y-71900000D01*
X115487685Y-73900000D02*
X114514666Y-74873019D01*
X127500000Y-73900000D02*
X115487685Y-73900000D01*
X127700000Y-73700000D02*
X127500000Y-73900000D01*
X128000000Y-73100000D02*
X128600000Y-73700000D01*
X127400000Y-73100000D02*
X128000000Y-73100000D01*
X127400000Y-73100000D02*
X127000000Y-73500000D01*
X127000000Y-73500000D02*
X114400000Y-73500000D01*
X114400000Y-73500000D02*
X111500000Y-70600000D01*
%TA.AperFunction,Conductor*%
G36*
X115606295Y-79573948D02*
G01*
X115606635Y-79574097D01*
X115692448Y-79613756D01*
X115692977Y-79614019D01*
X115761607Y-79650262D01*
X115822416Y-79677319D01*
X115895195Y-79694186D01*
X115988950Y-79699387D01*
X115997019Y-79703266D01*
X116000000Y-79711068D01*
X116000000Y-79888931D01*
X115996573Y-79897204D01*
X115988948Y-79900613D01*
X115895196Y-79905812D01*
X115822416Y-79922680D01*
X115761789Y-79949655D01*
X115761764Y-79949666D01*
X115761607Y-79949737D01*
X115761449Y-79949820D01*
X115761417Y-79949836D01*
X115692989Y-79985972D01*
X115692435Y-79986247D01*
X115606687Y-80025878D01*
X115597739Y-80026238D01*
X115591157Y-80020166D01*
X115590985Y-80019774D01*
X115536221Y-79888931D01*
X115500889Y-79804515D01*
X115500857Y-79795563D01*
X115590986Y-79580222D01*
X115597341Y-79573915D01*
X115606295Y-79573948D01*
G37*
%TD.AperFunction*%
%TA.AperFunction,Conductor*%
G36*
X122940669Y-64233562D02*
G01*
X123066436Y-64359329D01*
X123069863Y-64367602D01*
X123066882Y-64375404D01*
X123004264Y-64445377D01*
X122964730Y-64508763D01*
X122940934Y-64570711D01*
X122940927Y-64570728D01*
X122940864Y-64570895D01*
X122940810Y-64571066D01*
X122940805Y-64571084D01*
X122917967Y-64645035D01*
X122917769Y-64645622D01*
X122885159Y-64734281D01*
X122879087Y-64740863D01*
X122870139Y-64741223D01*
X122869741Y-64741068D01*
X122653824Y-64652564D01*
X122647468Y-64646255D01*
X122647435Y-64646175D01*
X122647208Y-64645622D01*
X122558931Y-64430257D01*
X122558964Y-64421304D01*
X122565320Y-64414995D01*
X122565690Y-64414850D01*
X122654390Y-64382222D01*
X122654946Y-64382035D01*
X122729104Y-64359135D01*
X122791234Y-64335268D01*
X122854623Y-64295732D01*
X122924597Y-64233114D01*
X122933044Y-64230153D01*
X122940669Y-64233562D01*
G37*
%TD.AperFunction*%
%TA.AperFunction,Conductor*%
G36*
X137478947Y-68015457D02*
G01*
X137479003Y-68015513D01*
X137547359Y-68084801D01*
X137600858Y-68140793D01*
X137646648Y-68189557D01*
X137700147Y-68245548D01*
X137768648Y-68314983D01*
X137772019Y-68323279D01*
X137768625Y-68331440D01*
X137604153Y-68497233D01*
X137595894Y-68500693D01*
X137595814Y-68500693D01*
X137362972Y-68500036D01*
X137354709Y-68496586D01*
X137351305Y-68488303D01*
X137351371Y-68487100D01*
X137359705Y-68408674D01*
X137360020Y-68406948D01*
X137378564Y-68336091D01*
X137390364Y-68275334D01*
X137384789Y-68245548D01*
X137379259Y-68215999D01*
X137335311Y-68156653D01*
X137333142Y-68147965D01*
X137336439Y-68141419D01*
X137462402Y-68015456D01*
X137470674Y-68012030D01*
X137478947Y-68015457D01*
G37*
%TD.AperFunction*%
%TA.AperFunction,Conductor*%
G36*
X113831170Y-81784527D02*
G01*
X113918675Y-81909195D01*
X113918927Y-81909553D01*
X113920876Y-81918294D01*
X113918070Y-81924077D01*
X113854264Y-81995377D01*
X113814730Y-82058763D01*
X113790934Y-82120711D01*
X113790927Y-82120728D01*
X113790864Y-82120895D01*
X113790810Y-82121066D01*
X113790805Y-82121084D01*
X113767967Y-82195035D01*
X113767769Y-82195622D01*
X113735159Y-82284281D01*
X113729087Y-82290863D01*
X113720139Y-82291223D01*
X113719741Y-82291068D01*
X113503824Y-82202564D01*
X113497468Y-82196255D01*
X113497435Y-82196175D01*
X113497208Y-82195622D01*
X113408931Y-81980257D01*
X113408964Y-81971304D01*
X113415320Y-81964995D01*
X113415690Y-81964850D01*
X113504390Y-81932222D01*
X113504946Y-81932035D01*
X113579104Y-81909135D01*
X113641234Y-81885268D01*
X113704479Y-81845821D01*
X113704788Y-81845636D01*
X113815715Y-81781134D01*
X113824587Y-81779938D01*
X113831170Y-81784527D01*
G37*
%TD.AperFunction*%
%TA.AperFunction,Conductor*%
G36*
X126506295Y-79573948D02*
G01*
X126506635Y-79574097D01*
X126592448Y-79613756D01*
X126592977Y-79614019D01*
X126661607Y-79650262D01*
X126722416Y-79677319D01*
X126795195Y-79694186D01*
X126888950Y-79699387D01*
X126897019Y-79703266D01*
X126900000Y-79711068D01*
X126900000Y-79888931D01*
X126896573Y-79897204D01*
X126888948Y-79900613D01*
X126795196Y-79905812D01*
X126722416Y-79922680D01*
X126661789Y-79949655D01*
X126661764Y-79949666D01*
X126661607Y-79949737D01*
X126661449Y-79949820D01*
X126661417Y-79949836D01*
X126592989Y-79985972D01*
X126592435Y-79986247D01*
X126506687Y-80025878D01*
X126497739Y-80026238D01*
X126491157Y-80020166D01*
X126490985Y-80019774D01*
X126436221Y-79888931D01*
X126400889Y-79804515D01*
X126400857Y-79795563D01*
X126490986Y-79580222D01*
X126497341Y-79573915D01*
X126506295Y-79573948D01*
G37*
%TD.AperFunction*%
%TA.AperFunction,Conductor*%
G36*
X131482948Y-73707576D02*
G01*
X131698882Y-73796087D01*
X131705238Y-73802396D01*
X131705271Y-73802476D01*
X131793775Y-74018393D01*
X131793742Y-74027347D01*
X131787386Y-74033656D01*
X131786988Y-74033811D01*
X131698329Y-74066421D01*
X131697742Y-74066619D01*
X131623791Y-74089457D01*
X131623773Y-74089462D01*
X131623602Y-74089516D01*
X131623435Y-74089579D01*
X131623418Y-74089586D01*
X131561470Y-74113382D01*
X131498084Y-74152916D01*
X131428111Y-74215534D01*
X131419661Y-74218497D01*
X131412036Y-74215088D01*
X131286269Y-74089321D01*
X131282842Y-74081048D01*
X131285821Y-74073249D01*
X131348439Y-74003275D01*
X131387975Y-73939886D01*
X131411842Y-73877756D01*
X131434742Y-73803598D01*
X131434935Y-73803027D01*
X131435138Y-73802476D01*
X131467547Y-73714368D01*
X131473620Y-73707788D01*
X131482567Y-73707428D01*
X131482948Y-73707576D01*
G37*
%TD.AperFunction*%
%TA.AperFunction,Conductor*%
G36*
X141466654Y-60679654D02*
G01*
X142236215Y-60997438D01*
X142242552Y-61003761D01*
X142483963Y-61588375D01*
X142560342Y-61773337D01*
X142560333Y-61782292D01*
X142553994Y-61788617D01*
X142552887Y-61789011D01*
X142194491Y-61896410D01*
X142192361Y-61896837D01*
X141902412Y-61927458D01*
X141651622Y-61951230D01*
X141400543Y-62041764D01*
X141116797Y-62266327D01*
X141108183Y-62268774D01*
X141101263Y-62265426D01*
X140974573Y-62138736D01*
X140971146Y-62130463D01*
X140973671Y-62123204D01*
X141198234Y-61839455D01*
X141288769Y-61588374D01*
X141312540Y-61337586D01*
X141343160Y-61047635D01*
X141343587Y-61045507D01*
X141357992Y-60997437D01*
X141450988Y-60687109D01*
X141456645Y-60680171D01*
X141465554Y-60679263D01*
X141466654Y-60679654D01*
G37*
%TD.AperFunction*%
%TA.AperFunction,Conductor*%
G36*
X110590669Y-82083562D02*
G01*
X110716436Y-82209329D01*
X110719863Y-82217602D01*
X110716882Y-82225404D01*
X110654264Y-82295377D01*
X110614730Y-82358763D01*
X110590934Y-82420711D01*
X110590927Y-82420728D01*
X110590864Y-82420895D01*
X110590810Y-82421066D01*
X110590805Y-82421084D01*
X110567967Y-82495035D01*
X110567769Y-82495622D01*
X110535159Y-82584281D01*
X110529087Y-82590863D01*
X110520139Y-82591223D01*
X110519741Y-82591068D01*
X110303824Y-82502564D01*
X110297468Y-82496255D01*
X110297435Y-82496175D01*
X110297208Y-82495622D01*
X110208931Y-82280257D01*
X110208964Y-82271304D01*
X110215320Y-82264995D01*
X110215690Y-82264850D01*
X110304390Y-82232222D01*
X110304946Y-82232035D01*
X110379104Y-82209135D01*
X110441234Y-82185268D01*
X110504623Y-82145732D01*
X110574597Y-82083114D01*
X110583044Y-82080153D01*
X110590669Y-82083562D01*
G37*
%TD.AperFunction*%
%TA.AperFunction,Conductor*%
G36*
X124190669Y-64983562D02*
G01*
X124316436Y-65109329D01*
X124319863Y-65117602D01*
X124316882Y-65125404D01*
X124254264Y-65195377D01*
X124214730Y-65258763D01*
X124190934Y-65320711D01*
X124190927Y-65320728D01*
X124190864Y-65320895D01*
X124190810Y-65321066D01*
X124190805Y-65321084D01*
X124167967Y-65395035D01*
X124167769Y-65395622D01*
X124135159Y-65484281D01*
X124129087Y-65490863D01*
X124120139Y-65491223D01*
X124119741Y-65491068D01*
X123903824Y-65402564D01*
X123897468Y-65396255D01*
X123897435Y-65396175D01*
X123897208Y-65395622D01*
X123808931Y-65180257D01*
X123808964Y-65171304D01*
X123815320Y-65164995D01*
X123815690Y-65164850D01*
X123904390Y-65132222D01*
X123904946Y-65132035D01*
X123979104Y-65109135D01*
X124041234Y-65085268D01*
X124104623Y-65045732D01*
X124174597Y-64983114D01*
X124183044Y-64980153D01*
X124190669Y-64983562D01*
G37*
%TD.AperFunction*%
%TA.AperFunction,Conductor*%
G36*
X142395088Y-78500613D02*
G01*
X142486034Y-78505165D01*
X142487397Y-78505313D01*
X142559571Y-78517539D01*
X142560285Y-78517683D01*
X142622909Y-78532400D01*
X142696114Y-78544800D01*
X142788930Y-78549445D01*
X142797020Y-78553281D01*
X142800044Y-78561083D01*
X142800980Y-78795107D01*
X142797586Y-78803394D01*
X142797530Y-78803450D01*
X142632901Y-78967152D01*
X142624618Y-78970556D01*
X142616355Y-78967106D01*
X142615191Y-78965741D01*
X142566880Y-78899363D01*
X142565512Y-78896910D01*
X142535406Y-78823359D01*
X142527194Y-78803450D01*
X142509311Y-78760097D01*
X142465784Y-78716342D01*
X142465781Y-78716341D01*
X142392280Y-78701859D01*
X142384826Y-78696898D01*
X142382842Y-78690380D01*
X142382842Y-78512299D01*
X142386269Y-78504026D01*
X142394542Y-78500599D01*
X142395088Y-78500613D01*
G37*
%TD.AperFunction*%
%TA.AperFunction,Conductor*%
G36*
X136180241Y-68408924D02*
G01*
X136396175Y-68497435D01*
X136402531Y-68503744D01*
X136402564Y-68503824D01*
X136491068Y-68719741D01*
X136491035Y-68728695D01*
X136484679Y-68735004D01*
X136484281Y-68735159D01*
X136395622Y-68767769D01*
X136395035Y-68767967D01*
X136321084Y-68790805D01*
X136321066Y-68790810D01*
X136320895Y-68790864D01*
X136320728Y-68790927D01*
X136320711Y-68790934D01*
X136258763Y-68814730D01*
X136195377Y-68854264D01*
X136125404Y-68916882D01*
X136116954Y-68919845D01*
X136109329Y-68916436D01*
X135983562Y-68790669D01*
X135980135Y-68782396D01*
X135983114Y-68774597D01*
X136045732Y-68704623D01*
X136085268Y-68641234D01*
X136109135Y-68579104D01*
X136132035Y-68504946D01*
X136132228Y-68504375D01*
X136132431Y-68503824D01*
X136164840Y-68415716D01*
X136170913Y-68409136D01*
X136179860Y-68408776D01*
X136180241Y-68408924D01*
G37*
%TD.AperFunction*%
%TA.AperFunction,Conductor*%
G36*
X124190669Y-69083562D02*
G01*
X124316436Y-69209329D01*
X124319863Y-69217602D01*
X124316882Y-69225404D01*
X124254264Y-69295377D01*
X124214730Y-69358763D01*
X124190934Y-69420711D01*
X124190927Y-69420728D01*
X124190864Y-69420895D01*
X124190810Y-69421066D01*
X124190805Y-69421084D01*
X124167967Y-69495035D01*
X124167769Y-69495622D01*
X124135159Y-69584281D01*
X124129087Y-69590863D01*
X124120139Y-69591223D01*
X124119741Y-69591068D01*
X123903824Y-69502564D01*
X123897468Y-69496255D01*
X123897435Y-69496175D01*
X123897208Y-69495622D01*
X123808931Y-69280257D01*
X123808964Y-69271304D01*
X123815320Y-69264995D01*
X123815690Y-69264850D01*
X123904390Y-69232222D01*
X123904946Y-69232035D01*
X123979104Y-69209135D01*
X124041234Y-69185268D01*
X124104623Y-69145732D01*
X124174597Y-69083114D01*
X124183044Y-69080153D01*
X124190669Y-69083562D01*
G37*
%TD.AperFunction*%
%TA.AperFunction,Conductor*%
G36*
X116808842Y-81579833D02*
G01*
X116809014Y-81580224D01*
X116899109Y-81795483D01*
X116899142Y-81804437D01*
X116899109Y-81804517D01*
X116809014Y-82019775D01*
X116802658Y-82026084D01*
X116793704Y-82026051D01*
X116793340Y-82025891D01*
X116707565Y-81986249D01*
X116707014Y-81985976D01*
X116638568Y-81949830D01*
X116638569Y-81949830D01*
X116638392Y-81949737D01*
X116638222Y-81949661D01*
X116638209Y-81949655D01*
X116604019Y-81934443D01*
X116577582Y-81922680D01*
X116555625Y-81917591D01*
X116504802Y-81905812D01*
X116416176Y-81900897D01*
X116411050Y-81900612D01*
X116402980Y-81896733D01*
X116400000Y-81888933D01*
X116400000Y-81711065D01*
X116403426Y-81702795D01*
X116411048Y-81699387D01*
X116504804Y-81694186D01*
X116577582Y-81677319D01*
X116638392Y-81650262D01*
X116707034Y-81614011D01*
X116707549Y-81613757D01*
X116793315Y-81574119D01*
X116802260Y-81573760D01*
X116808842Y-81579833D01*
G37*
%TD.AperFunction*%
%TA.AperFunction,Conductor*%
G36*
X124121905Y-70530223D02*
G01*
X124188742Y-70557466D01*
X124256815Y-70581118D01*
X124317782Y-70593849D01*
X124389531Y-70599022D01*
X124478369Y-70599887D01*
X124486608Y-70603394D01*
X124489955Y-70611586D01*
X124489955Y-70789450D01*
X124486528Y-70797723D01*
X124479462Y-70801088D01*
X124384859Y-70810899D01*
X124315157Y-70839957D01*
X124258573Y-70881714D01*
X124193584Y-70930145D01*
X124192011Y-70931134D01*
X124106962Y-70975570D01*
X124098042Y-70976364D01*
X124091174Y-70970618D01*
X124090758Y-70969733D01*
X124000889Y-70755015D01*
X124000857Y-70746063D01*
X124091195Y-70530222D01*
X124097551Y-70523914D01*
X124106404Y-70523905D01*
X124121905Y-70530223D01*
G37*
%TD.AperFunction*%
%TA.AperFunction,Conductor*%
G36*
X125614751Y-79888883D02*
G01*
X125619774Y-79890985D01*
X125626083Y-79897341D01*
X125626050Y-79906295D01*
X125625878Y-79906687D01*
X125586247Y-79992435D01*
X125585972Y-79992989D01*
X125549836Y-80061417D01*
X125549830Y-80061430D01*
X125549737Y-80061607D01*
X125549666Y-80061764D01*
X125549655Y-80061789D01*
X125522680Y-80122416D01*
X125505812Y-80195196D01*
X125500613Y-80288948D01*
X125496733Y-80297019D01*
X125488931Y-80300000D01*
X125311069Y-80300000D01*
X125302796Y-80296573D01*
X125299387Y-80288948D01*
X125294186Y-80195196D01*
X125294186Y-80195195D01*
X125277319Y-80122416D01*
X125250262Y-80061607D01*
X125214019Y-79992977D01*
X125213756Y-79992448D01*
X125174119Y-79906684D01*
X125173760Y-79897739D01*
X125179832Y-79891157D01*
X125180183Y-79891002D01*
X125395484Y-79800889D01*
X125404437Y-79800857D01*
X125614751Y-79888883D01*
G37*
%TD.AperFunction*%
%TA.AperFunction,Conductor*%
G36*
X142525403Y-66383115D02*
G01*
X142588094Y-66439216D01*
X142595377Y-66445733D01*
X142616505Y-66458910D01*
X142658764Y-66485268D01*
X142720895Y-66509135D01*
X142721086Y-66509194D01*
X142721089Y-66509195D01*
X142795035Y-66532030D01*
X142795618Y-66532226D01*
X142884281Y-66564840D01*
X142890863Y-66570913D01*
X142891223Y-66579860D01*
X142891068Y-66580258D01*
X142802564Y-66796175D01*
X142796255Y-66802531D01*
X142796175Y-66802564D01*
X142580258Y-66891068D01*
X142571304Y-66891035D01*
X142564995Y-66884679D01*
X142564840Y-66884281D01*
X142534098Y-66800707D01*
X142532226Y-66795618D01*
X142532030Y-66795035D01*
X142509195Y-66721089D01*
X142509194Y-66721086D01*
X142509135Y-66720895D01*
X142485268Y-66658764D01*
X142445732Y-66595376D01*
X142383115Y-66525403D01*
X142380153Y-66516955D01*
X142383561Y-66509331D01*
X142509331Y-66383561D01*
X142517603Y-66380135D01*
X142525403Y-66383115D01*
G37*
%TD.AperFunction*%
%TA.AperFunction,Conductor*%
G36*
X111728695Y-70508964D02*
G01*
X111735004Y-70515320D01*
X111735159Y-70515718D01*
X111767769Y-70604375D01*
X111767967Y-70604962D01*
X111790805Y-70678914D01*
X111790864Y-70679104D01*
X111790931Y-70679279D01*
X111790934Y-70679287D01*
X111814730Y-70741234D01*
X111854264Y-70804621D01*
X111916882Y-70874595D01*
X111919845Y-70883045D01*
X111916436Y-70890670D01*
X111790670Y-71016436D01*
X111782397Y-71019863D01*
X111774595Y-71016882D01*
X111704621Y-70954264D01*
X111641234Y-70914730D01*
X111579287Y-70890934D01*
X111579279Y-70890931D01*
X111579104Y-70890864D01*
X111578922Y-70890808D01*
X111578914Y-70890805D01*
X111504962Y-70867967D01*
X111504375Y-70867769D01*
X111415718Y-70835159D01*
X111409136Y-70829087D01*
X111408776Y-70820139D01*
X111408916Y-70819777D01*
X111497436Y-70603822D01*
X111503743Y-70597468D01*
X111719742Y-70508931D01*
X111728695Y-70508964D01*
G37*
%TD.AperFunction*%
%TA.AperFunction,Conductor*%
G36*
X136831523Y-66782047D02*
G01*
X136832329Y-66782778D01*
X136997530Y-66947049D01*
X137000980Y-66955312D01*
X137000980Y-66955392D01*
X137000051Y-67187847D01*
X136996591Y-67196106D01*
X136988351Y-67199500D01*
X136566697Y-67199500D01*
X136558424Y-67196073D01*
X136554997Y-67187800D01*
X136554997Y-67010181D01*
X136558424Y-67001908D01*
X136565078Y-66998594D01*
X136638358Y-66988377D01*
X136689479Y-66956082D01*
X136689989Y-66955392D01*
X136697749Y-66944880D01*
X136725741Y-66906970D01*
X136764123Y-66845545D01*
X136765008Y-66844315D01*
X136815053Y-66783628D01*
X136822960Y-66779428D01*
X136831523Y-66782047D01*
G37*
%TD.AperFunction*%
%TA.AperFunction,Conductor*%
G36*
X111390669Y-82883562D02*
G01*
X111516436Y-83009329D01*
X111519863Y-83017602D01*
X111516882Y-83025404D01*
X111454264Y-83095377D01*
X111414730Y-83158763D01*
X111390934Y-83220711D01*
X111390927Y-83220728D01*
X111390864Y-83220895D01*
X111390810Y-83221066D01*
X111390805Y-83221084D01*
X111367967Y-83295035D01*
X111367769Y-83295622D01*
X111335159Y-83384281D01*
X111329087Y-83390863D01*
X111320139Y-83391223D01*
X111319741Y-83391068D01*
X111103824Y-83302564D01*
X111097468Y-83296255D01*
X111097435Y-83296175D01*
X111097208Y-83295622D01*
X111008931Y-83080257D01*
X111008964Y-83071304D01*
X111015320Y-83064995D01*
X111015690Y-83064850D01*
X111104390Y-83032222D01*
X111104946Y-83032035D01*
X111179104Y-83009135D01*
X111241234Y-82985268D01*
X111304623Y-82945732D01*
X111374597Y-82883114D01*
X111383044Y-82880153D01*
X111390669Y-82883562D01*
G37*
%TD.AperFunction*%
%TA.AperFunction,Conductor*%
G36*
X127427552Y-68709444D02*
G01*
X127433874Y-68715786D01*
X127434373Y-68717271D01*
X127454163Y-68792527D01*
X127454500Y-68794445D01*
X127461716Y-68873920D01*
X127461718Y-68873937D01*
X127461733Y-68874101D01*
X127461759Y-68874276D01*
X127461761Y-68874285D01*
X127471811Y-68939720D01*
X127471811Y-68939722D01*
X127487665Y-68961784D01*
X127503520Y-68983849D01*
X127566592Y-68997954D01*
X127573916Y-69003104D01*
X127575737Y-69009372D01*
X127575736Y-69187475D01*
X127572309Y-69195748D01*
X127564036Y-69199175D01*
X127563240Y-69199148D01*
X127453958Y-69191700D01*
X127451617Y-69191299D01*
X127369413Y-69168420D01*
X127367182Y-69167544D01*
X127298344Y-69131996D01*
X127297827Y-69131712D01*
X127218357Y-69085465D01*
X127218348Y-69085460D01*
X127218150Y-69085345D01*
X127217938Y-69085243D01*
X127217931Y-69085240D01*
X127114304Y-69035735D01*
X127108316Y-69029077D01*
X127108520Y-69020742D01*
X127197148Y-68804516D01*
X127203455Y-68798162D01*
X127418599Y-68709431D01*
X127427552Y-68709444D01*
G37*
%TD.AperFunction*%
%TA.AperFunction,Conductor*%
G36*
X126728695Y-65458464D02*
G01*
X126735004Y-65464820D01*
X126735159Y-65465218D01*
X126767769Y-65553875D01*
X126767967Y-65554462D01*
X126790805Y-65628414D01*
X126790864Y-65628604D01*
X126790931Y-65628779D01*
X126790934Y-65628787D01*
X126814730Y-65690734D01*
X126854264Y-65754121D01*
X126916882Y-65824095D01*
X126919845Y-65832545D01*
X126916436Y-65840170D01*
X126790670Y-65965936D01*
X126782397Y-65969363D01*
X126774595Y-65966382D01*
X126704621Y-65903764D01*
X126641234Y-65864230D01*
X126579287Y-65840434D01*
X126579279Y-65840431D01*
X126579104Y-65840364D01*
X126578922Y-65840308D01*
X126578914Y-65840305D01*
X126504962Y-65817467D01*
X126504375Y-65817269D01*
X126415718Y-65784659D01*
X126409136Y-65778587D01*
X126408776Y-65769639D01*
X126408916Y-65769277D01*
X126497436Y-65553322D01*
X126503743Y-65546968D01*
X126719742Y-65458431D01*
X126728695Y-65458464D01*
G37*
%TD.AperFunction*%
%TA.AperFunction,Conductor*%
G36*
X125306295Y-71673948D02*
G01*
X125306635Y-71674097D01*
X125337680Y-71688445D01*
X125340650Y-71690418D01*
X125370036Y-71717207D01*
X125370427Y-71717580D01*
X125385020Y-71732173D01*
X125390113Y-71735662D01*
X125391384Y-71736669D01*
X125416883Y-71759915D01*
X125416884Y-71759915D01*
X125416885Y-71759916D01*
X125432165Y-71765835D01*
X125435494Y-71767125D01*
X125437880Y-71768383D01*
X125454338Y-71779657D01*
X125477314Y-71785061D01*
X125487921Y-71787556D01*
X125489469Y-71788035D01*
X125521645Y-71800500D01*
X125541598Y-71800500D01*
X125544277Y-71800811D01*
X125563699Y-71805379D01*
X125597871Y-71800611D01*
X125599487Y-71800500D01*
X125688300Y-71800500D01*
X125696573Y-71803927D01*
X125700000Y-71812200D01*
X125700000Y-71988931D01*
X125696573Y-71997204D01*
X125688948Y-72000613D01*
X125595196Y-72005812D01*
X125522416Y-72022680D01*
X125461789Y-72049655D01*
X125461764Y-72049666D01*
X125461607Y-72049737D01*
X125461449Y-72049820D01*
X125461417Y-72049836D01*
X125392989Y-72085972D01*
X125392435Y-72086247D01*
X125306687Y-72125878D01*
X125297739Y-72126238D01*
X125291157Y-72120166D01*
X125290985Y-72119774D01*
X125236221Y-71988931D01*
X125200889Y-71904515D01*
X125200857Y-71895563D01*
X125290986Y-71680222D01*
X125297341Y-71673915D01*
X125306295Y-71673948D01*
G37*
%TD.AperFunction*%
%TA.AperFunction,Conductor*%
G36*
X132683772Y-65245266D02*
G01*
X132684845Y-65246508D01*
X132733207Y-65311158D01*
X132734500Y-65313347D01*
X132766364Y-65383847D01*
X132794707Y-65443704D01*
X132794708Y-65443704D01*
X132794709Y-65443707D01*
X132839777Y-65484759D01*
X132912760Y-65498232D01*
X132920274Y-65503104D01*
X132922336Y-65509738D01*
X132922335Y-65687857D01*
X132918908Y-65696130D01*
X132910635Y-65699557D01*
X132910201Y-65699549D01*
X132817866Y-65696118D01*
X132816845Y-65696035D01*
X132743430Y-65686835D01*
X132742884Y-65686754D01*
X132679302Y-65675719D01*
X132679278Y-65675715D01*
X132679189Y-65675700D01*
X132679079Y-65675686D01*
X132679064Y-65675684D01*
X132605245Y-65666433D01*
X132605234Y-65666432D01*
X132604978Y-65666400D01*
X132604711Y-65666390D01*
X132604710Y-65666390D01*
X132511221Y-65662916D01*
X132503080Y-65659184D01*
X132499955Y-65651271D01*
X132499289Y-65484758D01*
X132499019Y-65417390D01*
X132502412Y-65409107D01*
X132667226Y-65245219D01*
X132675509Y-65241816D01*
X132683772Y-65245266D01*
G37*
%TD.AperFunction*%
%TA.AperFunction,Conductor*%
G36*
X144055210Y-78001178D02*
G01*
X144270864Y-78091441D01*
X144277173Y-78097797D01*
X144277414Y-78106031D01*
X144240119Y-78214719D01*
X144240113Y-78214736D01*
X144240027Y-78214990D01*
X144239966Y-78215250D01*
X144239961Y-78215269D01*
X144218992Y-78305266D01*
X144218882Y-78305701D01*
X144198311Y-78380829D01*
X144197391Y-78383166D01*
X144158028Y-78458353D01*
X144156549Y-78460537D01*
X144085733Y-78543217D01*
X144077749Y-78547271D01*
X144069236Y-78544492D01*
X144068574Y-78543879D01*
X143942670Y-78417975D01*
X143939243Y-78409702D01*
X143941018Y-78403508D01*
X143975818Y-78347778D01*
X143964872Y-78293628D01*
X143922356Y-78239716D01*
X143868064Y-78177597D01*
X143866833Y-78175899D01*
X143825944Y-78107274D01*
X143824653Y-78098412D01*
X143830006Y-78091234D01*
X143831488Y-78090488D01*
X144046199Y-78001167D01*
X144055154Y-78001155D01*
X144055210Y-78001178D01*
G37*
%TD.AperFunction*%
%TA.AperFunction,Conductor*%
G36*
X130790669Y-64996062D02*
G01*
X130916436Y-65121829D01*
X130919863Y-65130102D01*
X130916882Y-65137904D01*
X130854264Y-65207877D01*
X130814730Y-65271263D01*
X130790934Y-65333211D01*
X130790927Y-65333228D01*
X130790864Y-65333395D01*
X130790810Y-65333566D01*
X130790805Y-65333584D01*
X130767967Y-65407535D01*
X130767769Y-65408122D01*
X130735159Y-65496781D01*
X130729087Y-65503363D01*
X130720139Y-65503723D01*
X130719741Y-65503568D01*
X130503824Y-65415064D01*
X130497468Y-65408755D01*
X130497435Y-65408675D01*
X130497208Y-65408122D01*
X130408931Y-65192757D01*
X130408964Y-65183804D01*
X130415320Y-65177495D01*
X130415690Y-65177350D01*
X130504390Y-65144722D01*
X130504946Y-65144535D01*
X130579104Y-65121635D01*
X130641234Y-65097768D01*
X130704623Y-65058232D01*
X130774597Y-64995614D01*
X130783044Y-64992653D01*
X130790669Y-64996062D01*
G37*
%TD.AperFunction*%
%TA.AperFunction,Conductor*%
G36*
X122047719Y-64913373D02*
G01*
X122051084Y-64920444D01*
X122060850Y-65015032D01*
X122089787Y-65084765D01*
X122131400Y-65141397D01*
X122179713Y-65206427D01*
X122180693Y-65207991D01*
X122225077Y-65293039D01*
X122225867Y-65301959D01*
X122220118Y-65308824D01*
X122219222Y-65309245D01*
X122004516Y-65399109D01*
X121995562Y-65399142D01*
X121995482Y-65399109D01*
X121779727Y-65308806D01*
X121773418Y-65302450D01*
X121773412Y-65293592D01*
X121773638Y-65293039D01*
X121807032Y-65211221D01*
X121830810Y-65143137D01*
X121843684Y-65082169D01*
X121848974Y-65010408D01*
X121849881Y-64921526D01*
X121853393Y-64913289D01*
X121861581Y-64909946D01*
X122039446Y-64909946D01*
X122047719Y-64913373D01*
G37*
%TD.AperFunction*%
%TA.AperFunction,Conductor*%
G36*
X139946622Y-78903927D02*
G01*
X139950049Y-78912153D01*
X139950980Y-79145107D01*
X139947586Y-79153394D01*
X139947530Y-79153450D01*
X139782335Y-79317715D01*
X139774052Y-79321119D01*
X139765789Y-79317669D01*
X139765059Y-79316863D01*
X139715046Y-79256134D01*
X139714145Y-79254878D01*
X139675980Y-79193538D01*
X139675979Y-79193537D01*
X139675858Y-79193342D01*
X139639703Y-79144086D01*
X139639702Y-79144085D01*
X139588668Y-79111671D01*
X139515408Y-79101411D01*
X139507690Y-79096870D01*
X139505331Y-79089824D01*
X139505331Y-78912200D01*
X139508758Y-78903927D01*
X139517031Y-78900500D01*
X139938349Y-78900500D01*
X139946622Y-78903927D01*
G37*
%TD.AperFunction*%
%TA.AperFunction,Conductor*%
G36*
X123790669Y-64283562D02*
G01*
X123916436Y-64409329D01*
X123919863Y-64417602D01*
X123916882Y-64425404D01*
X123854264Y-64495377D01*
X123814730Y-64558763D01*
X123790934Y-64620711D01*
X123790927Y-64620728D01*
X123790864Y-64620895D01*
X123790810Y-64621066D01*
X123790805Y-64621084D01*
X123767967Y-64695035D01*
X123767769Y-64695622D01*
X123735159Y-64784281D01*
X123729087Y-64790863D01*
X123720139Y-64791223D01*
X123719741Y-64791068D01*
X123503824Y-64702564D01*
X123497468Y-64696255D01*
X123497435Y-64696175D01*
X123497208Y-64695622D01*
X123408931Y-64480257D01*
X123408964Y-64471304D01*
X123415320Y-64464995D01*
X123415690Y-64464850D01*
X123504390Y-64432222D01*
X123504946Y-64432035D01*
X123579104Y-64409135D01*
X123641234Y-64385268D01*
X123704623Y-64345732D01*
X123774597Y-64283114D01*
X123783044Y-64280153D01*
X123790669Y-64283562D01*
G37*
%TD.AperFunction*%
%TA.AperFunction,Conductor*%
G36*
X142525403Y-65583115D02*
G01*
X142588094Y-65639216D01*
X142595377Y-65645733D01*
X142616505Y-65658910D01*
X142658764Y-65685268D01*
X142720895Y-65709135D01*
X142721086Y-65709194D01*
X142721089Y-65709195D01*
X142795035Y-65732030D01*
X142795618Y-65732226D01*
X142884281Y-65764840D01*
X142890863Y-65770913D01*
X142891223Y-65779860D01*
X142891068Y-65780258D01*
X142802564Y-65996175D01*
X142796255Y-66002531D01*
X142796175Y-66002564D01*
X142580258Y-66091068D01*
X142571304Y-66091035D01*
X142564995Y-66084679D01*
X142564840Y-66084281D01*
X142534098Y-66000707D01*
X142532226Y-65995618D01*
X142532030Y-65995035D01*
X142509195Y-65921089D01*
X142509194Y-65921086D01*
X142509135Y-65920895D01*
X142485268Y-65858764D01*
X142445732Y-65795376D01*
X142383115Y-65725403D01*
X142380153Y-65716955D01*
X142383561Y-65709331D01*
X142509331Y-65583561D01*
X142517603Y-65580135D01*
X142525403Y-65583115D01*
G37*
%TD.AperFunction*%
%TA.AperFunction,Conductor*%
G36*
X137508842Y-67279833D02*
G01*
X137509014Y-67280224D01*
X137599109Y-67495483D01*
X137599142Y-67504437D01*
X137599109Y-67504517D01*
X137509014Y-67719774D01*
X137502658Y-67726083D01*
X137493704Y-67726050D01*
X137493313Y-67725878D01*
X137462321Y-67711555D01*
X137459349Y-67709581D01*
X137429962Y-67682791D01*
X137429571Y-67682418D01*
X137414979Y-67667826D01*
X137409880Y-67664332D01*
X137408612Y-67663327D01*
X137383116Y-67640084D01*
X137364505Y-67632874D01*
X137362120Y-67631617D01*
X137345663Y-67620344D01*
X137345662Y-67620343D01*
X137345661Y-67620343D01*
X137312083Y-67612445D01*
X137310536Y-67611966D01*
X137278355Y-67599500D01*
X137258401Y-67599500D01*
X137255722Y-67599189D01*
X137236301Y-67594621D01*
X137203556Y-67599189D01*
X137202129Y-67599388D01*
X137200513Y-67599500D01*
X137111700Y-67599500D01*
X137103427Y-67596073D01*
X137100000Y-67587800D01*
X137100000Y-67411068D01*
X137103427Y-67402795D01*
X137111049Y-67399387D01*
X137204804Y-67394186D01*
X137277582Y-67377319D01*
X137338392Y-67350262D01*
X137407034Y-67314011D01*
X137407549Y-67313757D01*
X137493315Y-67274119D01*
X137502260Y-67273760D01*
X137508842Y-67279833D01*
G37*
%TD.AperFunction*%
%TA.AperFunction,Conductor*%
G36*
X146325403Y-78383115D02*
G01*
X146388094Y-78439216D01*
X146395377Y-78445733D01*
X146416505Y-78458910D01*
X146458764Y-78485268D01*
X146520895Y-78509135D01*
X146521086Y-78509194D01*
X146521089Y-78509195D01*
X146595035Y-78532030D01*
X146595618Y-78532226D01*
X146684281Y-78564840D01*
X146690863Y-78570913D01*
X146691223Y-78579860D01*
X146691068Y-78580258D01*
X146602564Y-78796175D01*
X146596255Y-78802531D01*
X146596175Y-78802564D01*
X146380258Y-78891068D01*
X146371304Y-78891035D01*
X146364995Y-78884679D01*
X146364840Y-78884281D01*
X146334098Y-78800707D01*
X146332226Y-78795618D01*
X146332030Y-78795035D01*
X146309195Y-78721089D01*
X146309194Y-78721086D01*
X146309135Y-78720895D01*
X146285268Y-78658764D01*
X146245732Y-78595376D01*
X146183115Y-78525403D01*
X146180153Y-78516955D01*
X146183561Y-78509331D01*
X146309331Y-78383561D01*
X146317603Y-78380135D01*
X146325403Y-78383115D01*
G37*
%TD.AperFunction*%
%TA.AperFunction,Conductor*%
G36*
X124706295Y-71073948D02*
G01*
X124706635Y-71074097D01*
X124792448Y-71113756D01*
X124792977Y-71114019D01*
X124861607Y-71150262D01*
X124922416Y-71177319D01*
X124995195Y-71194186D01*
X125088950Y-71199387D01*
X125097019Y-71203266D01*
X125100000Y-71211068D01*
X125100000Y-71388931D01*
X125096573Y-71397204D01*
X125088948Y-71400613D01*
X124995196Y-71405812D01*
X124922416Y-71422680D01*
X124861789Y-71449655D01*
X124861764Y-71449666D01*
X124861607Y-71449737D01*
X124861449Y-71449820D01*
X124861417Y-71449836D01*
X124792989Y-71485972D01*
X124792435Y-71486247D01*
X124706687Y-71525878D01*
X124697739Y-71526238D01*
X124691157Y-71520166D01*
X124690985Y-71519774D01*
X124636221Y-71388931D01*
X124600889Y-71304515D01*
X124600857Y-71295563D01*
X124690986Y-71080222D01*
X124697341Y-71073915D01*
X124706295Y-71073948D01*
G37*
%TD.AperFunction*%
%TA.AperFunction,Conductor*%
G36*
X123506295Y-69973948D02*
G01*
X123506635Y-69974097D01*
X123592448Y-70013756D01*
X123592977Y-70014019D01*
X123661607Y-70050262D01*
X123722416Y-70077319D01*
X123795195Y-70094186D01*
X123888950Y-70099387D01*
X123897019Y-70103266D01*
X123900000Y-70111068D01*
X123900000Y-70288931D01*
X123896573Y-70297204D01*
X123888948Y-70300613D01*
X123795196Y-70305812D01*
X123722416Y-70322680D01*
X123661789Y-70349655D01*
X123661764Y-70349666D01*
X123661607Y-70349737D01*
X123661449Y-70349820D01*
X123661417Y-70349836D01*
X123592989Y-70385972D01*
X123592435Y-70386247D01*
X123506687Y-70425878D01*
X123497739Y-70426238D01*
X123491157Y-70420166D01*
X123490985Y-70419774D01*
X123436221Y-70288931D01*
X123400889Y-70204515D01*
X123400857Y-70195563D01*
X123490986Y-69980222D01*
X123497341Y-69973915D01*
X123506295Y-69973948D01*
G37*
%TD.AperFunction*%
%TA.AperFunction,Conductor*%
G36*
X137496608Y-70012044D02*
G01*
X137496758Y-70012197D01*
X137562117Y-70080446D01*
X137562500Y-70080866D01*
X137611815Y-70137920D01*
X137611986Y-70138124D01*
X137617615Y-70145012D01*
X137653395Y-70188798D01*
X137653507Y-70188930D01*
X137702868Y-70246035D01*
X137702971Y-70246154D01*
X137728747Y-70273070D01*
X137768889Y-70314986D01*
X137772136Y-70323331D01*
X137768745Y-70331318D01*
X137604153Y-70497233D01*
X137595894Y-70500693D01*
X137595814Y-70500693D01*
X137363232Y-70500037D01*
X137354969Y-70496587D01*
X137351565Y-70488304D01*
X137351656Y-70486881D01*
X137361610Y-70408044D01*
X137362078Y-70405939D01*
X137385124Y-70334511D01*
X137385157Y-70334391D01*
X137385183Y-70334307D01*
X137402338Y-70273070D01*
X137402338Y-70273068D01*
X137395593Y-70213086D01*
X137352837Y-70153072D01*
X137350829Y-70144347D01*
X137354092Y-70138014D01*
X137480063Y-70012043D01*
X137488335Y-70008617D01*
X137496608Y-70012044D01*
G37*
%TD.AperFunction*%
%TA.AperFunction,Conductor*%
G36*
X127531536Y-73531682D02*
G01*
X127532897Y-73532842D01*
X127697530Y-73696549D01*
X127700980Y-73704812D01*
X127700980Y-73704892D01*
X127700044Y-73938916D01*
X127696584Y-73947175D01*
X127688929Y-73950554D01*
X127596456Y-73955182D01*
X127596441Y-73955183D01*
X127596114Y-73955200D01*
X127595787Y-73955255D01*
X127595781Y-73955256D01*
X127523096Y-73967567D01*
X127523085Y-73967569D01*
X127522909Y-73967599D01*
X127522738Y-73967639D01*
X127522724Y-73967642D01*
X127460289Y-73982315D01*
X127459566Y-73982461D01*
X127387400Y-73994685D01*
X127386031Y-73994834D01*
X127295127Y-73999385D01*
X127286693Y-73996376D01*
X127282857Y-73988285D01*
X127282842Y-73987700D01*
X127282842Y-73809619D01*
X127286269Y-73801346D01*
X127292279Y-73798140D01*
X127365784Y-73783657D01*
X127409311Y-73739901D01*
X127435406Y-73676639D01*
X127465514Y-73603081D01*
X127466877Y-73600639D01*
X127515193Y-73534255D01*
X127522830Y-73529585D01*
X127531536Y-73531682D01*
G37*
%TD.AperFunction*%
%TA.AperFunction,Conductor*%
G36*
X142897204Y-68703427D02*
G01*
X142900613Y-68711052D01*
X142905812Y-68804802D01*
X142922680Y-68877581D01*
X142949655Y-68938209D01*
X142949661Y-68938222D01*
X142949737Y-68938392D01*
X142949830Y-68938568D01*
X142985976Y-69007014D01*
X142986249Y-69007565D01*
X143025879Y-69093313D01*
X143026239Y-69102260D01*
X143020167Y-69108842D01*
X143019775Y-69109014D01*
X142804517Y-69199109D01*
X142795563Y-69199142D01*
X142795483Y-69199109D01*
X142580224Y-69109014D01*
X142573915Y-69102658D01*
X142573948Y-69093704D01*
X142574098Y-69093362D01*
X142613757Y-69007549D01*
X142614011Y-69007034D01*
X142650262Y-68938392D01*
X142677319Y-68877582D01*
X142694186Y-68804804D01*
X142699386Y-68711052D01*
X142703267Y-68702981D01*
X142711069Y-68700000D01*
X142888931Y-68700000D01*
X142897204Y-68703427D01*
G37*
%TD.AperFunction*%
%TA.AperFunction,Conductor*%
G36*
X125990669Y-69083562D02*
G01*
X126116436Y-69209329D01*
X126119863Y-69217602D01*
X126116882Y-69225404D01*
X126054264Y-69295377D01*
X126014730Y-69358763D01*
X125990934Y-69420711D01*
X125990927Y-69420728D01*
X125990864Y-69420895D01*
X125990810Y-69421066D01*
X125990805Y-69421084D01*
X125967967Y-69495035D01*
X125967769Y-69495622D01*
X125935159Y-69584281D01*
X125929087Y-69590863D01*
X125920139Y-69591223D01*
X125919741Y-69591068D01*
X125703824Y-69502564D01*
X125697468Y-69496255D01*
X125697435Y-69496175D01*
X125697208Y-69495622D01*
X125608931Y-69280257D01*
X125608964Y-69271304D01*
X125615320Y-69264995D01*
X125615690Y-69264850D01*
X125704390Y-69232222D01*
X125704946Y-69232035D01*
X125779104Y-69209135D01*
X125841234Y-69185268D01*
X125904623Y-69145732D01*
X125974597Y-69083114D01*
X125983044Y-69080153D01*
X125990669Y-69083562D01*
G37*
%TD.AperFunction*%
%TA.AperFunction,Conductor*%
G36*
X118897204Y-66203427D02*
G01*
X118900613Y-66211052D01*
X118905812Y-66304802D01*
X118922680Y-66377581D01*
X118949655Y-66438209D01*
X118949661Y-66438222D01*
X118949737Y-66438392D01*
X118949830Y-66438568D01*
X118985976Y-66507014D01*
X118986249Y-66507565D01*
X119025879Y-66593313D01*
X119026239Y-66602260D01*
X119020167Y-66608842D01*
X119019775Y-66609014D01*
X118804517Y-66699109D01*
X118795563Y-66699142D01*
X118795483Y-66699109D01*
X118580224Y-66609014D01*
X118573915Y-66602658D01*
X118573948Y-66593704D01*
X118574098Y-66593362D01*
X118613757Y-66507549D01*
X118614011Y-66507034D01*
X118650262Y-66438392D01*
X118677319Y-66377582D01*
X118694186Y-66304804D01*
X118699386Y-66211052D01*
X118703267Y-66202981D01*
X118711069Y-66200000D01*
X118888931Y-66200000D01*
X118897204Y-66203427D01*
G37*
%TD.AperFunction*%
%TA.AperFunction,Conductor*%
G36*
X147758842Y-68979833D02*
G01*
X147759014Y-68980224D01*
X147849109Y-69195482D01*
X147849142Y-69204436D01*
X147849109Y-69204516D01*
X147759014Y-69419775D01*
X147752658Y-69426084D01*
X147743704Y-69426051D01*
X147743340Y-69425891D01*
X147657565Y-69386249D01*
X147657014Y-69385976D01*
X147588568Y-69349830D01*
X147588569Y-69349830D01*
X147588392Y-69349737D01*
X147588222Y-69349661D01*
X147588209Y-69349655D01*
X147554019Y-69334443D01*
X147527582Y-69322680D01*
X147505625Y-69317591D01*
X147454802Y-69305812D01*
X147361052Y-69300613D01*
X147352981Y-69296733D01*
X147350000Y-69288931D01*
X147350000Y-69111068D01*
X147353427Y-69102795D01*
X147361049Y-69099387D01*
X147454804Y-69094186D01*
X147527582Y-69077319D01*
X147588392Y-69050262D01*
X147657034Y-69014011D01*
X147657549Y-69013757D01*
X147743315Y-68974119D01*
X147752260Y-68973760D01*
X147758842Y-68979833D01*
G37*
%TD.AperFunction*%
%TA.AperFunction,Conductor*%
G36*
X121304096Y-74502709D02*
G01*
X121314924Y-74513624D01*
X121469069Y-74669007D01*
X121472463Y-74677294D01*
X121469538Y-74684985D01*
X121408602Y-74754087D01*
X121368566Y-74815847D01*
X121368557Y-74815860D01*
X121368441Y-74816041D01*
X121368336Y-74816234D01*
X121368331Y-74816243D01*
X121337841Y-74872465D01*
X121337374Y-74873251D01*
X121297936Y-74934089D01*
X121296894Y-74935463D01*
X121237529Y-75002787D01*
X121229487Y-75006726D01*
X121221015Y-75003825D01*
X121220480Y-75003322D01*
X121094593Y-74877435D01*
X121091166Y-74869162D01*
X121093077Y-74862754D01*
X121107468Y-74840771D01*
X121134520Y-74799451D01*
X121131453Y-74736964D01*
X121101272Y-74673036D01*
X121067225Y-74598848D01*
X121066326Y-74595932D01*
X121052318Y-74513622D01*
X121054308Y-74504893D01*
X121061889Y-74500127D01*
X121063818Y-74499961D01*
X121295815Y-74499306D01*
X121304096Y-74502709D01*
G37*
%TD.AperFunction*%
%TA.AperFunction,Conductor*%
G36*
X146008842Y-65979833D02*
G01*
X146009014Y-65980224D01*
X146099109Y-66195482D01*
X146099142Y-66204436D01*
X146099109Y-66204516D01*
X146009014Y-66419775D01*
X146002658Y-66426084D01*
X145993704Y-66426051D01*
X145993340Y-66425891D01*
X145907565Y-66386249D01*
X145907014Y-66385976D01*
X145838568Y-66349830D01*
X145838569Y-66349830D01*
X145838392Y-66349737D01*
X145838222Y-66349661D01*
X145838209Y-66349655D01*
X145804019Y-66334443D01*
X145777582Y-66322680D01*
X145755625Y-66317591D01*
X145704802Y-66305812D01*
X145611052Y-66300613D01*
X145602981Y-66296733D01*
X145600000Y-66288931D01*
X145600000Y-66111068D01*
X145603427Y-66102795D01*
X145611049Y-66099387D01*
X145704804Y-66094186D01*
X145777582Y-66077319D01*
X145838392Y-66050262D01*
X145907034Y-66014011D01*
X145907549Y-66013757D01*
X145993315Y-65974119D01*
X146002260Y-65973760D01*
X146008842Y-65979833D01*
G37*
%TD.AperFunction*%
%TA.AperFunction,Conductor*%
G36*
X124728695Y-76008964D02*
G01*
X124735004Y-76015320D01*
X124735159Y-76015718D01*
X124767769Y-76104375D01*
X124767967Y-76104962D01*
X124790805Y-76178914D01*
X124790864Y-76179104D01*
X124790931Y-76179279D01*
X124790934Y-76179287D01*
X124814730Y-76241234D01*
X124854264Y-76304621D01*
X124916882Y-76374595D01*
X124919845Y-76383045D01*
X124916436Y-76390670D01*
X124790670Y-76516436D01*
X124782397Y-76519863D01*
X124774595Y-76516882D01*
X124704621Y-76454264D01*
X124641234Y-76414730D01*
X124579287Y-76390934D01*
X124579279Y-76390931D01*
X124579104Y-76390864D01*
X124578922Y-76390808D01*
X124578914Y-76390805D01*
X124504962Y-76367967D01*
X124504375Y-76367769D01*
X124415718Y-76335159D01*
X124409136Y-76329087D01*
X124408776Y-76320139D01*
X124408916Y-76319777D01*
X124497436Y-76103822D01*
X124503743Y-76097468D01*
X124719742Y-76008931D01*
X124728695Y-76008964D01*
G37*
%TD.AperFunction*%
%TA.AperFunction,Conductor*%
G36*
X131490669Y-77483562D02*
G01*
X131616436Y-77609329D01*
X131619863Y-77617602D01*
X131616882Y-77625404D01*
X131554264Y-77695377D01*
X131514730Y-77758763D01*
X131490934Y-77820711D01*
X131490927Y-77820728D01*
X131490864Y-77820895D01*
X131490810Y-77821066D01*
X131490805Y-77821084D01*
X131467967Y-77895035D01*
X131467769Y-77895622D01*
X131435159Y-77984281D01*
X131429087Y-77990863D01*
X131420139Y-77991223D01*
X131419741Y-77991068D01*
X131203824Y-77902564D01*
X131197468Y-77896255D01*
X131197435Y-77896175D01*
X131197208Y-77895622D01*
X131108931Y-77680257D01*
X131108964Y-77671304D01*
X131115320Y-77664995D01*
X131115690Y-77664850D01*
X131204390Y-77632222D01*
X131204946Y-77632035D01*
X131279104Y-77609135D01*
X131341234Y-77585268D01*
X131404623Y-77545732D01*
X131474597Y-77483114D01*
X131483044Y-77480153D01*
X131490669Y-77483562D01*
G37*
%TD.AperFunction*%
%TA.AperFunction,Conductor*%
G36*
X142525403Y-80783115D02*
G01*
X142588094Y-80839216D01*
X142595377Y-80845733D01*
X142616505Y-80858910D01*
X142658764Y-80885268D01*
X142720895Y-80909135D01*
X142721086Y-80909194D01*
X142721089Y-80909195D01*
X142795035Y-80932030D01*
X142795618Y-80932226D01*
X142884281Y-80964840D01*
X142890863Y-80970913D01*
X142891223Y-80979860D01*
X142891068Y-80980258D01*
X142802564Y-81196175D01*
X142796255Y-81202531D01*
X142796175Y-81202564D01*
X142580258Y-81291068D01*
X142571304Y-81291035D01*
X142564995Y-81284679D01*
X142564840Y-81284281D01*
X142534098Y-81200707D01*
X142532226Y-81195618D01*
X142532030Y-81195035D01*
X142509195Y-81121089D01*
X142509194Y-81121086D01*
X142509135Y-81120895D01*
X142485268Y-81058764D01*
X142445732Y-80995376D01*
X142383115Y-80925403D01*
X142380153Y-80916955D01*
X142383561Y-80909331D01*
X142509331Y-80783561D01*
X142517603Y-80780135D01*
X142525403Y-80783115D01*
G37*
%TD.AperFunction*%
%TA.AperFunction,Conductor*%
G36*
X128728695Y-65458464D02*
G01*
X128735004Y-65464820D01*
X128735159Y-65465218D01*
X128767769Y-65553875D01*
X128767967Y-65554462D01*
X128790805Y-65628414D01*
X128790864Y-65628604D01*
X128790931Y-65628779D01*
X128790934Y-65628787D01*
X128814730Y-65690734D01*
X128854264Y-65754121D01*
X128916882Y-65824095D01*
X128919845Y-65832545D01*
X128916436Y-65840170D01*
X128790670Y-65965936D01*
X128782397Y-65969363D01*
X128774595Y-65966382D01*
X128704621Y-65903764D01*
X128641234Y-65864230D01*
X128579287Y-65840434D01*
X128579279Y-65840431D01*
X128579104Y-65840364D01*
X128578922Y-65840308D01*
X128578914Y-65840305D01*
X128504962Y-65817467D01*
X128504375Y-65817269D01*
X128415718Y-65784659D01*
X128409136Y-65778587D01*
X128408776Y-65769639D01*
X128408916Y-65769277D01*
X128497436Y-65553322D01*
X128503743Y-65546968D01*
X128719742Y-65458431D01*
X128728695Y-65458464D01*
G37*
%TD.AperFunction*%
%TA.AperFunction,Conductor*%
G36*
X136308842Y-72279833D02*
G01*
X136309014Y-72280224D01*
X136399109Y-72495482D01*
X136399142Y-72504436D01*
X136399109Y-72504516D01*
X136309014Y-72719775D01*
X136302658Y-72726084D01*
X136293704Y-72726051D01*
X136293340Y-72725891D01*
X136207565Y-72686249D01*
X136207014Y-72685976D01*
X136138568Y-72649830D01*
X136138569Y-72649830D01*
X136138392Y-72649737D01*
X136138222Y-72649661D01*
X136138209Y-72649655D01*
X136104019Y-72634443D01*
X136077582Y-72622680D01*
X136055625Y-72617591D01*
X136004802Y-72605812D01*
X135911052Y-72600613D01*
X135902981Y-72596733D01*
X135900000Y-72588931D01*
X135900000Y-72411068D01*
X135903427Y-72402795D01*
X135911049Y-72399387D01*
X136004804Y-72394186D01*
X136077582Y-72377319D01*
X136138392Y-72350262D01*
X136207034Y-72314011D01*
X136207549Y-72313757D01*
X136293315Y-72274119D01*
X136302260Y-72273760D01*
X136308842Y-72279833D01*
G37*
%TD.AperFunction*%
%TA.AperFunction,Conductor*%
G36*
X146311636Y-68203327D02*
G01*
X146361494Y-68245892D01*
X146383389Y-68264585D01*
X146449929Y-68298948D01*
X146493780Y-68310612D01*
X146515705Y-68316444D01*
X146515896Y-68316488D01*
X146569473Y-68328678D01*
X146592795Y-68333985D01*
X146593968Y-68334317D01*
X146683911Y-68365016D01*
X146690634Y-68370932D01*
X146691205Y-68379868D01*
X146690958Y-68380526D01*
X146602564Y-68596175D01*
X146596255Y-68602531D01*
X146596175Y-68602564D01*
X146380020Y-68691165D01*
X146371066Y-68691132D01*
X146364757Y-68684776D01*
X146364691Y-68684612D01*
X146331150Y-68599128D01*
X146304180Y-68529529D01*
X146304076Y-68529260D01*
X146275238Y-68471867D01*
X146232067Y-68412754D01*
X146231826Y-68412496D01*
X146231817Y-68412485D01*
X146169710Y-68345990D01*
X146166567Y-68337605D01*
X146169986Y-68329732D01*
X146295767Y-68203951D01*
X146304039Y-68200525D01*
X146311636Y-68203327D01*
G37*
%TD.AperFunction*%
%TA.AperFunction,Conductor*%
G36*
X144006654Y-60679654D02*
G01*
X144776215Y-60997438D01*
X144782552Y-61003761D01*
X145023963Y-61588375D01*
X145100342Y-61773337D01*
X145100333Y-61782292D01*
X145093994Y-61788617D01*
X145092887Y-61789011D01*
X144734491Y-61896410D01*
X144732361Y-61896837D01*
X144442412Y-61927458D01*
X144191622Y-61951230D01*
X143940543Y-62041764D01*
X143656797Y-62266327D01*
X143648183Y-62268774D01*
X143641263Y-62265426D01*
X143514573Y-62138736D01*
X143511146Y-62130463D01*
X143513671Y-62123204D01*
X143738234Y-61839455D01*
X143828769Y-61588374D01*
X143852540Y-61337586D01*
X143883160Y-61047635D01*
X143883587Y-61045507D01*
X143897992Y-60997437D01*
X143990988Y-60687109D01*
X143996645Y-60680171D01*
X144005554Y-60679263D01*
X144006654Y-60679654D01*
G37*
%TD.AperFunction*%
%TA.AperFunction,Conductor*%
G36*
X142525403Y-69583115D02*
G01*
X142588094Y-69639216D01*
X142595377Y-69645733D01*
X142616505Y-69658910D01*
X142658764Y-69685268D01*
X142720895Y-69709135D01*
X142721086Y-69709194D01*
X142721089Y-69709195D01*
X142795035Y-69732030D01*
X142795618Y-69732226D01*
X142884281Y-69764840D01*
X142890863Y-69770913D01*
X142891223Y-69779860D01*
X142891068Y-69780258D01*
X142802564Y-69996175D01*
X142796255Y-70002531D01*
X142796175Y-70002564D01*
X142580258Y-70091068D01*
X142571304Y-70091035D01*
X142564995Y-70084679D01*
X142564840Y-70084281D01*
X142534098Y-70000707D01*
X142532226Y-69995618D01*
X142532030Y-69995035D01*
X142509195Y-69921089D01*
X142509194Y-69921086D01*
X142509135Y-69920895D01*
X142485268Y-69858764D01*
X142445732Y-69795376D01*
X142383115Y-69725403D01*
X142380153Y-69716955D01*
X142383561Y-69709331D01*
X142509331Y-69583561D01*
X142517603Y-69580135D01*
X142525403Y-69583115D01*
G37*
%TD.AperFunction*%
%TA.AperFunction,Conductor*%
G36*
X146325403Y-77583115D02*
G01*
X146388094Y-77639216D01*
X146395377Y-77645733D01*
X146416505Y-77658910D01*
X146458764Y-77685268D01*
X146520895Y-77709135D01*
X146521086Y-77709194D01*
X146521089Y-77709195D01*
X146595035Y-77732030D01*
X146595618Y-77732226D01*
X146684281Y-77764840D01*
X146690863Y-77770913D01*
X146691223Y-77779860D01*
X146691068Y-77780258D01*
X146602564Y-77996175D01*
X146596255Y-78002531D01*
X146596175Y-78002564D01*
X146380258Y-78091068D01*
X146371304Y-78091035D01*
X146364995Y-78084679D01*
X146364840Y-78084281D01*
X146334098Y-78000707D01*
X146332226Y-77995618D01*
X146332030Y-77995035D01*
X146309195Y-77921089D01*
X146309194Y-77921086D01*
X146309135Y-77920895D01*
X146285268Y-77858764D01*
X146245732Y-77795376D01*
X146183115Y-77725403D01*
X146180153Y-77716955D01*
X146183561Y-77709331D01*
X146309331Y-77583561D01*
X146317603Y-77580135D01*
X146325403Y-77583115D01*
G37*
%TD.AperFunction*%
%TA.AperFunction,Conductor*%
G36*
X128325403Y-73283115D02*
G01*
X128388094Y-73339216D01*
X128395377Y-73345733D01*
X128416505Y-73358910D01*
X128458764Y-73385268D01*
X128520895Y-73409135D01*
X128521086Y-73409194D01*
X128521089Y-73409195D01*
X128595035Y-73432030D01*
X128595618Y-73432226D01*
X128684281Y-73464840D01*
X128690863Y-73470913D01*
X128691223Y-73479860D01*
X128691068Y-73480258D01*
X128602564Y-73696175D01*
X128596255Y-73702531D01*
X128596175Y-73702564D01*
X128380258Y-73791068D01*
X128371304Y-73791035D01*
X128364995Y-73784679D01*
X128364840Y-73784281D01*
X128334098Y-73700707D01*
X128332226Y-73695618D01*
X128332030Y-73695035D01*
X128309195Y-73621089D01*
X128309194Y-73621086D01*
X128309135Y-73620895D01*
X128285268Y-73558764D01*
X128245732Y-73495376D01*
X128183115Y-73425403D01*
X128180153Y-73416955D01*
X128183561Y-73409331D01*
X128309331Y-73283561D01*
X128317603Y-73280135D01*
X128325403Y-73283115D01*
G37*
%TD.AperFunction*%
%TA.AperFunction,Conductor*%
G36*
X116108842Y-80879833D02*
G01*
X116109014Y-80880224D01*
X116199109Y-81095483D01*
X116199142Y-81104437D01*
X116199109Y-81104517D01*
X116109014Y-81319775D01*
X116102658Y-81326084D01*
X116093704Y-81326051D01*
X116093340Y-81325891D01*
X116007565Y-81286249D01*
X116007014Y-81285976D01*
X115938568Y-81249830D01*
X115938569Y-81249830D01*
X115938392Y-81249737D01*
X115938222Y-81249661D01*
X115938209Y-81249655D01*
X115904019Y-81234443D01*
X115877582Y-81222680D01*
X115855625Y-81217591D01*
X115804802Y-81205812D01*
X115716176Y-81200897D01*
X115711050Y-81200612D01*
X115702980Y-81196733D01*
X115700000Y-81188933D01*
X115700000Y-81011065D01*
X115703426Y-81002795D01*
X115711048Y-80999387D01*
X115804804Y-80994186D01*
X115877582Y-80977319D01*
X115938392Y-80950262D01*
X116007034Y-80914011D01*
X116007549Y-80913757D01*
X116093315Y-80874119D01*
X116102260Y-80873760D01*
X116108842Y-80879833D01*
G37*
%TD.AperFunction*%
%TA.AperFunction,Conductor*%
G36*
X125090669Y-69083562D02*
G01*
X125216436Y-69209329D01*
X125219863Y-69217602D01*
X125216882Y-69225404D01*
X125154264Y-69295377D01*
X125114730Y-69358763D01*
X125090934Y-69420711D01*
X125090927Y-69420728D01*
X125090864Y-69420895D01*
X125090810Y-69421066D01*
X125090805Y-69421084D01*
X125067967Y-69495035D01*
X125067769Y-69495622D01*
X125035159Y-69584281D01*
X125029087Y-69590863D01*
X125020139Y-69591223D01*
X125019741Y-69591068D01*
X124803824Y-69502564D01*
X124797468Y-69496255D01*
X124797435Y-69496175D01*
X124797208Y-69495622D01*
X124708931Y-69280257D01*
X124708964Y-69271304D01*
X124715320Y-69264995D01*
X124715690Y-69264850D01*
X124804390Y-69232222D01*
X124804946Y-69232035D01*
X124879104Y-69209135D01*
X124941234Y-69185268D01*
X125004623Y-69145732D01*
X125074597Y-69083114D01*
X125083044Y-69080153D01*
X125090669Y-69083562D01*
G37*
%TD.AperFunction*%
%TA.AperFunction,Conductor*%
G36*
X137325403Y-72083115D02*
G01*
X137388094Y-72139216D01*
X137395377Y-72145733D01*
X137416505Y-72158910D01*
X137458764Y-72185268D01*
X137520895Y-72209135D01*
X137521086Y-72209194D01*
X137521089Y-72209195D01*
X137595035Y-72232030D01*
X137595618Y-72232226D01*
X137684281Y-72264840D01*
X137690863Y-72270913D01*
X137691223Y-72279860D01*
X137691068Y-72280258D01*
X137602564Y-72496175D01*
X137596255Y-72502531D01*
X137596175Y-72502564D01*
X137380258Y-72591068D01*
X137371304Y-72591035D01*
X137364995Y-72584679D01*
X137364840Y-72584281D01*
X137334098Y-72500707D01*
X137332226Y-72495618D01*
X137332030Y-72495035D01*
X137309195Y-72421089D01*
X137309194Y-72421086D01*
X137309135Y-72420895D01*
X137285268Y-72358764D01*
X137245732Y-72295376D01*
X137183115Y-72225403D01*
X137180153Y-72216955D01*
X137183561Y-72209331D01*
X137309331Y-72083561D01*
X137317603Y-72080135D01*
X137325403Y-72083115D01*
G37*
%TD.AperFunction*%
%TA.AperFunction,Conductor*%
G36*
X131212125Y-76850530D02*
G01*
X131318360Y-76855174D01*
X131319522Y-76855286D01*
X131402590Y-76867554D01*
X131403179Y-76867657D01*
X131475184Y-76882400D01*
X131552015Y-76893748D01*
X131558826Y-76894754D01*
X131558827Y-76894754D01*
X131559138Y-76894800D01*
X131666889Y-76899510D01*
X131675004Y-76903295D01*
X131678077Y-76911199D01*
X131678077Y-77088677D01*
X131674650Y-77096950D01*
X131668525Y-77100178D01*
X131666084Y-77100634D01*
X131664476Y-77100821D01*
X131630007Y-77102415D01*
X131615095Y-77108999D01*
X131612100Y-77109867D01*
X131572343Y-77115813D01*
X131506407Y-77156681D01*
X131455286Y-77212533D01*
X131454896Y-77212938D01*
X131394300Y-77273073D01*
X131391949Y-77274877D01*
X131307201Y-77324252D01*
X131298327Y-77325456D01*
X131291202Y-77320033D01*
X131290522Y-77318669D01*
X131199915Y-77102188D01*
X131199009Y-77097627D01*
X131199951Y-76862172D01*
X131203411Y-76853914D01*
X131211698Y-76850520D01*
X131212125Y-76850530D01*
G37*
%TD.AperFunction*%
%TA.AperFunction,Conductor*%
G36*
X120697204Y-64503427D02*
G01*
X120700613Y-64511052D01*
X120705812Y-64604802D01*
X120722680Y-64677581D01*
X120749655Y-64738209D01*
X120749661Y-64738222D01*
X120749737Y-64738392D01*
X120749830Y-64738568D01*
X120785976Y-64807014D01*
X120786249Y-64807565D01*
X120825879Y-64893313D01*
X120826239Y-64902260D01*
X120820167Y-64908842D01*
X120819775Y-64909014D01*
X120604517Y-64999109D01*
X120595563Y-64999142D01*
X120595483Y-64999109D01*
X120380224Y-64909014D01*
X120373915Y-64902658D01*
X120373948Y-64893704D01*
X120374098Y-64893362D01*
X120413757Y-64807549D01*
X120414011Y-64807034D01*
X120450262Y-64738392D01*
X120477319Y-64677582D01*
X120494186Y-64604804D01*
X120499386Y-64511052D01*
X120503267Y-64502981D01*
X120511069Y-64500000D01*
X120688931Y-64500000D01*
X120697204Y-64503427D01*
G37*
%TD.AperFunction*%
%TA.AperFunction,Conductor*%
G36*
X123928695Y-76508964D02*
G01*
X123935004Y-76515320D01*
X123935159Y-76515718D01*
X123967769Y-76604375D01*
X123967967Y-76604962D01*
X123990805Y-76678914D01*
X123990864Y-76679104D01*
X123990931Y-76679279D01*
X123990934Y-76679287D01*
X124014730Y-76741234D01*
X124054264Y-76804621D01*
X124116882Y-76874595D01*
X124119845Y-76883045D01*
X124116436Y-76890670D01*
X123990670Y-77016436D01*
X123982397Y-77019863D01*
X123974595Y-77016882D01*
X123904621Y-76954264D01*
X123841234Y-76914730D01*
X123779287Y-76890934D01*
X123779279Y-76890931D01*
X123779104Y-76890864D01*
X123778922Y-76890808D01*
X123778914Y-76890805D01*
X123704962Y-76867967D01*
X123704375Y-76867769D01*
X123615718Y-76835159D01*
X123609136Y-76829087D01*
X123608776Y-76820139D01*
X123608916Y-76819777D01*
X123697436Y-76603822D01*
X123703743Y-76597468D01*
X123919742Y-76508931D01*
X123928695Y-76508964D01*
G37*
%TD.AperFunction*%
%TA.AperFunction,Conductor*%
G36*
X146508767Y-67179999D02*
G01*
X146509502Y-67181465D01*
X146598831Y-67396199D01*
X146598844Y-67405154D01*
X146598821Y-67405210D01*
X146508570Y-67620835D01*
X146502214Y-67627144D01*
X146493948Y-67627374D01*
X146385394Y-67589775D01*
X146385392Y-67589774D01*
X146385134Y-67589685D01*
X146384872Y-67589621D01*
X146384864Y-67589619D01*
X146295215Y-67567858D01*
X146294739Y-67567732D01*
X146220021Y-67546227D01*
X146217728Y-67545294D01*
X146142816Y-67505121D01*
X146140709Y-67503674D01*
X146058077Y-67432488D01*
X146054045Y-67424492D01*
X146056849Y-67415988D01*
X146057427Y-67415364D01*
X146183356Y-67289435D01*
X146191628Y-67286009D01*
X146197846Y-67287798D01*
X146219476Y-67301372D01*
X146253207Y-67322539D01*
X146253208Y-67322540D01*
X146253208Y-67322539D01*
X146253209Y-67322540D01*
X146307195Y-67312271D01*
X146360989Y-67270773D01*
X146422893Y-67217451D01*
X146424563Y-67216252D01*
X146492740Y-67175890D01*
X146501603Y-67174625D01*
X146508767Y-67179999D01*
G37*
%TD.AperFunction*%
%TA.AperFunction,Conductor*%
G36*
X114805335Y-74456581D02*
G01*
X114931102Y-74582348D01*
X114934529Y-74590621D01*
X114931548Y-74598423D01*
X114868930Y-74668396D01*
X114829396Y-74731782D01*
X114805600Y-74793730D01*
X114805593Y-74793747D01*
X114805530Y-74793914D01*
X114805476Y-74794085D01*
X114805471Y-74794103D01*
X114782633Y-74868054D01*
X114782435Y-74868641D01*
X114749825Y-74957300D01*
X114743753Y-74963882D01*
X114734805Y-74964242D01*
X114734407Y-74964087D01*
X114518490Y-74875583D01*
X114512134Y-74869274D01*
X114512101Y-74869194D01*
X114511874Y-74868641D01*
X114423597Y-74653276D01*
X114423630Y-74644323D01*
X114429986Y-74638014D01*
X114430356Y-74637869D01*
X114519056Y-74605241D01*
X114519612Y-74605054D01*
X114593770Y-74582154D01*
X114655900Y-74558287D01*
X114719289Y-74518751D01*
X114789263Y-74456133D01*
X114797710Y-74453172D01*
X114805335Y-74456581D01*
G37*
%TD.AperFunction*%
%TA.AperFunction,Conductor*%
G36*
X114771728Y-79103708D02*
G01*
X114775709Y-79111729D01*
X114775736Y-79112524D01*
X114775737Y-79290627D01*
X114772310Y-79298900D01*
X114766591Y-79302045D01*
X114703520Y-79316150D01*
X114671811Y-79360276D01*
X114671811Y-79360278D01*
X114661733Y-79425898D01*
X114661718Y-79426057D01*
X114661716Y-79426078D01*
X114654500Y-79505553D01*
X114654163Y-79507471D01*
X114634373Y-79582728D01*
X114628955Y-79589857D01*
X114620082Y-79591067D01*
X114618597Y-79590568D01*
X114403513Y-79501861D01*
X114397171Y-79495539D01*
X114308521Y-79279257D01*
X114308554Y-79270304D01*
X114314302Y-79264265D01*
X114418150Y-79214654D01*
X114497836Y-79168280D01*
X114498335Y-79168006D01*
X114567186Y-79132452D01*
X114569409Y-79131579D01*
X114651624Y-79108697D01*
X114653952Y-79108299D01*
X114763242Y-79100851D01*
X114771728Y-79103708D01*
G37*
%TD.AperFunction*%
%TA.AperFunction,Conductor*%
G36*
X136308842Y-70279833D02*
G01*
X136309014Y-70280224D01*
X136399109Y-70495482D01*
X136399142Y-70504436D01*
X136399109Y-70504516D01*
X136309014Y-70719775D01*
X136302658Y-70726084D01*
X136293704Y-70726051D01*
X136293340Y-70725891D01*
X136207565Y-70686249D01*
X136207014Y-70685976D01*
X136138568Y-70649830D01*
X136138569Y-70649830D01*
X136138392Y-70649737D01*
X136138222Y-70649661D01*
X136138209Y-70649655D01*
X136104019Y-70634443D01*
X136077582Y-70622680D01*
X136055625Y-70617591D01*
X136004802Y-70605812D01*
X135911052Y-70600613D01*
X135902981Y-70596733D01*
X135900000Y-70588931D01*
X135900000Y-70411068D01*
X135903427Y-70402795D01*
X135911049Y-70399387D01*
X136004804Y-70394186D01*
X136077582Y-70377319D01*
X136138392Y-70350262D01*
X136207034Y-70314011D01*
X136207549Y-70313757D01*
X136293315Y-70274119D01*
X136302260Y-70273760D01*
X136308842Y-70279833D01*
G37*
%TD.AperFunction*%
%TA.AperFunction,Conductor*%
G36*
X134943039Y-49320185D02*
G01*
X134988794Y-49372989D01*
X135000000Y-49424499D01*
X135000000Y-59000000D01*
X126000000Y-59000000D01*
X126000000Y-56912499D01*
X127444749Y-56912499D01*
X127463670Y-57056209D01*
X127519137Y-57190122D01*
X127519138Y-57190124D01*
X127519139Y-57190125D01*
X127607379Y-57305121D01*
X127722375Y-57393361D01*
X127856291Y-57448830D01*
X128000000Y-57467750D01*
X128143709Y-57448830D01*
X128277625Y-57393361D01*
X128392621Y-57305121D01*
X128480861Y-57190125D01*
X128536330Y-57056209D01*
X128543730Y-56999999D01*
X131894354Y-56999999D01*
X131914860Y-57168872D01*
X131975182Y-57327930D01*
X132071815Y-57467927D01*
X132071816Y-57467928D01*
X132071817Y-57467929D01*
X132199148Y-57580734D01*
X132349775Y-57659790D01*
X132514944Y-57700500D01*
X132514945Y-57700500D01*
X132685055Y-57700500D01*
X132685056Y-57700500D01*
X132850225Y-57659790D01*
X133000852Y-57580734D01*
X133128183Y-57467929D01*
X133224818Y-57327930D01*
X133285140Y-57168872D01*
X133305645Y-57000000D01*
X133285140Y-56831128D01*
X133224818Y-56672070D01*
X133128183Y-56532071D01*
X133000852Y-56419266D01*
X132921513Y-56377625D01*
X132850224Y-56340209D01*
X132722098Y-56308630D01*
X132685056Y-56299500D01*
X132514944Y-56299500D01*
X132482284Y-56307549D01*
X132349775Y-56340209D01*
X132199149Y-56419265D01*
X132071815Y-56532072D01*
X131975182Y-56672069D01*
X131914860Y-56831127D01*
X131894354Y-56999999D01*
X128543730Y-56999999D01*
X128555250Y-56912500D01*
X128536330Y-56768791D01*
X128493428Y-56665215D01*
X128480862Y-56634877D01*
X128480861Y-56634876D01*
X128480861Y-56634875D01*
X128392621Y-56519879D01*
X128277625Y-56431639D01*
X128277624Y-56431638D01*
X128277622Y-56431637D01*
X128143709Y-56376170D01*
X128000000Y-56357249D01*
X127856290Y-56376170D01*
X127722377Y-56431637D01*
X127607379Y-56519879D01*
X127519137Y-56634877D01*
X127463670Y-56768790D01*
X127444749Y-56912499D01*
X126000000Y-56912499D01*
X126000000Y-56356082D01*
X126009439Y-56308630D01*
X126013221Y-56299500D01*
X126036330Y-56243709D01*
X126055250Y-56100000D01*
X126036330Y-55956291D01*
X126009439Y-55891369D01*
X126000000Y-55843917D01*
X126000000Y-52100000D01*
X126887520Y-52100000D01*
X126907398Y-52314526D01*
X126966356Y-52521742D01*
X127062385Y-52714595D01*
X127072911Y-52728533D01*
X127511359Y-52290084D01*
X127552738Y-52389981D01*
X127644905Y-52510095D01*
X127765019Y-52602262D01*
X127864913Y-52643639D01*
X127428912Y-53079639D01*
X127428913Y-53079641D01*
X127534603Y-53145082D01*
X127735504Y-53222911D01*
X127947281Y-53262500D01*
X128162719Y-53262500D01*
X128374495Y-53222911D01*
X128575393Y-53145084D01*
X128681085Y-53079640D01*
X128681085Y-53079639D01*
X128245086Y-52643639D01*
X128344981Y-52602262D01*
X128465095Y-52510095D01*
X128557262Y-52389981D01*
X128598639Y-52290086D01*
X129037087Y-52728534D01*
X129047614Y-52714596D01*
X129143643Y-52521742D01*
X129205474Y-52304428D01*
X129242753Y-52245335D01*
X129306062Y-52215777D01*
X129375302Y-52225139D01*
X129428488Y-52270448D01*
X129444006Y-52304428D01*
X129505887Y-52521921D01*
X129601963Y-52714865D01*
X129731849Y-52886863D01*
X129891131Y-53032068D01*
X129891133Y-53032069D01*
X129891134Y-53032070D01*
X130074386Y-53145535D01*
X130275367Y-53223395D01*
X130487232Y-53263000D01*
X130487234Y-53263000D01*
X130702766Y-53263000D01*
X130702768Y-53263000D01*
X130914633Y-53223395D01*
X131115614Y-53145535D01*
X131298866Y-53032070D01*
X131458149Y-52886864D01*
X131588038Y-52714863D01*
X131684111Y-52521924D01*
X131743095Y-52314616D01*
X131743095Y-52314607D01*
X131745732Y-52305342D01*
X131783011Y-52246249D01*
X131846321Y-52216691D01*
X131915561Y-52226053D01*
X131968747Y-52271362D01*
X131984265Y-52305342D01*
X132045887Y-52521921D01*
X132141963Y-52714865D01*
X132271849Y-52886863D01*
X132431131Y-53032068D01*
X132431133Y-53032069D01*
X132431134Y-53032070D01*
X132614386Y-53145535D01*
X132815367Y-53223395D01*
X133027232Y-53263000D01*
X133027234Y-53263000D01*
X133242766Y-53263000D01*
X133242768Y-53263000D01*
X133454633Y-53223395D01*
X133655614Y-53145535D01*
X133838866Y-53032070D01*
X133998149Y-52886864D01*
X134128038Y-52714863D01*
X134224111Y-52521924D01*
X134283095Y-52314616D01*
X134302982Y-52100000D01*
X134283095Y-51885384D01*
X134227477Y-51689905D01*
X134224112Y-51678078D01*
X134155257Y-51539800D01*
X134128038Y-51485137D01*
X134128036Y-51485134D01*
X133998150Y-51313136D01*
X133838868Y-51167931D01*
X133655614Y-51054465D01*
X133454633Y-50976605D01*
X133242768Y-50937000D01*
X133027232Y-50937000D01*
X132815367Y-50976604D01*
X132815367Y-50976605D01*
X132614385Y-51054465D01*
X132431131Y-51167931D01*
X132271849Y-51313136D01*
X132141963Y-51485134D01*
X132045887Y-51678078D01*
X131984266Y-51894657D01*
X131946987Y-51953750D01*
X131883677Y-51983308D01*
X131814438Y-51973946D01*
X131761251Y-51928636D01*
X131745734Y-51894657D01*
X131684112Y-51678078D01*
X131615257Y-51539800D01*
X131588038Y-51485137D01*
X131588036Y-51485134D01*
X131458150Y-51313136D01*
X131298868Y-51167931D01*
X131115614Y-51054465D01*
X130914633Y-50976605D01*
X130702768Y-50937000D01*
X130487232Y-50937000D01*
X130275367Y-50976604D01*
X130275367Y-50976605D01*
X130074385Y-51054465D01*
X129891131Y-51167931D01*
X129731849Y-51313136D01*
X129601963Y-51485134D01*
X129505887Y-51678078D01*
X129444006Y-51895571D01*
X129406727Y-51954664D01*
X129343418Y-51984222D01*
X129274178Y-51974860D01*
X129220991Y-51929550D01*
X129205474Y-51895571D01*
X129143643Y-51678257D01*
X129047614Y-51485403D01*
X129037087Y-51471464D01*
X128598638Y-51909912D01*
X128557262Y-51810019D01*
X128465095Y-51689905D01*
X128344981Y-51597738D01*
X128245084Y-51556360D01*
X128681086Y-51120359D01*
X128575391Y-51054915D01*
X128374495Y-50977088D01*
X128162719Y-50937500D01*
X127947281Y-50937500D01*
X127735504Y-50977088D01*
X127534608Y-51054915D01*
X127428912Y-51120359D01*
X127864913Y-51556360D01*
X127765019Y-51597738D01*
X127644905Y-51689905D01*
X127552738Y-51810019D01*
X127511360Y-51909913D01*
X127072912Y-51471465D01*
X127072910Y-51471465D01*
X127062386Y-51485403D01*
X126966356Y-51678257D01*
X126907398Y-51885473D01*
X126887520Y-52100000D01*
X126000000Y-52100000D01*
X126000000Y-49424500D01*
X126019685Y-49357461D01*
X126072489Y-49311706D01*
X126124000Y-49300500D01*
X134876000Y-49300500D01*
X134943039Y-49320185D01*
G37*
%TD.AperFunction*%
%TA.AperFunction,Conductor*%
G36*
X131602546Y-74523458D02*
G01*
X131608806Y-74529727D01*
X131699109Y-74745482D01*
X131699142Y-74754436D01*
X131699109Y-74754516D01*
X131609245Y-74969222D01*
X131602889Y-74975531D01*
X131593935Y-74975498D01*
X131593039Y-74975077D01*
X131507991Y-74930693D01*
X131506426Y-74929713D01*
X131441397Y-74881400D01*
X131384765Y-74839787D01*
X131315032Y-74810850D01*
X131220444Y-74801083D01*
X131212567Y-74796825D01*
X131209946Y-74789445D01*
X131209946Y-74612200D01*
X131213373Y-74603927D01*
X131221646Y-74600500D01*
X131229202Y-74600500D01*
X131229203Y-74600500D01*
X131232143Y-74599949D01*
X131234159Y-74599752D01*
X131310408Y-74598974D01*
X131382169Y-74593684D01*
X131443137Y-74580810D01*
X131511221Y-74557032D01*
X131593592Y-74523412D01*
X131602546Y-74523458D01*
G37*
%TD.AperFunction*%
%TA.AperFunction,Conductor*%
G36*
X90502476Y-62705686D02*
G01*
X90512091Y-62709669D01*
X90513495Y-62710171D01*
X90513507Y-62710176D01*
X90521669Y-62713096D01*
X90540320Y-62719770D01*
X90704543Y-62769586D01*
X90733627Y-62776871D01*
X90757468Y-62781613D01*
X90787120Y-62786011D01*
X90962562Y-62803291D01*
X90963994Y-62803432D01*
X90965502Y-62803552D01*
X90978951Y-62804535D01*
X90980489Y-62804620D01*
X90991105Y-62805132D01*
X90992628Y-62805179D01*
X91006093Y-62805500D01*
X91007600Y-62805509D01*
X92560265Y-62805500D01*
X92627304Y-62825185D01*
X92645612Y-62846313D01*
X92647739Y-62844187D01*
X93308634Y-63505081D01*
X93304839Y-63505627D01*
X93171438Y-63566549D01*
X93060605Y-63662587D01*
X92981318Y-63785960D01*
X92958866Y-63862419D01*
X92335073Y-63238625D01*
X92335072Y-63238626D01*
X92276399Y-63322422D01*
X92176569Y-63536507D01*
X92115430Y-63764681D01*
X92094842Y-64000000D01*
X92115430Y-64235318D01*
X92176569Y-64463492D01*
X92276400Y-64677580D01*
X92335073Y-64761373D01*
X92958866Y-64137579D01*
X92981318Y-64214040D01*
X93060605Y-64337413D01*
X93171438Y-64433451D01*
X93304839Y-64494373D01*
X93308633Y-64494918D01*
X92688625Y-65114925D01*
X92772420Y-65173599D01*
X92965465Y-65263618D01*
X93017904Y-65309790D01*
X93037056Y-65376984D01*
X93016840Y-65443865D01*
X92963675Y-65489200D01*
X92913060Y-65500000D01*
X91006093Y-65500000D01*
X90993939Y-65499403D01*
X90817065Y-65481982D01*
X90793224Y-65477240D01*
X90629001Y-65427424D01*
X90606544Y-65418122D01*
X90455201Y-65337227D01*
X90434990Y-65323722D01*
X90345835Y-65250554D01*
X90306501Y-65192808D01*
X90300500Y-65154701D01*
X90300500Y-62845297D01*
X90320185Y-62778258D01*
X90345828Y-62749449D01*
X90376361Y-62724391D01*
X90440667Y-62697081D01*
X90502476Y-62705686D01*
G37*
%TD.AperFunction*%
%TA.AperFunction,Conductor*%
G36*
X105245043Y-58825185D02*
G01*
X105290798Y-58877989D01*
X105301100Y-58944446D01*
X105294354Y-58999999D01*
X105314860Y-59168872D01*
X105375182Y-59327930D01*
X105471815Y-59467927D01*
X105471816Y-59467928D01*
X105471817Y-59467929D01*
X105599148Y-59580734D01*
X105749775Y-59659790D01*
X105914944Y-59700500D01*
X105914945Y-59700500D01*
X106085055Y-59700500D01*
X106085056Y-59700500D01*
X106250225Y-59659790D01*
X106400852Y-59580734D01*
X106528183Y-59467929D01*
X106624818Y-59327930D01*
X106685140Y-59168872D01*
X106705645Y-59000000D01*
X106703195Y-58979824D01*
X106698900Y-58944446D01*
X106710361Y-58875523D01*
X106757265Y-58823737D01*
X106821996Y-58805500D01*
X109895754Y-58805500D01*
X109962793Y-58825185D01*
X110008548Y-58877989D01*
X110011696Y-58885530D01*
X110068115Y-59034298D01*
X110075182Y-59052930D01*
X110138903Y-59145245D01*
X110160785Y-59211597D01*
X110143320Y-59279248D01*
X110092053Y-59326719D01*
X110066530Y-59336079D01*
X110049777Y-59340208D01*
X109899149Y-59419265D01*
X109771815Y-59532072D01*
X109675182Y-59672069D01*
X109614860Y-59831127D01*
X109594354Y-60000000D01*
X109614860Y-60168872D01*
X109675182Y-60327930D01*
X109771815Y-60467927D01*
X109771816Y-60467928D01*
X109771817Y-60467929D01*
X109899148Y-60580734D01*
X110049775Y-60659790D01*
X110214944Y-60700500D01*
X110214945Y-60700500D01*
X110385055Y-60700500D01*
X110385056Y-60700500D01*
X110550225Y-60659790D01*
X110700852Y-60580734D01*
X110828183Y-60467929D01*
X110924818Y-60327930D01*
X110985140Y-60168872D01*
X111005645Y-60000000D01*
X110985140Y-59831128D01*
X110924818Y-59672070D01*
X110861097Y-59579755D01*
X110839214Y-59513403D01*
X110856679Y-59445751D01*
X110907946Y-59398281D01*
X110933474Y-59388919D01*
X110939813Y-59387356D01*
X110950225Y-59384790D01*
X111100852Y-59305734D01*
X111228183Y-59192929D01*
X111324818Y-59052930D01*
X111385140Y-58893872D01*
X111388304Y-58885530D01*
X111430481Y-58829827D01*
X111496079Y-58805769D01*
X111504246Y-58805500D01*
X113570500Y-58805500D01*
X113637539Y-58825185D01*
X113683294Y-58877989D01*
X113694500Y-58929500D01*
X113694500Y-59841741D01*
X113694552Y-59843791D01*
X113695176Y-59862054D01*
X113695297Y-59864138D01*
X113696272Y-59878501D01*
X113696460Y-59880550D01*
X113698296Y-59898711D01*
X113698551Y-59900739D01*
X113713339Y-60011120D01*
X113713615Y-60013179D01*
X113714020Y-60015185D01*
X113714024Y-60015205D01*
X113721255Y-60050963D01*
X113721662Y-60052975D01*
X113722194Y-60054930D01*
X113722199Y-60054948D01*
X113729767Y-60082720D01*
X113730308Y-60084704D01*
X113730979Y-60086647D01*
X113730981Y-60086653D01*
X113742894Y-60121144D01*
X113742901Y-60121163D01*
X113743570Y-60123099D01*
X113744366Y-60124987D01*
X113744372Y-60125002D01*
X113784404Y-60219925D01*
X113784413Y-60219944D01*
X113785212Y-60221839D01*
X113803451Y-60258136D01*
X113804490Y-60259900D01*
X113804499Y-60259917D01*
X113819099Y-60284711D01*
X113820142Y-60286482D01*
X113843024Y-60320025D01*
X113844306Y-60321659D01*
X113844308Y-60321662D01*
X113877260Y-60363670D01*
X113909161Y-60404337D01*
X113913924Y-60409641D01*
X113944067Y-60472672D01*
X113940321Y-60528481D01*
X113927424Y-60570997D01*
X113918121Y-60593455D01*
X113837227Y-60744798D01*
X113823722Y-60765010D01*
X113714854Y-60897666D01*
X113697666Y-60914854D01*
X113628213Y-60971853D01*
X113563903Y-60999166D01*
X113549548Y-61000000D01*
X105177160Y-61000000D01*
X105110121Y-60980315D01*
X105064366Y-60927511D01*
X105054221Y-60892186D01*
X105036330Y-60756291D01*
X104980861Y-60622375D01*
X104892621Y-60507379D01*
X104777625Y-60419139D01*
X104777624Y-60419138D01*
X104777622Y-60419137D01*
X104643709Y-60363670D01*
X104499999Y-60344749D01*
X104356290Y-60363670D01*
X104222377Y-60419137D01*
X104107379Y-60507379D01*
X104019137Y-60622377D01*
X103963670Y-60756290D01*
X103945779Y-60892186D01*
X103917512Y-60956082D01*
X103859188Y-60994553D01*
X103822840Y-61000000D01*
X102999999Y-61000000D01*
X102322626Y-61677373D01*
X102261303Y-61710858D01*
X102191611Y-61705874D01*
X102135678Y-61664002D01*
X102112007Y-61605879D01*
X102098830Y-61505791D01*
X102043361Y-61371875D01*
X101955121Y-61256879D01*
X101840125Y-61168639D01*
X101840124Y-61168638D01*
X101840122Y-61168637D01*
X101706209Y-61113170D01*
X101562499Y-61094249D01*
X101418790Y-61113170D01*
X101284877Y-61168637D01*
X101169879Y-61256879D01*
X101081637Y-61371877D01*
X101026170Y-61505790D01*
X101007249Y-61649499D01*
X101026170Y-61793209D01*
X101081637Y-61927122D01*
X101081638Y-61927124D01*
X101081639Y-61927125D01*
X101169879Y-62042121D01*
X101284875Y-62130361D01*
X101418791Y-62185830D01*
X101518879Y-62199007D01*
X101582774Y-62227272D01*
X101621245Y-62285596D01*
X101622077Y-62355461D01*
X101590373Y-62409626D01*
X98797202Y-65202797D01*
X98788186Y-65210969D01*
X98650797Y-65323722D01*
X98630585Y-65337227D01*
X98479243Y-65418121D01*
X98456785Y-65427424D01*
X98292562Y-65477240D01*
X98268721Y-65481982D01*
X98091847Y-65499403D01*
X98079693Y-65500000D01*
X93986940Y-65500000D01*
X93919901Y-65480315D01*
X93874146Y-65427511D01*
X93864202Y-65358353D01*
X93893227Y-65294797D01*
X93934535Y-65263618D01*
X94127576Y-65173600D01*
X94211373Y-65114925D01*
X93591365Y-64494918D01*
X93595161Y-64494373D01*
X93728562Y-64433451D01*
X93839395Y-64337413D01*
X93918682Y-64214040D01*
X93941132Y-64137580D01*
X94564925Y-64761373D01*
X94623600Y-64677576D01*
X94723430Y-64463492D01*
X94784569Y-64235318D01*
X94805157Y-64000000D01*
X94784569Y-63764681D01*
X94723430Y-63536507D01*
X94623599Y-63322421D01*
X94564926Y-63238626D01*
X94564925Y-63238625D01*
X93941132Y-63862418D01*
X93918682Y-63785960D01*
X93839395Y-63662587D01*
X93728562Y-63566549D01*
X93595161Y-63505627D01*
X93591364Y-63505081D01*
X94252260Y-62844187D01*
X94254530Y-62846457D01*
X94278596Y-62821620D01*
X94339734Y-62805500D01*
X96079693Y-62805500D01*
X96081230Y-62805472D01*
X96094681Y-62805132D01*
X96096197Y-62805067D01*
X96106835Y-62804535D01*
X96108334Y-62804433D01*
X96121792Y-62803432D01*
X96123318Y-62803291D01*
X96297153Y-62786160D01*
X96297152Y-62786160D01*
X96298666Y-62786011D01*
X96328318Y-62781613D01*
X96352159Y-62776871D01*
X96381243Y-62769586D01*
X96545466Y-62719770D01*
X96573701Y-62709667D01*
X96596159Y-62700364D01*
X96623255Y-62687548D01*
X96774597Y-62606654D01*
X96800310Y-62591242D01*
X96820522Y-62577737D01*
X96844605Y-62559876D01*
X96981994Y-62447123D01*
X96983164Y-62446127D01*
X96993352Y-62437325D01*
X96994469Y-62436325D01*
X97002368Y-62429153D01*
X97003491Y-62428097D01*
X97013223Y-62418818D01*
X97014289Y-62417764D01*
X99876789Y-59555250D01*
X99992032Y-59440006D01*
X100053353Y-59406523D01*
X100123044Y-59411507D01*
X100155198Y-59429314D01*
X100222374Y-59480861D01*
X100277843Y-59503836D01*
X100356291Y-59536330D01*
X100500000Y-59555250D01*
X100643709Y-59536330D01*
X100777625Y-59480861D01*
X100892621Y-59392621D01*
X100980861Y-59277625D01*
X101036330Y-59143709D01*
X101055250Y-59000000D01*
X101048099Y-58945684D01*
X101058864Y-58876651D01*
X101105244Y-58824395D01*
X101171038Y-58805500D01*
X105178004Y-58805500D01*
X105245043Y-58825185D01*
G37*
%TD.AperFunction*%
%TA.AperFunction,Conductor*%
G36*
X92980099Y-59519685D02*
G01*
X93025854Y-59572489D01*
X93035798Y-59641647D01*
X93006773Y-59705203D01*
X92965465Y-59736382D01*
X92772422Y-59826399D01*
X92688626Y-59885072D01*
X92688625Y-59885073D01*
X93308634Y-60505081D01*
X93304839Y-60505627D01*
X93171438Y-60566549D01*
X93060605Y-60662587D01*
X92981318Y-60785960D01*
X92958867Y-60862418D01*
X92335073Y-60238625D01*
X92335072Y-60238625D01*
X92276399Y-60322422D01*
X92176569Y-60536507D01*
X92115430Y-60764681D01*
X92094842Y-61000000D01*
X92115430Y-61235318D01*
X92176569Y-61463492D01*
X92276400Y-61677580D01*
X92335073Y-61761373D01*
X92958866Y-61137579D01*
X92981318Y-61214040D01*
X93060605Y-61337413D01*
X93171438Y-61433451D01*
X93304839Y-61494373D01*
X93308633Y-61494918D01*
X92688625Y-62114925D01*
X92772420Y-62173599D01*
X92965465Y-62263618D01*
X93017904Y-62309790D01*
X93037056Y-62376984D01*
X93016840Y-62443865D01*
X92963675Y-62489200D01*
X92913060Y-62500000D01*
X91006093Y-62500000D01*
X90993939Y-62499403D01*
X90817065Y-62481982D01*
X90793224Y-62477240D01*
X90629001Y-62427424D01*
X90606544Y-62418122D01*
X90455201Y-62337227D01*
X90434990Y-62323722D01*
X90345835Y-62250554D01*
X90306501Y-62192808D01*
X90300500Y-62154701D01*
X90300500Y-59845297D01*
X90320185Y-59778258D01*
X90345832Y-59749446D01*
X90434995Y-59676272D01*
X90455195Y-59662775D01*
X90606549Y-59581875D01*
X90628994Y-59572577D01*
X90793232Y-59522757D01*
X90817056Y-59518018D01*
X90993938Y-59500597D01*
X91006093Y-59500000D01*
X92913060Y-59500000D01*
X92980099Y-59519685D01*
G37*
%TD.AperFunction*%
%TA.AperFunction,Conductor*%
G36*
X115506061Y-55800597D02*
G01*
X115682941Y-55818018D01*
X115706769Y-55822757D01*
X115871001Y-55872576D01*
X115893453Y-55881877D01*
X115904305Y-55887677D01*
X116044798Y-55962772D01*
X116065010Y-55976277D01*
X116197666Y-56085145D01*
X116214854Y-56102333D01*
X116323722Y-56234989D01*
X116337227Y-56255201D01*
X116418121Y-56406543D01*
X116427424Y-56429001D01*
X116477240Y-56593224D01*
X116481982Y-56617065D01*
X116499403Y-56793938D01*
X116500000Y-56806092D01*
X116500000Y-58102335D01*
X116499460Y-58113896D01*
X116483697Y-58282226D01*
X116479404Y-58304946D01*
X116434274Y-58461826D01*
X116425838Y-58483354D01*
X116352367Y-58629128D01*
X116340081Y-58648716D01*
X116237280Y-58782942D01*
X116229821Y-58791792D01*
X114922814Y-60203360D01*
X114910836Y-60214684D01*
X114821822Y-60288271D01*
X114793911Y-60305683D01*
X114696279Y-60349838D01*
X114664775Y-60359297D01*
X114558967Y-60376228D01*
X114526081Y-60377071D01*
X114419546Y-60365584D01*
X114387597Y-60357751D01*
X114287827Y-60318654D01*
X114259062Y-60302695D01*
X114173088Y-60238744D01*
X114149531Y-60215783D01*
X114083394Y-60131471D01*
X114066703Y-60103125D01*
X114025061Y-60004385D01*
X114016415Y-59972656D01*
X114001096Y-59858188D01*
X114000000Y-59841741D01*
X114000000Y-59503049D01*
X114000000Y-59503048D01*
X114000000Y-59500000D01*
X114000000Y-58500000D01*
X113000000Y-58500000D01*
X112996950Y-58500000D01*
X111449445Y-58500000D01*
X111382406Y-58480315D01*
X111336651Y-58427511D01*
X111333503Y-58419970D01*
X111324818Y-58397070D01*
X111228184Y-58257072D01*
X111228183Y-58257071D01*
X111100852Y-58144266D01*
X111086588Y-58136780D01*
X110950224Y-58065209D01*
X110825764Y-58034533D01*
X110785056Y-58024500D01*
X110614944Y-58024500D01*
X110582284Y-58032549D01*
X110449775Y-58065209D01*
X110299149Y-58144265D01*
X110171815Y-58257072D01*
X110075181Y-58397070D01*
X110066497Y-58419970D01*
X110024320Y-58475673D01*
X109958722Y-58499731D01*
X109950555Y-58500000D01*
X106539009Y-58500000D01*
X106471970Y-58480315D01*
X106456782Y-58468815D01*
X106400852Y-58419266D01*
X106250226Y-58340210D01*
X106167640Y-58319855D01*
X106085056Y-58299500D01*
X105914944Y-58299500D01*
X105859887Y-58313070D01*
X105749773Y-58340210D01*
X105599147Y-58419266D01*
X105543218Y-58468815D01*
X105479985Y-58498537D01*
X105460991Y-58500000D01*
X100917264Y-58500000D01*
X100914214Y-58500000D01*
X100731419Y-58500000D01*
X100643709Y-58463670D01*
X100643708Y-58463669D01*
X100643706Y-58463669D01*
X100499999Y-58444749D01*
X100356290Y-58463670D01*
X100222377Y-58519137D01*
X100107379Y-58607379D01*
X100019137Y-58722377D01*
X99963670Y-58856290D01*
X99942619Y-59016185D01*
X99938907Y-59015696D01*
X99932420Y-59057249D01*
X99907937Y-59092061D01*
X96797202Y-62202797D01*
X96788186Y-62210969D01*
X96650797Y-62323722D01*
X96630585Y-62337227D01*
X96479243Y-62418121D01*
X96456785Y-62427424D01*
X96292562Y-62477240D01*
X96268721Y-62481982D01*
X96091847Y-62499403D01*
X96079693Y-62500000D01*
X93986940Y-62500000D01*
X93919901Y-62480315D01*
X93874146Y-62427511D01*
X93864202Y-62358353D01*
X93893227Y-62294797D01*
X93934535Y-62263618D01*
X94127576Y-62173600D01*
X94211373Y-62114925D01*
X93591365Y-61494918D01*
X93595161Y-61494373D01*
X93728562Y-61433451D01*
X93839395Y-61337413D01*
X93918682Y-61214040D01*
X93941133Y-61137580D01*
X94564925Y-61761373D01*
X94623600Y-61677576D01*
X94723430Y-61463492D01*
X94784569Y-61235318D01*
X94805157Y-61000000D01*
X94784569Y-60764681D01*
X94723430Y-60536507D01*
X94623599Y-60322421D01*
X94564926Y-60238626D01*
X94564925Y-60238625D01*
X93941132Y-60862418D01*
X93918682Y-60785960D01*
X93839395Y-60662587D01*
X93728562Y-60566549D01*
X93595161Y-60505627D01*
X93591364Y-60505081D01*
X94211373Y-59885073D01*
X94211373Y-59885072D01*
X94127580Y-59826400D01*
X93934535Y-59736382D01*
X93882096Y-59690210D01*
X93862944Y-59623016D01*
X93883160Y-59556135D01*
X93936325Y-59510800D01*
X93986940Y-59500000D01*
X94066271Y-59500000D01*
X94069424Y-59500000D01*
X94500000Y-59500000D01*
X94861998Y-59117317D01*
X97054053Y-56800000D01*
X98394749Y-56800000D01*
X98413670Y-56943709D01*
X98469137Y-57077622D01*
X98469138Y-57077624D01*
X98469139Y-57077625D01*
X98557379Y-57192621D01*
X98672375Y-57280861D01*
X98806291Y-57336330D01*
X98950000Y-57355250D01*
X98966186Y-57357381D01*
X98965963Y-57359072D01*
X99014398Y-57366624D01*
X99066655Y-57413003D01*
X99085542Y-57480272D01*
X99076113Y-57526249D01*
X99063670Y-57556289D01*
X99044749Y-57700000D01*
X99063670Y-57843709D01*
X99119137Y-57977622D01*
X99119138Y-57977624D01*
X99119139Y-57977625D01*
X99207379Y-58092621D01*
X99322375Y-58180861D01*
X99456291Y-58236330D01*
X99600000Y-58255250D01*
X99743709Y-58236330D01*
X99877625Y-58180861D01*
X99992621Y-58092621D01*
X100080861Y-57977625D01*
X100136330Y-57843709D01*
X100155250Y-57700000D01*
X100136330Y-57556291D01*
X100080861Y-57422375D01*
X99992621Y-57307379D01*
X99877625Y-57219139D01*
X99877624Y-57219138D01*
X99877622Y-57219137D01*
X99831420Y-57200000D01*
X106244749Y-57200000D01*
X106263670Y-57343709D01*
X106319137Y-57477622D01*
X106319138Y-57477624D01*
X106319139Y-57477625D01*
X106407379Y-57592621D01*
X106522375Y-57680861D01*
X106656291Y-57736330D01*
X106800000Y-57755250D01*
X106943709Y-57736330D01*
X107077625Y-57680861D01*
X107192621Y-57592621D01*
X107280861Y-57477625D01*
X107336330Y-57343709D01*
X107355250Y-57200000D01*
X107336330Y-57056291D01*
X107280861Y-56922375D01*
X107192621Y-56807379D01*
X107077625Y-56719139D01*
X107077624Y-56719138D01*
X107077622Y-56719137D01*
X106943709Y-56663670D01*
X106800000Y-56644749D01*
X106656290Y-56663670D01*
X106522377Y-56719137D01*
X106407379Y-56807379D01*
X106319137Y-56922377D01*
X106263670Y-57056290D01*
X106244749Y-57200000D01*
X99831420Y-57200000D01*
X99743709Y-57163670D01*
X99583814Y-57142619D01*
X99584036Y-57140928D01*
X99535590Y-57133370D01*
X99483337Y-57086986D01*
X99464457Y-57019715D01*
X99473885Y-56973751D01*
X99486330Y-56943709D01*
X99505250Y-56800000D01*
X99486330Y-56656291D01*
X99430861Y-56522375D01*
X99342621Y-56407379D01*
X99227625Y-56319139D01*
X99227624Y-56319138D01*
X99227622Y-56319137D01*
X99093709Y-56263670D01*
X98949999Y-56244749D01*
X98806290Y-56263670D01*
X98672377Y-56319137D01*
X98557379Y-56407379D01*
X98469137Y-56522377D01*
X98413670Y-56656290D01*
X98394749Y-56800000D01*
X97054053Y-56800000D01*
X97699778Y-56117376D01*
X97708881Y-56108685D01*
X97848234Y-55988537D01*
X97868855Y-55974128D01*
X98024061Y-55887672D01*
X98047155Y-55877729D01*
X98216625Y-55824387D01*
X98241253Y-55819310D01*
X98412661Y-55801827D01*
X98424302Y-55800640D01*
X98436884Y-55800000D01*
X115493907Y-55800000D01*
X115506061Y-55800597D01*
G37*
%TD.AperFunction*%
%TA.AperFunction,Conductor*%
G36*
X126719139Y-69077625D02*
G01*
X126807379Y-69192621D01*
X126922375Y-69280861D01*
X126964929Y-69298487D01*
X126982614Y-69311394D01*
X127075238Y-69355643D01*
X127144170Y-69395757D01*
X127148968Y-69398470D01*
X127148923Y-69398453D01*
X127149619Y-69398838D01*
X127150740Y-69399472D01*
X127151257Y-69399756D01*
X127158170Y-69403440D01*
X127227008Y-69438988D01*
X127255526Y-69451909D01*
X127257757Y-69452785D01*
X127287500Y-69462734D01*
X127369704Y-69485613D01*
X127400038Y-69492413D01*
X127402379Y-69492814D01*
X127419033Y-69494802D01*
X127436567Y-69500500D01*
X127468481Y-69500500D01*
X127491978Y-69500500D01*
X127542467Y-69503941D01*
X127552884Y-69504472D01*
X127553680Y-69504499D01*
X127571099Y-69504593D01*
X127590500Y-69500500D01*
X127933108Y-69500500D01*
X127634107Y-69799500D01*
X126164076Y-69799500D01*
X126180861Y-69777625D01*
X126206729Y-69715172D01*
X126221879Y-69689741D01*
X126254489Y-69601082D01*
X126257245Y-69593265D01*
X126257443Y-69592678D01*
X126259864Y-69585183D01*
X126279732Y-69520850D01*
X126289424Y-69495616D01*
X126299516Y-69479436D01*
X126344536Y-69429129D01*
X126355892Y-69410500D01*
X126710243Y-69056149D01*
X126719139Y-69077625D01*
G37*
%TD.AperFunction*%
%TA.AperFunction,Conductor*%
G36*
X135000000Y-59300000D02*
G01*
X149575500Y-59300000D01*
X149642539Y-59319685D01*
X149688294Y-59372489D01*
X149699500Y-59424000D01*
X149699500Y-62430756D01*
X149696756Y-62447577D01*
X149699368Y-62504078D01*
X149699500Y-62509804D01*
X149699500Y-62528818D01*
X149701181Y-62543307D01*
X149702415Y-62569993D01*
X149705213Y-62576330D01*
X149713666Y-62603626D01*
X149714938Y-62610434D01*
X149728997Y-62633140D01*
X149737002Y-62648327D01*
X149747792Y-62672763D01*
X149752688Y-62677659D01*
X149770434Y-62700063D01*
X149774081Y-62705952D01*
X149795396Y-62722048D01*
X149808351Y-62733322D01*
X150663181Y-63588152D01*
X150696666Y-63649475D01*
X150699500Y-63675833D01*
X150699500Y-84324166D01*
X150679815Y-84391205D01*
X150663181Y-84411847D01*
X149836475Y-85238552D01*
X149822639Y-85248508D01*
X149784523Y-85290318D01*
X149780573Y-85294454D01*
X149767141Y-85307886D01*
X149758087Y-85319317D01*
X149740083Y-85339067D01*
X149737578Y-85345534D01*
X149724259Y-85370802D01*
X149720343Y-85376518D01*
X149714228Y-85402517D01*
X149709151Y-85418913D01*
X149699500Y-85443826D01*
X149699500Y-85450752D01*
X149696206Y-85479142D01*
X149694621Y-85485880D01*
X149698311Y-85512333D01*
X149699500Y-85529464D01*
X149699500Y-94996948D01*
X149699351Y-95003033D01*
X149681984Y-95356531D01*
X149680791Y-95368640D01*
X149629308Y-95715712D01*
X149626934Y-95727648D01*
X149541680Y-96068001D01*
X149538147Y-96079646D01*
X149419945Y-96409996D01*
X149415289Y-96421237D01*
X149265270Y-96738429D01*
X149259533Y-96749162D01*
X149079156Y-97050102D01*
X149072396Y-97060220D01*
X148863377Y-97342049D01*
X148855657Y-97351455D01*
X148620033Y-97611428D01*
X148611428Y-97620033D01*
X148351455Y-97855657D01*
X148342049Y-97863377D01*
X148060220Y-98072396D01*
X148050102Y-98079156D01*
X147749162Y-98259533D01*
X147738429Y-98265270D01*
X147421237Y-98415289D01*
X147409996Y-98419945D01*
X147079646Y-98538147D01*
X147068001Y-98541680D01*
X146727648Y-98626934D01*
X146715712Y-98629308D01*
X146368640Y-98680791D01*
X146356531Y-98681984D01*
X146023016Y-98698369D01*
X146003031Y-98699351D01*
X145996949Y-98699500D01*
X137264201Y-98699500D01*
X137258771Y-98697905D01*
X137247295Y-98699500D01*
X137094594Y-98699500D01*
X137085534Y-98696839D01*
X137079049Y-98699224D01*
X137070787Y-98699500D01*
X136929213Y-98699500D01*
X136919081Y-98696524D01*
X136905406Y-98699500D01*
X136752705Y-98699500D01*
X136748100Y-98698148D01*
X136735799Y-98699500D01*
X130264201Y-98699500D01*
X130258771Y-98697905D01*
X130247295Y-98699500D01*
X130094594Y-98699500D01*
X130085534Y-98696839D01*
X130079049Y-98699224D01*
X130070787Y-98699500D01*
X129929213Y-98699500D01*
X129919081Y-98696524D01*
X129905406Y-98699500D01*
X129752705Y-98699500D01*
X129748100Y-98698148D01*
X129735799Y-98699500D01*
X94003051Y-98699500D01*
X93996968Y-98699351D01*
X93967533Y-98697905D01*
X93643468Y-98681984D01*
X93631359Y-98680791D01*
X93284287Y-98629308D01*
X93272351Y-98626934D01*
X92931998Y-98541680D01*
X92920353Y-98538147D01*
X92590003Y-98419945D01*
X92578762Y-98415289D01*
X92261570Y-98265270D01*
X92250842Y-98259535D01*
X91949897Y-98079156D01*
X91939779Y-98072396D01*
X91657950Y-97863377D01*
X91648544Y-97855657D01*
X91604019Y-97815302D01*
X129700000Y-97815302D01*
X129715412Y-97897750D01*
X129774457Y-97993110D01*
X129863962Y-98060701D01*
X129971840Y-98091395D01*
X130083521Y-98081046D01*
X130183922Y-98031052D01*
X130259484Y-97948166D01*
X130300000Y-97843580D01*
X130300000Y-97815302D01*
X136700000Y-97815302D01*
X136715412Y-97897750D01*
X136774457Y-97993110D01*
X136863962Y-98060701D01*
X136971840Y-98091395D01*
X137083521Y-98081046D01*
X137183922Y-98031052D01*
X137259484Y-97948166D01*
X137300000Y-97843580D01*
X137300000Y-97059698D01*
X137284588Y-96977250D01*
X137225543Y-96881890D01*
X137136038Y-96814299D01*
X137028160Y-96783605D01*
X136916479Y-96793954D01*
X136816078Y-96843948D01*
X136740516Y-96926834D01*
X136700000Y-97031420D01*
X136700000Y-97815302D01*
X130300000Y-97815302D01*
X130300000Y-97059698D01*
X130284588Y-96977250D01*
X130225543Y-96881890D01*
X130136038Y-96814299D01*
X130028160Y-96783605D01*
X129916479Y-96793954D01*
X129816078Y-96843948D01*
X129740516Y-96926834D01*
X129700000Y-97031420D01*
X129700000Y-97815302D01*
X91604019Y-97815302D01*
X91532295Y-97750296D01*
X91388563Y-97620025D01*
X91379974Y-97611436D01*
X91144342Y-97351455D01*
X91136622Y-97342049D01*
X90927603Y-97060220D01*
X90920843Y-97050102D01*
X90740459Y-96749150D01*
X90734729Y-96738429D01*
X90727708Y-96723585D01*
X90618805Y-96493326D01*
X90618764Y-96493070D01*
X90617273Y-96490087D01*
X90584710Y-96421237D01*
X90580054Y-96409996D01*
X90545457Y-96313306D01*
X90545319Y-96310939D01*
X90543817Y-96308722D01*
X90466806Y-96093490D01*
X90600500Y-96093490D01*
X90639375Y-96276385D01*
X90715427Y-96447200D01*
X90825331Y-96598470D01*
X90964285Y-96723585D01*
X91126215Y-96817075D01*
X91304044Y-96874855D01*
X91443380Y-96889500D01*
X91536620Y-96889500D01*
X91675956Y-96874855D01*
X91853785Y-96817075D01*
X92015715Y-96723585D01*
X92154669Y-96598470D01*
X92264573Y-96447200D01*
X92340625Y-96276385D01*
X92379500Y-96093490D01*
X92379500Y-95906510D01*
X92340625Y-95723615D01*
X92264573Y-95552800D01*
X92154669Y-95401530D01*
X92015715Y-95276415D01*
X91853785Y-95182925D01*
X91675956Y-95125145D01*
X91536620Y-95110500D01*
X91443380Y-95110500D01*
X91304044Y-95125145D01*
X91126215Y-95182925D01*
X90964285Y-95276415D01*
X90825331Y-95401530D01*
X90715427Y-95552800D01*
X90639375Y-95723615D01*
X90600500Y-95906510D01*
X90600500Y-96093490D01*
X90466806Y-96093490D01*
X90461852Y-96079645D01*
X90458319Y-96068001D01*
X90373062Y-95727635D01*
X90370691Y-95715712D01*
X90319208Y-95368640D01*
X90318015Y-95356531D01*
X90314079Y-95276415D01*
X90300647Y-95002992D01*
X90300500Y-94996985D01*
X90300500Y-94952405D01*
X90300500Y-94952404D01*
X90300500Y-94300000D01*
X104544750Y-94300000D01*
X104563670Y-94443709D01*
X104619139Y-94577625D01*
X104707379Y-94692621D01*
X104822375Y-94780861D01*
X104956291Y-94836330D01*
X105100000Y-94855250D01*
X105243709Y-94836330D01*
X105377625Y-94780861D01*
X105492621Y-94692621D01*
X105580861Y-94577625D01*
X105636330Y-94443709D01*
X105655250Y-94300000D01*
X105636330Y-94156291D01*
X105580861Y-94022375D01*
X105492621Y-93907379D01*
X105377625Y-93819139D01*
X105243709Y-93763670D01*
X105100000Y-93744750D01*
X104956291Y-93763670D01*
X104822375Y-93819139D01*
X104707379Y-93907379D01*
X104619139Y-94022375D01*
X104563670Y-94156291D01*
X104544750Y-94300000D01*
X90300500Y-94300000D01*
X90300500Y-93000000D01*
X92294571Y-93000000D01*
X92314244Y-93212310D01*
X92372595Y-93417389D01*
X92467634Y-93608255D01*
X92596128Y-93778407D01*
X92753698Y-93922052D01*
X92934981Y-94034298D01*
X93133802Y-94111321D01*
X93343390Y-94150500D01*
X93556610Y-94150500D01*
X93766198Y-94111321D01*
X93965019Y-94034298D01*
X94146302Y-93922052D01*
X94303872Y-93778407D01*
X94414826Y-93631482D01*
X118270500Y-93631482D01*
X118309692Y-93891508D01*
X118387202Y-94142788D01*
X118501298Y-94379710D01*
X118649430Y-94596980D01*
X118828290Y-94789746D01*
X119033883Y-94953701D01*
X119261616Y-95085183D01*
X119506402Y-95181254D01*
X119762772Y-95239769D01*
X119959346Y-95254500D01*
X120090654Y-95254500D01*
X120287228Y-95239769D01*
X120543598Y-95181254D01*
X120788384Y-95085183D01*
X121016117Y-94953701D01*
X121221710Y-94789746D01*
X121270187Y-94737500D01*
X130569702Y-94737500D01*
X130590762Y-94870469D01*
X130651882Y-94990423D01*
X130747077Y-95085618D01*
X130867031Y-95146738D01*
X130966549Y-95162500D01*
X131033451Y-95162500D01*
X131132969Y-95146738D01*
X131252923Y-95085618D01*
X131348118Y-94990423D01*
X131409238Y-94870469D01*
X131430298Y-94737500D01*
X135569702Y-94737500D01*
X135590762Y-94870469D01*
X135651882Y-94990423D01*
X135747077Y-95085618D01*
X135867031Y-95146738D01*
X135966549Y-95162500D01*
X136033451Y-95162500D01*
X136132969Y-95146738D01*
X136252923Y-95085618D01*
X136348118Y-94990423D01*
X136409238Y-94870469D01*
X136430298Y-94737500D01*
X136409238Y-94604531D01*
X136348118Y-94484577D01*
X136252923Y-94389382D01*
X136132969Y-94328262D01*
X136033451Y-94312500D01*
X135966549Y-94312500D01*
X135867031Y-94328262D01*
X135747077Y-94389382D01*
X135651882Y-94484577D01*
X135590762Y-94604531D01*
X135569702Y-94737500D01*
X131430298Y-94737500D01*
X131409238Y-94604531D01*
X131348118Y-94484577D01*
X131252923Y-94389382D01*
X131132969Y-94328262D01*
X131033451Y-94312500D01*
X130966549Y-94312500D01*
X130867031Y-94328262D01*
X130747077Y-94389382D01*
X130651882Y-94484577D01*
X130590762Y-94604531D01*
X130569702Y-94737500D01*
X121270187Y-94737500D01*
X121400570Y-94596980D01*
X121548702Y-94379710D01*
X121662798Y-94142788D01*
X121740308Y-93891508D01*
X121779500Y-93631482D01*
X121779500Y-93368518D01*
X121769173Y-93300000D01*
X131144750Y-93300000D01*
X131163670Y-93443709D01*
X131219139Y-93577625D01*
X131307379Y-93692621D01*
X131422375Y-93780861D01*
X131556291Y-93836330D01*
X131700000Y-93855250D01*
X131843709Y-93836330D01*
X131977625Y-93780861D01*
X132092621Y-93692621D01*
X132180861Y-93577625D01*
X132236330Y-93443709D01*
X132255250Y-93300000D01*
X132236330Y-93156291D01*
X132180861Y-93022375D01*
X132092621Y-92907379D01*
X131977625Y-92819139D01*
X131843709Y-92763670D01*
X131700000Y-92744750D01*
X131556291Y-92763670D01*
X131422375Y-92819139D01*
X131307379Y-92907379D01*
X131219139Y-93022375D01*
X131163670Y-93156291D01*
X131144750Y-93300000D01*
X121769173Y-93300000D01*
X121740308Y-93108492D01*
X121662798Y-92857212D01*
X121548702Y-92620290D01*
X121400570Y-92403020D01*
X121221710Y-92210254D01*
X121016117Y-92046299D01*
X120788384Y-91914817D01*
X120543598Y-91818746D01*
X120287228Y-91760231D01*
X120090654Y-91745500D01*
X119959346Y-91745500D01*
X119762772Y-91760231D01*
X119506402Y-91818746D01*
X119261616Y-91914817D01*
X119033883Y-92046299D01*
X118828290Y-92210254D01*
X118649430Y-92403020D01*
X118501298Y-92620290D01*
X118387202Y-92857212D01*
X118309692Y-93108492D01*
X118270500Y-93368518D01*
X118270500Y-93631482D01*
X94414826Y-93631482D01*
X94432366Y-93608255D01*
X94527405Y-93417389D01*
X94585756Y-93212310D01*
X94605429Y-93000000D01*
X94585756Y-92787690D01*
X94527405Y-92582611D01*
X94432366Y-92391745D01*
X94303872Y-92221593D01*
X94146302Y-92077948D01*
X93965019Y-91965702D01*
X93766198Y-91888679D01*
X93556610Y-91849500D01*
X93343390Y-91849500D01*
X93133802Y-91888679D01*
X92934981Y-91965702D01*
X92753698Y-92077948D01*
X92596128Y-92221593D01*
X92467634Y-92391745D01*
X92372595Y-92582611D01*
X92314244Y-92787690D01*
X92294571Y-93000000D01*
X90300500Y-93000000D01*
X90300500Y-90073327D01*
X92940000Y-90073327D01*
X92981318Y-90214040D01*
X93060605Y-90337413D01*
X93171438Y-90433451D01*
X93304839Y-90494373D01*
X93413527Y-90510000D01*
X93486473Y-90510000D01*
X93595161Y-90494373D01*
X93728562Y-90433451D01*
X93839395Y-90337413D01*
X93918682Y-90214040D01*
X93960000Y-90073327D01*
X93960000Y-90000000D01*
X131494750Y-90000000D01*
X131513670Y-90143709D01*
X131569139Y-90277625D01*
X131657379Y-90392621D01*
X131772375Y-90480861D01*
X131906291Y-90536330D01*
X132050000Y-90555250D01*
X132193709Y-90536330D01*
X132327625Y-90480861D01*
X132442621Y-90392621D01*
X132530861Y-90277625D01*
X132586330Y-90143709D01*
X132605250Y-90000000D01*
X133394750Y-90000000D01*
X133413670Y-90143709D01*
X133469139Y-90277625D01*
X133557379Y-90392621D01*
X133672375Y-90480861D01*
X133806291Y-90536330D01*
X133950000Y-90555250D01*
X134093709Y-90536330D01*
X134227625Y-90480861D01*
X134342621Y-90392621D01*
X134430861Y-90277625D01*
X134486330Y-90143709D01*
X134505250Y-90000000D01*
X134486330Y-89856291D01*
X134430861Y-89722375D01*
X134342621Y-89607379D01*
X134227625Y-89519139D01*
X134093709Y-89463670D01*
X133950000Y-89444750D01*
X133806291Y-89463670D01*
X133672375Y-89519139D01*
X133557379Y-89607379D01*
X133469139Y-89722375D01*
X133413670Y-89856291D01*
X133394750Y-90000000D01*
X132605250Y-90000000D01*
X132586330Y-89856291D01*
X132530861Y-89722375D01*
X132442621Y-89607379D01*
X132327625Y-89519139D01*
X132193709Y-89463670D01*
X132050000Y-89444750D01*
X131906291Y-89463670D01*
X131772375Y-89519139D01*
X131657379Y-89607379D01*
X131569139Y-89722375D01*
X131513670Y-89856291D01*
X131494750Y-90000000D01*
X93960000Y-90000000D01*
X93960000Y-89926673D01*
X93918682Y-89785960D01*
X93839395Y-89662587D01*
X93728562Y-89566549D01*
X93595161Y-89505627D01*
X93486473Y-89490000D01*
X93413527Y-89490000D01*
X93304839Y-89505627D01*
X93171438Y-89566549D01*
X93060605Y-89662587D01*
X92981318Y-89785960D01*
X92940000Y-89926673D01*
X92940000Y-90073327D01*
X90300500Y-90073327D01*
X90300500Y-88800000D01*
X101944750Y-88800000D01*
X101963670Y-88943709D01*
X102019139Y-89077625D01*
X102107379Y-89192621D01*
X102222375Y-89280861D01*
X102356291Y-89336330D01*
X102500000Y-89355250D01*
X102643709Y-89336330D01*
X102777625Y-89280861D01*
X102892621Y-89192621D01*
X102980861Y-89077625D01*
X103017754Y-88988556D01*
X130844750Y-88988556D01*
X130863670Y-89132265D01*
X130919139Y-89266181D01*
X131007379Y-89381177D01*
X131122375Y-89469417D01*
X131256291Y-89524886D01*
X131400000Y-89543806D01*
X131543709Y-89524886D01*
X131677625Y-89469417D01*
X131792621Y-89381177D01*
X131880861Y-89266181D01*
X131936330Y-89132265D01*
X131955250Y-88988556D01*
X131936330Y-88844847D01*
X131880861Y-88710931D01*
X131792621Y-88595935D01*
X131677625Y-88507695D01*
X131543709Y-88452226D01*
X131400000Y-88433306D01*
X131256291Y-88452226D01*
X131122375Y-88507695D01*
X131007379Y-88595935D01*
X130919139Y-88710931D01*
X130863670Y-88844847D01*
X130844750Y-88988556D01*
X103017754Y-88988556D01*
X103036330Y-88943709D01*
X103055250Y-88800000D01*
X103036330Y-88656291D01*
X102980861Y-88522375D01*
X102892621Y-88407379D01*
X102777625Y-88319139D01*
X102643709Y-88263670D01*
X102500000Y-88244750D01*
X102356291Y-88263670D01*
X102222375Y-88319139D01*
X102107379Y-88407379D01*
X102019139Y-88522375D01*
X101963670Y-88656291D01*
X101944750Y-88800000D01*
X90300500Y-88800000D01*
X90300500Y-88000000D01*
X128044750Y-88000000D01*
X128063670Y-88143709D01*
X128119139Y-88277625D01*
X128207379Y-88392621D01*
X128322375Y-88480861D01*
X128456291Y-88536330D01*
X128600000Y-88555250D01*
X128743709Y-88536330D01*
X128877625Y-88480861D01*
X128992621Y-88392621D01*
X129080861Y-88277625D01*
X129136330Y-88143709D01*
X129155250Y-88000000D01*
X129136330Y-87856291D01*
X129080861Y-87722375D01*
X129063692Y-87700000D01*
X131844750Y-87700000D01*
X131863670Y-87843709D01*
X131919139Y-87977625D01*
X132007379Y-88092621D01*
X132122375Y-88180861D01*
X132256291Y-88236330D01*
X132400000Y-88255250D01*
X132543709Y-88236330D01*
X132677625Y-88180861D01*
X132792621Y-88092621D01*
X132863692Y-88000000D01*
X133819750Y-88000000D01*
X133838670Y-88143709D01*
X133894139Y-88277625D01*
X133982379Y-88392621D01*
X134097375Y-88480861D01*
X134231291Y-88536330D01*
X134375000Y-88555250D01*
X134518709Y-88536330D01*
X134652625Y-88480861D01*
X134767621Y-88392621D01*
X134855861Y-88277625D01*
X134911330Y-88143709D01*
X134930250Y-88000000D01*
X141069750Y-88000000D01*
X141088670Y-88143709D01*
X141144139Y-88277625D01*
X141232379Y-88392621D01*
X141347375Y-88480861D01*
X141481291Y-88536330D01*
X141625000Y-88555250D01*
X141768709Y-88536330D01*
X141902625Y-88480861D01*
X142017621Y-88392621D01*
X142105861Y-88277625D01*
X142161330Y-88143709D01*
X142180250Y-88000000D01*
X142161330Y-87856291D01*
X142105861Y-87722375D01*
X142017621Y-87607379D01*
X141902625Y-87519139D01*
X141768709Y-87463670D01*
X141625000Y-87444750D01*
X141481291Y-87463670D01*
X141347375Y-87519139D01*
X141232379Y-87607379D01*
X141144139Y-87722375D01*
X141088670Y-87856291D01*
X141069750Y-88000000D01*
X134930250Y-88000000D01*
X134911330Y-87856291D01*
X134855861Y-87722375D01*
X134767621Y-87607379D01*
X134652625Y-87519139D01*
X134518709Y-87463670D01*
X134375000Y-87444750D01*
X134231291Y-87463670D01*
X134097375Y-87519139D01*
X133982379Y-87607379D01*
X133894139Y-87722375D01*
X133838670Y-87856291D01*
X133819750Y-88000000D01*
X132863692Y-88000000D01*
X132880861Y-87977625D01*
X132936330Y-87843709D01*
X132955250Y-87700000D01*
X132936330Y-87556291D01*
X132880861Y-87422375D01*
X132792621Y-87307379D01*
X132677625Y-87219139D01*
X132543709Y-87163670D01*
X132400000Y-87144750D01*
X132256291Y-87163670D01*
X132122375Y-87219139D01*
X132007379Y-87307379D01*
X131919139Y-87422375D01*
X131863670Y-87556291D01*
X131844750Y-87700000D01*
X129063692Y-87700000D01*
X128992621Y-87607379D01*
X128877625Y-87519139D01*
X128743709Y-87463670D01*
X128600000Y-87444750D01*
X128456291Y-87463670D01*
X128322375Y-87519139D01*
X128207379Y-87607379D01*
X128119139Y-87722375D01*
X128063670Y-87856291D01*
X128044750Y-88000000D01*
X90300500Y-88000000D01*
X90300499Y-87093490D01*
X90600500Y-87093490D01*
X90639375Y-87276385D01*
X90715427Y-87447200D01*
X90825331Y-87598470D01*
X90964285Y-87723585D01*
X91126215Y-87817075D01*
X91304044Y-87874855D01*
X91443380Y-87889500D01*
X91536620Y-87889500D01*
X91675956Y-87874855D01*
X91853785Y-87817075D01*
X92015715Y-87723585D01*
X92154669Y-87598470D01*
X92264573Y-87447200D01*
X92340625Y-87276385D01*
X92379500Y-87093490D01*
X92379500Y-86906510D01*
X92340625Y-86723615D01*
X92264573Y-86552800D01*
X92154669Y-86401530D01*
X92015715Y-86276415D01*
X91853785Y-86182925D01*
X91675956Y-86125145D01*
X91536620Y-86110500D01*
X91443380Y-86110500D01*
X91304044Y-86125145D01*
X91126215Y-86182925D01*
X90964285Y-86276415D01*
X90825331Y-86401530D01*
X90715427Y-86552800D01*
X90639375Y-86723615D01*
X90600500Y-86906510D01*
X90600500Y-87093490D01*
X90300499Y-87093490D01*
X90300499Y-84593490D01*
X90650500Y-84593490D01*
X90689375Y-84776385D01*
X90765427Y-84947200D01*
X90875331Y-85098470D01*
X91014285Y-85223585D01*
X91176215Y-85317075D01*
X91354044Y-85374855D01*
X91493380Y-85389500D01*
X91586620Y-85389500D01*
X91725956Y-85374855D01*
X91903785Y-85317075D01*
X92065715Y-85223585D01*
X92204669Y-85098470D01*
X92314573Y-84947200D01*
X92390625Y-84776385D01*
X92429500Y-84593490D01*
X92429500Y-84500000D01*
X101044750Y-84500000D01*
X101063670Y-84643709D01*
X101119139Y-84777625D01*
X101207379Y-84892621D01*
X101322375Y-84980861D01*
X101456291Y-85036330D01*
X101600000Y-85055250D01*
X101743709Y-85036330D01*
X101877625Y-84980861D01*
X101992621Y-84892621D01*
X102080861Y-84777625D01*
X102136330Y-84643709D01*
X102155250Y-84500000D01*
X102136330Y-84356291D01*
X102080861Y-84222375D01*
X101992621Y-84107379D01*
X101877625Y-84019139D01*
X101743709Y-83963670D01*
X101600000Y-83944750D01*
X101456291Y-83963670D01*
X101322375Y-84019139D01*
X101207379Y-84107379D01*
X101119139Y-84222375D01*
X101063670Y-84356291D01*
X101044750Y-84500000D01*
X92429500Y-84500000D01*
X92429500Y-84406510D01*
X92390625Y-84223615D01*
X92314573Y-84052800D01*
X92204669Y-83901530D01*
X92065715Y-83776415D01*
X91903785Y-83682925D01*
X91725956Y-83625145D01*
X91586620Y-83610500D01*
X91493380Y-83610500D01*
X91354044Y-83625145D01*
X91176215Y-83682925D01*
X91014285Y-83776415D01*
X90875331Y-83901530D01*
X90765427Y-84052800D01*
X90689375Y-84223615D01*
X90650500Y-84406510D01*
X90650500Y-84593490D01*
X90300499Y-84593490D01*
X90300499Y-83424000D01*
X90320185Y-83356961D01*
X90372989Y-83311206D01*
X90424500Y-83300000D01*
X96800000Y-83300000D01*
X96800000Y-82000000D01*
X104544750Y-82000000D01*
X104563670Y-82143709D01*
X104619139Y-82277625D01*
X104707379Y-82392621D01*
X104822375Y-82480861D01*
X104956291Y-82536330D01*
X105100000Y-82555250D01*
X105243709Y-82536330D01*
X105331419Y-82500000D01*
X109744750Y-82500000D01*
X109763670Y-82643709D01*
X109819139Y-82777625D01*
X109907379Y-82892621D01*
X110022375Y-82980861D01*
X110156291Y-83036330D01*
X110300000Y-83055250D01*
X110443709Y-83036330D01*
X110577625Y-82980861D01*
X110692621Y-82892621D01*
X110780861Y-82777625D01*
X110806729Y-82715172D01*
X110821879Y-82689741D01*
X110854489Y-82601082D01*
X110857245Y-82593265D01*
X110857443Y-82592678D01*
X110859864Y-82585183D01*
X110879732Y-82520850D01*
X110889424Y-82495616D01*
X110899516Y-82479436D01*
X110944536Y-82429129D01*
X110955893Y-82410499D01*
X112615892Y-80750500D01*
X113099675Y-80750500D01*
X113090092Y-80757461D01*
X113061658Y-80771950D01*
X113039094Y-80794513D01*
X113039091Y-80794516D01*
X111189361Y-82644245D01*
X111170874Y-82655458D01*
X111120560Y-82700482D01*
X111104381Y-82710573D01*
X111079137Y-82720270D01*
X111014807Y-82740136D01*
X111007558Y-82742474D01*
X111007002Y-82742661D01*
X110998922Y-82745505D01*
X110910222Y-82778133D01*
X110904221Y-82780412D01*
X110903851Y-82780557D01*
X110892960Y-82785069D01*
X110874747Y-82797445D01*
X110822375Y-82819139D01*
X110707379Y-82907379D01*
X110619139Y-83022375D01*
X110563670Y-83156291D01*
X110544750Y-83300000D01*
X110563670Y-83443709D01*
X110619139Y-83577625D01*
X110707379Y-83692621D01*
X110822375Y-83780861D01*
X110956291Y-83836330D01*
X111100000Y-83855250D01*
X111243709Y-83836330D01*
X111377625Y-83780861D01*
X111492621Y-83692621D01*
X111580861Y-83577625D01*
X111606729Y-83515172D01*
X111621879Y-83489741D01*
X111654489Y-83401082D01*
X111657245Y-83393265D01*
X111657443Y-83392678D01*
X111659864Y-83385183D01*
X111679732Y-83320850D01*
X111689424Y-83295616D01*
X111699516Y-83279436D01*
X111744536Y-83229129D01*
X111755892Y-83210500D01*
X113001547Y-81964845D01*
X112963670Y-82056291D01*
X112944750Y-82200000D01*
X112963670Y-82343709D01*
X113019139Y-82477625D01*
X113107379Y-82592621D01*
X113222375Y-82680861D01*
X113356291Y-82736330D01*
X113500000Y-82755250D01*
X113643709Y-82736330D01*
X113777625Y-82680861D01*
X113892621Y-82592621D01*
X113980861Y-82477625D01*
X114006729Y-82415172D01*
X114021879Y-82389741D01*
X114054489Y-82301082D01*
X114057245Y-82293265D01*
X114057443Y-82292678D01*
X114059864Y-82285183D01*
X114079732Y-82220850D01*
X114086504Y-82203216D01*
X114107101Y-82200505D01*
X114107101Y-82200500D01*
X114164685Y-82200500D01*
X116373134Y-82200500D01*
X116394131Y-82205643D01*
X116461535Y-82209381D01*
X116480108Y-82213686D01*
X116504820Y-82224681D01*
X116564352Y-82256120D01*
X116571385Y-82259719D01*
X116571936Y-82259992D01*
X116579400Y-82263565D01*
X116670406Y-82305565D01*
X116670770Y-82305725D01*
X116682296Y-82310513D01*
X116703920Y-82314637D01*
X116756291Y-82336330D01*
X116900000Y-82355250D01*
X117043709Y-82336330D01*
X117177625Y-82280861D01*
X117292621Y-82192621D01*
X117380861Y-82077625D01*
X117436330Y-81943709D01*
X117455250Y-81800000D01*
X117436330Y-81656291D01*
X117380861Y-81522375D01*
X117292621Y-81407379D01*
X117177625Y-81319139D01*
X117043709Y-81263670D01*
X116900000Y-81244750D01*
X116756291Y-81263670D01*
X116722215Y-81277784D01*
X116736330Y-81243709D01*
X116755250Y-81100000D01*
X116736330Y-80956291D01*
X116680861Y-80822375D01*
X116625709Y-80750500D01*
X116886567Y-80750500D01*
X117013433Y-80750500D01*
X117043784Y-80740638D01*
X117075304Y-80735646D01*
X117103738Y-80721157D01*
X117134090Y-80711296D01*
X117159909Y-80692537D01*
X117188342Y-80678050D01*
X117210905Y-80655486D01*
X117210909Y-80655484D01*
X119865892Y-78000500D01*
X120136567Y-78000500D01*
X120263433Y-78000500D01*
X120293784Y-77990638D01*
X120325304Y-77985646D01*
X120353738Y-77971157D01*
X120384090Y-77961296D01*
X120409909Y-77942537D01*
X120438342Y-77928050D01*
X120460905Y-77905486D01*
X120460909Y-77905484D01*
X121000000Y-77366393D01*
X121000000Y-79000000D01*
X121000000Y-81000000D01*
X118500000Y-81000000D01*
X118500000Y-86000000D01*
X125500000Y-86000000D01*
X125500000Y-85500000D01*
X130844750Y-85500000D01*
X130863670Y-85643709D01*
X130919139Y-85777625D01*
X131007379Y-85892621D01*
X131122375Y-85980861D01*
X131256291Y-86036330D01*
X131400000Y-86055250D01*
X131543709Y-86036330D01*
X131677625Y-85980861D01*
X131792621Y-85892621D01*
X131880861Y-85777625D01*
X131936330Y-85643709D01*
X131955250Y-85500000D01*
X131936330Y-85356291D01*
X131880861Y-85222375D01*
X131792621Y-85107379D01*
X131677625Y-85019139D01*
X131543709Y-84963670D01*
X131400000Y-84944750D01*
X131256291Y-84963670D01*
X131122375Y-85019139D01*
X131007379Y-85107379D01*
X130919139Y-85222375D01*
X130863670Y-85356291D01*
X130844750Y-85500000D01*
X125500000Y-85500000D01*
X125500000Y-84200000D01*
X143994355Y-84200000D01*
X144014860Y-84368872D01*
X144075182Y-84527930D01*
X144171817Y-84667929D01*
X144299148Y-84780734D01*
X144449775Y-84859790D01*
X144614944Y-84900500D01*
X144785056Y-84900500D01*
X144950225Y-84859790D01*
X145100852Y-84780734D01*
X145228183Y-84667929D01*
X145287147Y-84582506D01*
X146570500Y-84582506D01*
X146609990Y-84742724D01*
X146686675Y-84888835D01*
X146796099Y-85012349D01*
X146931901Y-85106087D01*
X147086191Y-85164601D01*
X147208895Y-85179500D01*
X147291105Y-85179500D01*
X147413809Y-85164601D01*
X147568099Y-85106087D01*
X147703901Y-85012349D01*
X147813325Y-84888835D01*
X147890010Y-84742724D01*
X147929500Y-84582506D01*
X147929500Y-84417494D01*
X147922446Y-84388875D01*
X147975182Y-84527930D01*
X148071817Y-84667929D01*
X148199148Y-84780734D01*
X148349775Y-84859790D01*
X148514944Y-84900500D01*
X148685056Y-84900500D01*
X148850225Y-84859790D01*
X149000852Y-84780734D01*
X149128183Y-84667929D01*
X149224818Y-84527930D01*
X149285140Y-84368872D01*
X149305645Y-84200000D01*
X149285140Y-84031128D01*
X149224818Y-83872070D01*
X149128183Y-83732071D01*
X149000852Y-83619266D01*
X148850225Y-83540210D01*
X148685056Y-83499500D01*
X148514944Y-83499500D01*
X148349775Y-83540210D01*
X148199148Y-83619266D01*
X148071817Y-83732071D01*
X147975182Y-83872070D01*
X147914860Y-84031128D01*
X147894355Y-84200000D01*
X147912281Y-84347634D01*
X147890010Y-84257276D01*
X147813325Y-84111165D01*
X147703901Y-83987651D01*
X147568099Y-83893913D01*
X147413809Y-83835399D01*
X147291105Y-83820500D01*
X147208895Y-83820500D01*
X147086191Y-83835399D01*
X146931901Y-83893913D01*
X146796099Y-83987651D01*
X146686675Y-84111165D01*
X146609990Y-84257276D01*
X146570500Y-84417494D01*
X146570500Y-84582506D01*
X145287147Y-84582506D01*
X145324818Y-84527930D01*
X145385140Y-84368872D01*
X145405645Y-84200000D01*
X145385140Y-84031128D01*
X145324818Y-83872070D01*
X145228183Y-83732071D01*
X145100852Y-83619266D01*
X144950225Y-83540210D01*
X144785056Y-83499500D01*
X144614944Y-83499500D01*
X144449775Y-83540210D01*
X144299148Y-83619266D01*
X144171817Y-83732071D01*
X144075182Y-83872070D01*
X144014860Y-84031128D01*
X143994355Y-84200000D01*
X125500000Y-84200000D01*
X125500000Y-83600000D01*
X131744750Y-83600000D01*
X131763670Y-83743709D01*
X131819139Y-83877625D01*
X131907379Y-83992621D01*
X132022375Y-84080861D01*
X132156291Y-84136330D01*
X132300000Y-84155250D01*
X132443709Y-84136330D01*
X132577625Y-84080861D01*
X132692621Y-83992621D01*
X132780861Y-83877625D01*
X132836330Y-83743709D01*
X132855250Y-83600000D01*
X132842085Y-83500000D01*
X132944750Y-83500000D01*
X132963670Y-83643709D01*
X133019139Y-83777625D01*
X133107379Y-83892621D01*
X133222375Y-83980861D01*
X133356291Y-84036330D01*
X133500000Y-84055250D01*
X133643709Y-84036330D01*
X133777625Y-83980861D01*
X133892621Y-83892621D01*
X133980861Y-83777625D01*
X134036330Y-83643709D01*
X134055250Y-83500000D01*
X139857250Y-83500000D01*
X139876170Y-83643709D01*
X139931639Y-83777625D01*
X140019879Y-83892621D01*
X140134875Y-83980861D01*
X140268791Y-84036330D01*
X140412500Y-84055250D01*
X140556209Y-84036330D01*
X140690125Y-83980861D01*
X140805121Y-83892621D01*
X140893361Y-83777625D01*
X140948830Y-83643709D01*
X140967750Y-83500000D01*
X140948830Y-83356291D01*
X140893361Y-83222375D01*
X140805121Y-83107379D01*
X140690125Y-83019139D01*
X140556209Y-82963670D01*
X140412500Y-82944750D01*
X140268791Y-82963670D01*
X140134875Y-83019139D01*
X140019879Y-83107379D01*
X139931639Y-83222375D01*
X139876170Y-83356291D01*
X139857250Y-83500000D01*
X134055250Y-83500000D01*
X134036330Y-83356291D01*
X133980861Y-83222375D01*
X133892621Y-83107379D01*
X133777625Y-83019139D01*
X133643709Y-82963670D01*
X133500000Y-82944750D01*
X133356291Y-82963670D01*
X133222375Y-83019139D01*
X133107379Y-83107379D01*
X133019139Y-83222375D01*
X132963670Y-83356291D01*
X132944750Y-83500000D01*
X132842085Y-83500000D01*
X132836330Y-83456291D01*
X132780861Y-83322375D01*
X132692621Y-83207379D01*
X132577625Y-83119139D01*
X132443709Y-83063670D01*
X132300000Y-83044750D01*
X132156291Y-83063670D01*
X132022375Y-83119139D01*
X131907379Y-83207379D01*
X131819139Y-83322375D01*
X131763670Y-83456291D01*
X131744750Y-83600000D01*
X125500000Y-83600000D01*
X125500000Y-82400000D01*
X132044750Y-82400000D01*
X132063670Y-82543709D01*
X132119139Y-82677625D01*
X132207379Y-82792621D01*
X132322375Y-82880861D01*
X132456291Y-82936330D01*
X132600000Y-82955250D01*
X132743709Y-82936330D01*
X132877625Y-82880861D01*
X132992621Y-82792621D01*
X133080861Y-82677625D01*
X133136330Y-82543709D01*
X133155250Y-82400000D01*
X133136330Y-82256291D01*
X133080861Y-82122375D01*
X132992621Y-82007379D01*
X132877625Y-81919139D01*
X132743709Y-81863670D01*
X132600000Y-81844750D01*
X132456291Y-81863670D01*
X132322375Y-81919139D01*
X132207379Y-82007379D01*
X132119139Y-82122375D01*
X132063670Y-82256291D01*
X132044750Y-82400000D01*
X125500000Y-82400000D01*
X125500000Y-81000000D01*
X123000000Y-81000000D01*
X123000000Y-79000000D01*
X123000000Y-77000000D01*
X121100500Y-77000000D01*
X121100500Y-76765892D01*
X121266392Y-76600000D01*
X123144750Y-76600000D01*
X123163670Y-76743709D01*
X123219139Y-76877625D01*
X123307379Y-76992621D01*
X123422375Y-77080861D01*
X123484823Y-77106727D01*
X123510256Y-77121878D01*
X123598913Y-77154488D01*
X123606732Y-77157245D01*
X123607319Y-77157443D01*
X123614816Y-77159864D01*
X123679145Y-77179730D01*
X123704379Y-77189423D01*
X123720561Y-77199516D01*
X123770872Y-77244538D01*
X123789503Y-77255896D01*
X125839091Y-79305484D01*
X125839094Y-79305486D01*
X125861658Y-79328050D01*
X125890089Y-79342536D01*
X125915911Y-79361297D01*
X125946264Y-79371159D01*
X125974696Y-79385646D01*
X126006214Y-79390638D01*
X126022359Y-79395883D01*
X126007379Y-79407379D01*
X125919139Y-79522375D01*
X125900000Y-79568581D01*
X125880861Y-79522375D01*
X125792621Y-79407379D01*
X125677625Y-79319139D01*
X125543709Y-79263670D01*
X125400000Y-79244750D01*
X125256291Y-79263670D01*
X125122375Y-79319139D01*
X125007379Y-79407379D01*
X124919139Y-79522375D01*
X124863670Y-79656291D01*
X124844750Y-79800000D01*
X124863670Y-79943709D01*
X124889530Y-80006142D01*
X124896803Y-80034849D01*
X124936440Y-80120613D01*
X124940199Y-80128451D01*
X124940462Y-80128980D01*
X124943875Y-80135638D01*
X124975318Y-80195179D01*
X124986311Y-80219884D01*
X124990616Y-80238462D01*
X124994356Y-80305870D01*
X124999500Y-80327081D01*
X124999500Y-80363433D01*
X125009361Y-80393784D01*
X125014354Y-80425304D01*
X125028842Y-80453738D01*
X125038704Y-80484090D01*
X125057462Y-80509909D01*
X125071950Y-80538342D01*
X125094513Y-80560905D01*
X125094516Y-80560909D01*
X126139091Y-81605484D01*
X126139094Y-81605486D01*
X126161658Y-81628050D01*
X126190089Y-81642536D01*
X126215911Y-81661297D01*
X126246264Y-81671159D01*
X126274696Y-81685646D01*
X126306214Y-81690638D01*
X126336567Y-81700500D01*
X126368481Y-81700500D01*
X133186779Y-81700500D01*
X133163670Y-81756291D01*
X133144750Y-81900000D01*
X133163670Y-82043709D01*
X133219139Y-82177625D01*
X133307379Y-82292621D01*
X133422375Y-82380861D01*
X133556291Y-82436330D01*
X133700000Y-82455250D01*
X133843709Y-82436330D01*
X133977625Y-82380861D01*
X134092621Y-82292621D01*
X134180861Y-82177625D01*
X134236330Y-82043709D01*
X134255250Y-81900000D01*
X134236330Y-81756291D01*
X134180861Y-81622375D01*
X134092621Y-81507379D01*
X134083005Y-81500000D01*
X137044750Y-81500000D01*
X137063670Y-81643709D01*
X137119139Y-81777625D01*
X137207379Y-81892621D01*
X137322375Y-81980861D01*
X137456291Y-82036330D01*
X137600000Y-82055250D01*
X137743709Y-82036330D01*
X137877625Y-81980861D01*
X137992621Y-81892621D01*
X138080861Y-81777625D01*
X138136330Y-81643709D01*
X138155250Y-81500000D01*
X139857250Y-81500000D01*
X139876170Y-81643709D01*
X139931639Y-81777625D01*
X140019879Y-81892621D01*
X140134875Y-81980861D01*
X140268791Y-82036330D01*
X140412500Y-82055250D01*
X140556209Y-82036330D01*
X140643919Y-82000000D01*
X147294750Y-82000000D01*
X147313670Y-82143709D01*
X147369139Y-82277625D01*
X147457379Y-82392621D01*
X147572375Y-82480861D01*
X147706291Y-82536330D01*
X147850000Y-82555250D01*
X147993709Y-82536330D01*
X148127625Y-82480861D01*
X148242621Y-82392621D01*
X148330861Y-82277625D01*
X148386330Y-82143709D01*
X148405250Y-82000000D01*
X148386330Y-81856291D01*
X148330861Y-81722375D01*
X148242621Y-81607379D01*
X148233004Y-81600000D01*
X148242621Y-81592621D01*
X148330861Y-81477625D01*
X148386330Y-81343709D01*
X148405250Y-81200000D01*
X148386330Y-81056291D01*
X148330861Y-80922375D01*
X148242621Y-80807379D01*
X148127625Y-80719139D01*
X147993709Y-80663670D01*
X147850000Y-80644750D01*
X147706291Y-80663670D01*
X147572375Y-80719139D01*
X147457379Y-80807379D01*
X147369139Y-80922375D01*
X147313670Y-81056291D01*
X147294750Y-81200000D01*
X147313670Y-81343709D01*
X147369139Y-81477625D01*
X147457379Y-81592621D01*
X147466995Y-81600000D01*
X147457379Y-81607379D01*
X147369139Y-81722375D01*
X147313670Y-81856291D01*
X147294750Y-82000000D01*
X140643919Y-82000000D01*
X140690125Y-81980861D01*
X140805121Y-81892621D01*
X140893361Y-81777625D01*
X140948830Y-81643709D01*
X140967750Y-81500000D01*
X140948830Y-81356291D01*
X140893361Y-81222375D01*
X140805121Y-81107379D01*
X140690125Y-81019139D01*
X140556209Y-80963670D01*
X140412500Y-80944750D01*
X140268791Y-80963670D01*
X140134875Y-81019139D01*
X140019879Y-81107379D01*
X139931639Y-81222375D01*
X139876170Y-81356291D01*
X139857250Y-81500000D01*
X138155250Y-81500000D01*
X138136330Y-81356291D01*
X138080861Y-81222375D01*
X137992621Y-81107379D01*
X137877625Y-81019139D01*
X137743709Y-80963670D01*
X137600000Y-80944750D01*
X137456291Y-80963670D01*
X137322375Y-81019139D01*
X137207379Y-81107379D01*
X137119139Y-81222375D01*
X137063670Y-81356291D01*
X137044750Y-81500000D01*
X134083005Y-81500000D01*
X133977625Y-81419139D01*
X133843709Y-81363670D01*
X133777169Y-81354909D01*
X134631578Y-80500500D01*
X141534107Y-80500500D01*
X142144248Y-81110641D01*
X142155459Y-81129126D01*
X142200482Y-81179438D01*
X142210575Y-81195621D01*
X142220264Y-81220842D01*
X142240131Y-81285176D01*
X142242457Y-81292387D01*
X142242653Y-81292970D01*
X142245508Y-81301085D01*
X142280166Y-81395146D01*
X142280321Y-81395544D01*
X142285069Y-81407039D01*
X142297444Y-81425249D01*
X142319139Y-81477625D01*
X142407379Y-81592621D01*
X142522375Y-81680861D01*
X142656291Y-81736330D01*
X142800000Y-81755250D01*
X142943709Y-81736330D01*
X143077625Y-81680861D01*
X143192621Y-81592621D01*
X143280861Y-81477625D01*
X143336330Y-81343709D01*
X143355250Y-81200000D01*
X143336330Y-81056291D01*
X143280861Y-80922375D01*
X143192621Y-80807379D01*
X143077625Y-80719139D01*
X143015184Y-80693275D01*
X142989748Y-80678122D01*
X142901085Y-80645508D01*
X142892970Y-80642653D01*
X142892387Y-80642457D01*
X142885176Y-80640131D01*
X142820842Y-80620264D01*
X142795622Y-80610576D01*
X142779437Y-80600481D01*
X142729126Y-80555459D01*
X142710493Y-80544100D01*
X142266893Y-80100500D01*
X142725476Y-80100500D01*
X142852342Y-80100500D01*
X142882693Y-80090638D01*
X142914213Y-80085646D01*
X142942647Y-80071157D01*
X142972999Y-80061296D01*
X142998818Y-80042537D01*
X143027251Y-80028050D01*
X143049814Y-80005486D01*
X143049818Y-80005484D01*
X143355302Y-79700000D01*
X144794355Y-79700000D01*
X144814860Y-79868872D01*
X144875182Y-80027930D01*
X144971817Y-80167929D01*
X145099148Y-80280734D01*
X145249775Y-80359790D01*
X145414944Y-80400500D01*
X145585056Y-80400500D01*
X145750225Y-80359790D01*
X145900852Y-80280734D01*
X146028183Y-80167929D01*
X146124818Y-80027930D01*
X146185140Y-79868872D01*
X146205645Y-79700000D01*
X146185140Y-79531128D01*
X146124818Y-79372070D01*
X146028183Y-79232071D01*
X145900852Y-79119266D01*
X145750225Y-79040210D01*
X145585056Y-78999500D01*
X145414944Y-78999500D01*
X145249775Y-79040210D01*
X145099148Y-79119266D01*
X144971817Y-79232071D01*
X144875182Y-79372070D01*
X144814860Y-79531128D01*
X144794355Y-79700000D01*
X143355302Y-79700000D01*
X144295174Y-78760127D01*
X144317759Y-78741949D01*
X144344058Y-78711243D01*
X144355484Y-78699818D01*
X144355486Y-78699814D01*
X144378050Y-78677251D01*
X144385211Y-78663196D01*
X144388575Y-78659269D01*
X144409504Y-78631838D01*
X144410983Y-78629654D01*
X144428680Y-78600049D01*
X144468043Y-78524862D01*
X144481657Y-78495072D01*
X144482577Y-78492735D01*
X144492965Y-78461509D01*
X144515059Y-78380596D01*
X144516522Y-78374593D01*
X144534032Y-78299441D01*
X144566376Y-78205182D01*
X144569562Y-78184190D01*
X144586330Y-78143709D01*
X144605250Y-78000000D01*
X144586330Y-77856291D01*
X144563221Y-77800500D01*
X145034107Y-77800500D01*
X145944248Y-78710641D01*
X145955459Y-78729126D01*
X146000482Y-78779438D01*
X146010575Y-78795621D01*
X146020264Y-78820842D01*
X146040131Y-78885176D01*
X146042457Y-78892387D01*
X146042653Y-78892970D01*
X146045508Y-78901085D01*
X146080166Y-78995146D01*
X146080321Y-78995544D01*
X146085069Y-79007039D01*
X146097444Y-79025249D01*
X146119139Y-79077625D01*
X146207379Y-79192621D01*
X146322375Y-79280861D01*
X146456291Y-79336330D01*
X146600000Y-79355250D01*
X146743709Y-79336330D01*
X146877625Y-79280861D01*
X146992621Y-79192621D01*
X147080861Y-79077625D01*
X147136330Y-78943709D01*
X147155250Y-78800000D01*
X147136330Y-78656291D01*
X147080861Y-78522375D01*
X146992621Y-78407379D01*
X146983004Y-78400000D01*
X146992621Y-78392621D01*
X147080861Y-78277625D01*
X147136330Y-78143709D01*
X147155250Y-78000000D01*
X147136330Y-77856291D01*
X147080861Y-77722375D01*
X146992621Y-77607379D01*
X146877625Y-77519139D01*
X146815184Y-77493275D01*
X146789748Y-77478122D01*
X146701085Y-77445508D01*
X146692970Y-77442653D01*
X146692387Y-77442457D01*
X146685176Y-77440131D01*
X146620842Y-77420264D01*
X146595622Y-77410576D01*
X146579437Y-77400481D01*
X146529126Y-77355459D01*
X146510493Y-77344100D01*
X145860909Y-76694516D01*
X145860905Y-76694513D01*
X145838342Y-76671950D01*
X145809909Y-76657462D01*
X145784090Y-76638704D01*
X145753738Y-76628842D01*
X145725304Y-76614354D01*
X145693784Y-76609361D01*
X145663433Y-76599500D01*
X145631519Y-76599500D01*
X131702587Y-76599500D01*
X131680230Y-76594301D01*
X131588197Y-76590278D01*
X131528190Y-76581415D01*
X131464459Y-76568366D01*
X131456558Y-76566867D01*
X131456625Y-76566869D01*
X131455522Y-76566671D01*
X131455521Y-76566674D01*
X131455215Y-76566621D01*
X131447224Y-76565332D01*
X131364156Y-76553064D01*
X131348832Y-76551195D01*
X131347670Y-76551083D01*
X131331702Y-76549965D01*
X131225467Y-76545321D01*
X131219278Y-76545114D01*
X131218851Y-76545104D01*
X131205858Y-76545076D01*
X131204542Y-76545348D01*
X131200000Y-76544750D01*
X131056291Y-76563670D01*
X130922375Y-76619139D01*
X130807379Y-76707379D01*
X130719139Y-76822375D01*
X130663670Y-76956291D01*
X130644750Y-77100000D01*
X130663670Y-77243709D01*
X130719139Y-77377625D01*
X130807379Y-77492621D01*
X130816995Y-77500000D01*
X130807379Y-77507379D01*
X130719139Y-77622375D01*
X130663670Y-77756291D01*
X130644750Y-77900000D01*
X130663670Y-78043709D01*
X130719139Y-78177625D01*
X130735924Y-78199500D01*
X127165893Y-78199500D01*
X125866393Y-76900000D01*
X126194750Y-76900000D01*
X126213670Y-77043709D01*
X126269139Y-77177625D01*
X126357379Y-77292621D01*
X126472375Y-77380861D01*
X126606291Y-77436330D01*
X126750000Y-77455250D01*
X126893709Y-77436330D01*
X127027625Y-77380861D01*
X127142621Y-77292621D01*
X127230861Y-77177625D01*
X127286330Y-77043709D01*
X127305250Y-76900000D01*
X127286330Y-76756291D01*
X127230861Y-76622375D01*
X127142621Y-76507379D01*
X127027625Y-76419139D01*
X126893709Y-76363670D01*
X126750000Y-76344750D01*
X126606291Y-76363670D01*
X126472375Y-76419139D01*
X126357379Y-76507379D01*
X126269139Y-76622375D01*
X126213670Y-76756291D01*
X126194750Y-76900000D01*
X125866393Y-76900000D01*
X125155747Y-76189354D01*
X125144538Y-76170872D01*
X125099516Y-76120561D01*
X125089423Y-76104379D01*
X125079730Y-76079145D01*
X125059864Y-76014816D01*
X125057443Y-76007319D01*
X125057245Y-76006732D01*
X125054871Y-76000000D01*
X132944750Y-76000000D01*
X132963670Y-76143709D01*
X133019139Y-76277625D01*
X133107379Y-76392621D01*
X133222375Y-76480861D01*
X133356291Y-76536330D01*
X133500000Y-76555250D01*
X133643709Y-76536330D01*
X133777625Y-76480861D01*
X133892621Y-76392621D01*
X133980861Y-76277625D01*
X134036330Y-76143709D01*
X134055250Y-76000000D01*
X135744750Y-76000000D01*
X135763670Y-76143709D01*
X135819139Y-76277625D01*
X135907379Y-76392621D01*
X136022375Y-76480861D01*
X136156291Y-76536330D01*
X136300000Y-76555250D01*
X136443709Y-76536330D01*
X136577625Y-76480861D01*
X136692621Y-76392621D01*
X136780861Y-76277625D01*
X136836330Y-76143709D01*
X136855250Y-76000000D01*
X136836330Y-75856291D01*
X136780861Y-75722375D01*
X136692621Y-75607379D01*
X136660206Y-75582506D01*
X146570500Y-75582506D01*
X146609990Y-75742724D01*
X146686675Y-75888835D01*
X146796099Y-76012349D01*
X146931901Y-76106087D01*
X147086191Y-76164601D01*
X147208895Y-76179500D01*
X147291105Y-76179500D01*
X147413809Y-76164601D01*
X147568099Y-76106087D01*
X147703901Y-76012349D01*
X147813325Y-75888835D01*
X147890010Y-75742724D01*
X147929500Y-75582506D01*
X147929500Y-75417494D01*
X147890010Y-75257276D01*
X147813325Y-75111165D01*
X147703901Y-74987651D01*
X147568099Y-74893913D01*
X147413809Y-74835399D01*
X147291105Y-74820500D01*
X147208895Y-74820500D01*
X147086191Y-74835399D01*
X146931901Y-74893913D01*
X146796099Y-74987651D01*
X146686675Y-75111165D01*
X146609990Y-75257276D01*
X146570500Y-75417494D01*
X146570500Y-75582506D01*
X136660206Y-75582506D01*
X136577625Y-75519139D01*
X136443709Y-75463670D01*
X136300000Y-75444750D01*
X136156291Y-75463670D01*
X136022375Y-75519139D01*
X135907379Y-75607379D01*
X135819139Y-75722375D01*
X135763670Y-75856291D01*
X135744750Y-76000000D01*
X134055250Y-76000000D01*
X134036330Y-75856291D01*
X133980861Y-75722375D01*
X133892621Y-75607379D01*
X133777625Y-75519139D01*
X133643709Y-75463670D01*
X133500000Y-75444750D01*
X133356291Y-75463670D01*
X133222375Y-75519139D01*
X133107379Y-75607379D01*
X133019139Y-75722375D01*
X132963670Y-75856291D01*
X132944750Y-76000000D01*
X125054871Y-76000000D01*
X125054488Y-75998913D01*
X125019833Y-75904853D01*
X125019678Y-75904455D01*
X125014930Y-75892960D01*
X125002555Y-75874751D01*
X124980861Y-75822375D01*
X124892621Y-75707379D01*
X124777625Y-75619139D01*
X124643709Y-75563670D01*
X124500000Y-75544750D01*
X124356291Y-75563670D01*
X124222375Y-75619139D01*
X124107379Y-75707379D01*
X124019139Y-75822375D01*
X123963670Y-75956291D01*
X123944750Y-76100000D01*
X123945518Y-76105840D01*
X123843709Y-76063670D01*
X123700000Y-76044750D01*
X123556291Y-76063670D01*
X123422375Y-76119139D01*
X123307379Y-76207379D01*
X123219139Y-76322375D01*
X123163670Y-76456291D01*
X123144750Y-76600000D01*
X121266392Y-76600000D01*
X122765893Y-75100500D01*
X131173969Y-75100500D01*
X131189065Y-75104967D01*
X131236371Y-75109851D01*
X131259206Y-75126628D01*
X131324235Y-75174941D01*
X131344288Y-75188637D01*
X131345853Y-75189617D01*
X131366649Y-75201530D01*
X131421359Y-75230081D01*
X131422375Y-75230861D01*
X131424690Y-75231820D01*
X131451697Y-75245914D01*
X131463122Y-75251576D01*
X131464018Y-75251997D01*
X131482527Y-75259960D01*
X131501248Y-75263531D01*
X131556291Y-75286330D01*
X131700000Y-75305250D01*
X131843709Y-75286330D01*
X131977625Y-75230861D01*
X132092621Y-75142621D01*
X132180861Y-75027625D01*
X132236330Y-74893709D01*
X132255250Y-74750000D01*
X132236330Y-74606291D01*
X132180861Y-74472375D01*
X132092621Y-74357379D01*
X131985738Y-74275364D01*
X132095328Y-74191273D01*
X132183568Y-74076277D01*
X132239037Y-73942361D01*
X132257957Y-73798652D01*
X132239037Y-73654943D01*
X132183568Y-73521027D01*
X132095328Y-73406031D01*
X131980332Y-73317791D01*
X131846416Y-73262322D01*
X131702707Y-73243402D01*
X131558998Y-73262322D01*
X131425082Y-73317791D01*
X131310086Y-73406031D01*
X131221846Y-73521027D01*
X131195984Y-73583462D01*
X131180829Y-73608903D01*
X131148217Y-73697562D01*
X131145520Y-73705204D01*
X131145327Y-73705775D01*
X131142843Y-73713459D01*
X131122977Y-73777789D01*
X131113280Y-73803033D01*
X131103189Y-73819212D01*
X131058165Y-73869526D01*
X131046806Y-73888159D01*
X131035466Y-73899500D01*
X129113221Y-73899500D01*
X129136330Y-73843709D01*
X129155250Y-73700000D01*
X129136330Y-73556291D01*
X129080861Y-73422375D01*
X128992621Y-73307379D01*
X128877625Y-73219139D01*
X128815184Y-73193275D01*
X128789748Y-73178122D01*
X128701085Y-73145508D01*
X128692970Y-73142653D01*
X128692387Y-73142457D01*
X128685176Y-73140131D01*
X128620842Y-73120264D01*
X128595622Y-73110576D01*
X128579437Y-73100481D01*
X128529126Y-73055459D01*
X128514790Y-73046719D01*
X128593709Y-73036330D01*
X128727625Y-72980861D01*
X128842621Y-72892621D01*
X128930861Y-72777625D01*
X128986330Y-72643709D01*
X129005250Y-72500000D01*
X128986330Y-72356291D01*
X128963221Y-72300500D01*
X132897505Y-72300500D01*
X133335348Y-72738342D01*
X133425056Y-72828050D01*
X133453490Y-72842537D01*
X133479308Y-72861296D01*
X133509659Y-72871157D01*
X133538094Y-72885646D01*
X133569613Y-72890638D01*
X133599965Y-72900500D01*
X133631879Y-72900500D01*
X135873133Y-72900500D01*
X135894136Y-72905644D01*
X135961536Y-72909381D01*
X135980108Y-72913686D01*
X136004820Y-72924681D01*
X136064352Y-72956120D01*
X136071385Y-72959719D01*
X136071936Y-72959992D01*
X136079400Y-72963565D01*
X136170406Y-73005565D01*
X136170770Y-73005725D01*
X136182296Y-73010513D01*
X136203920Y-73014637D01*
X136256291Y-73036330D01*
X136400000Y-73055250D01*
X136543709Y-73036330D01*
X136677625Y-72980861D01*
X136792621Y-72892621D01*
X136880861Y-72777625D01*
X136936330Y-72643709D01*
X136955250Y-72500000D01*
X136943369Y-72409762D01*
X136944247Y-72410640D01*
X136955459Y-72429126D01*
X137000482Y-72479438D01*
X137010575Y-72495621D01*
X137020264Y-72520842D01*
X137040131Y-72585176D01*
X137042457Y-72592387D01*
X137042653Y-72592970D01*
X137045508Y-72601085D01*
X137080166Y-72695146D01*
X137080321Y-72695544D01*
X137085069Y-72707039D01*
X137097444Y-72725249D01*
X137119139Y-72777625D01*
X137207379Y-72892621D01*
X137322375Y-72980861D01*
X137456291Y-73036330D01*
X137600000Y-73055250D01*
X137743709Y-73036330D01*
X137877625Y-72980861D01*
X137992621Y-72892621D01*
X138080861Y-72777625D01*
X138136330Y-72643709D01*
X138155250Y-72500000D01*
X139857250Y-72500000D01*
X139876170Y-72643709D01*
X139931639Y-72777625D01*
X140019879Y-72892621D01*
X140134875Y-72980861D01*
X140268791Y-73036330D01*
X140412500Y-73055250D01*
X140556209Y-73036330D01*
X140690125Y-72980861D01*
X140805121Y-72892621D01*
X140893361Y-72777625D01*
X140948830Y-72643709D01*
X140967750Y-72500000D01*
X140948830Y-72356291D01*
X140893361Y-72222375D01*
X140805121Y-72107379D01*
X140690125Y-72019139D01*
X140556209Y-71963670D01*
X140412500Y-71944750D01*
X140268791Y-71963670D01*
X140134875Y-72019139D01*
X140019879Y-72107379D01*
X139931639Y-72222375D01*
X139876170Y-72356291D01*
X139857250Y-72500000D01*
X138155250Y-72500000D01*
X138136330Y-72356291D01*
X138080861Y-72222375D01*
X137992621Y-72107379D01*
X137877625Y-72019139D01*
X137815184Y-71993275D01*
X137789748Y-71978122D01*
X137701085Y-71945508D01*
X137692970Y-71942653D01*
X137692387Y-71942457D01*
X137685176Y-71940131D01*
X137620842Y-71920264D01*
X137595622Y-71910576D01*
X137579437Y-71900481D01*
X137529126Y-71855459D01*
X137510492Y-71844099D01*
X137466393Y-71800000D01*
X144694355Y-71800000D01*
X144714860Y-71968872D01*
X144775182Y-72127930D01*
X144871817Y-72267929D01*
X144999148Y-72380734D01*
X145149775Y-72459790D01*
X145314944Y-72500500D01*
X145485056Y-72500500D01*
X145650225Y-72459790D01*
X145800852Y-72380734D01*
X145928183Y-72267929D01*
X146024818Y-72127930D01*
X146085140Y-71968872D01*
X146085200Y-71968377D01*
X146099148Y-71980734D01*
X146249775Y-72059790D01*
X146414944Y-72100500D01*
X146585056Y-72100500D01*
X146727150Y-72065477D01*
X146686675Y-72111165D01*
X146609990Y-72257276D01*
X146570500Y-72417494D01*
X146570500Y-72582506D01*
X146609990Y-72742724D01*
X146686675Y-72888835D01*
X146796099Y-73012349D01*
X146931901Y-73106087D01*
X147086191Y-73164601D01*
X147208895Y-73179500D01*
X147291105Y-73179500D01*
X147413809Y-73164601D01*
X147568099Y-73106087D01*
X147703901Y-73012349D01*
X147813325Y-72888835D01*
X147890010Y-72742724D01*
X147929500Y-72582506D01*
X147929500Y-72417494D01*
X147890010Y-72257276D01*
X147813325Y-72111165D01*
X147703901Y-71987651D01*
X147568099Y-71893913D01*
X147413809Y-71835399D01*
X147291105Y-71820500D01*
X147208895Y-71820500D01*
X147086191Y-71835399D01*
X147038029Y-71853664D01*
X147124818Y-71727930D01*
X147185140Y-71568872D01*
X147205645Y-71400000D01*
X147185140Y-71231128D01*
X147124818Y-71072070D01*
X147028183Y-70932071D01*
X146900852Y-70819266D01*
X146750225Y-70740210D01*
X146585056Y-70699500D01*
X146414944Y-70699500D01*
X146249775Y-70740210D01*
X146099148Y-70819266D01*
X145971817Y-70932071D01*
X145875182Y-71072070D01*
X145814860Y-71231128D01*
X145814799Y-71231622D01*
X145800852Y-71219266D01*
X145650225Y-71140210D01*
X145485056Y-71099500D01*
X145314944Y-71099500D01*
X145149775Y-71140210D01*
X144999148Y-71219266D01*
X144871817Y-71332071D01*
X144775182Y-71472070D01*
X144714860Y-71631128D01*
X144694355Y-71800000D01*
X137466393Y-71800000D01*
X137400500Y-71734107D01*
X137400500Y-71013220D01*
X137456291Y-71036330D01*
X137600000Y-71055250D01*
X137743709Y-71036330D01*
X137877625Y-70980861D01*
X137992621Y-70892621D01*
X138080861Y-70777625D01*
X138136330Y-70643709D01*
X138155250Y-70500000D01*
X139857250Y-70500000D01*
X139876170Y-70643709D01*
X139931639Y-70777625D01*
X140019879Y-70892621D01*
X140134875Y-70980861D01*
X140268791Y-71036330D01*
X140412500Y-71055250D01*
X140556209Y-71036330D01*
X140690125Y-70980861D01*
X140805121Y-70892621D01*
X140893361Y-70777625D01*
X140948830Y-70643709D01*
X140967750Y-70500000D01*
X140948830Y-70356291D01*
X140893361Y-70222375D01*
X140805121Y-70107379D01*
X140690125Y-70019139D01*
X140556209Y-69963670D01*
X140412500Y-69944750D01*
X140268791Y-69963670D01*
X140134875Y-70019139D01*
X140019879Y-70107379D01*
X139931639Y-70222375D01*
X139876170Y-70356291D01*
X139857250Y-70500000D01*
X138155250Y-70500000D01*
X138136330Y-70356291D01*
X138080861Y-70222375D01*
X137992621Y-70107379D01*
X137991262Y-70106336D01*
X137989530Y-70103686D01*
X137962180Y-70075127D01*
X137961296Y-70072406D01*
X137942537Y-70046586D01*
X137928050Y-70018154D01*
X137905486Y-69995590D01*
X137905484Y-69995587D01*
X137810449Y-69900552D01*
X137793627Y-69881090D01*
X137788235Y-69875017D01*
X137787852Y-69874597D01*
X137782759Y-69869147D01*
X137714907Y-69798325D01*
X137714757Y-69798172D01*
X137707587Y-69791095D01*
X137688656Y-69778759D01*
X137104413Y-69194516D01*
X137104409Y-69194513D01*
X137081846Y-69171950D01*
X137053413Y-69157462D01*
X137027594Y-69138704D01*
X136997242Y-69128842D01*
X136968808Y-69114354D01*
X136937288Y-69109361D01*
X136906937Y-69099500D01*
X136875023Y-69099500D01*
X136379462Y-69099500D01*
X136395616Y-69089424D01*
X136420850Y-69079732D01*
X136485183Y-69059864D01*
X136492678Y-69057443D01*
X136493265Y-69057245D01*
X136501082Y-69054489D01*
X136595146Y-69019833D01*
X136595544Y-69019678D01*
X136607039Y-69014930D01*
X136625246Y-69002556D01*
X136677625Y-68980861D01*
X136792621Y-68892621D01*
X136880861Y-68777625D01*
X136936330Y-68643709D01*
X136955250Y-68500000D01*
X136936330Y-68356291D01*
X136913221Y-68300500D01*
X137056289Y-68300500D01*
X137068812Y-68313022D01*
X137064474Y-68329601D01*
X137059484Y-68352099D01*
X137059169Y-68353825D01*
X137055915Y-68376392D01*
X137047581Y-68454818D01*
X137046330Y-68470365D01*
X137046264Y-68471568D01*
X137045927Y-68491055D01*
X137044750Y-68500000D01*
X137063670Y-68643709D01*
X137119139Y-68777625D01*
X137207379Y-68892621D01*
X137322375Y-68980861D01*
X137456291Y-69036330D01*
X137600000Y-69055250D01*
X137743709Y-69036330D01*
X137877625Y-68980861D01*
X137992621Y-68892621D01*
X138080861Y-68777625D01*
X138136330Y-68643709D01*
X138155250Y-68500000D01*
X139857250Y-68500000D01*
X139876170Y-68643709D01*
X139931639Y-68777625D01*
X140019879Y-68892621D01*
X140134875Y-68980861D01*
X140268791Y-69036330D01*
X140412500Y-69055250D01*
X140556209Y-69036330D01*
X140690125Y-68980861D01*
X140805121Y-68892621D01*
X140893361Y-68777625D01*
X140948830Y-68643709D01*
X140967750Y-68500000D01*
X140948830Y-68356291D01*
X140893361Y-68222375D01*
X140805121Y-68107379D01*
X140690125Y-68019139D01*
X140556209Y-67963670D01*
X140412500Y-67944750D01*
X140268791Y-67963670D01*
X140134875Y-68019139D01*
X140019879Y-68107379D01*
X139931639Y-68222375D01*
X139876170Y-68356291D01*
X139857250Y-68500000D01*
X138155250Y-68500000D01*
X138136330Y-68356291D01*
X138080861Y-68222375D01*
X137992621Y-68107379D01*
X137988880Y-68104509D01*
X137986127Y-68100430D01*
X137930296Y-68043885D01*
X137928050Y-68039476D01*
X137876815Y-67988241D01*
X137871991Y-67983194D01*
X137877625Y-67980861D01*
X137992621Y-67892621D01*
X138080861Y-67777625D01*
X138136330Y-67643709D01*
X138155250Y-67500000D01*
X138136330Y-67356291D01*
X138080861Y-67222375D01*
X137992621Y-67107379D01*
X137877625Y-67019139D01*
X137743709Y-66963670D01*
X137600000Y-66944750D01*
X137555231Y-66950644D01*
X137555250Y-66950500D01*
X137536330Y-66806791D01*
X137533724Y-66800500D01*
X139516344Y-66800500D01*
X139507379Y-66807379D01*
X139419139Y-66922375D01*
X139363670Y-67056291D01*
X139344750Y-67200000D01*
X139363670Y-67343709D01*
X139419139Y-67477625D01*
X139507379Y-67592621D01*
X139622375Y-67680861D01*
X139756291Y-67736330D01*
X139900000Y-67755250D01*
X140043709Y-67736330D01*
X140177625Y-67680861D01*
X140292621Y-67592621D01*
X140380861Y-67477625D01*
X140436330Y-67343709D01*
X140455250Y-67200000D01*
X140436330Y-67056291D01*
X140380861Y-66922375D01*
X140292621Y-66807379D01*
X140283656Y-66800500D01*
X140768421Y-66800500D01*
X141849500Y-67881579D01*
X141849500Y-69386566D01*
X141849500Y-69386567D01*
X141849500Y-69513433D01*
X141859361Y-69543784D01*
X141864354Y-69575304D01*
X141878842Y-69603738D01*
X141888704Y-69634090D01*
X141907462Y-69659909D01*
X141921950Y-69688342D01*
X141944513Y-69710905D01*
X141944516Y-69710909D01*
X142144247Y-69910640D01*
X142155459Y-69929126D01*
X142200482Y-69979438D01*
X142210575Y-69995621D01*
X142220264Y-70020842D01*
X142240131Y-70085176D01*
X142242457Y-70092387D01*
X142242653Y-70092970D01*
X142245508Y-70101085D01*
X142280166Y-70195146D01*
X142280321Y-70195544D01*
X142285069Y-70207039D01*
X142297444Y-70225249D01*
X142319139Y-70277625D01*
X142407379Y-70392621D01*
X142522375Y-70480861D01*
X142656291Y-70536330D01*
X142800000Y-70555250D01*
X142943709Y-70536330D01*
X143077625Y-70480861D01*
X143192621Y-70392621D01*
X143280861Y-70277625D01*
X143336330Y-70143709D01*
X143355250Y-70000000D01*
X143336330Y-69856291D01*
X143280861Y-69722375D01*
X143192621Y-69607379D01*
X143183004Y-69600000D01*
X143192621Y-69592621D01*
X143280861Y-69477625D01*
X143336330Y-69343709D01*
X143355250Y-69200000D01*
X143336330Y-69056291D01*
X143310465Y-68993847D01*
X143303194Y-68965147D01*
X143263564Y-68879399D01*
X143259992Y-68871936D01*
X143259719Y-68871385D01*
X143256120Y-68864352D01*
X143224673Y-68804804D01*
X143213687Y-68780113D01*
X143209381Y-68761534D01*
X143205644Y-68694136D01*
X143200500Y-68672923D01*
X143200500Y-67668481D01*
X143200500Y-67636567D01*
X143190638Y-67606215D01*
X143185646Y-67574696D01*
X143171157Y-67546261D01*
X143161296Y-67515910D01*
X143142537Y-67490090D01*
X143128050Y-67461658D01*
X143105486Y-67439094D01*
X143105484Y-67439091D01*
X142985438Y-67319045D01*
X143077625Y-67280861D01*
X143192621Y-67192621D01*
X143280861Y-67077625D01*
X143336330Y-66943709D01*
X143355250Y-66800000D01*
X143340274Y-66686251D01*
X143357462Y-66709909D01*
X143371950Y-66738342D01*
X143394513Y-66760905D01*
X143394516Y-66760909D01*
X145480874Y-68847267D01*
X145356291Y-68863670D01*
X145222375Y-68919139D01*
X145107379Y-69007379D01*
X145019139Y-69122375D01*
X144963670Y-69256291D01*
X144944750Y-69400000D01*
X144963670Y-69543709D01*
X145019139Y-69677625D01*
X145107379Y-69792621D01*
X145222375Y-69880861D01*
X145356291Y-69936330D01*
X145500000Y-69955250D01*
X145643709Y-69936330D01*
X145777625Y-69880861D01*
X145892621Y-69792621D01*
X145980861Y-69677625D01*
X146036330Y-69543709D01*
X146052732Y-69419125D01*
X146139091Y-69505484D01*
X146139094Y-69505486D01*
X146161658Y-69528050D01*
X146190092Y-69542538D01*
X146215911Y-69561296D01*
X146246260Y-69571157D01*
X146274696Y-69585646D01*
X146306216Y-69590638D01*
X146336567Y-69600500D01*
X146368481Y-69600500D01*
X147323133Y-69600500D01*
X147344136Y-69605644D01*
X147411536Y-69609381D01*
X147430108Y-69613686D01*
X147454820Y-69624681D01*
X147514352Y-69656120D01*
X147521385Y-69659719D01*
X147521936Y-69659992D01*
X147529400Y-69663565D01*
X147620406Y-69705565D01*
X147620770Y-69705725D01*
X147632296Y-69710513D01*
X147653920Y-69714637D01*
X147706291Y-69736330D01*
X147850000Y-69755250D01*
X147993709Y-69736330D01*
X148127625Y-69680861D01*
X148242621Y-69592621D01*
X148330861Y-69477625D01*
X148386330Y-69343709D01*
X148405250Y-69200000D01*
X148386330Y-69056291D01*
X148330861Y-68922375D01*
X148242621Y-68807379D01*
X148127625Y-68719139D01*
X147993709Y-68663670D01*
X147850000Y-68644750D01*
X147706291Y-68663670D01*
X147643854Y-68689531D01*
X147615150Y-68696804D01*
X147529384Y-68736442D01*
X147522417Y-68739769D01*
X147521902Y-68740023D01*
X147514368Y-68743869D01*
X147454816Y-68775318D01*
X147430112Y-68786311D01*
X147411534Y-68790616D01*
X147344128Y-68794356D01*
X147322919Y-68799500D01*
X147113221Y-68799500D01*
X147136330Y-68743709D01*
X147155250Y-68600000D01*
X147136330Y-68456291D01*
X147080861Y-68322375D01*
X146992621Y-68207379D01*
X146877625Y-68119139D01*
X146808473Y-68090495D01*
X146782593Y-68075893D01*
X146692650Y-68045194D01*
X146677167Y-68040364D01*
X146675994Y-68040032D01*
X146660576Y-68036099D01*
X146588873Y-68019783D01*
X146560580Y-68012257D01*
X146554916Y-68009333D01*
X146509996Y-67970983D01*
X146493250Y-67961171D01*
X146470246Y-67938167D01*
X146600000Y-67955250D01*
X146743709Y-67936330D01*
X146877625Y-67880861D01*
X146992621Y-67792621D01*
X147080861Y-67677625D01*
X147136330Y-67543709D01*
X147155250Y-67400000D01*
X147136330Y-67256291D01*
X147080861Y-67122375D01*
X146992621Y-67007379D01*
X146877625Y-66919139D01*
X146743709Y-66863670D01*
X146600000Y-66844750D01*
X146456291Y-66863670D01*
X146337751Y-66912769D01*
X146337107Y-66913005D01*
X146336927Y-66913111D01*
X146322375Y-66919139D01*
X146307615Y-66930464D01*
X146279303Y-66947225D01*
X146085406Y-66753328D01*
X146100000Y-66755250D01*
X146243709Y-66736330D01*
X146377625Y-66680861D01*
X146492621Y-66592621D01*
X146580861Y-66477625D01*
X146636330Y-66343709D01*
X146655250Y-66200000D01*
X146636330Y-66056291D01*
X146580861Y-65922375D01*
X146492621Y-65807379D01*
X146377625Y-65719139D01*
X146243709Y-65663670D01*
X146100000Y-65644750D01*
X145956291Y-65663670D01*
X145893854Y-65689531D01*
X145865150Y-65696804D01*
X145779384Y-65736442D01*
X145772417Y-65739769D01*
X145771902Y-65740023D01*
X145764368Y-65743869D01*
X145704816Y-65775318D01*
X145682854Y-65785090D01*
X143997765Y-64100000D01*
X144694355Y-64100000D01*
X144714860Y-64268872D01*
X144775182Y-64427930D01*
X144871817Y-64567929D01*
X144999148Y-64680734D01*
X145149775Y-64759790D01*
X145314944Y-64800500D01*
X145485056Y-64800500D01*
X145650225Y-64759790D01*
X145796411Y-64683064D01*
X145794355Y-64700000D01*
X145814860Y-64868872D01*
X145875182Y-65027930D01*
X145971817Y-65167929D01*
X146099148Y-65280734D01*
X146249775Y-65359790D01*
X146414944Y-65400500D01*
X146585056Y-65400500D01*
X146750225Y-65359790D01*
X146900852Y-65280734D01*
X147028183Y-65167929D01*
X147124818Y-65027930D01*
X147185140Y-64868872D01*
X147205645Y-64700000D01*
X147185140Y-64531128D01*
X147124818Y-64372070D01*
X147028183Y-64232071D01*
X146900852Y-64119266D01*
X146750225Y-64040210D01*
X146585056Y-63999500D01*
X146414944Y-63999500D01*
X146249775Y-64040210D01*
X146103588Y-64116935D01*
X146105645Y-64100000D01*
X146085140Y-63931128D01*
X146024818Y-63772070D01*
X145928183Y-63632071D01*
X145872235Y-63582506D01*
X146570500Y-63582506D01*
X146609990Y-63742724D01*
X146686675Y-63888835D01*
X146796099Y-64012349D01*
X146931901Y-64106087D01*
X147086191Y-64164601D01*
X147208895Y-64179500D01*
X147291105Y-64179500D01*
X147413809Y-64164601D01*
X147568099Y-64106087D01*
X147703901Y-64012349D01*
X147813325Y-63888835D01*
X147890010Y-63742724D01*
X147929500Y-63582506D01*
X147929500Y-63417494D01*
X147890010Y-63257276D01*
X147813325Y-63111165D01*
X147703901Y-62987651D01*
X147568099Y-62893913D01*
X147413809Y-62835399D01*
X147291105Y-62820500D01*
X147208895Y-62820500D01*
X147086191Y-62835399D01*
X146931901Y-62893913D01*
X146796099Y-62987651D01*
X146686675Y-63111165D01*
X146609990Y-63257276D01*
X146570500Y-63417494D01*
X146570500Y-63582506D01*
X145872235Y-63582506D01*
X145800852Y-63519266D01*
X145650225Y-63440210D01*
X145485056Y-63399500D01*
X145314944Y-63399500D01*
X145149775Y-63440210D01*
X144999148Y-63519266D01*
X144871817Y-63632071D01*
X144775182Y-63772070D01*
X144714860Y-63931128D01*
X144694355Y-64100000D01*
X143997765Y-64100000D01*
X143192281Y-63294516D01*
X143192277Y-63294513D01*
X143169714Y-63271950D01*
X143141281Y-63257462D01*
X143115462Y-63238704D01*
X143085110Y-63228842D01*
X143056676Y-63214354D01*
X143025156Y-63209361D01*
X142994805Y-63199500D01*
X142962891Y-63199500D01*
X142513221Y-63199500D01*
X142536330Y-63143709D01*
X142555250Y-63000000D01*
X142536330Y-62856291D01*
X142533931Y-62850500D01*
X143266567Y-62850500D01*
X143393433Y-62850500D01*
X143423784Y-62840638D01*
X143455304Y-62835646D01*
X143483738Y-62821157D01*
X143514090Y-62811296D01*
X143539909Y-62792537D01*
X143568342Y-62778050D01*
X143590905Y-62755486D01*
X143590909Y-62755484D01*
X143833978Y-62512414D01*
X143846386Y-62505881D01*
X144091051Y-62312247D01*
X144258917Y-62251718D01*
X144474497Y-62231268D01*
X144764446Y-62200647D01*
X144792410Y-62196377D01*
X144794540Y-62195950D01*
X144822186Y-62189053D01*
X145057344Y-62118583D01*
X145096198Y-62111321D01*
X145146122Y-62091980D01*
X145180582Y-62081654D01*
X145195325Y-62076825D01*
X145196432Y-62076431D01*
X145217083Y-62068223D01*
X145229693Y-62059604D01*
X145295019Y-62034298D01*
X145476302Y-61922052D01*
X145633872Y-61778407D01*
X145762366Y-61608255D01*
X145857405Y-61417389D01*
X145915756Y-61212310D01*
X145928768Y-61071889D01*
X146820000Y-61071889D01*
X146860507Y-61209844D01*
X146938239Y-61330798D01*
X147046900Y-61424952D01*
X147177685Y-61484680D01*
X147284237Y-61500000D01*
X147355763Y-61500000D01*
X147462315Y-61484680D01*
X147593100Y-61424952D01*
X147701761Y-61330798D01*
X147779493Y-61209844D01*
X147820000Y-61071889D01*
X147820000Y-60928111D01*
X147779493Y-60790156D01*
X147701761Y-60669202D01*
X147593100Y-60575048D01*
X147462315Y-60515320D01*
X147355763Y-60500000D01*
X147284237Y-60500000D01*
X147177685Y-60515320D01*
X147046900Y-60575048D01*
X146938239Y-60669202D01*
X146860507Y-60790156D01*
X146820000Y-60928111D01*
X146820000Y-61071889D01*
X145928768Y-61071889D01*
X145935429Y-61000000D01*
X145915756Y-60787690D01*
X145857405Y-60582611D01*
X145762366Y-60391745D01*
X145633872Y-60221593D01*
X145476302Y-60077948D01*
X145295019Y-59965702D01*
X145096198Y-59888679D01*
X144886610Y-59849500D01*
X144673390Y-59849500D01*
X144463802Y-59888679D01*
X144264981Y-59965702D01*
X144083698Y-60077948D01*
X143926128Y-60221593D01*
X143797634Y-60391745D01*
X143702595Y-60582611D01*
X143687841Y-60634462D01*
X143590944Y-60957811D01*
X143584058Y-60985404D01*
X143583631Y-60987532D01*
X143579349Y-61015551D01*
X143548403Y-61308758D01*
X143528277Y-61521087D01*
X143467750Y-61688947D01*
X143274116Y-61933616D01*
X143266962Y-61946644D01*
X143164107Y-62049500D01*
X142715778Y-62049500D01*
X142755019Y-62034298D01*
X142936302Y-61922052D01*
X143093872Y-61778407D01*
X143222366Y-61608255D01*
X143317405Y-61417389D01*
X143375756Y-61212310D01*
X143395429Y-61000000D01*
X143375756Y-60787690D01*
X143317405Y-60582611D01*
X143222366Y-60391745D01*
X143093872Y-60221593D01*
X142936302Y-60077948D01*
X142755019Y-59965702D01*
X142556198Y-59888679D01*
X142346610Y-59849500D01*
X142133390Y-59849500D01*
X141923802Y-59888679D01*
X141724981Y-59965702D01*
X141543698Y-60077948D01*
X141386128Y-60221593D01*
X141257634Y-60391745D01*
X141162595Y-60582611D01*
X141147841Y-60634462D01*
X141050944Y-60957811D01*
X141044058Y-60985404D01*
X141043631Y-60987532D01*
X141039349Y-61015551D01*
X141008403Y-61308758D01*
X140988277Y-61521087D01*
X140927750Y-61688947D01*
X140850499Y-61786557D01*
X140850499Y-60105136D01*
X140847585Y-60080009D01*
X140802206Y-59977235D01*
X140722765Y-59897794D01*
X140619991Y-59852415D01*
X140594865Y-59849500D01*
X138805136Y-59849501D01*
X138780009Y-59852415D01*
X138677235Y-59897794D01*
X138597794Y-59977235D01*
X138552415Y-60080009D01*
X138549500Y-60105135D01*
X138549501Y-61894864D01*
X138552415Y-61919991D01*
X138597794Y-62022765D01*
X138637029Y-62062000D01*
X131328754Y-62062000D01*
X131336330Y-62043709D01*
X131355250Y-61900000D01*
X131336330Y-61756291D01*
X131280861Y-61622375D01*
X131192621Y-61507379D01*
X131077625Y-61419139D01*
X130943709Y-61363670D01*
X130800000Y-61344750D01*
X130656291Y-61363670D01*
X130522375Y-61419139D01*
X130407379Y-61507379D01*
X130319139Y-61622375D01*
X130263670Y-61756291D01*
X130244750Y-61900000D01*
X130263670Y-62043709D01*
X130271246Y-62062000D01*
X130128754Y-62062000D01*
X130136330Y-62043709D01*
X130155250Y-61900000D01*
X130136330Y-61756291D01*
X130080861Y-61622375D01*
X129992621Y-61507379D01*
X129877625Y-61419139D01*
X129743709Y-61363670D01*
X129600000Y-61344750D01*
X129456291Y-61363670D01*
X129322375Y-61419139D01*
X129207379Y-61507379D01*
X129119139Y-61622375D01*
X129063670Y-61756291D01*
X129044750Y-61900000D01*
X129063670Y-62043709D01*
X129071246Y-62062000D01*
X128331579Y-62062000D01*
X127514095Y-61244516D01*
X127514091Y-61244513D01*
X127491528Y-61221950D01*
X127463095Y-61207462D01*
X127437276Y-61188704D01*
X127406924Y-61178842D01*
X127378490Y-61164354D01*
X127346970Y-61159361D01*
X127316619Y-61149500D01*
X127284705Y-61149500D01*
X122618481Y-61149500D01*
X122618475Y-61149501D01*
X122586567Y-61149501D01*
X122556220Y-61159361D01*
X122524696Y-61164354D01*
X122496260Y-61178842D01*
X122465910Y-61188704D01*
X122440092Y-61207462D01*
X122411658Y-61221950D01*
X122389090Y-61244516D01*
X122389091Y-61244517D01*
X118494516Y-65139091D01*
X118494513Y-65139094D01*
X118471950Y-65161658D01*
X118457462Y-65190090D01*
X118438704Y-65215910D01*
X118428842Y-65246261D01*
X118414354Y-65274696D01*
X118409361Y-65306215D01*
X118399500Y-65336567D01*
X118399499Y-65368481D01*
X118399500Y-65368481D01*
X118399500Y-66173127D01*
X118394355Y-66194133D01*
X118390616Y-66261535D01*
X118386311Y-66280112D01*
X118375318Y-66304816D01*
X118343869Y-66364368D01*
X118340023Y-66371902D01*
X118339769Y-66372417D01*
X118336441Y-66379386D01*
X118294325Y-66470654D01*
X118294175Y-66470996D01*
X118289486Y-66482296D01*
X118285360Y-66503925D01*
X118263670Y-66556291D01*
X118244750Y-66700000D01*
X118263670Y-66843709D01*
X118319139Y-66977625D01*
X118407379Y-67092621D01*
X118522375Y-67180861D01*
X118656291Y-67236330D01*
X118800000Y-67255250D01*
X118943709Y-67236330D01*
X119077625Y-67180861D01*
X119192621Y-67092621D01*
X119280861Y-66977625D01*
X119336330Y-66843709D01*
X119355250Y-66700000D01*
X119336330Y-66556291D01*
X119310465Y-66493847D01*
X119303194Y-66465147D01*
X119263564Y-66379399D01*
X119259992Y-66371936D01*
X119259719Y-66371385D01*
X119256120Y-66364352D01*
X119224673Y-66304804D01*
X119213687Y-66280113D01*
X119209381Y-66261534D01*
X119205644Y-66194136D01*
X119200500Y-66172923D01*
X119200500Y-65565892D01*
X120186320Y-64580072D01*
X120186311Y-64580112D01*
X120175318Y-64604816D01*
X120143869Y-64664368D01*
X120140023Y-64671902D01*
X120139769Y-64672417D01*
X120136441Y-64679386D01*
X120094325Y-64770654D01*
X120094175Y-64770996D01*
X120089486Y-64782296D01*
X120085360Y-64803925D01*
X120063670Y-64856291D01*
X120044750Y-65000000D01*
X120063670Y-65143709D01*
X120119139Y-65277625D01*
X120207379Y-65392621D01*
X120322375Y-65480861D01*
X120456291Y-65536330D01*
X120600000Y-65555250D01*
X120743709Y-65536330D01*
X120877625Y-65480861D01*
X120992621Y-65392621D01*
X121080861Y-65277625D01*
X121136330Y-65143709D01*
X121155250Y-65000000D01*
X121136330Y-64856291D01*
X121110465Y-64793847D01*
X121103194Y-64765147D01*
X121063564Y-64679399D01*
X121059992Y-64671936D01*
X121059719Y-64671385D01*
X121056120Y-64664352D01*
X121024673Y-64604804D01*
X121013687Y-64580113D01*
X121009381Y-64561534D01*
X121005644Y-64494136D01*
X121000500Y-64472923D01*
X121000500Y-64388074D01*
X123038075Y-62350500D01*
X126313414Y-62350500D01*
X126308139Y-62357375D01*
X126252670Y-62491291D01*
X126233750Y-62635000D01*
X126252670Y-62778709D01*
X126287170Y-62862000D01*
X123300933Y-62862000D01*
X123174067Y-62862000D01*
X123143715Y-62871861D01*
X123112196Y-62876854D01*
X123083761Y-62891342D01*
X123053410Y-62901204D01*
X123027590Y-62919962D01*
X122999158Y-62934450D01*
X122976594Y-62957013D01*
X122976591Y-62957016D01*
X121644516Y-64289091D01*
X121644513Y-64289094D01*
X121621950Y-64311658D01*
X121607462Y-64340090D01*
X121588704Y-64365910D01*
X121578842Y-64396261D01*
X121564354Y-64424696D01*
X121559361Y-64456215D01*
X121549500Y-64486567D01*
X121549499Y-64518481D01*
X121549500Y-64518481D01*
X121549500Y-64892573D01*
X121544397Y-64918409D01*
X121543588Y-64997609D01*
X121540524Y-65039181D01*
X121535942Y-65060877D01*
X121521204Y-65103078D01*
X121490565Y-65178147D01*
X121488467Y-65183426D01*
X121484068Y-65207043D01*
X121463670Y-65256291D01*
X121444750Y-65400000D01*
X121463670Y-65543709D01*
X121519139Y-65677625D01*
X121607379Y-65792621D01*
X121722375Y-65880861D01*
X121856291Y-65936330D01*
X122000000Y-65955250D01*
X122143709Y-65936330D01*
X122277625Y-65880861D01*
X122392621Y-65792621D01*
X122480861Y-65677625D01*
X122536330Y-65543709D01*
X122555250Y-65400000D01*
X122536330Y-65256291D01*
X122507412Y-65186477D01*
X122650000Y-65205250D01*
X122793709Y-65186330D01*
X122927625Y-65130861D01*
X123042621Y-65042621D01*
X123055816Y-65025424D01*
X123107379Y-65092621D01*
X123222375Y-65180861D01*
X123356291Y-65236330D01*
X123371128Y-65238283D01*
X123363670Y-65256291D01*
X123344750Y-65400000D01*
X123363670Y-65543709D01*
X123419139Y-65677625D01*
X123507379Y-65792621D01*
X123622375Y-65880861D01*
X123756291Y-65936330D01*
X123900000Y-65955250D01*
X124043709Y-65936330D01*
X124177625Y-65880861D01*
X124292621Y-65792621D01*
X124380861Y-65677625D01*
X124406729Y-65615172D01*
X124421879Y-65589741D01*
X124454489Y-65501082D01*
X124457245Y-65493265D01*
X124457443Y-65492678D01*
X124459864Y-65485183D01*
X124479732Y-65420850D01*
X124489424Y-65395616D01*
X124499516Y-65379436D01*
X124544536Y-65329129D01*
X124555893Y-65310499D01*
X125003392Y-64863000D01*
X130385343Y-64863000D01*
X130310222Y-64890633D01*
X130304221Y-64892912D01*
X130303851Y-64893057D01*
X130292960Y-64897569D01*
X130274747Y-64909945D01*
X130222375Y-64931639D01*
X130107379Y-65019879D01*
X130019139Y-65134875D01*
X129963670Y-65268791D01*
X129944750Y-65412500D01*
X129963670Y-65556209D01*
X130019139Y-65690125D01*
X130107379Y-65805121D01*
X130222375Y-65893361D01*
X130237196Y-65899500D01*
X129416392Y-65899500D01*
X129155748Y-65638855D01*
X129144538Y-65620372D01*
X129099516Y-65570061D01*
X129089423Y-65553879D01*
X129079730Y-65528645D01*
X129059864Y-65464316D01*
X129057443Y-65456819D01*
X129057245Y-65456232D01*
X129054488Y-65448413D01*
X129019833Y-65354353D01*
X129019678Y-65353955D01*
X129014930Y-65342460D01*
X129002555Y-65324251D01*
X128980861Y-65271875D01*
X128892621Y-65156879D01*
X128777625Y-65068639D01*
X128643709Y-65013170D01*
X128500000Y-64994250D01*
X128356291Y-65013170D01*
X128222375Y-65068639D01*
X128107379Y-65156879D01*
X128019139Y-65271875D01*
X127963670Y-65405791D01*
X127944750Y-65549500D01*
X127963670Y-65693209D01*
X128019139Y-65827125D01*
X128107379Y-65942121D01*
X128222375Y-66030361D01*
X128284823Y-66056227D01*
X128310256Y-66071378D01*
X128398913Y-66103988D01*
X128406732Y-66106745D01*
X128407319Y-66106943D01*
X128414816Y-66109364D01*
X128479145Y-66129230D01*
X128504379Y-66138923D01*
X128520561Y-66149016D01*
X128570872Y-66194038D01*
X128589504Y-66205396D01*
X128683608Y-66299500D01*
X127816393Y-66299500D01*
X127155747Y-65638854D01*
X127144538Y-65620372D01*
X127099516Y-65570061D01*
X127089423Y-65553879D01*
X127079730Y-65528645D01*
X127059864Y-65464316D01*
X127057443Y-65456819D01*
X127057245Y-65456232D01*
X127054488Y-65448413D01*
X127019833Y-65354353D01*
X127019678Y-65353955D01*
X127014930Y-65342460D01*
X127002555Y-65324251D01*
X126980861Y-65271875D01*
X126892621Y-65156879D01*
X126777625Y-65068639D01*
X126643709Y-65013170D01*
X126500000Y-64994250D01*
X126356291Y-65013170D01*
X126222375Y-65068639D01*
X126107379Y-65156879D01*
X126019139Y-65271875D01*
X125963670Y-65405791D01*
X125944750Y-65549500D01*
X125963670Y-65693209D01*
X126019139Y-65827125D01*
X126107379Y-65942121D01*
X126222375Y-66030361D01*
X126284823Y-66056227D01*
X126310256Y-66071378D01*
X126398913Y-66103988D01*
X126406732Y-66106745D01*
X126407319Y-66106943D01*
X126414816Y-66109364D01*
X126479145Y-66129230D01*
X126504379Y-66138923D01*
X126520561Y-66149016D01*
X126570872Y-66194038D01*
X126589503Y-66205396D01*
X127083607Y-66699500D01*
X126363433Y-66699500D01*
X126236567Y-66699500D01*
X126206214Y-66709361D01*
X126174696Y-66714354D01*
X126146264Y-66728840D01*
X126115911Y-66738703D01*
X126090089Y-66757463D01*
X126061658Y-66771950D01*
X126039094Y-66794513D01*
X126039091Y-66794516D01*
X124452732Y-68380874D01*
X124436330Y-68256291D01*
X124380861Y-68122375D01*
X124292621Y-68007379D01*
X124177625Y-67919139D01*
X124043709Y-67863670D01*
X123900000Y-67844750D01*
X123756291Y-67863670D01*
X123622375Y-67919139D01*
X123507379Y-68007379D01*
X123419139Y-68122375D01*
X123363670Y-68256291D01*
X123344750Y-68400000D01*
X123363670Y-68543709D01*
X123419139Y-68677625D01*
X123507379Y-68792621D01*
X123622375Y-68880861D01*
X123756291Y-68936330D01*
X123806287Y-68942912D01*
X123798922Y-68945505D01*
X123710222Y-68978133D01*
X123704221Y-68980412D01*
X123703851Y-68980557D01*
X123692960Y-68985069D01*
X123674747Y-68997445D01*
X123622375Y-69019139D01*
X123507379Y-69107379D01*
X123419139Y-69222375D01*
X123363670Y-69356291D01*
X123344750Y-69500000D01*
X123363670Y-69643709D01*
X123365957Y-69649231D01*
X123256291Y-69663670D01*
X123122375Y-69719139D01*
X123007379Y-69807379D01*
X122919139Y-69922375D01*
X122863670Y-70056291D01*
X122844750Y-70200000D01*
X122863670Y-70343709D01*
X122919139Y-70477625D01*
X123007379Y-70592621D01*
X123122375Y-70680861D01*
X123256291Y-70736330D01*
X123400000Y-70755250D01*
X123444902Y-70749338D01*
X123444750Y-70750500D01*
X123463670Y-70894209D01*
X123519139Y-71028125D01*
X123607379Y-71143121D01*
X123722375Y-71231361D01*
X123856291Y-71286830D01*
X124000000Y-71305750D01*
X124044768Y-71299855D01*
X124044750Y-71300000D01*
X124063670Y-71443709D01*
X124119139Y-71577625D01*
X124207379Y-71692621D01*
X124322375Y-71780861D01*
X124456291Y-71836330D01*
X124600000Y-71855250D01*
X124651534Y-71848465D01*
X124644750Y-71900000D01*
X124663670Y-72043709D01*
X124719139Y-72177625D01*
X124807379Y-72292621D01*
X124922375Y-72380861D01*
X125056291Y-72436330D01*
X125200000Y-72455250D01*
X125343709Y-72436330D01*
X125406160Y-72410462D01*
X125434856Y-72403192D01*
X125520604Y-72363561D01*
X125528268Y-72359889D01*
X125528822Y-72359614D01*
X125535645Y-72356119D01*
X125595180Y-72324679D01*
X125619887Y-72313686D01*
X125638462Y-72309381D01*
X125705863Y-72305644D01*
X125727076Y-72300500D01*
X127936779Y-72300500D01*
X127913670Y-72356291D01*
X127894750Y-72500000D01*
X127913670Y-72643709D01*
X127936779Y-72699500D01*
X127368481Y-72699500D01*
X127368475Y-72699501D01*
X127336567Y-72699501D01*
X127306220Y-72709361D01*
X127274696Y-72714354D01*
X127246260Y-72728842D01*
X127215910Y-72738704D01*
X127190092Y-72757462D01*
X127161658Y-72771950D01*
X127139092Y-72794516D01*
X127139091Y-72794517D01*
X126834107Y-73099500D01*
X121135249Y-73099500D01*
X121141697Y-73094552D01*
X121229937Y-72979556D01*
X121285406Y-72845640D01*
X121304326Y-72701931D01*
X121285406Y-72558222D01*
X121229937Y-72424306D01*
X121141697Y-72309310D01*
X121026701Y-72221070D01*
X120892785Y-72165601D01*
X120749076Y-72146681D01*
X120690483Y-72154395D01*
X120736330Y-72043709D01*
X120755250Y-71900000D01*
X120736330Y-71756291D01*
X120680861Y-71622375D01*
X120592621Y-71507379D01*
X120477625Y-71419139D01*
X120343709Y-71363670D01*
X120200000Y-71344750D01*
X120056291Y-71363670D01*
X119922375Y-71419139D01*
X119807379Y-71507379D01*
X119719139Y-71622375D01*
X119663670Y-71756291D01*
X119644750Y-71900000D01*
X119663670Y-72043709D01*
X119719139Y-72177625D01*
X119807379Y-72292621D01*
X119922375Y-72380861D01*
X120056291Y-72436330D01*
X120200000Y-72455250D01*
X120258592Y-72447535D01*
X120212746Y-72558222D01*
X120193826Y-72701931D01*
X120212746Y-72845640D01*
X120268215Y-72979556D01*
X120356455Y-73094552D01*
X120362903Y-73099500D01*
X117764076Y-73099500D01*
X117780861Y-73077625D01*
X117836330Y-72943709D01*
X117855250Y-72800000D01*
X117836330Y-72656291D01*
X117780861Y-72522375D01*
X117692621Y-72407379D01*
X117577625Y-72319139D01*
X117443709Y-72263670D01*
X117300000Y-72244750D01*
X117156291Y-72263670D01*
X117022375Y-72319139D01*
X116907379Y-72407379D01*
X116819139Y-72522375D01*
X116763670Y-72656291D01*
X116744750Y-72800000D01*
X116763670Y-72943709D01*
X116819139Y-73077625D01*
X116835924Y-73099500D01*
X114565892Y-73099500D01*
X112155747Y-70689354D01*
X112144538Y-70670872D01*
X112099516Y-70620561D01*
X112089423Y-70604379D01*
X112079730Y-70579145D01*
X112059864Y-70514816D01*
X112057443Y-70507319D01*
X112057245Y-70506732D01*
X112054488Y-70498913D01*
X112019833Y-70404853D01*
X112019678Y-70404455D01*
X112014930Y-70392960D01*
X112002555Y-70374751D01*
X111980861Y-70322375D01*
X111892621Y-70207379D01*
X111777625Y-70119139D01*
X111643709Y-70063670D01*
X111500000Y-70044750D01*
X111356291Y-70063670D01*
X111222375Y-70119139D01*
X111107379Y-70207379D01*
X111019139Y-70322375D01*
X110963670Y-70456291D01*
X110944750Y-70600000D01*
X110963670Y-70743709D01*
X111019139Y-70877625D01*
X111107379Y-70992621D01*
X111222375Y-71080861D01*
X111284823Y-71106727D01*
X111310256Y-71121878D01*
X111398913Y-71154488D01*
X111406732Y-71157245D01*
X111407319Y-71157443D01*
X111414816Y-71159864D01*
X111479145Y-71179730D01*
X111504379Y-71189423D01*
X111520561Y-71199516D01*
X111570872Y-71244538D01*
X111589503Y-71255896D01*
X114071950Y-73738342D01*
X114161658Y-73828050D01*
X114190092Y-73842537D01*
X114215910Y-73861296D01*
X114246260Y-73871157D01*
X114274696Y-73885646D01*
X114306220Y-73890638D01*
X114336567Y-73900499D01*
X114368475Y-73900499D01*
X114368481Y-73900500D01*
X114920792Y-73900500D01*
X114604027Y-74217264D01*
X114585540Y-74228477D01*
X114535226Y-74273501D01*
X114519047Y-74283592D01*
X114493803Y-74293289D01*
X114429473Y-74313155D01*
X114422224Y-74315493D01*
X114421668Y-74315680D01*
X114413588Y-74318524D01*
X114324888Y-74351152D01*
X114318887Y-74353431D01*
X114318517Y-74353576D01*
X114307626Y-74358088D01*
X114289413Y-74370464D01*
X114237041Y-74392158D01*
X114122045Y-74480398D01*
X114033805Y-74595394D01*
X113978336Y-74729310D01*
X113959416Y-74873019D01*
X113978336Y-75016728D01*
X114033805Y-75150644D01*
X114122045Y-75265640D01*
X114237041Y-75353880D01*
X114370957Y-75409349D01*
X114514666Y-75428269D01*
X114658375Y-75409349D01*
X114792291Y-75353880D01*
X114907287Y-75265640D01*
X114995527Y-75150644D01*
X115021395Y-75088191D01*
X115036545Y-75062760D01*
X115069155Y-74974101D01*
X115071911Y-74966284D01*
X115072109Y-74965697D01*
X115074530Y-74958202D01*
X115094398Y-74893869D01*
X115104090Y-74868635D01*
X115114182Y-74852455D01*
X115159202Y-74802148D01*
X115170558Y-74783519D01*
X115653578Y-74300500D01*
X120786779Y-74300500D01*
X120763670Y-74356291D01*
X120744750Y-74500000D01*
X120751383Y-74550383D01*
X120751148Y-74564877D01*
X120760615Y-74620504D01*
X120763670Y-74643709D01*
X120765217Y-74647444D01*
X120774385Y-74685937D01*
X120775284Y-74688853D01*
X120789568Y-74726273D01*
X120795158Y-74738448D01*
X120034107Y-75499500D01*
X119602795Y-75499500D01*
X119602790Y-75499500D01*
X119570880Y-75499501D01*
X119540532Y-75509361D01*
X119509010Y-75514354D01*
X119480574Y-75528842D01*
X119450224Y-75538704D01*
X119424406Y-75557462D01*
X119395972Y-75571950D01*
X119373405Y-75594517D01*
X118694516Y-76273406D01*
X118694513Y-76273409D01*
X118671950Y-76295973D01*
X118657461Y-76324407D01*
X118638704Y-76350226D01*
X118628842Y-76380575D01*
X118614354Y-76409011D01*
X118609361Y-76440531D01*
X118599500Y-76470882D01*
X118599499Y-76502795D01*
X118599500Y-76502796D01*
X118599499Y-77002735D01*
X116802735Y-78799500D01*
X114771818Y-78799500D01*
X114742471Y-78796058D01*
X114691964Y-78799500D01*
X114636567Y-78799500D01*
X114619053Y-78805190D01*
X114602470Y-78807168D01*
X114600142Y-78807566D01*
X114569711Y-78814383D01*
X114487496Y-78837265D01*
X114457738Y-78847220D01*
X114455515Y-78848093D01*
X114427015Y-78861007D01*
X114358164Y-78896561D01*
X114351294Y-78900220D01*
X114350795Y-78900494D01*
X114344174Y-78904238D01*
X114275236Y-78944356D01*
X114182612Y-78988606D01*
X114164699Y-79001607D01*
X114122375Y-79019139D01*
X114007379Y-79107379D01*
X113919139Y-79222375D01*
X113863670Y-79356291D01*
X113844750Y-79500000D01*
X113863670Y-79643709D01*
X113919139Y-79777625D01*
X114007379Y-79892621D01*
X114081505Y-79949500D01*
X112513433Y-79949500D01*
X112386567Y-79949500D01*
X112356215Y-79959361D01*
X112324696Y-79964354D01*
X112296261Y-79978842D01*
X112265910Y-79988704D01*
X112240092Y-80007462D01*
X112211658Y-80021950D01*
X112189090Y-80044517D01*
X112189091Y-80044517D01*
X110389361Y-81844245D01*
X110370874Y-81855458D01*
X110320560Y-81900482D01*
X110304381Y-81910573D01*
X110279137Y-81920270D01*
X110214807Y-81940136D01*
X110207558Y-81942474D01*
X110207002Y-81942661D01*
X110198922Y-81945505D01*
X110110222Y-81978133D01*
X110104221Y-81980412D01*
X110103851Y-81980557D01*
X110092960Y-81985069D01*
X110074747Y-81997445D01*
X110022375Y-82019139D01*
X109907379Y-82107379D01*
X109819139Y-82222375D01*
X109763670Y-82356291D01*
X109744750Y-82500000D01*
X105331419Y-82500000D01*
X105377625Y-82480861D01*
X105492621Y-82392621D01*
X105580861Y-82277625D01*
X105636330Y-82143709D01*
X105655250Y-82000000D01*
X105636330Y-81856291D01*
X105580861Y-81722375D01*
X105492621Y-81607379D01*
X105377625Y-81519139D01*
X105243709Y-81463670D01*
X105100000Y-81444750D01*
X104956291Y-81463670D01*
X104822375Y-81519139D01*
X104707379Y-81607379D01*
X104619139Y-81722375D01*
X104563670Y-81856291D01*
X104544750Y-82000000D01*
X96800000Y-82000000D01*
X96800000Y-78700000D01*
X107444750Y-78700000D01*
X107463670Y-78843709D01*
X107519139Y-78977625D01*
X107607379Y-79092621D01*
X107722375Y-79180861D01*
X107856291Y-79236330D01*
X108000000Y-79255250D01*
X108143709Y-79236330D01*
X108277625Y-79180861D01*
X108392621Y-79092621D01*
X108480861Y-78977625D01*
X108536330Y-78843709D01*
X108555250Y-78700000D01*
X108536330Y-78556291D01*
X108480861Y-78422375D01*
X108392621Y-78307379D01*
X108277625Y-78219139D01*
X108143709Y-78163670D01*
X108000000Y-78144750D01*
X107856291Y-78163670D01*
X107722375Y-78219139D01*
X107607379Y-78307379D01*
X107519139Y-78422375D01*
X107463670Y-78556291D01*
X107444750Y-78700000D01*
X96800000Y-78700000D01*
X96800000Y-77500000D01*
X106194355Y-77500000D01*
X106214860Y-77668872D01*
X106275182Y-77827930D01*
X106371817Y-77967929D01*
X106499148Y-78080734D01*
X106649775Y-78159790D01*
X106814944Y-78200500D01*
X106985056Y-78200500D01*
X107150225Y-78159790D01*
X107300852Y-78080734D01*
X107428183Y-77967929D01*
X107524818Y-77827930D01*
X107585140Y-77668872D01*
X107605645Y-77500000D01*
X108944750Y-77500000D01*
X108963670Y-77643709D01*
X109019139Y-77777625D01*
X109107379Y-77892621D01*
X109222375Y-77980861D01*
X109356291Y-78036330D01*
X109500000Y-78055250D01*
X109643709Y-78036330D01*
X109777625Y-77980861D01*
X109892621Y-77892621D01*
X109980861Y-77777625D01*
X110036330Y-77643709D01*
X110055250Y-77500000D01*
X110036330Y-77356291D01*
X109980861Y-77222375D01*
X109892621Y-77107379D01*
X109777625Y-77019139D01*
X109643709Y-76963670D01*
X109500000Y-76944750D01*
X109356291Y-76963670D01*
X109222375Y-77019139D01*
X109107379Y-77107379D01*
X109019139Y-77222375D01*
X108963670Y-77356291D01*
X108944750Y-77500000D01*
X107605645Y-77500000D01*
X107585140Y-77331128D01*
X107524818Y-77172070D01*
X107428183Y-77032071D01*
X107300852Y-76919266D01*
X107150225Y-76840210D01*
X106985056Y-76799500D01*
X106814944Y-76799500D01*
X106649775Y-76840210D01*
X106499148Y-76919266D01*
X106371817Y-77032071D01*
X106275182Y-77172070D01*
X106214860Y-77331128D01*
X106194355Y-77500000D01*
X96800000Y-77500000D01*
X96800000Y-76500000D01*
X107394355Y-76500000D01*
X107414860Y-76668872D01*
X107475182Y-76827930D01*
X107571817Y-76967929D01*
X107699148Y-77080734D01*
X107849775Y-77159790D01*
X108014944Y-77200500D01*
X108185056Y-77200500D01*
X108350225Y-77159790D01*
X108500852Y-77080734D01*
X108628183Y-76967929D01*
X108724818Y-76827930D01*
X108785140Y-76668872D01*
X108805645Y-76500000D01*
X108785140Y-76331128D01*
X108724818Y-76172070D01*
X108628183Y-76032071D01*
X108500852Y-75919266D01*
X108350225Y-75840210D01*
X108185056Y-75799500D01*
X108014944Y-75799500D01*
X107849775Y-75840210D01*
X107699148Y-75919266D01*
X107571817Y-76032071D01*
X107475182Y-76172070D01*
X107414860Y-76331128D01*
X107394355Y-76500000D01*
X96800000Y-76500000D01*
X96800000Y-75500000D01*
X101032250Y-75500000D01*
X101051170Y-75643709D01*
X101106639Y-75777625D01*
X101194879Y-75892621D01*
X101309875Y-75980861D01*
X101443791Y-76036330D01*
X101587500Y-76055250D01*
X101731209Y-76036330D01*
X101865125Y-75980861D01*
X101980121Y-75892621D01*
X102068361Y-75777625D01*
X102123830Y-75643709D01*
X102142750Y-75500000D01*
X102123830Y-75356291D01*
X102068361Y-75222375D01*
X101980121Y-75107379D01*
X101865125Y-75019139D01*
X101731209Y-74963670D01*
X101587500Y-74944750D01*
X101443791Y-74963670D01*
X101309875Y-75019139D01*
X101194879Y-75107379D01*
X101106639Y-75222375D01*
X101051170Y-75356291D01*
X101032250Y-75500000D01*
X96800000Y-75500000D01*
X96800000Y-74051361D01*
X96815081Y-74000000D01*
X110644750Y-74000000D01*
X110663670Y-74143709D01*
X110719139Y-74277625D01*
X110807379Y-74392621D01*
X110922375Y-74480861D01*
X111056291Y-74536330D01*
X111200000Y-74555250D01*
X111343709Y-74536330D01*
X111477625Y-74480861D01*
X111592621Y-74392621D01*
X111680861Y-74277625D01*
X111736330Y-74143709D01*
X111755250Y-74000000D01*
X111736330Y-73856291D01*
X111680861Y-73722375D01*
X111592621Y-73607379D01*
X111477625Y-73519139D01*
X111343709Y-73463670D01*
X111200000Y-73444750D01*
X111056291Y-73463670D01*
X110922375Y-73519139D01*
X110807379Y-73607379D01*
X110719139Y-73722375D01*
X110663670Y-73856291D01*
X110644750Y-74000000D01*
X96815081Y-74000000D01*
X96819685Y-73984322D01*
X96836314Y-73963685D01*
X98600000Y-72200000D01*
X108419750Y-72200000D01*
X108438670Y-72343709D01*
X108494139Y-72477625D01*
X108582379Y-72592621D01*
X108697375Y-72680861D01*
X108831291Y-72736330D01*
X108975000Y-72755250D01*
X109118709Y-72736330D01*
X109252625Y-72680861D01*
X109367621Y-72592621D01*
X109455861Y-72477625D01*
X109511330Y-72343709D01*
X109530250Y-72200000D01*
X109511330Y-72056291D01*
X109455861Y-71922375D01*
X109367621Y-71807379D01*
X109252625Y-71719139D01*
X109118709Y-71663670D01*
X108975000Y-71644750D01*
X108831291Y-71663670D01*
X108697375Y-71719139D01*
X108582379Y-71807379D01*
X108494139Y-71922375D01*
X108438670Y-72056291D01*
X108419750Y-72200000D01*
X98600000Y-72200000D01*
X100300000Y-70500000D01*
X100300000Y-68900000D01*
X100944750Y-68900000D01*
X100963670Y-69043709D01*
X101019139Y-69177625D01*
X101107379Y-69292621D01*
X101222375Y-69380861D01*
X101356291Y-69436330D01*
X101500000Y-69455250D01*
X101643709Y-69436330D01*
X101777625Y-69380861D01*
X101892621Y-69292621D01*
X101980861Y-69177625D01*
X102036330Y-69043709D01*
X102055250Y-68900000D01*
X102036330Y-68756291D01*
X101980861Y-68622375D01*
X101892621Y-68507379D01*
X101777625Y-68419139D01*
X101731419Y-68400000D01*
X107044750Y-68400000D01*
X107063670Y-68543709D01*
X107119139Y-68677625D01*
X107207379Y-68792621D01*
X107322375Y-68880861D01*
X107456291Y-68936330D01*
X107600000Y-68955250D01*
X107743709Y-68936330D01*
X107877625Y-68880861D01*
X107983005Y-68800000D01*
X109094355Y-68800000D01*
X109114860Y-68968872D01*
X109175182Y-69127930D01*
X109271817Y-69267929D01*
X109399148Y-69380734D01*
X109549775Y-69459790D01*
X109714944Y-69500500D01*
X109885056Y-69500500D01*
X110050225Y-69459790D01*
X110200852Y-69380734D01*
X110328183Y-69267929D01*
X110424818Y-69127930D01*
X110485140Y-68968872D01*
X110505645Y-68800000D01*
X110485140Y-68631128D01*
X110451156Y-68541518D01*
X120244750Y-68541518D01*
X120263670Y-68685227D01*
X120319139Y-68819143D01*
X120407379Y-68934139D01*
X120522375Y-69022379D01*
X120656291Y-69077848D01*
X120800000Y-69096768D01*
X120943709Y-69077848D01*
X121077625Y-69022379D01*
X121192621Y-68934139D01*
X121280861Y-68819143D01*
X121336330Y-68685227D01*
X121355250Y-68541518D01*
X121336330Y-68397809D01*
X121280861Y-68263893D01*
X121192621Y-68148897D01*
X121077625Y-68060657D01*
X120943709Y-68005188D01*
X120800000Y-67986268D01*
X120656291Y-68005188D01*
X120522375Y-68060657D01*
X120407379Y-68148897D01*
X120319139Y-68263893D01*
X120263670Y-68397809D01*
X120244750Y-68541518D01*
X110451156Y-68541518D01*
X110424818Y-68472070D01*
X110328183Y-68332071D01*
X110200852Y-68219266D01*
X110050225Y-68140210D01*
X109885056Y-68099500D01*
X109714944Y-68099500D01*
X109549775Y-68140210D01*
X109399148Y-68219266D01*
X109271817Y-68332071D01*
X109175182Y-68472070D01*
X109114860Y-68631128D01*
X109094355Y-68800000D01*
X107983005Y-68800000D01*
X107992621Y-68792621D01*
X108080861Y-68677625D01*
X108136330Y-68543709D01*
X108155250Y-68400000D01*
X108136330Y-68256291D01*
X108080861Y-68122375D01*
X107992621Y-68007379D01*
X107877625Y-67919139D01*
X107743709Y-67863670D01*
X107600000Y-67844750D01*
X107456291Y-67863670D01*
X107322375Y-67919139D01*
X107207379Y-68007379D01*
X107119139Y-68122375D01*
X107063670Y-68256291D01*
X107044750Y-68400000D01*
X101731419Y-68400000D01*
X101643709Y-68363670D01*
X101500000Y-68344750D01*
X101356291Y-68363670D01*
X101222375Y-68419139D01*
X101107379Y-68507379D01*
X101019139Y-68622375D01*
X100963670Y-68756291D01*
X100944750Y-68900000D01*
X100300000Y-68900000D01*
X100300000Y-68857148D01*
X100319685Y-68790109D01*
X100372489Y-68744354D01*
X100440186Y-68734209D01*
X100456288Y-68736328D01*
X100456291Y-68736330D01*
X100600000Y-68755250D01*
X100743709Y-68736330D01*
X100877625Y-68680861D01*
X100900746Y-68663118D01*
X100901268Y-68662917D01*
X100904671Y-68660107D01*
X100992621Y-68592621D01*
X100992623Y-68592617D01*
X100994900Y-68590871D01*
X101001912Y-68580512D01*
X101062479Y-68501580D01*
X101070622Y-68495634D01*
X101076318Y-68483544D01*
X101080861Y-68477625D01*
X101116278Y-68392117D01*
X101118233Y-68389692D01*
X101118806Y-68386015D01*
X101136330Y-68343709D01*
X101155250Y-68200000D01*
X101136330Y-68056291D01*
X101080861Y-67922375D01*
X100992621Y-67807379D01*
X100877625Y-67719139D01*
X100877624Y-67719138D01*
X100877622Y-67719137D01*
X100743709Y-67663670D01*
X100599999Y-67644749D01*
X100440185Y-67665790D01*
X100371150Y-67655024D01*
X100318894Y-67608644D01*
X100316412Y-67600000D01*
X104544750Y-67600000D01*
X104563670Y-67743709D01*
X104619139Y-67877625D01*
X104707379Y-67992621D01*
X104822375Y-68080861D01*
X104956291Y-68136330D01*
X105100000Y-68155250D01*
X105243709Y-68136330D01*
X105377625Y-68080861D01*
X105492621Y-67992621D01*
X105580861Y-67877625D01*
X105636330Y-67743709D01*
X105655250Y-67600000D01*
X105636330Y-67456291D01*
X105580861Y-67322375D01*
X105492621Y-67207379D01*
X105377625Y-67119139D01*
X105243709Y-67063670D01*
X105100000Y-67044750D01*
X104956291Y-67063670D01*
X104822375Y-67119139D01*
X104707379Y-67207379D01*
X104619139Y-67322375D01*
X104563670Y-67456291D01*
X104544750Y-67600000D01*
X100316412Y-67600000D01*
X100300000Y-67542851D01*
X100300000Y-66549500D01*
X108807250Y-66549500D01*
X108826170Y-66693209D01*
X108881639Y-66827125D01*
X108969879Y-66942121D01*
X109084875Y-67030361D01*
X109218791Y-67085830D01*
X109362500Y-67104750D01*
X109506209Y-67085830D01*
X109640125Y-67030361D01*
X109755121Y-66942121D01*
X109843361Y-66827125D01*
X109898830Y-66693209D01*
X109917750Y-66549500D01*
X109898830Y-66405791D01*
X109843361Y-66271875D01*
X109755121Y-66156879D01*
X109640125Y-66068639D01*
X109506209Y-66013170D01*
X109362500Y-65994250D01*
X109218791Y-66013170D01*
X109084875Y-66068639D01*
X108969879Y-66156879D01*
X108881639Y-66271875D01*
X108826170Y-66405791D01*
X108807250Y-66549500D01*
X100300000Y-66549500D01*
X100300000Y-65600000D01*
X110694355Y-65600000D01*
X110714860Y-65768872D01*
X110775182Y-65927930D01*
X110871817Y-66067929D01*
X110999148Y-66180734D01*
X111149775Y-66259790D01*
X111314944Y-66300500D01*
X111485056Y-66300500D01*
X111650225Y-66259790D01*
X111800852Y-66180734D01*
X111928183Y-66067929D01*
X112024818Y-65927930D01*
X112085140Y-65768872D01*
X112105645Y-65600000D01*
X112085140Y-65431128D01*
X112035410Y-65300000D01*
X112494355Y-65300000D01*
X112514860Y-65468872D01*
X112575182Y-65627930D01*
X112671817Y-65767929D01*
X112799148Y-65880734D01*
X112949775Y-65959790D01*
X113114944Y-66000500D01*
X113285056Y-66000500D01*
X113450225Y-65959790D01*
X113600852Y-65880734D01*
X113728183Y-65767929D01*
X113824818Y-65627930D01*
X113873335Y-65500000D01*
X116594355Y-65500000D01*
X116614860Y-65668872D01*
X116675182Y-65827930D01*
X116771817Y-65967929D01*
X116899148Y-66080734D01*
X117049775Y-66159790D01*
X117214944Y-66200500D01*
X117385056Y-66200500D01*
X117550225Y-66159790D01*
X117700852Y-66080734D01*
X117828183Y-65967929D01*
X117924818Y-65827930D01*
X117985140Y-65668872D01*
X118005645Y-65500000D01*
X117985140Y-65331128D01*
X117924818Y-65172070D01*
X117828183Y-65032071D01*
X117700852Y-64919266D01*
X117550225Y-64840210D01*
X117385056Y-64799500D01*
X117214944Y-64799500D01*
X117049775Y-64840210D01*
X116899148Y-64919266D01*
X116771817Y-65032071D01*
X116675182Y-65172070D01*
X116614860Y-65331128D01*
X116594355Y-65500000D01*
X113873335Y-65500000D01*
X113885140Y-65468872D01*
X113905645Y-65300000D01*
X113885140Y-65131128D01*
X113824818Y-64972070D01*
X113728183Y-64832071D01*
X113600852Y-64719266D01*
X113450225Y-64640210D01*
X113285056Y-64599500D01*
X113114944Y-64599500D01*
X112949775Y-64640210D01*
X112799148Y-64719266D01*
X112671817Y-64832071D01*
X112575182Y-64972070D01*
X112514860Y-65131128D01*
X112494355Y-65300000D01*
X112035410Y-65300000D01*
X112024818Y-65272070D01*
X111928183Y-65132071D01*
X111800852Y-65019266D01*
X111650225Y-64940210D01*
X111485056Y-64899500D01*
X111314944Y-64899500D01*
X111149775Y-64940210D01*
X110999148Y-65019266D01*
X110871817Y-65132071D01*
X110775182Y-65272070D01*
X110714860Y-65431128D01*
X110694355Y-65600000D01*
X100300000Y-65600000D01*
X100300000Y-64900000D01*
X104944750Y-64900000D01*
X104963670Y-65043709D01*
X105019139Y-65177625D01*
X105107379Y-65292621D01*
X105222375Y-65380861D01*
X105356291Y-65436330D01*
X105500000Y-65455250D01*
X105643709Y-65436330D01*
X105777625Y-65380861D01*
X105892621Y-65292621D01*
X105980861Y-65177625D01*
X106036330Y-65043709D01*
X106042085Y-65000000D01*
X108894750Y-65000000D01*
X108913670Y-65143709D01*
X108969139Y-65277625D01*
X109057379Y-65392621D01*
X109172375Y-65480861D01*
X109306291Y-65536330D01*
X109450000Y-65555250D01*
X109593709Y-65536330D01*
X109727625Y-65480861D01*
X109842621Y-65392621D01*
X109930861Y-65277625D01*
X109986330Y-65143709D01*
X110005250Y-65000000D01*
X109986330Y-64856291D01*
X109930861Y-64722375D01*
X109842621Y-64607379D01*
X109727625Y-64519139D01*
X109593709Y-64463670D01*
X109450000Y-64444750D01*
X109306291Y-64463670D01*
X109172375Y-64519139D01*
X109057379Y-64607379D01*
X108969139Y-64722375D01*
X108913670Y-64856291D01*
X108894750Y-65000000D01*
X106042085Y-65000000D01*
X106055250Y-64900000D01*
X106036330Y-64756291D01*
X105980861Y-64622375D01*
X105892621Y-64507379D01*
X105777625Y-64419139D01*
X105643709Y-64363670D01*
X105500000Y-64344750D01*
X105356291Y-64363670D01*
X105222375Y-64419139D01*
X105107379Y-64507379D01*
X105019139Y-64622375D01*
X104963670Y-64756291D01*
X104944750Y-64900000D01*
X100300000Y-64900000D01*
X100300000Y-64300000D01*
X106944750Y-64300000D01*
X106963670Y-64443709D01*
X107019139Y-64577625D01*
X107107379Y-64692621D01*
X107222375Y-64780861D01*
X107356291Y-64836330D01*
X107500000Y-64855250D01*
X107643709Y-64836330D01*
X107777625Y-64780861D01*
X107892621Y-64692621D01*
X107980861Y-64577625D01*
X108036330Y-64443709D01*
X108055250Y-64300000D01*
X108036330Y-64156291D01*
X107980861Y-64022375D01*
X107892621Y-63907379D01*
X107777625Y-63819139D01*
X107643709Y-63763670D01*
X107500000Y-63744750D01*
X107356291Y-63763670D01*
X107222375Y-63819139D01*
X107107379Y-63907379D01*
X107019139Y-64022375D01*
X106963670Y-64156291D01*
X106944750Y-64300000D01*
X100300000Y-64300000D01*
X100300000Y-64183402D01*
X100319685Y-64116363D01*
X100336314Y-64095726D01*
X101806394Y-62625647D01*
X101854029Y-62563950D01*
X101871350Y-62534355D01*
X101890681Y-62509317D01*
X102424400Y-61975598D01*
X102452649Y-61954451D01*
X102469037Y-61945504D01*
X102538647Y-61893394D01*
X103090221Y-61341819D01*
X103151545Y-61308334D01*
X103177903Y-61305500D01*
X103820538Y-61305500D01*
X103822840Y-61305500D01*
X103868116Y-61302126D01*
X103872197Y-61301514D01*
X103873170Y-61301369D01*
X103891545Y-61300000D01*
X104074903Y-61300000D01*
X104141942Y-61319685D01*
X104150375Y-61325614D01*
X104222375Y-61380861D01*
X104356291Y-61436330D01*
X104500000Y-61455250D01*
X104643709Y-61436330D01*
X104777625Y-61380861D01*
X104849612Y-61325623D01*
X104914779Y-61300430D01*
X104925097Y-61300000D01*
X105130038Y-61300000D01*
X105147685Y-61301262D01*
X105154884Y-61302297D01*
X105177160Y-61305500D01*
X112034106Y-61305500D01*
X112101145Y-61325185D01*
X112146900Y-61377989D01*
X112156844Y-61447147D01*
X112132481Y-61504987D01*
X112119138Y-61522374D01*
X112063670Y-61656290D01*
X112044749Y-61800000D01*
X112063670Y-61943709D01*
X112119137Y-62077622D01*
X112119138Y-62077624D01*
X112119139Y-62077625D01*
X112207379Y-62192621D01*
X112322375Y-62280861D01*
X112456291Y-62336330D01*
X112600000Y-62355250D01*
X112743709Y-62336330D01*
X112877625Y-62280861D01*
X112992621Y-62192621D01*
X113080861Y-62077625D01*
X113136330Y-61943709D01*
X113155250Y-61800000D01*
X113136330Y-61656291D01*
X113080861Y-61522375D01*
X113080861Y-61522374D01*
X113067519Y-61504987D01*
X113042324Y-61439818D01*
X113056362Y-61371373D01*
X113105176Y-61321383D01*
X113165894Y-61305500D01*
X113549548Y-61305500D01*
X113551351Y-61305461D01*
X113567267Y-61304986D01*
X113569050Y-61304895D01*
X113581589Y-61304159D01*
X113581617Y-61304152D01*
X113581622Y-61304152D01*
X113584293Y-61303527D01*
X113585436Y-61303260D01*
X113613682Y-61300000D01*
X118538326Y-61300000D01*
X118605365Y-61319685D01*
X118651120Y-61372489D01*
X118661064Y-61441647D01*
X118636702Y-61499486D01*
X118619138Y-61522375D01*
X118563670Y-61656290D01*
X118544749Y-61799999D01*
X118563670Y-61943709D01*
X118619137Y-62077622D01*
X118619138Y-62077624D01*
X118619139Y-62077625D01*
X118707379Y-62192621D01*
X118822375Y-62280861D01*
X118956291Y-62336330D01*
X119100000Y-62355250D01*
X119243709Y-62336330D01*
X119377625Y-62280861D01*
X119492621Y-62192621D01*
X119580861Y-62077625D01*
X119636330Y-61943709D01*
X119655250Y-61800000D01*
X119636330Y-61656291D01*
X119580861Y-61522375D01*
X119563298Y-61499486D01*
X119538104Y-61434317D01*
X119552142Y-61365872D01*
X119600956Y-61315883D01*
X119661674Y-61300000D01*
X121600000Y-61300000D01*
X122599999Y-60300000D01*
X129044750Y-60300000D01*
X129063670Y-60443709D01*
X129119139Y-60577625D01*
X129207379Y-60692621D01*
X129322375Y-60780861D01*
X129456291Y-60836330D01*
X129600000Y-60855250D01*
X129743709Y-60836330D01*
X129877625Y-60780861D01*
X129992621Y-60692621D01*
X130080861Y-60577625D01*
X130136330Y-60443709D01*
X130155250Y-60300000D01*
X130136330Y-60156291D01*
X130080861Y-60022375D01*
X129992621Y-59907379D01*
X129877625Y-59819139D01*
X129743709Y-59763670D01*
X129600000Y-59744750D01*
X129456291Y-59763670D01*
X129322375Y-59819139D01*
X129207379Y-59907379D01*
X129119139Y-60022375D01*
X129063670Y-60156291D01*
X129044750Y-60300000D01*
X122599999Y-60300000D01*
X123563681Y-59336318D01*
X123625004Y-59302834D01*
X123651362Y-59300000D01*
X126000000Y-59300000D01*
X126000000Y-59000000D01*
X135000000Y-59000000D01*
X135000000Y-59300000D01*
G37*
%TD.AperFunction*%
M02*
