%TF.GenerationSoftware,KiCad,Pcbnew,7.0.2*%
%TF.CreationDate,2023-11-20T11:29:32-06:00*%
%TF.ProjectId,LeaderSOM,4c656164-6572-4534-9f4d-2e6b69636164,rev?*%
%TF.SameCoordinates,Original*%
%TF.FileFunction,Legend,Top*%
%TF.FilePolarity,Positive*%
%FSLAX46Y46*%
G04 Gerber Fmt 4.6, Leading zero omitted, Abs format (unit mm)*
G04 Created by KiCad (PCBNEW 7.0.2) date 2023-11-20 11:29:32*
%MOMM*%
%LPD*%
G01*
G04 APERTURE LIST*
G04 Aperture macros list*
%AMRoundRect*
0 Rectangle with rounded corners*
0 $1 Rounding radius*
0 $2 $3 $4 $5 $6 $7 $8 $9 X,Y pos of 4 corners*
0 Add a 4 corners polygon primitive as box body*
4,1,4,$2,$3,$4,$5,$6,$7,$8,$9,$2,$3,0*
0 Add four circle primitives for the rounded corners*
1,1,$1+$1,$2,$3*
1,1,$1+$1,$4,$5*
1,1,$1+$1,$6,$7*
1,1,$1+$1,$8,$9*
0 Add four rect primitives between the rounded corners*
20,1,$1+$1,$2,$3,$4,$5,0*
20,1,$1+$1,$4,$5,$6,$7,0*
20,1,$1+$1,$6,$7,$8,$9,0*
20,1,$1+$1,$8,$9,$2,$3,0*%
%AMFreePoly0*
4,1,9,3.810000,0.150000,0.305000,0.150000,0.305000,-0.510000,-0.305000,-0.510000,-0.305000,0.510000,0.000000,0.510000,0.000000,4.060000,3.810000,4.060000,3.810000,0.150000,3.810000,0.150000,$1*%
%AMFreePoly1*
4,1,7,1.500000,0.866025,1.500000,-0.866025,0.000000,-1.732051,-1.500000,-0.866025,-1.500000,0.866025,0.000000,1.732051,1.500000,0.866025,1.500000,0.866025,$1*%
%AMFreePoly2*
4,1,9,3.862500,-0.866500,0.737500,-0.866500,0.737500,-0.450000,-0.737500,-0.450000,-0.737500,0.450000,0.737500,0.450000,0.737500,0.866500,3.862500,0.866500,3.862500,-0.866500,3.862500,-0.866500,$1*%
G04 Aperture macros list end*
%ADD10C,0.400000*%
%ADD11C,0.150000*%
%ADD12C,0.300000*%
%ADD13C,0.254000*%
%ADD14C,0.152400*%
%ADD15C,0.120000*%
%ADD16C,0.100000*%
%ADD17C,0.200000*%
%ADD18R,1.257300X1.549400*%
%ADD19C,1.700000*%
%ADD20C,1.270000*%
%ADD21RoundRect,0.150000X0.150000X-0.625000X0.150000X0.625000X-0.150000X0.625000X-0.150000X-0.625000X0*%
%ADD22R,0.279400X1.358900*%
%ADD23C,3.000000*%
%ADD24R,1.350000X1.200000*%
%ADD25R,1.200000X1.350000*%
%ADD26R,2.600000X2.600000*%
%ADD27R,0.610000X1.270000*%
%ADD28FreePoly0,180.000000*%
%ADD29R,0.610000X1.020000*%
%ADD30R,2.750000X1.000000*%
%ADD31RoundRect,0.062500X0.062500X-0.350000X0.062500X0.350000X-0.062500X0.350000X-0.062500X-0.350000X0*%
%ADD32RoundRect,0.062500X0.350000X-0.062500X0.350000X0.062500X-0.350000X0.062500X-0.350000X-0.062500X0*%
%ADD33R,1.700000X1.700000*%
%ADD34O,1.700000X1.700000*%
%ADD35RoundRect,0.243750X-0.243750X-0.456250X0.243750X-0.456250X0.243750X0.456250X-0.243750X0.456250X0*%
%ADD36RoundRect,0.250000X0.262500X0.450000X-0.262500X0.450000X-0.262500X-0.450000X0.262500X-0.450000X0*%
%ADD37FreePoly1,180.000000*%
%ADD38C,1.725000*%
%ADD39RoundRect,0.112500X-0.187500X-0.112500X0.187500X-0.112500X0.187500X0.112500X-0.187500X0.112500X0*%
%ADD40R,0.400000X1.350000*%
%ADD41O,1.200000X1.900000*%
%ADD42R,1.200000X1.900000*%
%ADD43C,1.450000*%
%ADD44R,1.500000X1.900000*%
%ADD45RoundRect,0.243750X0.243750X0.456250X-0.243750X0.456250X-0.243750X-0.456250X0.243750X-0.456250X0*%
%ADD46RoundRect,0.250000X0.250000X0.475000X-0.250000X0.475000X-0.250000X-0.475000X0.250000X-0.475000X0*%
%ADD47R,1.528000X0.650000*%
%ADD48RoundRect,0.250000X0.450000X-0.262500X0.450000X0.262500X-0.450000X0.262500X-0.450000X-0.262500X0*%
%ADD49R,1.300000X0.900000*%
%ADD50FreePoly2,180.000000*%
%ADD51RoundRect,0.250000X0.325000X0.650000X-0.325000X0.650000X-0.325000X-0.650000X0.325000X-0.650000X0*%
%ADD52R,1.900000X2.400000*%
%ADD53FreePoly0,0.000000*%
%ADD54RoundRect,0.250000X-0.262500X-0.450000X0.262500X-0.450000X0.262500X0.450000X-0.262500X0.450000X0*%
%ADD55RoundRect,0.075000X0.075000X-0.700000X0.075000X0.700000X-0.075000X0.700000X-0.075000X-0.700000X0*%
%ADD56RoundRect,0.075000X0.700000X-0.075000X0.700000X0.075000X-0.700000X0.075000X-0.700000X-0.075000X0*%
%ADD57FreePoly1,0.000000*%
%ADD58R,1.003300X0.558800*%
%ADD59RoundRect,0.250000X0.375000X0.625000X-0.375000X0.625000X-0.375000X-0.625000X0.375000X-0.625000X0*%
%ADD60C,0.850000*%
G04 APERTURE END LIST*
D10*
X119700000Y-78500000D02*
G75*
G03*
X119700000Y-78500000I-200000J0D01*
G01*
D11*
X95738095Y-63996666D02*
X96500000Y-63996666D01*
X96119047Y-64377619D02*
X96119047Y-63615714D01*
X96833333Y-63377619D02*
X97166666Y-64377619D01*
X97166666Y-64377619D02*
X97499999Y-63377619D01*
X98782380Y-79190476D02*
X98830000Y-79238095D01*
X98830000Y-79238095D02*
X98877619Y-79380952D01*
X98877619Y-79380952D02*
X98877619Y-79476190D01*
X98877619Y-79476190D02*
X98830000Y-79619047D01*
X98830000Y-79619047D02*
X98734761Y-79714285D01*
X98734761Y-79714285D02*
X98639523Y-79761904D01*
X98639523Y-79761904D02*
X98449047Y-79809523D01*
X98449047Y-79809523D02*
X98306190Y-79809523D01*
X98306190Y-79809523D02*
X98115714Y-79761904D01*
X98115714Y-79761904D02*
X98020476Y-79714285D01*
X98020476Y-79714285D02*
X97925238Y-79619047D01*
X97925238Y-79619047D02*
X97877619Y-79476190D01*
X97877619Y-79476190D02*
X97877619Y-79380952D01*
X97877619Y-79380952D02*
X97925238Y-79238095D01*
X97925238Y-79238095D02*
X97972857Y-79190476D01*
X98591904Y-78809523D02*
X98591904Y-78333333D01*
X98877619Y-78904761D02*
X97877619Y-78571428D01*
X97877619Y-78571428D02*
X98877619Y-78238095D01*
X98877619Y-77333333D02*
X98401428Y-77666666D01*
X98877619Y-77904761D02*
X97877619Y-77904761D01*
X97877619Y-77904761D02*
X97877619Y-77523809D01*
X97877619Y-77523809D02*
X97925238Y-77428571D01*
X97925238Y-77428571D02*
X97972857Y-77380952D01*
X97972857Y-77380952D02*
X98068095Y-77333333D01*
X98068095Y-77333333D02*
X98210952Y-77333333D01*
X98210952Y-77333333D02*
X98306190Y-77380952D01*
X98306190Y-77380952D02*
X98353809Y-77428571D01*
X98353809Y-77428571D02*
X98401428Y-77523809D01*
X98401428Y-77523809D02*
X98401428Y-77904761D01*
X98782380Y-75571428D02*
X98830000Y-75619047D01*
X98830000Y-75619047D02*
X98877619Y-75761904D01*
X98877619Y-75761904D02*
X98877619Y-75857142D01*
X98877619Y-75857142D02*
X98830000Y-75999999D01*
X98830000Y-75999999D02*
X98734761Y-76095237D01*
X98734761Y-76095237D02*
X98639523Y-76142856D01*
X98639523Y-76142856D02*
X98449047Y-76190475D01*
X98449047Y-76190475D02*
X98306190Y-76190475D01*
X98306190Y-76190475D02*
X98115714Y-76142856D01*
X98115714Y-76142856D02*
X98020476Y-76095237D01*
X98020476Y-76095237D02*
X97925238Y-75999999D01*
X97925238Y-75999999D02*
X97877619Y-75857142D01*
X97877619Y-75857142D02*
X97877619Y-75761904D01*
X97877619Y-75761904D02*
X97925238Y-75619047D01*
X97925238Y-75619047D02*
X97972857Y-75571428D01*
X98591904Y-75190475D02*
X98591904Y-74714285D01*
X98877619Y-75285713D02*
X97877619Y-74952380D01*
X97877619Y-74952380D02*
X98877619Y-74619047D01*
X98877619Y-74285713D02*
X97877619Y-74285713D01*
X97877619Y-74285713D02*
X98877619Y-73714285D01*
X98877619Y-73714285D02*
X97877619Y-73714285D01*
D12*
G36*
X97909286Y-97576725D02*
G01*
X95056638Y-97576725D01*
X95056638Y-96516765D01*
X95978845Y-96516765D01*
X96377449Y-96516765D01*
X96377449Y-96912438D01*
X96635369Y-96912438D01*
X96635369Y-96516765D01*
X97033974Y-96516765D01*
X97033974Y-96252983D01*
X96635369Y-96252983D01*
X96635369Y-95856210D01*
X96377449Y-95856210D01*
X96377449Y-96252983D01*
X95978845Y-96252983D01*
X95978845Y-96516765D01*
X95056638Y-96516765D01*
X95056638Y-94944330D01*
X95720924Y-94944330D01*
X95720924Y-95179169D01*
X95737737Y-95185678D01*
X95754286Y-95192839D01*
X95770572Y-95200653D01*
X95786595Y-95209119D01*
X95802354Y-95218238D01*
X95817850Y-95228010D01*
X95833083Y-95238434D01*
X95848053Y-95249511D01*
X95862759Y-95261240D01*
X95877201Y-95273622D01*
X95891381Y-95286657D01*
X95905297Y-95300344D01*
X95918950Y-95314684D01*
X95932339Y-95329676D01*
X95945465Y-95345321D01*
X95958328Y-95361618D01*
X95970759Y-95378165D01*
X95982680Y-95394557D01*
X95994092Y-95410794D01*
X96004994Y-95426877D01*
X96015387Y-95442805D01*
X96025270Y-95458579D01*
X96034644Y-95474198D01*
X96043508Y-95489663D01*
X96051863Y-95504973D01*
X96059708Y-95520128D01*
X96067044Y-95535129D01*
X96073870Y-95549976D01*
X96080187Y-95564667D01*
X96085995Y-95579205D01*
X96091293Y-95593587D01*
X96096081Y-95607815D01*
X96377449Y-95607815D01*
X96367600Y-95581109D01*
X96357104Y-95554847D01*
X96345962Y-95529028D01*
X96334172Y-95503653D01*
X96321736Y-95478722D01*
X96308653Y-95454234D01*
X96294922Y-95430190D01*
X96280546Y-95406590D01*
X96265522Y-95383433D01*
X96249851Y-95360720D01*
X96233534Y-95338450D01*
X96216569Y-95316624D01*
X96198958Y-95295242D01*
X96180700Y-95274304D01*
X96161795Y-95253809D01*
X96142243Y-95233757D01*
X97245000Y-95233757D01*
X97245000Y-94944330D01*
X95720924Y-94944330D01*
X95056638Y-94944330D01*
X95056638Y-94018527D01*
X95720924Y-94018527D01*
X95721346Y-94043770D01*
X95722613Y-94068484D01*
X95724724Y-94092669D01*
X95727679Y-94116323D01*
X95731479Y-94139449D01*
X95736123Y-94162045D01*
X95741611Y-94184111D01*
X95747943Y-94205648D01*
X95755121Y-94226655D01*
X95763142Y-94247133D01*
X95772008Y-94267081D01*
X95781718Y-94286500D01*
X95792272Y-94305389D01*
X95803671Y-94323749D01*
X95815914Y-94341579D01*
X95829002Y-94358879D01*
X95843014Y-94375439D01*
X95858122Y-94391137D01*
X95874326Y-94405973D01*
X95891627Y-94419948D01*
X95910024Y-94433061D01*
X95929517Y-94445313D01*
X95950106Y-94456703D01*
X95971792Y-94467232D01*
X95994574Y-94476899D01*
X96018452Y-94485704D01*
X96043426Y-94493649D01*
X96069497Y-94500731D01*
X96096664Y-94506952D01*
X96124927Y-94512312D01*
X96139469Y-94514668D01*
X96154286Y-94516810D01*
X96169377Y-94518736D01*
X96184741Y-94520446D01*
X96213318Y-94231751D01*
X96197845Y-94230522D01*
X96182932Y-94228940D01*
X96161616Y-94225908D01*
X96141562Y-94222084D01*
X96122770Y-94217468D01*
X96105240Y-94212059D01*
X96088973Y-94205858D01*
X96073968Y-94198866D01*
X96060225Y-94191081D01*
X96047744Y-94182504D01*
X96033066Y-94169836D01*
X96029731Y-94166456D01*
X96017446Y-94152208D01*
X96006856Y-94136792D01*
X95997960Y-94120208D01*
X95990759Y-94102457D01*
X95986470Y-94088377D01*
X95983134Y-94073640D01*
X95980751Y-94058246D01*
X95979321Y-94042195D01*
X95978845Y-94025488D01*
X95979299Y-94008662D01*
X95980661Y-93992532D01*
X95982931Y-93977098D01*
X95986109Y-93962359D01*
X95991759Y-93943789D01*
X95999023Y-93926455D01*
X96007902Y-93910358D01*
X96018395Y-93895497D01*
X96030502Y-93881873D01*
X96033774Y-93878673D01*
X96047727Y-93866886D01*
X96063066Y-93856725D01*
X96079790Y-93848190D01*
X96097899Y-93841280D01*
X96112390Y-93837165D01*
X96127660Y-93833965D01*
X96143710Y-93831678D01*
X96160539Y-93830307D01*
X96178147Y-93829849D01*
X96189009Y-93830083D01*
X96205334Y-93831307D01*
X96221698Y-93833582D01*
X96238101Y-93836906D01*
X96254542Y-93841280D01*
X96271022Y-93846703D01*
X96287541Y-93853177D01*
X96304098Y-93860700D01*
X96320694Y-93869272D01*
X96337328Y-93878895D01*
X96354002Y-93889567D01*
X96358123Y-93892486D01*
X96371856Y-93903019D01*
X96387644Y-93916219D01*
X96399310Y-93926500D01*
X96411890Y-93937966D01*
X96425382Y-93950617D01*
X96439788Y-93964453D01*
X96455106Y-93979474D01*
X96471338Y-93995680D01*
X96488483Y-94013071D01*
X96506540Y-94031647D01*
X96525511Y-94051408D01*
X96545395Y-94072353D01*
X96555679Y-94083271D01*
X96566192Y-94094484D01*
X96576933Y-94105994D01*
X96587902Y-94117800D01*
X96599099Y-94129902D01*
X96613004Y-94144949D01*
X96626735Y-94159682D01*
X96640295Y-94174101D01*
X96653682Y-94188205D01*
X96666896Y-94201996D01*
X96679938Y-94215472D01*
X96692808Y-94228634D01*
X96705505Y-94241483D01*
X96718030Y-94254017D01*
X96730382Y-94266237D01*
X96742562Y-94278142D01*
X96754569Y-94289734D01*
X96766404Y-94301011D01*
X96778067Y-94311975D01*
X96789557Y-94322624D01*
X96800874Y-94332959D01*
X96822992Y-94352687D01*
X96844420Y-94371158D01*
X96865158Y-94388373D01*
X96885207Y-94404332D01*
X96904566Y-94419033D01*
X96923234Y-94432479D01*
X96941213Y-94444667D01*
X96958503Y-94455600D01*
X96975464Y-94465646D01*
X96992552Y-94475177D01*
X97009765Y-94484193D01*
X97027104Y-94492694D01*
X97044570Y-94500680D01*
X97062161Y-94508150D01*
X97079878Y-94515105D01*
X97097721Y-94521545D01*
X97115690Y-94527470D01*
X97133785Y-94532880D01*
X97152006Y-94537774D01*
X97170353Y-94542153D01*
X97188826Y-94546017D01*
X97207424Y-94549366D01*
X97226149Y-94552200D01*
X97245000Y-94554518D01*
X97245000Y-93539323D01*
X96963632Y-93539323D01*
X96963632Y-94114515D01*
X96961202Y-94113081D01*
X96946536Y-94103911D01*
X96934197Y-94095521D01*
X96921750Y-94086451D01*
X96909195Y-94076702D01*
X96896533Y-94066272D01*
X96883764Y-94055163D01*
X96875268Y-94047412D01*
X96861655Y-94034332D01*
X96849733Y-94022463D01*
X96836342Y-94008829D01*
X96821482Y-93993431D01*
X96810761Y-93982185D01*
X96799386Y-93970156D01*
X96787359Y-93957341D01*
X96774679Y-93943743D01*
X96761347Y-93929360D01*
X96747362Y-93914193D01*
X96732725Y-93898242D01*
X96717435Y-93881507D01*
X96702002Y-93864708D01*
X96687027Y-93848568D01*
X96672510Y-93833087D01*
X96658450Y-93818263D01*
X96644849Y-93804098D01*
X96631706Y-93790591D01*
X96619020Y-93777743D01*
X96606793Y-93765553D01*
X96595023Y-93754021D01*
X96583712Y-93743147D01*
X96567603Y-93728071D01*
X96552525Y-93714476D01*
X96538477Y-93702363D01*
X96525460Y-93691730D01*
X96519172Y-93686826D01*
X96506650Y-93677266D01*
X96494199Y-93668038D01*
X96481820Y-93659142D01*
X96469513Y-93650579D01*
X96457277Y-93642347D01*
X96439057Y-93630622D01*
X96420998Y-93619644D01*
X96403100Y-93609413D01*
X96385363Y-93599929D01*
X96367787Y-93591192D01*
X96350373Y-93583202D01*
X96333119Y-93575959D01*
X96321587Y-93571523D01*
X96304150Y-93565405D01*
X96286545Y-93559931D01*
X96268773Y-93555101D01*
X96250833Y-93550915D01*
X96232726Y-93547373D01*
X96214451Y-93544475D01*
X96196009Y-93542221D01*
X96177400Y-93540611D01*
X96158623Y-93539645D01*
X96139678Y-93539323D01*
X96117561Y-93539822D01*
X96095904Y-93541320D01*
X96074708Y-93543818D01*
X96053972Y-93547314D01*
X96033698Y-93551809D01*
X96013884Y-93557303D01*
X95994531Y-93563796D01*
X95975639Y-93571288D01*
X95957208Y-93579779D01*
X95939237Y-93589268D01*
X95921728Y-93599757D01*
X95904679Y-93611244D01*
X95888091Y-93623731D01*
X95871964Y-93637216D01*
X95856297Y-93651701D01*
X95841092Y-93667184D01*
X95826540Y-93683540D01*
X95812927Y-93700643D01*
X95800253Y-93718493D01*
X95788518Y-93737091D01*
X95777722Y-93756435D01*
X95767865Y-93776526D01*
X95758946Y-93797365D01*
X95750966Y-93818950D01*
X95743925Y-93841283D01*
X95737823Y-93864362D01*
X95732659Y-93888189D01*
X95728435Y-93912762D01*
X95725149Y-93938083D01*
X95722802Y-93964151D01*
X95721394Y-93990965D01*
X95720924Y-94018527D01*
X95056638Y-94018527D01*
X95056638Y-92033565D01*
X95720924Y-92033565D01*
X95720924Y-92357065D01*
X96846395Y-92727093D01*
X95720924Y-93109211D01*
X95720924Y-93440038D01*
X97245000Y-92900017D01*
X97245000Y-92574319D01*
X95720924Y-92033565D01*
X95056638Y-92033565D01*
X95056638Y-91369280D01*
X97909286Y-91369280D01*
X97909286Y-97576725D01*
G37*
G36*
X96505113Y-86748830D02*
G01*
X96526319Y-86749195D01*
X96546947Y-86749803D01*
X96566997Y-86750655D01*
X96586468Y-86751750D01*
X96605362Y-86753088D01*
X96623677Y-86754669D01*
X96641414Y-86756494D01*
X96658573Y-86758562D01*
X96675154Y-86760873D01*
X96691157Y-86763427D01*
X96706581Y-86766225D01*
X96721428Y-86769266D01*
X96742613Y-86774284D01*
X96762498Y-86779849D01*
X96775050Y-86783768D01*
X96793036Y-86789914D01*
X96810011Y-86796382D01*
X96825974Y-86803172D01*
X96840927Y-86810283D01*
X96854868Y-86817717D01*
X96867799Y-86825473D01*
X96883467Y-86836315D01*
X96897337Y-86847730D01*
X96909410Y-86859717D01*
X96920092Y-86872293D01*
X96929972Y-86885660D01*
X96939051Y-86899817D01*
X96947329Y-86914763D01*
X96954805Y-86930500D01*
X96961479Y-86947026D01*
X96967353Y-86964342D01*
X96972424Y-86982449D01*
X96974199Y-86989825D01*
X96977405Y-87006243D01*
X96980152Y-87024881D01*
X96981913Y-87040318D01*
X96983415Y-87057004D01*
X96984660Y-87074939D01*
X96985648Y-87094124D01*
X96986378Y-87114558D01*
X96986850Y-87136242D01*
X96987022Y-87151391D01*
X96987079Y-87167096D01*
X96987079Y-87394609D01*
X95978845Y-87394609D01*
X95978845Y-87257588D01*
X95978859Y-87246053D01*
X95978973Y-87223702D01*
X95979202Y-87202310D01*
X95979546Y-87181877D01*
X95980004Y-87162402D01*
X95980576Y-87143886D01*
X95981263Y-87126330D01*
X95982065Y-87109732D01*
X95982980Y-87094092D01*
X95984011Y-87079412D01*
X95985771Y-87059189D01*
X95987789Y-87041124D01*
X95990064Y-87025216D01*
X95993499Y-87007362D01*
X95995969Y-86996764D01*
X96000179Y-86981314D01*
X96004994Y-86966398D01*
X96010414Y-86952016D01*
X96016440Y-86938169D01*
X96023071Y-86924856D01*
X96030307Y-86912078D01*
X96040898Y-86895872D01*
X96052564Y-86880617D01*
X96065307Y-86866311D01*
X96068645Y-86862855D01*
X96082813Y-86849517D01*
X96094295Y-86840025D01*
X96106512Y-86830970D01*
X96119463Y-86822353D01*
X96133148Y-86814175D01*
X96147567Y-86806434D01*
X96162720Y-86799131D01*
X96178608Y-86792266D01*
X96195229Y-86785839D01*
X96212585Y-86779849D01*
X96224719Y-86776078D01*
X96244118Y-86770878D01*
X96264952Y-86766225D01*
X96279640Y-86763427D01*
X96294965Y-86760873D01*
X96310929Y-86758562D01*
X96327532Y-86756494D01*
X96344772Y-86754669D01*
X96362651Y-86753088D01*
X96381168Y-86751750D01*
X96400324Y-86750655D01*
X96420117Y-86749803D01*
X96440549Y-86749195D01*
X96461620Y-86748830D01*
X96483328Y-86748709D01*
X96505113Y-86748830D01*
G37*
G36*
X97932733Y-91563170D02*
G01*
X95033191Y-91563170D01*
X95033191Y-90148935D01*
X95697477Y-90148935D01*
X95697772Y-90175678D01*
X95698656Y-90201869D01*
X95700130Y-90227508D01*
X95702194Y-90252593D01*
X95704847Y-90277127D01*
X95708090Y-90301108D01*
X95711922Y-90324537D01*
X95716345Y-90347413D01*
X95721356Y-90369737D01*
X95726958Y-90391509D01*
X95733149Y-90412728D01*
X95739929Y-90433394D01*
X95747299Y-90453509D01*
X95755259Y-90473070D01*
X95763809Y-90492080D01*
X95772948Y-90510537D01*
X95785603Y-90533993D01*
X95798931Y-90556733D01*
X95812932Y-90578758D01*
X95827605Y-90600067D01*
X95842951Y-90620661D01*
X95858969Y-90640539D01*
X95875660Y-90659701D01*
X95893024Y-90678148D01*
X95911060Y-90695880D01*
X95929769Y-90712896D01*
X95949150Y-90729196D01*
X95969205Y-90744781D01*
X95989931Y-90759650D01*
X96011331Y-90773804D01*
X96033403Y-90787242D01*
X96056147Y-90799965D01*
X96079390Y-90811943D01*
X96103048Y-90823149D01*
X96127121Y-90833581D01*
X96151608Y-90843241D01*
X96176511Y-90852129D01*
X96201829Y-90860243D01*
X96227562Y-90867585D01*
X96253709Y-90874153D01*
X96280272Y-90879949D01*
X96307250Y-90884973D01*
X96334643Y-90889223D01*
X96362451Y-90892701D01*
X96390674Y-90895405D01*
X96419312Y-90897337D01*
X96448365Y-90898497D01*
X96463047Y-90898786D01*
X96477833Y-90898883D01*
X96505045Y-90898537D01*
X96532003Y-90897498D01*
X96558706Y-90895766D01*
X96585155Y-90893342D01*
X96611348Y-90890225D01*
X96637287Y-90886415D01*
X96662971Y-90881913D01*
X96688401Y-90876718D01*
X96713575Y-90870830D01*
X96738495Y-90864250D01*
X96763160Y-90856977D01*
X96787571Y-90849012D01*
X96811727Y-90840353D01*
X96835627Y-90831003D01*
X96859274Y-90820959D01*
X96882665Y-90810223D01*
X96905549Y-90798798D01*
X96927762Y-90786690D01*
X96949306Y-90773897D01*
X96970181Y-90760420D01*
X96990385Y-90746259D01*
X97009920Y-90731414D01*
X97028784Y-90715885D01*
X97046980Y-90699672D01*
X97064505Y-90682775D01*
X97081361Y-90665194D01*
X97097546Y-90646929D01*
X97113063Y-90627979D01*
X97127909Y-90608346D01*
X97142085Y-90588029D01*
X97155592Y-90567027D01*
X97168429Y-90545341D01*
X97174583Y-90534268D01*
X97186304Y-90511765D01*
X97197243Y-90488788D01*
X97207401Y-90465334D01*
X97216778Y-90441406D01*
X97225373Y-90417003D01*
X97233187Y-90392125D01*
X97240219Y-90366771D01*
X97246470Y-90340942D01*
X97251940Y-90314639D01*
X97256628Y-90287860D01*
X97260535Y-90260606D01*
X97263661Y-90232876D01*
X97266005Y-90204672D01*
X97267568Y-90175993D01*
X97268349Y-90146838D01*
X97268447Y-90132083D01*
X97268175Y-90108791D01*
X97267359Y-90085537D01*
X97266000Y-90062320D01*
X97264096Y-90039141D01*
X97261649Y-90015998D01*
X97258658Y-89992893D01*
X97255123Y-89969825D01*
X97251045Y-89946794D01*
X97246422Y-89923800D01*
X97241256Y-89900844D01*
X97235546Y-89877924D01*
X97229292Y-89855042D01*
X97222494Y-89832198D01*
X97215152Y-89809390D01*
X97207267Y-89786620D01*
X97198838Y-89763886D01*
X97190005Y-89741507D01*
X97181000Y-89719797D01*
X97171824Y-89698757D01*
X97162476Y-89678386D01*
X97152956Y-89658686D01*
X97143265Y-89639655D01*
X97133402Y-89621293D01*
X97123367Y-89603602D01*
X97113160Y-89586580D01*
X97102781Y-89570229D01*
X97092231Y-89554546D01*
X97081509Y-89539534D01*
X97070616Y-89525192D01*
X97059550Y-89511519D01*
X97048313Y-89498516D01*
X97036905Y-89486182D01*
X96424344Y-89486182D01*
X96424344Y-90143806D01*
X96682264Y-90143806D01*
X96682264Y-89794295D01*
X96878635Y-89794295D01*
X96885440Y-89803056D01*
X96895406Y-89816595D01*
X96905082Y-89830611D01*
X96914468Y-89845103D01*
X96923565Y-89860071D01*
X96932372Y-89875517D01*
X96940889Y-89891438D01*
X96949116Y-89907837D01*
X96957053Y-89924712D01*
X96964700Y-89942063D01*
X96972058Y-89959891D01*
X96976716Y-89971933D01*
X96983140Y-89989984D01*
X96988888Y-90008022D01*
X96993959Y-90026048D01*
X96998355Y-90044061D01*
X97002074Y-90062060D01*
X97005117Y-90080047D01*
X97007483Y-90098021D01*
X97009174Y-90115983D01*
X97010188Y-90133931D01*
X97010526Y-90151866D01*
X97009994Y-90175803D01*
X97008397Y-90199162D01*
X97005735Y-90221942D01*
X97002008Y-90244144D01*
X96997217Y-90265768D01*
X96991361Y-90286814D01*
X96984440Y-90307282D01*
X96976454Y-90327172D01*
X96967404Y-90346483D01*
X96957289Y-90365216D01*
X96946109Y-90383371D01*
X96933865Y-90400948D01*
X96920555Y-90417947D01*
X96906181Y-90434367D01*
X96890742Y-90450210D01*
X96874239Y-90465474D01*
X96856671Y-90479937D01*
X96838037Y-90493467D01*
X96818340Y-90506063D01*
X96797577Y-90517727D01*
X96775750Y-90528457D01*
X96752858Y-90538255D01*
X96728901Y-90547119D01*
X96703879Y-90555050D01*
X96677793Y-90562048D01*
X96650642Y-90568113D01*
X96622426Y-90573245D01*
X96607919Y-90575461D01*
X96593146Y-90577444D01*
X96578106Y-90579194D01*
X96562801Y-90580710D01*
X96547229Y-90581993D01*
X96531391Y-90583043D01*
X96515286Y-90583859D01*
X96498916Y-90584442D01*
X96482279Y-90584792D01*
X96465376Y-90584909D01*
X96449676Y-90584794D01*
X96434220Y-90584448D01*
X96419007Y-90583872D01*
X96404039Y-90583066D01*
X96374834Y-90580761D01*
X96346606Y-90577536D01*
X96319353Y-90573388D01*
X96293076Y-90568319D01*
X96267776Y-90562329D01*
X96243451Y-90555416D01*
X96220103Y-90547583D01*
X96197730Y-90538827D01*
X96176334Y-90529150D01*
X96155913Y-90518551D01*
X96136469Y-90507031D01*
X96118000Y-90494589D01*
X96100508Y-90481225D01*
X96083991Y-90466939D01*
X96068419Y-90451873D01*
X96053852Y-90436165D01*
X96040289Y-90419816D01*
X96027731Y-90402826D01*
X96016178Y-90385194D01*
X96005629Y-90366922D01*
X95996085Y-90348008D01*
X95987546Y-90328454D01*
X95980011Y-90308258D01*
X95973481Y-90287421D01*
X95967955Y-90265943D01*
X95963434Y-90243824D01*
X95959918Y-90221063D01*
X95957407Y-90197662D01*
X95955900Y-90173619D01*
X95955397Y-90148935D01*
X95955668Y-90132621D01*
X95956479Y-90116649D01*
X95957832Y-90101022D01*
X95959725Y-90085737D01*
X95962159Y-90070797D01*
X95965135Y-90056199D01*
X95968651Y-90041945D01*
X95974939Y-90021209D01*
X95982445Y-90001245D01*
X95991168Y-89982054D01*
X96001108Y-89963635D01*
X96012266Y-89945990D01*
X96024640Y-89929117D01*
X96033492Y-89918300D01*
X96047504Y-89902902D01*
X96062399Y-89888496D01*
X96078175Y-89875082D01*
X96094835Y-89862659D01*
X96112376Y-89851228D01*
X96130800Y-89840789D01*
X96150106Y-89831341D01*
X96170294Y-89822885D01*
X96184243Y-89817799D01*
X96198584Y-89813154D01*
X96213318Y-89808949D01*
X96166423Y-89505966D01*
X96139318Y-89512085D01*
X96112957Y-89519086D01*
X96087340Y-89526969D01*
X96062467Y-89535733D01*
X96038339Y-89545379D01*
X96014954Y-89555906D01*
X95992314Y-89567315D01*
X95970418Y-89579605D01*
X95949266Y-89592777D01*
X95928859Y-89606831D01*
X95909195Y-89621766D01*
X95890276Y-89637582D01*
X95872101Y-89654281D01*
X95854670Y-89671860D01*
X95837983Y-89690322D01*
X95822041Y-89709665D01*
X95806957Y-89729885D01*
X95792846Y-89751069D01*
X95779708Y-89773219D01*
X95767544Y-89796333D01*
X95756353Y-89820411D01*
X95746135Y-89845454D01*
X95736890Y-89871462D01*
X95728618Y-89898434D01*
X95721319Y-89926370D01*
X95718035Y-89940701D01*
X95714994Y-89955272D01*
X95712196Y-89970084D01*
X95709641Y-89985138D01*
X95707330Y-90000432D01*
X95705262Y-90015968D01*
X95703437Y-90031745D01*
X95701856Y-90047763D01*
X95700518Y-90064022D01*
X95699423Y-90080522D01*
X95698572Y-90097264D01*
X95697963Y-90114247D01*
X95697598Y-90131470D01*
X95697477Y-90148935D01*
X95033191Y-90148935D01*
X95033191Y-88012665D01*
X95720924Y-88012665D01*
X95720924Y-88295865D01*
X96750774Y-88295865D01*
X95720924Y-88913921D01*
X95720924Y-89210676D01*
X97245000Y-89210676D01*
X97245000Y-88927477D01*
X96230537Y-88927477D01*
X97245000Y-88318579D01*
X97245000Y-88012665D01*
X95720924Y-88012665D01*
X95033191Y-88012665D01*
X95033191Y-87699790D01*
X95720924Y-87699790D01*
X97245000Y-87699790D01*
X97245000Y-87125697D01*
X97244874Y-87104850D01*
X97244496Y-87084533D01*
X97243866Y-87064745D01*
X97242984Y-87045486D01*
X97241851Y-87026758D01*
X97240466Y-87008558D01*
X97238829Y-86990888D01*
X97236939Y-86973748D01*
X97234799Y-86957137D01*
X97232406Y-86941055D01*
X97229761Y-86925504D01*
X97226864Y-86910481D01*
X97223716Y-86895988D01*
X97218521Y-86875242D01*
X97212759Y-86855687D01*
X97210001Y-86847315D01*
X97204282Y-86830894D01*
X97198294Y-86814906D01*
X97192038Y-86799349D01*
X97185512Y-86784225D01*
X97178717Y-86769534D01*
X97171653Y-86755274D01*
X97164320Y-86741447D01*
X97156718Y-86728051D01*
X97148847Y-86715088D01*
X97140707Y-86702558D01*
X97132297Y-86690459D01*
X97119179Y-86673122D01*
X97105455Y-86656756D01*
X97091127Y-86641364D01*
X97078010Y-86628411D01*
X97064399Y-86615838D01*
X97050293Y-86603647D01*
X97035691Y-86591836D01*
X97020594Y-86580406D01*
X97005002Y-86569356D01*
X96988915Y-86558687D01*
X96972333Y-86548399D01*
X96955255Y-86538491D01*
X96937683Y-86528964D01*
X96919615Y-86519818D01*
X96901052Y-86511053D01*
X96881994Y-86502668D01*
X96862441Y-86494664D01*
X96842392Y-86487040D01*
X96821849Y-86479797D01*
X96804611Y-86474163D01*
X96786970Y-86468892D01*
X96768925Y-86463985D01*
X96750476Y-86459441D01*
X96731624Y-86455261D01*
X96712369Y-86451444D01*
X96692710Y-86447991D01*
X96672647Y-86444901D01*
X96652181Y-86442175D01*
X96631311Y-86439812D01*
X96610037Y-86437813D01*
X96588360Y-86436177D01*
X96566280Y-86434905D01*
X96543795Y-86433996D01*
X96520908Y-86433451D01*
X96497616Y-86433269D01*
X96471094Y-86433462D01*
X96445106Y-86434042D01*
X96419654Y-86435008D01*
X96394737Y-86436360D01*
X96370355Y-86438099D01*
X96346508Y-86440224D01*
X96323197Y-86442736D01*
X96300421Y-86445634D01*
X96278180Y-86448918D01*
X96256474Y-86452589D01*
X96235304Y-86456646D01*
X96214669Y-86461090D01*
X96194569Y-86465920D01*
X96175004Y-86471136D01*
X96155975Y-86476739D01*
X96137480Y-86482728D01*
X96119385Y-86489088D01*
X96101645Y-86495803D01*
X96084260Y-86502872D01*
X96067230Y-86510297D01*
X96050555Y-86518076D01*
X96034234Y-86526211D01*
X96018269Y-86534700D01*
X96002658Y-86543545D01*
X95987403Y-86552744D01*
X95972502Y-86562298D01*
X95957956Y-86572207D01*
X95943765Y-86582471D01*
X95929929Y-86593090D01*
X95916448Y-86604063D01*
X95903322Y-86615392D01*
X95890551Y-86627076D01*
X95878152Y-86639084D01*
X95866233Y-86651387D01*
X95854796Y-86663985D01*
X95843839Y-86676878D01*
X95833364Y-86690066D01*
X95823369Y-86703548D01*
X95813855Y-86717326D01*
X95804822Y-86731398D01*
X95796269Y-86745765D01*
X95788198Y-86760426D01*
X95780607Y-86775383D01*
X95773497Y-86790634D01*
X95766869Y-86806180D01*
X95760720Y-86822021D01*
X95755053Y-86838157D01*
X95749867Y-86854588D01*
X95744695Y-86873924D01*
X95740031Y-86894838D01*
X95737204Y-86909657D01*
X95734604Y-86925177D01*
X95732230Y-86941399D01*
X95730082Y-86958322D01*
X95728160Y-86975946D01*
X95726464Y-86994271D01*
X95724994Y-87013298D01*
X95723751Y-87033026D01*
X95722733Y-87053455D01*
X95721942Y-87074585D01*
X95721376Y-87096417D01*
X95721037Y-87118950D01*
X95720924Y-87142184D01*
X95720924Y-87394609D01*
X95720924Y-87699790D01*
X95033191Y-87699790D01*
X95033191Y-85768984D01*
X97932733Y-85768984D01*
X97932733Y-91563170D01*
G37*
D11*
X101238095Y-57377619D02*
X101238095Y-56377619D01*
X101714285Y-57377619D02*
X101714285Y-56377619D01*
X101714285Y-56377619D02*
X102285713Y-57377619D01*
X102285713Y-57377619D02*
X102285713Y-56377619D01*
X102619047Y-56377619D02*
X103190475Y-56377619D01*
X102904761Y-57377619D02*
X102904761Y-56377619D01*
X103523809Y-56853809D02*
X103857142Y-56853809D01*
X103999999Y-57377619D02*
X103523809Y-57377619D01*
X103523809Y-57377619D02*
X103523809Y-56377619D01*
X103523809Y-56377619D02*
X103999999Y-56377619D01*
X104999999Y-57377619D02*
X104666666Y-56901428D01*
X104428571Y-57377619D02*
X104428571Y-56377619D01*
X104428571Y-56377619D02*
X104809523Y-56377619D01*
X104809523Y-56377619D02*
X104904761Y-56425238D01*
X104904761Y-56425238D02*
X104952380Y-56472857D01*
X104952380Y-56472857D02*
X104999999Y-56568095D01*
X104999999Y-56568095D02*
X104999999Y-56710952D01*
X104999999Y-56710952D02*
X104952380Y-56806190D01*
X104952380Y-56806190D02*
X104904761Y-56853809D01*
X104904761Y-56853809D02*
X104809523Y-56901428D01*
X104809523Y-56901428D02*
X104428571Y-56901428D01*
X105428571Y-57377619D02*
X105428571Y-56377619D01*
X105428571Y-56377619D02*
X105999999Y-57377619D01*
X105999999Y-57377619D02*
X105999999Y-56377619D01*
X106428571Y-57091904D02*
X106904761Y-57091904D01*
X106333333Y-57377619D02*
X106666666Y-56377619D01*
X106666666Y-56377619D02*
X106999999Y-57377619D01*
X107809523Y-57377619D02*
X107333333Y-57377619D01*
X107333333Y-57377619D02*
X107333333Y-56377619D01*
X109476190Y-57282380D02*
X109428571Y-57330000D01*
X109428571Y-57330000D02*
X109285714Y-57377619D01*
X109285714Y-57377619D02*
X109190476Y-57377619D01*
X109190476Y-57377619D02*
X109047619Y-57330000D01*
X109047619Y-57330000D02*
X108952381Y-57234761D01*
X108952381Y-57234761D02*
X108904762Y-57139523D01*
X108904762Y-57139523D02*
X108857143Y-56949047D01*
X108857143Y-56949047D02*
X108857143Y-56806190D01*
X108857143Y-56806190D02*
X108904762Y-56615714D01*
X108904762Y-56615714D02*
X108952381Y-56520476D01*
X108952381Y-56520476D02*
X109047619Y-56425238D01*
X109047619Y-56425238D02*
X109190476Y-56377619D01*
X109190476Y-56377619D02*
X109285714Y-56377619D01*
X109285714Y-56377619D02*
X109428571Y-56425238D01*
X109428571Y-56425238D02*
X109476190Y-56472857D01*
X109857143Y-57091904D02*
X110333333Y-57091904D01*
X109761905Y-57377619D02*
X110095238Y-56377619D01*
X110095238Y-56377619D02*
X110428571Y-57377619D01*
X110761905Y-57377619D02*
X110761905Y-56377619D01*
X110761905Y-56377619D02*
X111333333Y-57377619D01*
X111333333Y-57377619D02*
X111333333Y-56377619D01*
X114877619Y-74285714D02*
X114877619Y-74761904D01*
X114877619Y-74761904D02*
X115353809Y-74809523D01*
X115353809Y-74809523D02*
X115306190Y-74761904D01*
X115306190Y-74761904D02*
X115258571Y-74666666D01*
X115258571Y-74666666D02*
X115258571Y-74428571D01*
X115258571Y-74428571D02*
X115306190Y-74333333D01*
X115306190Y-74333333D02*
X115353809Y-74285714D01*
X115353809Y-74285714D02*
X115449047Y-74238095D01*
X115449047Y-74238095D02*
X115687142Y-74238095D01*
X115687142Y-74238095D02*
X115782380Y-74285714D01*
X115782380Y-74285714D02*
X115830000Y-74333333D01*
X115830000Y-74333333D02*
X115877619Y-74428571D01*
X115877619Y-74428571D02*
X115877619Y-74666666D01*
X115877619Y-74666666D02*
X115830000Y-74761904D01*
X115830000Y-74761904D02*
X115782380Y-74809523D01*
X114877619Y-73952380D02*
X115877619Y-73619047D01*
X115877619Y-73619047D02*
X114877619Y-73285714D01*
X137642857Y-58377619D02*
X138261904Y-58377619D01*
X138261904Y-58377619D02*
X137928571Y-58758571D01*
X137928571Y-58758571D02*
X138071428Y-58758571D01*
X138071428Y-58758571D02*
X138166666Y-58806190D01*
X138166666Y-58806190D02*
X138214285Y-58853809D01*
X138214285Y-58853809D02*
X138261904Y-58949047D01*
X138261904Y-58949047D02*
X138261904Y-59187142D01*
X138261904Y-59187142D02*
X138214285Y-59282380D01*
X138214285Y-59282380D02*
X138166666Y-59330000D01*
X138166666Y-59330000D02*
X138071428Y-59377619D01*
X138071428Y-59377619D02*
X137785714Y-59377619D01*
X137785714Y-59377619D02*
X137690476Y-59330000D01*
X137690476Y-59330000D02*
X137642857Y-59282380D01*
X138547619Y-58377619D02*
X138880952Y-59377619D01*
X138880952Y-59377619D02*
X139214285Y-58377619D01*
X139452381Y-58377619D02*
X140071428Y-58377619D01*
X140071428Y-58377619D02*
X139738095Y-58758571D01*
X139738095Y-58758571D02*
X139880952Y-58758571D01*
X139880952Y-58758571D02*
X139976190Y-58806190D01*
X139976190Y-58806190D02*
X140023809Y-58853809D01*
X140023809Y-58853809D02*
X140071428Y-58949047D01*
X140071428Y-58949047D02*
X140071428Y-59187142D01*
X140071428Y-59187142D02*
X140023809Y-59282380D01*
X140023809Y-59282380D02*
X139976190Y-59330000D01*
X139976190Y-59330000D02*
X139880952Y-59377619D01*
X139880952Y-59377619D02*
X139595238Y-59377619D01*
X139595238Y-59377619D02*
X139500000Y-59330000D01*
X139500000Y-59330000D02*
X139452381Y-59282380D01*
X98782380Y-60690476D02*
X98830000Y-60738095D01*
X98830000Y-60738095D02*
X98877619Y-60880952D01*
X98877619Y-60880952D02*
X98877619Y-60976190D01*
X98877619Y-60976190D02*
X98830000Y-61119047D01*
X98830000Y-61119047D02*
X98734761Y-61214285D01*
X98734761Y-61214285D02*
X98639523Y-61261904D01*
X98639523Y-61261904D02*
X98449047Y-61309523D01*
X98449047Y-61309523D02*
X98306190Y-61309523D01*
X98306190Y-61309523D02*
X98115714Y-61261904D01*
X98115714Y-61261904D02*
X98020476Y-61214285D01*
X98020476Y-61214285D02*
X97925238Y-61119047D01*
X97925238Y-61119047D02*
X97877619Y-60976190D01*
X97877619Y-60976190D02*
X97877619Y-60880952D01*
X97877619Y-60880952D02*
X97925238Y-60738095D01*
X97925238Y-60738095D02*
X97972857Y-60690476D01*
X98591904Y-60309523D02*
X98591904Y-59833333D01*
X98877619Y-60404761D02*
X97877619Y-60071428D01*
X97877619Y-60071428D02*
X98877619Y-59738095D01*
X98877619Y-58833333D02*
X98401428Y-59166666D01*
X98877619Y-59404761D02*
X97877619Y-59404761D01*
X97877619Y-59404761D02*
X97877619Y-59023809D01*
X97877619Y-59023809D02*
X97925238Y-58928571D01*
X97925238Y-58928571D02*
X97972857Y-58880952D01*
X97972857Y-58880952D02*
X98068095Y-58833333D01*
X98068095Y-58833333D02*
X98210952Y-58833333D01*
X98210952Y-58833333D02*
X98306190Y-58880952D01*
X98306190Y-58880952D02*
X98353809Y-58928571D01*
X98353809Y-58928571D02*
X98401428Y-59023809D01*
X98401428Y-59023809D02*
X98401428Y-59404761D01*
X98782380Y-57071428D02*
X98830000Y-57119047D01*
X98830000Y-57119047D02*
X98877619Y-57261904D01*
X98877619Y-57261904D02*
X98877619Y-57357142D01*
X98877619Y-57357142D02*
X98830000Y-57499999D01*
X98830000Y-57499999D02*
X98734761Y-57595237D01*
X98734761Y-57595237D02*
X98639523Y-57642856D01*
X98639523Y-57642856D02*
X98449047Y-57690475D01*
X98449047Y-57690475D02*
X98306190Y-57690475D01*
X98306190Y-57690475D02*
X98115714Y-57642856D01*
X98115714Y-57642856D02*
X98020476Y-57595237D01*
X98020476Y-57595237D02*
X97925238Y-57499999D01*
X97925238Y-57499999D02*
X97877619Y-57357142D01*
X97877619Y-57357142D02*
X97877619Y-57261904D01*
X97877619Y-57261904D02*
X97925238Y-57119047D01*
X97925238Y-57119047D02*
X97972857Y-57071428D01*
X98591904Y-56690475D02*
X98591904Y-56214285D01*
X98877619Y-56785713D02*
X97877619Y-56452380D01*
X97877619Y-56452380D02*
X98877619Y-56119047D01*
X98877619Y-55785713D02*
X97877619Y-55785713D01*
X97877619Y-55785713D02*
X98877619Y-55214285D01*
X98877619Y-55214285D02*
X97877619Y-55214285D01*
X99500000Y-96710952D02*
X98738095Y-96996666D01*
X98738095Y-96996666D02*
X99500000Y-97282380D01*
X100738095Y-96710952D02*
X99976190Y-96996666D01*
X99976190Y-96996666D02*
X100738095Y-97282380D01*
X101976190Y-96710952D02*
X101214285Y-96996666D01*
X101214285Y-96996666D02*
X101976190Y-97282380D01*
X103214285Y-97377619D02*
X103214285Y-96377619D01*
X103214285Y-96377619D02*
X103595237Y-96377619D01*
X103595237Y-96377619D02*
X103690475Y-96425238D01*
X103690475Y-96425238D02*
X103738094Y-96472857D01*
X103738094Y-96472857D02*
X103785713Y-96568095D01*
X103785713Y-96568095D02*
X103785713Y-96710952D01*
X103785713Y-96710952D02*
X103738094Y-96806190D01*
X103738094Y-96806190D02*
X103690475Y-96853809D01*
X103690475Y-96853809D02*
X103595237Y-96901428D01*
X103595237Y-96901428D02*
X103214285Y-96901428D01*
X104404761Y-96377619D02*
X104595237Y-96377619D01*
X104595237Y-96377619D02*
X104690475Y-96425238D01*
X104690475Y-96425238D02*
X104785713Y-96520476D01*
X104785713Y-96520476D02*
X104833332Y-96710952D01*
X104833332Y-96710952D02*
X104833332Y-97044285D01*
X104833332Y-97044285D02*
X104785713Y-97234761D01*
X104785713Y-97234761D02*
X104690475Y-97330000D01*
X104690475Y-97330000D02*
X104595237Y-97377619D01*
X104595237Y-97377619D02*
X104404761Y-97377619D01*
X104404761Y-97377619D02*
X104309523Y-97330000D01*
X104309523Y-97330000D02*
X104214285Y-97234761D01*
X104214285Y-97234761D02*
X104166666Y-97044285D01*
X104166666Y-97044285D02*
X104166666Y-96710952D01*
X104166666Y-96710952D02*
X104214285Y-96520476D01*
X104214285Y-96520476D02*
X104309523Y-96425238D01*
X104309523Y-96425238D02*
X104404761Y-96377619D01*
X105166666Y-96377619D02*
X105404761Y-97377619D01*
X105404761Y-97377619D02*
X105595237Y-96663333D01*
X105595237Y-96663333D02*
X105785713Y-97377619D01*
X105785713Y-97377619D02*
X106023809Y-96377619D01*
X106404761Y-96853809D02*
X106738094Y-96853809D01*
X106880951Y-97377619D02*
X106404761Y-97377619D01*
X106404761Y-97377619D02*
X106404761Y-96377619D01*
X106404761Y-96377619D02*
X106880951Y-96377619D01*
X107880951Y-97377619D02*
X107547618Y-96901428D01*
X107309523Y-97377619D02*
X107309523Y-96377619D01*
X107309523Y-96377619D02*
X107690475Y-96377619D01*
X107690475Y-96377619D02*
X107785713Y-96425238D01*
X107785713Y-96425238D02*
X107833332Y-96472857D01*
X107833332Y-96472857D02*
X107880951Y-96568095D01*
X107880951Y-96568095D02*
X107880951Y-96710952D01*
X107880951Y-96710952D02*
X107833332Y-96806190D01*
X107833332Y-96806190D02*
X107785713Y-96853809D01*
X107785713Y-96853809D02*
X107690475Y-96901428D01*
X107690475Y-96901428D02*
X107309523Y-96901428D01*
X109642856Y-97282380D02*
X109595237Y-97330000D01*
X109595237Y-97330000D02*
X109452380Y-97377619D01*
X109452380Y-97377619D02*
X109357142Y-97377619D01*
X109357142Y-97377619D02*
X109214285Y-97330000D01*
X109214285Y-97330000D02*
X109119047Y-97234761D01*
X109119047Y-97234761D02*
X109071428Y-97139523D01*
X109071428Y-97139523D02*
X109023809Y-96949047D01*
X109023809Y-96949047D02*
X109023809Y-96806190D01*
X109023809Y-96806190D02*
X109071428Y-96615714D01*
X109071428Y-96615714D02*
X109119047Y-96520476D01*
X109119047Y-96520476D02*
X109214285Y-96425238D01*
X109214285Y-96425238D02*
X109357142Y-96377619D01*
X109357142Y-96377619D02*
X109452380Y-96377619D01*
X109452380Y-96377619D02*
X109595237Y-96425238D01*
X109595237Y-96425238D02*
X109642856Y-96472857D01*
X110261904Y-96377619D02*
X110452380Y-96377619D01*
X110452380Y-96377619D02*
X110547618Y-96425238D01*
X110547618Y-96425238D02*
X110642856Y-96520476D01*
X110642856Y-96520476D02*
X110690475Y-96710952D01*
X110690475Y-96710952D02*
X110690475Y-97044285D01*
X110690475Y-97044285D02*
X110642856Y-97234761D01*
X110642856Y-97234761D02*
X110547618Y-97330000D01*
X110547618Y-97330000D02*
X110452380Y-97377619D01*
X110452380Y-97377619D02*
X110261904Y-97377619D01*
X110261904Y-97377619D02*
X110166666Y-97330000D01*
X110166666Y-97330000D02*
X110071428Y-97234761D01*
X110071428Y-97234761D02*
X110023809Y-97044285D01*
X110023809Y-97044285D02*
X110023809Y-96710952D01*
X110023809Y-96710952D02*
X110071428Y-96520476D01*
X110071428Y-96520476D02*
X110166666Y-96425238D01*
X110166666Y-96425238D02*
X110261904Y-96377619D01*
X111119047Y-97377619D02*
X111119047Y-96377619D01*
X111119047Y-96377619D02*
X111690475Y-97377619D01*
X111690475Y-97377619D02*
X111690475Y-96377619D01*
X112166666Y-97377619D02*
X112166666Y-96377619D01*
X112166666Y-96377619D02*
X112738094Y-97377619D01*
X112738094Y-97377619D02*
X112738094Y-96377619D01*
X113214285Y-96853809D02*
X113547618Y-96853809D01*
X113690475Y-97377619D02*
X113214285Y-97377619D01*
X113214285Y-97377619D02*
X113214285Y-96377619D01*
X113214285Y-96377619D02*
X113690475Y-96377619D01*
X114690475Y-97282380D02*
X114642856Y-97330000D01*
X114642856Y-97330000D02*
X114499999Y-97377619D01*
X114499999Y-97377619D02*
X114404761Y-97377619D01*
X114404761Y-97377619D02*
X114261904Y-97330000D01*
X114261904Y-97330000D02*
X114166666Y-97234761D01*
X114166666Y-97234761D02*
X114119047Y-97139523D01*
X114119047Y-97139523D02*
X114071428Y-96949047D01*
X114071428Y-96949047D02*
X114071428Y-96806190D01*
X114071428Y-96806190D02*
X114119047Y-96615714D01*
X114119047Y-96615714D02*
X114166666Y-96520476D01*
X114166666Y-96520476D02*
X114261904Y-96425238D01*
X114261904Y-96425238D02*
X114404761Y-96377619D01*
X114404761Y-96377619D02*
X114499999Y-96377619D01*
X114499999Y-96377619D02*
X114642856Y-96425238D01*
X114642856Y-96425238D02*
X114690475Y-96472857D01*
X114976190Y-96377619D02*
X115547618Y-96377619D01*
X115261904Y-97377619D02*
X115261904Y-96377619D01*
X116071428Y-96377619D02*
X116261904Y-96377619D01*
X116261904Y-96377619D02*
X116357142Y-96425238D01*
X116357142Y-96425238D02*
X116452380Y-96520476D01*
X116452380Y-96520476D02*
X116499999Y-96710952D01*
X116499999Y-96710952D02*
X116499999Y-97044285D01*
X116499999Y-97044285D02*
X116452380Y-97234761D01*
X116452380Y-97234761D02*
X116357142Y-97330000D01*
X116357142Y-97330000D02*
X116261904Y-97377619D01*
X116261904Y-97377619D02*
X116071428Y-97377619D01*
X116071428Y-97377619D02*
X115976190Y-97330000D01*
X115976190Y-97330000D02*
X115880952Y-97234761D01*
X115880952Y-97234761D02*
X115833333Y-97044285D01*
X115833333Y-97044285D02*
X115833333Y-96710952D01*
X115833333Y-96710952D02*
X115880952Y-96520476D01*
X115880952Y-96520476D02*
X115976190Y-96425238D01*
X115976190Y-96425238D02*
X116071428Y-96377619D01*
X117499999Y-97377619D02*
X117166666Y-96901428D01*
X116928571Y-97377619D02*
X116928571Y-96377619D01*
X116928571Y-96377619D02*
X117309523Y-96377619D01*
X117309523Y-96377619D02*
X117404761Y-96425238D01*
X117404761Y-96425238D02*
X117452380Y-96472857D01*
X117452380Y-96472857D02*
X117499999Y-96568095D01*
X117499999Y-96568095D02*
X117499999Y-96710952D01*
X117499999Y-96710952D02*
X117452380Y-96806190D01*
X117452380Y-96806190D02*
X117404761Y-96853809D01*
X117404761Y-96853809D02*
X117309523Y-96901428D01*
X117309523Y-96901428D02*
X116928571Y-96901428D01*
X101282380Y-75690476D02*
X101330000Y-75738095D01*
X101330000Y-75738095D02*
X101377619Y-75880952D01*
X101377619Y-75880952D02*
X101377619Y-75976190D01*
X101377619Y-75976190D02*
X101330000Y-76119047D01*
X101330000Y-76119047D02*
X101234761Y-76214285D01*
X101234761Y-76214285D02*
X101139523Y-76261904D01*
X101139523Y-76261904D02*
X100949047Y-76309523D01*
X100949047Y-76309523D02*
X100806190Y-76309523D01*
X100806190Y-76309523D02*
X100615714Y-76261904D01*
X100615714Y-76261904D02*
X100520476Y-76214285D01*
X100520476Y-76214285D02*
X100425238Y-76119047D01*
X100425238Y-76119047D02*
X100377619Y-75976190D01*
X100377619Y-75976190D02*
X100377619Y-75880952D01*
X100377619Y-75880952D02*
X100425238Y-75738095D01*
X100425238Y-75738095D02*
X100472857Y-75690476D01*
X101091904Y-75309523D02*
X101091904Y-74833333D01*
X101377619Y-75404761D02*
X100377619Y-75071428D01*
X100377619Y-75071428D02*
X101377619Y-74738095D01*
X101377619Y-74404761D02*
X100377619Y-74404761D01*
X100377619Y-74404761D02*
X101377619Y-73833333D01*
X101377619Y-73833333D02*
X100377619Y-73833333D01*
X100377619Y-72738094D02*
X100377619Y-72166666D01*
X101377619Y-72452380D02*
X100377619Y-72452380D01*
X100853809Y-71833332D02*
X100853809Y-71499999D01*
X101377619Y-71357142D02*
X101377619Y-71833332D01*
X101377619Y-71833332D02*
X100377619Y-71833332D01*
X100377619Y-71833332D02*
X100377619Y-71357142D01*
X101377619Y-70357142D02*
X100901428Y-70690475D01*
X101377619Y-70928570D02*
X100377619Y-70928570D01*
X100377619Y-70928570D02*
X100377619Y-70547618D01*
X100377619Y-70547618D02*
X100425238Y-70452380D01*
X100425238Y-70452380D02*
X100472857Y-70404761D01*
X100472857Y-70404761D02*
X100568095Y-70357142D01*
X100568095Y-70357142D02*
X100710952Y-70357142D01*
X100710952Y-70357142D02*
X100806190Y-70404761D01*
X100806190Y-70404761D02*
X100853809Y-70452380D01*
X100853809Y-70452380D02*
X100901428Y-70547618D01*
X100901428Y-70547618D02*
X100901428Y-70928570D01*
X101377619Y-69928570D02*
X100377619Y-69928570D01*
X100377619Y-69928570D02*
X101091904Y-69595237D01*
X101091904Y-69595237D02*
X100377619Y-69261904D01*
X100377619Y-69261904D02*
X101377619Y-69261904D01*
X95738095Y-78496666D02*
X96500000Y-78496666D01*
X96833333Y-77877619D02*
X97166666Y-78877619D01*
X97166666Y-78877619D02*
X97499999Y-77877619D01*
X95738095Y-60996666D02*
X96500000Y-60996666D01*
X96833333Y-60377619D02*
X97166666Y-61377619D01*
X97166666Y-61377619D02*
X97499999Y-60377619D01*
X117377619Y-77738095D02*
X117377619Y-78309523D01*
X117377619Y-78023809D02*
X116377619Y-78023809D01*
X116377619Y-78023809D02*
X116520476Y-78119047D01*
X116520476Y-78119047D02*
X116615714Y-78214285D01*
X116615714Y-78214285D02*
X116663333Y-78309523D01*
X116472857Y-77357142D02*
X116425238Y-77309523D01*
X116425238Y-77309523D02*
X116377619Y-77214285D01*
X116377619Y-77214285D02*
X116377619Y-76976190D01*
X116377619Y-76976190D02*
X116425238Y-76880952D01*
X116425238Y-76880952D02*
X116472857Y-76833333D01*
X116472857Y-76833333D02*
X116568095Y-76785714D01*
X116568095Y-76785714D02*
X116663333Y-76785714D01*
X116663333Y-76785714D02*
X116806190Y-76833333D01*
X116806190Y-76833333D02*
X117377619Y-77404761D01*
X117377619Y-77404761D02*
X117377619Y-76785714D01*
X116377619Y-76499999D02*
X117377619Y-76166666D01*
X117377619Y-76166666D02*
X116377619Y-75833333D01*
X106738095Y-55877619D02*
X106738095Y-54877619D01*
X106738095Y-55353809D02*
X107309523Y-55353809D01*
X107309523Y-55877619D02*
X107309523Y-54877619D01*
X107785714Y-55877619D02*
X107785714Y-54877619D01*
X95738095Y-58377619D02*
X95738095Y-57377619D01*
X95738095Y-57853809D02*
X96309523Y-57853809D01*
X96309523Y-58377619D02*
X96309523Y-57377619D01*
X96785714Y-58377619D02*
X96785714Y-57377619D01*
X116377619Y-72357142D02*
X116377619Y-71738095D01*
X116377619Y-71738095D02*
X116758571Y-72071428D01*
X116758571Y-72071428D02*
X116758571Y-71928571D01*
X116758571Y-71928571D02*
X116806190Y-71833333D01*
X116806190Y-71833333D02*
X116853809Y-71785714D01*
X116853809Y-71785714D02*
X116949047Y-71738095D01*
X116949047Y-71738095D02*
X117187142Y-71738095D01*
X117187142Y-71738095D02*
X117282380Y-71785714D01*
X117282380Y-71785714D02*
X117330000Y-71833333D01*
X117330000Y-71833333D02*
X117377619Y-71928571D01*
X117377619Y-71928571D02*
X117377619Y-72214285D01*
X117377619Y-72214285D02*
X117330000Y-72309523D01*
X117330000Y-72309523D02*
X117282380Y-72357142D01*
X116377619Y-71452380D02*
X117377619Y-71119047D01*
X117377619Y-71119047D02*
X116377619Y-70785714D01*
X116377619Y-70547618D02*
X116377619Y-69928571D01*
X116377619Y-69928571D02*
X116758571Y-70261904D01*
X116758571Y-70261904D02*
X116758571Y-70119047D01*
X116758571Y-70119047D02*
X116806190Y-70023809D01*
X116806190Y-70023809D02*
X116853809Y-69976190D01*
X116853809Y-69976190D02*
X116949047Y-69928571D01*
X116949047Y-69928571D02*
X117187142Y-69928571D01*
X117187142Y-69928571D02*
X117282380Y-69976190D01*
X117282380Y-69976190D02*
X117330000Y-70023809D01*
X117330000Y-70023809D02*
X117377619Y-70119047D01*
X117377619Y-70119047D02*
X117377619Y-70404761D01*
X117377619Y-70404761D02*
X117330000Y-70499999D01*
X117330000Y-70499999D02*
X117282380Y-70547618D01*
X103238095Y-55496666D02*
X104000000Y-55496666D01*
X104333333Y-54877619D02*
X104666666Y-55877619D01*
X104666666Y-55877619D02*
X104999999Y-54877619D01*
X96214285Y-55377619D02*
X95738095Y-55377619D01*
X95738095Y-55377619D02*
X95738095Y-54377619D01*
X96738095Y-54377619D02*
X96928571Y-54377619D01*
X96928571Y-54377619D02*
X97023809Y-54425238D01*
X97023809Y-54425238D02*
X97119047Y-54520476D01*
X97119047Y-54520476D02*
X97166666Y-54710952D01*
X97166666Y-54710952D02*
X97166666Y-55044285D01*
X97166666Y-55044285D02*
X97119047Y-55234761D01*
X97119047Y-55234761D02*
X97023809Y-55330000D01*
X97023809Y-55330000D02*
X96928571Y-55377619D01*
X96928571Y-55377619D02*
X96738095Y-55377619D01*
X96738095Y-55377619D02*
X96642857Y-55330000D01*
X96642857Y-55330000D02*
X96547619Y-55234761D01*
X96547619Y-55234761D02*
X96500000Y-55044285D01*
X96500000Y-55044285D02*
X96500000Y-54710952D01*
X96500000Y-54710952D02*
X96547619Y-54520476D01*
X96547619Y-54520476D02*
X96642857Y-54425238D01*
X96642857Y-54425238D02*
X96738095Y-54377619D01*
X144238095Y-59377619D02*
X144238095Y-58377619D01*
X144904761Y-58377619D02*
X145095237Y-58377619D01*
X145095237Y-58377619D02*
X145190475Y-58425238D01*
X145190475Y-58425238D02*
X145285713Y-58520476D01*
X145285713Y-58520476D02*
X145333332Y-58710952D01*
X145333332Y-58710952D02*
X145333332Y-59044285D01*
X145333332Y-59044285D02*
X145285713Y-59234761D01*
X145285713Y-59234761D02*
X145190475Y-59330000D01*
X145190475Y-59330000D02*
X145095237Y-59377619D01*
X145095237Y-59377619D02*
X144904761Y-59377619D01*
X144904761Y-59377619D02*
X144809523Y-59330000D01*
X144809523Y-59330000D02*
X144714285Y-59234761D01*
X144714285Y-59234761D02*
X144666666Y-59044285D01*
X144666666Y-59044285D02*
X144666666Y-58710952D01*
X144666666Y-58710952D02*
X144714285Y-58520476D01*
X144714285Y-58520476D02*
X144809523Y-58425238D01*
X144809523Y-58425238D02*
X144904761Y-58377619D01*
X126377619Y-91190476D02*
X125901428Y-91523809D01*
X126377619Y-91761904D02*
X125377619Y-91761904D01*
X125377619Y-91761904D02*
X125377619Y-91380952D01*
X125377619Y-91380952D02*
X125425238Y-91285714D01*
X125425238Y-91285714D02*
X125472857Y-91238095D01*
X125472857Y-91238095D02*
X125568095Y-91190476D01*
X125568095Y-91190476D02*
X125710952Y-91190476D01*
X125710952Y-91190476D02*
X125806190Y-91238095D01*
X125806190Y-91238095D02*
X125853809Y-91285714D01*
X125853809Y-91285714D02*
X125901428Y-91380952D01*
X125901428Y-91380952D02*
X125901428Y-91761904D01*
X125853809Y-90761904D02*
X125853809Y-90428571D01*
X126377619Y-90285714D02*
X126377619Y-90761904D01*
X126377619Y-90761904D02*
X125377619Y-90761904D01*
X125377619Y-90761904D02*
X125377619Y-90285714D01*
X126330000Y-89904761D02*
X126377619Y-89761904D01*
X126377619Y-89761904D02*
X126377619Y-89523809D01*
X126377619Y-89523809D02*
X126330000Y-89428571D01*
X126330000Y-89428571D02*
X126282380Y-89380952D01*
X126282380Y-89380952D02*
X126187142Y-89333333D01*
X126187142Y-89333333D02*
X126091904Y-89333333D01*
X126091904Y-89333333D02*
X125996666Y-89380952D01*
X125996666Y-89380952D02*
X125949047Y-89428571D01*
X125949047Y-89428571D02*
X125901428Y-89523809D01*
X125901428Y-89523809D02*
X125853809Y-89714285D01*
X125853809Y-89714285D02*
X125806190Y-89809523D01*
X125806190Y-89809523D02*
X125758571Y-89857142D01*
X125758571Y-89857142D02*
X125663333Y-89904761D01*
X125663333Y-89904761D02*
X125568095Y-89904761D01*
X125568095Y-89904761D02*
X125472857Y-89857142D01*
X125472857Y-89857142D02*
X125425238Y-89809523D01*
X125425238Y-89809523D02*
X125377619Y-89714285D01*
X125377619Y-89714285D02*
X125377619Y-89476190D01*
X125377619Y-89476190D02*
X125425238Y-89333333D01*
X125853809Y-88904761D02*
X125853809Y-88571428D01*
X126377619Y-88428571D02*
X126377619Y-88904761D01*
X126377619Y-88904761D02*
X125377619Y-88904761D01*
X125377619Y-88904761D02*
X125377619Y-88428571D01*
X125377619Y-88142856D02*
X125377619Y-87571428D01*
X126377619Y-87857142D02*
X125377619Y-87857142D01*
X146761904Y-58425238D02*
X146666666Y-58377619D01*
X146666666Y-58377619D02*
X146523809Y-58377619D01*
X146523809Y-58377619D02*
X146380952Y-58425238D01*
X146380952Y-58425238D02*
X146285714Y-58520476D01*
X146285714Y-58520476D02*
X146238095Y-58615714D01*
X146238095Y-58615714D02*
X146190476Y-58806190D01*
X146190476Y-58806190D02*
X146190476Y-58949047D01*
X146190476Y-58949047D02*
X146238095Y-59139523D01*
X146238095Y-59139523D02*
X146285714Y-59234761D01*
X146285714Y-59234761D02*
X146380952Y-59330000D01*
X146380952Y-59330000D02*
X146523809Y-59377619D01*
X146523809Y-59377619D02*
X146619047Y-59377619D01*
X146619047Y-59377619D02*
X146761904Y-59330000D01*
X146761904Y-59330000D02*
X146809523Y-59282380D01*
X146809523Y-59282380D02*
X146809523Y-58949047D01*
X146809523Y-58949047D02*
X146619047Y-58949047D01*
X147238095Y-59377619D02*
X147238095Y-58377619D01*
X147238095Y-58377619D02*
X147809523Y-59377619D01*
X147809523Y-59377619D02*
X147809523Y-58377619D01*
X148285714Y-59377619D02*
X148285714Y-58377619D01*
X148285714Y-58377619D02*
X148523809Y-58377619D01*
X148523809Y-58377619D02*
X148666666Y-58425238D01*
X148666666Y-58425238D02*
X148761904Y-58520476D01*
X148761904Y-58520476D02*
X148809523Y-58615714D01*
X148809523Y-58615714D02*
X148857142Y-58806190D01*
X148857142Y-58806190D02*
X148857142Y-58949047D01*
X148857142Y-58949047D02*
X148809523Y-59139523D01*
X148809523Y-59139523D02*
X148761904Y-59234761D01*
X148761904Y-59234761D02*
X148666666Y-59330000D01*
X148666666Y-59330000D02*
X148523809Y-59377619D01*
X148523809Y-59377619D02*
X148285714Y-59377619D01*
X114925238Y-68738095D02*
X114877619Y-68833333D01*
X114877619Y-68833333D02*
X114877619Y-68976190D01*
X114877619Y-68976190D02*
X114925238Y-69119047D01*
X114925238Y-69119047D02*
X115020476Y-69214285D01*
X115020476Y-69214285D02*
X115115714Y-69261904D01*
X115115714Y-69261904D02*
X115306190Y-69309523D01*
X115306190Y-69309523D02*
X115449047Y-69309523D01*
X115449047Y-69309523D02*
X115639523Y-69261904D01*
X115639523Y-69261904D02*
X115734761Y-69214285D01*
X115734761Y-69214285D02*
X115830000Y-69119047D01*
X115830000Y-69119047D02*
X115877619Y-68976190D01*
X115877619Y-68976190D02*
X115877619Y-68880952D01*
X115877619Y-68880952D02*
X115830000Y-68738095D01*
X115830000Y-68738095D02*
X115782380Y-68690476D01*
X115782380Y-68690476D02*
X115449047Y-68690476D01*
X115449047Y-68690476D02*
X115449047Y-68880952D01*
X115877619Y-68261904D02*
X114877619Y-68261904D01*
X114877619Y-68261904D02*
X115877619Y-67690476D01*
X115877619Y-67690476D02*
X114877619Y-67690476D01*
X115877619Y-67214285D02*
X114877619Y-67214285D01*
X114877619Y-67214285D02*
X114877619Y-66976190D01*
X114877619Y-66976190D02*
X114925238Y-66833333D01*
X114925238Y-66833333D02*
X115020476Y-66738095D01*
X115020476Y-66738095D02*
X115115714Y-66690476D01*
X115115714Y-66690476D02*
X115306190Y-66642857D01*
X115306190Y-66642857D02*
X115449047Y-66642857D01*
X115449047Y-66642857D02*
X115639523Y-66690476D01*
X115639523Y-66690476D02*
X115734761Y-66738095D01*
X115734761Y-66738095D02*
X115830000Y-66833333D01*
X115830000Y-66833333D02*
X115877619Y-66976190D01*
X115877619Y-66976190D02*
X115877619Y-67214285D01*
X96214285Y-72877619D02*
X95738095Y-72877619D01*
X95738095Y-72877619D02*
X95738095Y-71877619D01*
X96738095Y-71877619D02*
X96928571Y-71877619D01*
X96928571Y-71877619D02*
X97023809Y-71925238D01*
X97023809Y-71925238D02*
X97119047Y-72020476D01*
X97119047Y-72020476D02*
X97166666Y-72210952D01*
X97166666Y-72210952D02*
X97166666Y-72544285D01*
X97166666Y-72544285D02*
X97119047Y-72734761D01*
X97119047Y-72734761D02*
X97023809Y-72830000D01*
X97023809Y-72830000D02*
X96928571Y-72877619D01*
X96928571Y-72877619D02*
X96738095Y-72877619D01*
X96738095Y-72877619D02*
X96642857Y-72830000D01*
X96642857Y-72830000D02*
X96547619Y-72734761D01*
X96547619Y-72734761D02*
X96500000Y-72544285D01*
X96500000Y-72544285D02*
X96500000Y-72210952D01*
X96500000Y-72210952D02*
X96547619Y-72020476D01*
X96547619Y-72020476D02*
X96642857Y-71925238D01*
X96642857Y-71925238D02*
X96738095Y-71877619D01*
X100238095Y-55496666D02*
X101000000Y-55496666D01*
X100619047Y-55877619D02*
X100619047Y-55115714D01*
X101333333Y-54877619D02*
X101666666Y-55877619D01*
X101666666Y-55877619D02*
X101999999Y-54877619D01*
X110214285Y-55877619D02*
X109738095Y-55877619D01*
X109738095Y-55877619D02*
X109738095Y-54877619D01*
X110738095Y-54877619D02*
X110928571Y-54877619D01*
X110928571Y-54877619D02*
X111023809Y-54925238D01*
X111023809Y-54925238D02*
X111119047Y-55020476D01*
X111119047Y-55020476D02*
X111166666Y-55210952D01*
X111166666Y-55210952D02*
X111166666Y-55544285D01*
X111166666Y-55544285D02*
X111119047Y-55734761D01*
X111119047Y-55734761D02*
X111023809Y-55830000D01*
X111023809Y-55830000D02*
X110928571Y-55877619D01*
X110928571Y-55877619D02*
X110738095Y-55877619D01*
X110738095Y-55877619D02*
X110642857Y-55830000D01*
X110642857Y-55830000D02*
X110547619Y-55734761D01*
X110547619Y-55734761D02*
X110500000Y-55544285D01*
X110500000Y-55544285D02*
X110500000Y-55210952D01*
X110500000Y-55210952D02*
X110547619Y-55020476D01*
X110547619Y-55020476D02*
X110642857Y-54925238D01*
X110642857Y-54925238D02*
X110738095Y-54877619D01*
X141309523Y-59282380D02*
X141261904Y-59330000D01*
X141261904Y-59330000D02*
X141119047Y-59377619D01*
X141119047Y-59377619D02*
X141023809Y-59377619D01*
X141023809Y-59377619D02*
X140880952Y-59330000D01*
X140880952Y-59330000D02*
X140785714Y-59234761D01*
X140785714Y-59234761D02*
X140738095Y-59139523D01*
X140738095Y-59139523D02*
X140690476Y-58949047D01*
X140690476Y-58949047D02*
X140690476Y-58806190D01*
X140690476Y-58806190D02*
X140738095Y-58615714D01*
X140738095Y-58615714D02*
X140785714Y-58520476D01*
X140785714Y-58520476D02*
X140880952Y-58425238D01*
X140880952Y-58425238D02*
X141023809Y-58377619D01*
X141023809Y-58377619D02*
X141119047Y-58377619D01*
X141119047Y-58377619D02*
X141261904Y-58425238D01*
X141261904Y-58425238D02*
X141309523Y-58472857D01*
X142214285Y-59377619D02*
X141738095Y-59377619D01*
X141738095Y-59377619D02*
X141738095Y-58377619D01*
X142547619Y-59377619D02*
X142547619Y-58377619D01*
X143119047Y-59377619D02*
X142690476Y-58806190D01*
X143119047Y-58377619D02*
X142547619Y-58949047D01*
X95738095Y-81496666D02*
X96500000Y-81496666D01*
X96119047Y-81877619D02*
X96119047Y-81115714D01*
X96833333Y-80877619D02*
X97166666Y-81877619D01*
X97166666Y-81877619D02*
X97499999Y-80877619D01*
X95738095Y-75877619D02*
X95738095Y-74877619D01*
X95738095Y-75353809D02*
X96309523Y-75353809D01*
X96309523Y-75877619D02*
X96309523Y-74877619D01*
X96785714Y-75877619D02*
X96785714Y-74877619D01*
X141380952Y-79962619D02*
X140904762Y-79962619D01*
X140904762Y-79962619D02*
X140904762Y-78962619D01*
X141714286Y-79438809D02*
X142047619Y-79438809D01*
X142190476Y-79962619D02*
X141714286Y-79962619D01*
X141714286Y-79962619D02*
X141714286Y-78962619D01*
X141714286Y-78962619D02*
X142190476Y-78962619D01*
X142619048Y-79962619D02*
X142619048Y-78962619D01*
X142619048Y-78962619D02*
X142857143Y-78962619D01*
X142857143Y-78962619D02*
X143000000Y-79010238D01*
X143000000Y-79010238D02*
X143095238Y-79105476D01*
X143095238Y-79105476D02*
X143142857Y-79200714D01*
X143142857Y-79200714D02*
X143190476Y-79391190D01*
X143190476Y-79391190D02*
X143190476Y-79534047D01*
X143190476Y-79534047D02*
X143142857Y-79724523D01*
X143142857Y-79724523D02*
X143095238Y-79819761D01*
X143095238Y-79819761D02*
X143000000Y-79915000D01*
X143000000Y-79915000D02*
X142857143Y-79962619D01*
X142857143Y-79962619D02*
X142619048Y-79962619D01*
X144142857Y-79962619D02*
X143571429Y-79962619D01*
X143857143Y-79962619D02*
X143857143Y-78962619D01*
X143857143Y-78962619D02*
X143761905Y-79105476D01*
X143761905Y-79105476D02*
X143666667Y-79200714D01*
X143666667Y-79200714D02*
X143571429Y-79248333D01*
X147999999Y-83537380D02*
X147999999Y-83299285D01*
X148238094Y-83394523D02*
X147999999Y-83299285D01*
X147999999Y-83299285D02*
X147761904Y-83394523D01*
X148142856Y-83108809D02*
X147999999Y-83299285D01*
X147999999Y-83299285D02*
X147857142Y-83108809D01*
X147999999Y-83537380D02*
X147999999Y-83299285D01*
X148238094Y-83394523D02*
X147999999Y-83299285D01*
X147999999Y-83299285D02*
X147761904Y-83394523D01*
X148142856Y-83108809D02*
X147999999Y-83299285D01*
X147999999Y-83299285D02*
X147857142Y-83108809D01*
X141380952Y-68962619D02*
X140904762Y-68962619D01*
X140904762Y-68962619D02*
X140904762Y-67962619D01*
X141714286Y-68438809D02*
X142047619Y-68438809D01*
X142190476Y-68962619D02*
X141714286Y-68962619D01*
X141714286Y-68962619D02*
X141714286Y-67962619D01*
X141714286Y-67962619D02*
X142190476Y-67962619D01*
X142619048Y-68962619D02*
X142619048Y-67962619D01*
X142619048Y-67962619D02*
X142857143Y-67962619D01*
X142857143Y-67962619D02*
X143000000Y-68010238D01*
X143000000Y-68010238D02*
X143095238Y-68105476D01*
X143095238Y-68105476D02*
X143142857Y-68200714D01*
X143142857Y-68200714D02*
X143190476Y-68391190D01*
X143190476Y-68391190D02*
X143190476Y-68534047D01*
X143190476Y-68534047D02*
X143142857Y-68724523D01*
X143142857Y-68724523D02*
X143095238Y-68819761D01*
X143095238Y-68819761D02*
X143000000Y-68915000D01*
X143000000Y-68915000D02*
X142857143Y-68962619D01*
X142857143Y-68962619D02*
X142619048Y-68962619D01*
X143571429Y-68057857D02*
X143619048Y-68010238D01*
X143619048Y-68010238D02*
X143714286Y-67962619D01*
X143714286Y-67962619D02*
X143952381Y-67962619D01*
X143952381Y-67962619D02*
X144047619Y-68010238D01*
X144047619Y-68010238D02*
X144095238Y-68057857D01*
X144095238Y-68057857D02*
X144142857Y-68153095D01*
X144142857Y-68153095D02*
X144142857Y-68248333D01*
X144142857Y-68248333D02*
X144095238Y-68391190D01*
X144095238Y-68391190D02*
X143523810Y-68962619D01*
X143523810Y-68962619D02*
X144142857Y-68962619D01*
X148499999Y-73037380D02*
X148499999Y-72799285D01*
X148738094Y-72894523D02*
X148499999Y-72799285D01*
X148499999Y-72799285D02*
X148261904Y-72894523D01*
X148642856Y-72608809D02*
X148499999Y-72799285D01*
X148499999Y-72799285D02*
X148357142Y-72608809D01*
X148499999Y-73037380D02*
X148499999Y-72799285D01*
X148738094Y-72894523D02*
X148499999Y-72799285D01*
X148499999Y-72799285D02*
X148261904Y-72894523D01*
X148642856Y-72608809D02*
X148499999Y-72799285D01*
X148499999Y-72799285D02*
X148357142Y-72608809D01*
X113238095Y-64462619D02*
X113238095Y-65272142D01*
X113238095Y-65272142D02*
X113285714Y-65367380D01*
X113285714Y-65367380D02*
X113333333Y-65415000D01*
X113333333Y-65415000D02*
X113428571Y-65462619D01*
X113428571Y-65462619D02*
X113619047Y-65462619D01*
X113619047Y-65462619D02*
X113714285Y-65415000D01*
X113714285Y-65415000D02*
X113761904Y-65367380D01*
X113761904Y-65367380D02*
X113809523Y-65272142D01*
X113809523Y-65272142D02*
X113809523Y-64462619D01*
X114428571Y-64891190D02*
X114333333Y-64843571D01*
X114333333Y-64843571D02*
X114285714Y-64795952D01*
X114285714Y-64795952D02*
X114238095Y-64700714D01*
X114238095Y-64700714D02*
X114238095Y-64653095D01*
X114238095Y-64653095D02*
X114285714Y-64557857D01*
X114285714Y-64557857D02*
X114333333Y-64510238D01*
X114333333Y-64510238D02*
X114428571Y-64462619D01*
X114428571Y-64462619D02*
X114619047Y-64462619D01*
X114619047Y-64462619D02*
X114714285Y-64510238D01*
X114714285Y-64510238D02*
X114761904Y-64557857D01*
X114761904Y-64557857D02*
X114809523Y-64653095D01*
X114809523Y-64653095D02*
X114809523Y-64700714D01*
X114809523Y-64700714D02*
X114761904Y-64795952D01*
X114761904Y-64795952D02*
X114714285Y-64843571D01*
X114714285Y-64843571D02*
X114619047Y-64891190D01*
X114619047Y-64891190D02*
X114428571Y-64891190D01*
X114428571Y-64891190D02*
X114333333Y-64938809D01*
X114333333Y-64938809D02*
X114285714Y-64986428D01*
X114285714Y-64986428D02*
X114238095Y-65081666D01*
X114238095Y-65081666D02*
X114238095Y-65272142D01*
X114238095Y-65272142D02*
X114285714Y-65367380D01*
X114285714Y-65367380D02*
X114333333Y-65415000D01*
X114333333Y-65415000D02*
X114428571Y-65462619D01*
X114428571Y-65462619D02*
X114619047Y-65462619D01*
X114619047Y-65462619D02*
X114714285Y-65415000D01*
X114714285Y-65415000D02*
X114761904Y-65367380D01*
X114761904Y-65367380D02*
X114809523Y-65272142D01*
X114809523Y-65272142D02*
X114809523Y-65081666D01*
X114809523Y-65081666D02*
X114761904Y-64986428D01*
X114761904Y-64986428D02*
X114714285Y-64938809D01*
X114714285Y-64938809D02*
X114619047Y-64891190D01*
X98738095Y-87462619D02*
X98738095Y-88272142D01*
X98738095Y-88272142D02*
X98785714Y-88367380D01*
X98785714Y-88367380D02*
X98833333Y-88415000D01*
X98833333Y-88415000D02*
X98928571Y-88462619D01*
X98928571Y-88462619D02*
X99119047Y-88462619D01*
X99119047Y-88462619D02*
X99214285Y-88415000D01*
X99214285Y-88415000D02*
X99261904Y-88367380D01*
X99261904Y-88367380D02*
X99309523Y-88272142D01*
X99309523Y-88272142D02*
X99309523Y-87462619D01*
X100309523Y-88462619D02*
X99738095Y-88462619D01*
X100023809Y-88462619D02*
X100023809Y-87462619D01*
X100023809Y-87462619D02*
X99928571Y-87605476D01*
X99928571Y-87605476D02*
X99833333Y-87700714D01*
X99833333Y-87700714D02*
X99738095Y-87748333D01*
X99540219Y-90457449D02*
X99778314Y-90457449D01*
X99683076Y-90695544D02*
X99778314Y-90457449D01*
X99778314Y-90457449D02*
X99683076Y-90219354D01*
X99968790Y-90600306D02*
X99778314Y-90457449D01*
X99778314Y-90457449D02*
X99968790Y-90314592D01*
X99540219Y-90457449D02*
X99778314Y-90457449D01*
X99683076Y-90695544D02*
X99778314Y-90457449D01*
X99778314Y-90457449D02*
X99683076Y-90219354D01*
X99968790Y-90600306D02*
X99778314Y-90457449D01*
X99778314Y-90457449D02*
X99968790Y-90314592D01*
D13*
X104457856Y-79587526D02*
X104457856Y-78317526D01*
X104457856Y-78317526D02*
X104941666Y-78317526D01*
X104941666Y-78317526D02*
X105062618Y-78378002D01*
X105062618Y-78378002D02*
X105123095Y-78438478D01*
X105123095Y-78438478D02*
X105183571Y-78559430D01*
X105183571Y-78559430D02*
X105183571Y-78740859D01*
X105183571Y-78740859D02*
X105123095Y-78861811D01*
X105123095Y-78861811D02*
X105062618Y-78922288D01*
X105062618Y-78922288D02*
X104941666Y-78982764D01*
X104941666Y-78982764D02*
X104457856Y-78982764D01*
X105667380Y-79527050D02*
X105848809Y-79587526D01*
X105848809Y-79587526D02*
X106151190Y-79587526D01*
X106151190Y-79587526D02*
X106272142Y-79527050D01*
X106272142Y-79527050D02*
X106332618Y-79466573D01*
X106332618Y-79466573D02*
X106393095Y-79345621D01*
X106393095Y-79345621D02*
X106393095Y-79224669D01*
X106393095Y-79224669D02*
X106332618Y-79103716D01*
X106332618Y-79103716D02*
X106272142Y-79043240D01*
X106272142Y-79043240D02*
X106151190Y-78982764D01*
X106151190Y-78982764D02*
X105909285Y-78922288D01*
X105909285Y-78922288D02*
X105788333Y-78861811D01*
X105788333Y-78861811D02*
X105727856Y-78801335D01*
X105727856Y-78801335D02*
X105667380Y-78680383D01*
X105667380Y-78680383D02*
X105667380Y-78559430D01*
X105667380Y-78559430D02*
X105727856Y-78438478D01*
X105727856Y-78438478D02*
X105788333Y-78378002D01*
X105788333Y-78378002D02*
X105909285Y-78317526D01*
X105909285Y-78317526D02*
X106211666Y-78317526D01*
X106211666Y-78317526D02*
X106393095Y-78378002D01*
X106876904Y-78438478D02*
X106937380Y-78378002D01*
X106937380Y-78378002D02*
X107058333Y-78317526D01*
X107058333Y-78317526D02*
X107360714Y-78317526D01*
X107360714Y-78317526D02*
X107481666Y-78378002D01*
X107481666Y-78378002D02*
X107542142Y-78438478D01*
X107542142Y-78438478D02*
X107602619Y-78559430D01*
X107602619Y-78559430D02*
X107602619Y-78680383D01*
X107602619Y-78680383D02*
X107542142Y-78861811D01*
X107542142Y-78861811D02*
X106816428Y-79587526D01*
X106816428Y-79587526D02*
X107602619Y-79587526D01*
X112208478Y-86120952D02*
X112148002Y-86241904D01*
X112148002Y-86241904D02*
X112027050Y-86362857D01*
X112027050Y-86362857D02*
X111845621Y-86544285D01*
X111845621Y-86544285D02*
X111785145Y-86665238D01*
X111785145Y-86665238D02*
X111785145Y-86786190D01*
X112087526Y-86725714D02*
X112027050Y-86846666D01*
X112027050Y-86846666D02*
X111906097Y-86967619D01*
X111906097Y-86967619D02*
X111664192Y-87028095D01*
X111664192Y-87028095D02*
X111240859Y-87028095D01*
X111240859Y-87028095D02*
X110998954Y-86967619D01*
X110998954Y-86967619D02*
X110878002Y-86846666D01*
X110878002Y-86846666D02*
X110817526Y-86725714D01*
X110817526Y-86725714D02*
X110817526Y-86483809D01*
X110817526Y-86483809D02*
X110878002Y-86362857D01*
X110878002Y-86362857D02*
X110998954Y-86241904D01*
X110998954Y-86241904D02*
X111240859Y-86181428D01*
X111240859Y-86181428D02*
X111664192Y-86181428D01*
X111664192Y-86181428D02*
X111906097Y-86241904D01*
X111906097Y-86241904D02*
X112027050Y-86362857D01*
X112027050Y-86362857D02*
X112087526Y-86483809D01*
X112087526Y-86483809D02*
X112087526Y-86725714D01*
X110817526Y-85758095D02*
X110817526Y-84971904D01*
X110817526Y-84971904D02*
X111301335Y-85395238D01*
X111301335Y-85395238D02*
X111301335Y-85213809D01*
X111301335Y-85213809D02*
X111361811Y-85092857D01*
X111361811Y-85092857D02*
X111422288Y-85032381D01*
X111422288Y-85032381D02*
X111543240Y-84971904D01*
X111543240Y-84971904D02*
X111845621Y-84971904D01*
X111845621Y-84971904D02*
X111966573Y-85032381D01*
X111966573Y-85032381D02*
X112027050Y-85092857D01*
X112027050Y-85092857D02*
X112087526Y-85213809D01*
X112087526Y-85213809D02*
X112087526Y-85576666D01*
X112087526Y-85576666D02*
X112027050Y-85697619D01*
X112027050Y-85697619D02*
X111966573Y-85758095D01*
D11*
X128738095Y-79462619D02*
X128738095Y-80272142D01*
X128738095Y-80272142D02*
X128785714Y-80367380D01*
X128785714Y-80367380D02*
X128833333Y-80415000D01*
X128833333Y-80415000D02*
X128928571Y-80462619D01*
X128928571Y-80462619D02*
X129119047Y-80462619D01*
X129119047Y-80462619D02*
X129214285Y-80415000D01*
X129214285Y-80415000D02*
X129261904Y-80367380D01*
X129261904Y-80367380D02*
X129309523Y-80272142D01*
X129309523Y-80272142D02*
X129309523Y-79462619D01*
X129690476Y-79462619D02*
X130309523Y-79462619D01*
X130309523Y-79462619D02*
X129976190Y-79843571D01*
X129976190Y-79843571D02*
X130119047Y-79843571D01*
X130119047Y-79843571D02*
X130214285Y-79891190D01*
X130214285Y-79891190D02*
X130261904Y-79938809D01*
X130261904Y-79938809D02*
X130309523Y-80034047D01*
X130309523Y-80034047D02*
X130309523Y-80272142D01*
X130309523Y-80272142D02*
X130261904Y-80367380D01*
X130261904Y-80367380D02*
X130214285Y-80415000D01*
X130214285Y-80415000D02*
X130119047Y-80462619D01*
X130119047Y-80462619D02*
X129833333Y-80462619D01*
X129833333Y-80462619D02*
X129738095Y-80415000D01*
X129738095Y-80415000D02*
X129690476Y-80367380D01*
X101857142Y-79962619D02*
X101523809Y-79486428D01*
X101285714Y-79962619D02*
X101285714Y-78962619D01*
X101285714Y-78962619D02*
X101666666Y-78962619D01*
X101666666Y-78962619D02*
X101761904Y-79010238D01*
X101761904Y-79010238D02*
X101809523Y-79057857D01*
X101809523Y-79057857D02*
X101857142Y-79153095D01*
X101857142Y-79153095D02*
X101857142Y-79295952D01*
X101857142Y-79295952D02*
X101809523Y-79391190D01*
X101809523Y-79391190D02*
X101761904Y-79438809D01*
X101761904Y-79438809D02*
X101666666Y-79486428D01*
X101666666Y-79486428D02*
X101285714Y-79486428D01*
X102809523Y-79962619D02*
X102238095Y-79962619D01*
X102523809Y-79962619D02*
X102523809Y-78962619D01*
X102523809Y-78962619D02*
X102428571Y-79105476D01*
X102428571Y-79105476D02*
X102333333Y-79200714D01*
X102333333Y-79200714D02*
X102238095Y-79248333D01*
X103714285Y-78962619D02*
X103238095Y-78962619D01*
X103238095Y-78962619D02*
X103190476Y-79438809D01*
X103190476Y-79438809D02*
X103238095Y-79391190D01*
X103238095Y-79391190D02*
X103333333Y-79343571D01*
X103333333Y-79343571D02*
X103571428Y-79343571D01*
X103571428Y-79343571D02*
X103666666Y-79391190D01*
X103666666Y-79391190D02*
X103714285Y-79438809D01*
X103714285Y-79438809D02*
X103761904Y-79534047D01*
X103761904Y-79534047D02*
X103761904Y-79772142D01*
X103761904Y-79772142D02*
X103714285Y-79867380D01*
X103714285Y-79867380D02*
X103666666Y-79915000D01*
X103666666Y-79915000D02*
X103571428Y-79962619D01*
X103571428Y-79962619D02*
X103333333Y-79962619D01*
X103333333Y-79962619D02*
X103238095Y-79915000D01*
X103238095Y-79915000D02*
X103190476Y-79867380D01*
X119738095Y-64462619D02*
X119738095Y-65272142D01*
X119738095Y-65272142D02*
X119785714Y-65367380D01*
X119785714Y-65367380D02*
X119833333Y-65415000D01*
X119833333Y-65415000D02*
X119928571Y-65462619D01*
X119928571Y-65462619D02*
X120119047Y-65462619D01*
X120119047Y-65462619D02*
X120214285Y-65415000D01*
X120214285Y-65415000D02*
X120261904Y-65367380D01*
X120261904Y-65367380D02*
X120309523Y-65272142D01*
X120309523Y-65272142D02*
X120309523Y-64462619D01*
X121214285Y-64795952D02*
X121214285Y-65462619D01*
X120976190Y-64415000D02*
X120738095Y-65129285D01*
X120738095Y-65129285D02*
X121357142Y-65129285D01*
D13*
X134957856Y-55087526D02*
X134957856Y-53817526D01*
X134957856Y-53817526D02*
X135441666Y-53817526D01*
X135441666Y-53817526D02*
X135562618Y-53878002D01*
X135562618Y-53878002D02*
X135623095Y-53938478D01*
X135623095Y-53938478D02*
X135683571Y-54059430D01*
X135683571Y-54059430D02*
X135683571Y-54240859D01*
X135683571Y-54240859D02*
X135623095Y-54361811D01*
X135623095Y-54361811D02*
X135562618Y-54422288D01*
X135562618Y-54422288D02*
X135441666Y-54482764D01*
X135441666Y-54482764D02*
X134957856Y-54482764D01*
X136167380Y-55027050D02*
X136348809Y-55087526D01*
X136348809Y-55087526D02*
X136651190Y-55087526D01*
X136651190Y-55087526D02*
X136772142Y-55027050D01*
X136772142Y-55027050D02*
X136832618Y-54966573D01*
X136832618Y-54966573D02*
X136893095Y-54845621D01*
X136893095Y-54845621D02*
X136893095Y-54724669D01*
X136893095Y-54724669D02*
X136832618Y-54603716D01*
X136832618Y-54603716D02*
X136772142Y-54543240D01*
X136772142Y-54543240D02*
X136651190Y-54482764D01*
X136651190Y-54482764D02*
X136409285Y-54422288D01*
X136409285Y-54422288D02*
X136288333Y-54361811D01*
X136288333Y-54361811D02*
X136227856Y-54301335D01*
X136227856Y-54301335D02*
X136167380Y-54180383D01*
X136167380Y-54180383D02*
X136167380Y-54059430D01*
X136167380Y-54059430D02*
X136227856Y-53938478D01*
X136227856Y-53938478D02*
X136288333Y-53878002D01*
X136288333Y-53878002D02*
X136409285Y-53817526D01*
X136409285Y-53817526D02*
X136711666Y-53817526D01*
X136711666Y-53817526D02*
X136893095Y-53878002D01*
X137316428Y-53817526D02*
X138102619Y-53817526D01*
X138102619Y-53817526D02*
X137679285Y-54301335D01*
X137679285Y-54301335D02*
X137860714Y-54301335D01*
X137860714Y-54301335D02*
X137981666Y-54361811D01*
X137981666Y-54361811D02*
X138042142Y-54422288D01*
X138042142Y-54422288D02*
X138102619Y-54543240D01*
X138102619Y-54543240D02*
X138102619Y-54845621D01*
X138102619Y-54845621D02*
X138042142Y-54966573D01*
X138042142Y-54966573D02*
X137981666Y-55027050D01*
X137981666Y-55027050D02*
X137860714Y-55087526D01*
X137860714Y-55087526D02*
X137497857Y-55087526D01*
X137497857Y-55087526D02*
X137376904Y-55027050D01*
X137376904Y-55027050D02*
X137316428Y-54966573D01*
D11*
X99962619Y-95738094D02*
X98962619Y-95738094D01*
X98962619Y-95738094D02*
X98962619Y-95499999D01*
X98962619Y-95499999D02*
X99010238Y-95357142D01*
X99010238Y-95357142D02*
X99105476Y-95261904D01*
X99105476Y-95261904D02*
X99200714Y-95214285D01*
X99200714Y-95214285D02*
X99391190Y-95166666D01*
X99391190Y-95166666D02*
X99534047Y-95166666D01*
X99534047Y-95166666D02*
X99724523Y-95214285D01*
X99724523Y-95214285D02*
X99819761Y-95261904D01*
X99819761Y-95261904D02*
X99915000Y-95357142D01*
X99915000Y-95357142D02*
X99962619Y-95499999D01*
X99962619Y-95499999D02*
X99962619Y-95738094D01*
X98962619Y-94833332D02*
X98962619Y-94214285D01*
X98962619Y-94214285D02*
X99343571Y-94547618D01*
X99343571Y-94547618D02*
X99343571Y-94404761D01*
X99343571Y-94404761D02*
X99391190Y-94309523D01*
X99391190Y-94309523D02*
X99438809Y-94261904D01*
X99438809Y-94261904D02*
X99534047Y-94214285D01*
X99534047Y-94214285D02*
X99772142Y-94214285D01*
X99772142Y-94214285D02*
X99867380Y-94261904D01*
X99867380Y-94261904D02*
X99915000Y-94309523D01*
X99915000Y-94309523D02*
X99962619Y-94404761D01*
X99962619Y-94404761D02*
X99962619Y-94690475D01*
X99962619Y-94690475D02*
X99915000Y-94785713D01*
X99915000Y-94785713D02*
X99867380Y-94833332D01*
X99867380Y-93142857D02*
X99915000Y-93190476D01*
X99915000Y-93190476D02*
X99962619Y-93333333D01*
X99962619Y-93333333D02*
X99962619Y-93428571D01*
X99962619Y-93428571D02*
X99915000Y-93571428D01*
X99915000Y-93571428D02*
X99819761Y-93666666D01*
X99819761Y-93666666D02*
X99724523Y-93714285D01*
X99724523Y-93714285D02*
X99534047Y-93761904D01*
X99534047Y-93761904D02*
X99391190Y-93761904D01*
X99391190Y-93761904D02*
X99200714Y-93714285D01*
X99200714Y-93714285D02*
X99105476Y-93666666D01*
X99105476Y-93666666D02*
X99010238Y-93571428D01*
X99010238Y-93571428D02*
X98962619Y-93428571D01*
X98962619Y-93428571D02*
X98962619Y-93333333D01*
X98962619Y-93333333D02*
X99010238Y-93190476D01*
X99010238Y-93190476D02*
X99057857Y-93142857D01*
X99962619Y-92190476D02*
X99962619Y-92761904D01*
X99962619Y-92476190D02*
X98962619Y-92476190D01*
X98962619Y-92476190D02*
X99105476Y-92571428D01*
X99105476Y-92571428D02*
X99200714Y-92666666D01*
X99200714Y-92666666D02*
X99248333Y-92761904D01*
X98962619Y-91333333D02*
X98962619Y-91523809D01*
X98962619Y-91523809D02*
X99010238Y-91619047D01*
X99010238Y-91619047D02*
X99057857Y-91666666D01*
X99057857Y-91666666D02*
X99200714Y-91761904D01*
X99200714Y-91761904D02*
X99391190Y-91809523D01*
X99391190Y-91809523D02*
X99772142Y-91809523D01*
X99772142Y-91809523D02*
X99867380Y-91761904D01*
X99867380Y-91761904D02*
X99915000Y-91714285D01*
X99915000Y-91714285D02*
X99962619Y-91619047D01*
X99962619Y-91619047D02*
X99962619Y-91428571D01*
X99962619Y-91428571D02*
X99915000Y-91333333D01*
X99915000Y-91333333D02*
X99867380Y-91285714D01*
X99867380Y-91285714D02*
X99772142Y-91238095D01*
X99772142Y-91238095D02*
X99534047Y-91238095D01*
X99534047Y-91238095D02*
X99438809Y-91285714D01*
X99438809Y-91285714D02*
X99391190Y-91333333D01*
X99391190Y-91333333D02*
X99343571Y-91428571D01*
X99343571Y-91428571D02*
X99343571Y-91619047D01*
X99343571Y-91619047D02*
X99391190Y-91714285D01*
X99391190Y-91714285D02*
X99438809Y-91761904D01*
X99438809Y-91761904D02*
X99534047Y-91809523D01*
D13*
X128260237Y-62587526D02*
X128260237Y-61317526D01*
X129590714Y-62466573D02*
X129530238Y-62527050D01*
X129530238Y-62527050D02*
X129348809Y-62587526D01*
X129348809Y-62587526D02*
X129227857Y-62587526D01*
X129227857Y-62587526D02*
X129046428Y-62527050D01*
X129046428Y-62527050D02*
X128925476Y-62406097D01*
X128925476Y-62406097D02*
X128864999Y-62285145D01*
X128864999Y-62285145D02*
X128804523Y-62043240D01*
X128804523Y-62043240D02*
X128804523Y-61861811D01*
X128804523Y-61861811D02*
X128864999Y-61619907D01*
X128864999Y-61619907D02*
X128925476Y-61498954D01*
X128925476Y-61498954D02*
X129046428Y-61378002D01*
X129046428Y-61378002D02*
X129227857Y-61317526D01*
X129227857Y-61317526D02*
X129348809Y-61317526D01*
X129348809Y-61317526D02*
X129530238Y-61378002D01*
X129530238Y-61378002D02*
X129590714Y-61438478D01*
X130074523Y-61438478D02*
X130134999Y-61378002D01*
X130134999Y-61378002D02*
X130255952Y-61317526D01*
X130255952Y-61317526D02*
X130558333Y-61317526D01*
X130558333Y-61317526D02*
X130679285Y-61378002D01*
X130679285Y-61378002D02*
X130739761Y-61438478D01*
X130739761Y-61438478D02*
X130800238Y-61559430D01*
X130800238Y-61559430D02*
X130800238Y-61680383D01*
X130800238Y-61680383D02*
X130739761Y-61861811D01*
X130739761Y-61861811D02*
X130014047Y-62587526D01*
X130014047Y-62587526D02*
X130800238Y-62587526D01*
D11*
X100462619Y-64142857D02*
X99986428Y-64476190D01*
X100462619Y-64714285D02*
X99462619Y-64714285D01*
X99462619Y-64714285D02*
X99462619Y-64333333D01*
X99462619Y-64333333D02*
X99510238Y-64238095D01*
X99510238Y-64238095D02*
X99557857Y-64190476D01*
X99557857Y-64190476D02*
X99653095Y-64142857D01*
X99653095Y-64142857D02*
X99795952Y-64142857D01*
X99795952Y-64142857D02*
X99891190Y-64190476D01*
X99891190Y-64190476D02*
X99938809Y-64238095D01*
X99938809Y-64238095D02*
X99986428Y-64333333D01*
X99986428Y-64333333D02*
X99986428Y-64714285D01*
X99557857Y-63761904D02*
X99510238Y-63714285D01*
X99510238Y-63714285D02*
X99462619Y-63619047D01*
X99462619Y-63619047D02*
X99462619Y-63380952D01*
X99462619Y-63380952D02*
X99510238Y-63285714D01*
X99510238Y-63285714D02*
X99557857Y-63238095D01*
X99557857Y-63238095D02*
X99653095Y-63190476D01*
X99653095Y-63190476D02*
X99748333Y-63190476D01*
X99748333Y-63190476D02*
X99891190Y-63238095D01*
X99891190Y-63238095D02*
X100462619Y-63809523D01*
X100462619Y-63809523D02*
X100462619Y-63190476D01*
X99557857Y-62809523D02*
X99510238Y-62761904D01*
X99510238Y-62761904D02*
X99462619Y-62666666D01*
X99462619Y-62666666D02*
X99462619Y-62428571D01*
X99462619Y-62428571D02*
X99510238Y-62333333D01*
X99510238Y-62333333D02*
X99557857Y-62285714D01*
X99557857Y-62285714D02*
X99653095Y-62238095D01*
X99653095Y-62238095D02*
X99748333Y-62238095D01*
X99748333Y-62238095D02*
X99891190Y-62285714D01*
X99891190Y-62285714D02*
X100462619Y-62857142D01*
X100462619Y-62857142D02*
X100462619Y-62238095D01*
X105557857Y-68595238D02*
X105510238Y-68690476D01*
X105510238Y-68690476D02*
X105415000Y-68785714D01*
X105415000Y-68785714D02*
X105272142Y-68928571D01*
X105272142Y-68928571D02*
X105224523Y-69023809D01*
X105224523Y-69023809D02*
X105224523Y-69119047D01*
X105462619Y-69071428D02*
X105415000Y-69166666D01*
X105415000Y-69166666D02*
X105319761Y-69261904D01*
X105319761Y-69261904D02*
X105129285Y-69309523D01*
X105129285Y-69309523D02*
X104795952Y-69309523D01*
X104795952Y-69309523D02*
X104605476Y-69261904D01*
X104605476Y-69261904D02*
X104510238Y-69166666D01*
X104510238Y-69166666D02*
X104462619Y-69071428D01*
X104462619Y-69071428D02*
X104462619Y-68880952D01*
X104462619Y-68880952D02*
X104510238Y-68785714D01*
X104510238Y-68785714D02*
X104605476Y-68690476D01*
X104605476Y-68690476D02*
X104795952Y-68642857D01*
X104795952Y-68642857D02*
X105129285Y-68642857D01*
X105129285Y-68642857D02*
X105319761Y-68690476D01*
X105319761Y-68690476D02*
X105415000Y-68785714D01*
X105415000Y-68785714D02*
X105462619Y-68880952D01*
X105462619Y-68880952D02*
X105462619Y-69071428D01*
X105462619Y-67690476D02*
X105462619Y-68261904D01*
X105462619Y-67976190D02*
X104462619Y-67976190D01*
X104462619Y-67976190D02*
X104605476Y-68071428D01*
X104605476Y-68071428D02*
X104700714Y-68166666D01*
X104700714Y-68166666D02*
X104748333Y-68261904D01*
X105367380Y-62666666D02*
X105415000Y-62714285D01*
X105415000Y-62714285D02*
X105462619Y-62857142D01*
X105462619Y-62857142D02*
X105462619Y-62952380D01*
X105462619Y-62952380D02*
X105415000Y-63095237D01*
X105415000Y-63095237D02*
X105319761Y-63190475D01*
X105319761Y-63190475D02*
X105224523Y-63238094D01*
X105224523Y-63238094D02*
X105034047Y-63285713D01*
X105034047Y-63285713D02*
X104891190Y-63285713D01*
X104891190Y-63285713D02*
X104700714Y-63238094D01*
X104700714Y-63238094D02*
X104605476Y-63190475D01*
X104605476Y-63190475D02*
X104510238Y-63095237D01*
X104510238Y-63095237D02*
X104462619Y-62952380D01*
X104462619Y-62952380D02*
X104462619Y-62857142D01*
X104462619Y-62857142D02*
X104510238Y-62714285D01*
X104510238Y-62714285D02*
X104557857Y-62666666D01*
X104795952Y-61809523D02*
X105462619Y-61809523D01*
X104415000Y-62047618D02*
X105129285Y-62285713D01*
X105129285Y-62285713D02*
X105129285Y-61666666D01*
D13*
X121395238Y-86382764D02*
X121395238Y-86987526D01*
X120971905Y-85717526D02*
X121395238Y-86382764D01*
X121395238Y-86382764D02*
X121818572Y-85717526D01*
X122181428Y-85838478D02*
X122241904Y-85778002D01*
X122241904Y-85778002D02*
X122362857Y-85717526D01*
X122362857Y-85717526D02*
X122665238Y-85717526D01*
X122665238Y-85717526D02*
X122786190Y-85778002D01*
X122786190Y-85778002D02*
X122846666Y-85838478D01*
X122846666Y-85838478D02*
X122907143Y-85959430D01*
X122907143Y-85959430D02*
X122907143Y-86080383D01*
X122907143Y-86080383D02*
X122846666Y-86261811D01*
X122846666Y-86261811D02*
X122120952Y-86987526D01*
X122120952Y-86987526D02*
X122907143Y-86987526D01*
X112208478Y-90620952D02*
X112148002Y-90741904D01*
X112148002Y-90741904D02*
X112027050Y-90862857D01*
X112027050Y-90862857D02*
X111845621Y-91044285D01*
X111845621Y-91044285D02*
X111785145Y-91165238D01*
X111785145Y-91165238D02*
X111785145Y-91286190D01*
X112087526Y-91225714D02*
X112027050Y-91346666D01*
X112027050Y-91346666D02*
X111906097Y-91467619D01*
X111906097Y-91467619D02*
X111664192Y-91528095D01*
X111664192Y-91528095D02*
X111240859Y-91528095D01*
X111240859Y-91528095D02*
X110998954Y-91467619D01*
X110998954Y-91467619D02*
X110878002Y-91346666D01*
X110878002Y-91346666D02*
X110817526Y-91225714D01*
X110817526Y-91225714D02*
X110817526Y-90983809D01*
X110817526Y-90983809D02*
X110878002Y-90862857D01*
X110878002Y-90862857D02*
X110998954Y-90741904D01*
X110998954Y-90741904D02*
X111240859Y-90681428D01*
X111240859Y-90681428D02*
X111664192Y-90681428D01*
X111664192Y-90681428D02*
X111906097Y-90741904D01*
X111906097Y-90741904D02*
X112027050Y-90862857D01*
X112027050Y-90862857D02*
X112087526Y-90983809D01*
X112087526Y-90983809D02*
X112087526Y-91225714D01*
X110938478Y-90197619D02*
X110878002Y-90137143D01*
X110878002Y-90137143D02*
X110817526Y-90016190D01*
X110817526Y-90016190D02*
X110817526Y-89713809D01*
X110817526Y-89713809D02*
X110878002Y-89592857D01*
X110878002Y-89592857D02*
X110938478Y-89532381D01*
X110938478Y-89532381D02*
X111059430Y-89471904D01*
X111059430Y-89471904D02*
X111180383Y-89471904D01*
X111180383Y-89471904D02*
X111361811Y-89532381D01*
X111361811Y-89532381D02*
X112087526Y-90258095D01*
X112087526Y-90258095D02*
X112087526Y-89471904D01*
D11*
X100462619Y-83166666D02*
X99986428Y-83499999D01*
X100462619Y-83738094D02*
X99462619Y-83738094D01*
X99462619Y-83738094D02*
X99462619Y-83357142D01*
X99462619Y-83357142D02*
X99510238Y-83261904D01*
X99510238Y-83261904D02*
X99557857Y-83214285D01*
X99557857Y-83214285D02*
X99653095Y-83166666D01*
X99653095Y-83166666D02*
X99795952Y-83166666D01*
X99795952Y-83166666D02*
X99891190Y-83214285D01*
X99891190Y-83214285D02*
X99938809Y-83261904D01*
X99938809Y-83261904D02*
X99986428Y-83357142D01*
X99986428Y-83357142D02*
X99986428Y-83738094D01*
X99557857Y-82785713D02*
X99510238Y-82738094D01*
X99510238Y-82738094D02*
X99462619Y-82642856D01*
X99462619Y-82642856D02*
X99462619Y-82404761D01*
X99462619Y-82404761D02*
X99510238Y-82309523D01*
X99510238Y-82309523D02*
X99557857Y-82261904D01*
X99557857Y-82261904D02*
X99653095Y-82214285D01*
X99653095Y-82214285D02*
X99748333Y-82214285D01*
X99748333Y-82214285D02*
X99891190Y-82261904D01*
X99891190Y-82261904D02*
X100462619Y-82833332D01*
X100462619Y-82833332D02*
X100462619Y-82214285D01*
X123738095Y-71962619D02*
X123738095Y-72772142D01*
X123738095Y-72772142D02*
X123785714Y-72867380D01*
X123785714Y-72867380D02*
X123833333Y-72915000D01*
X123833333Y-72915000D02*
X123928571Y-72962619D01*
X123928571Y-72962619D02*
X124119047Y-72962619D01*
X124119047Y-72962619D02*
X124214285Y-72915000D01*
X124214285Y-72915000D02*
X124261904Y-72867380D01*
X124261904Y-72867380D02*
X124309523Y-72772142D01*
X124309523Y-72772142D02*
X124309523Y-71962619D01*
X125214285Y-71962619D02*
X125023809Y-71962619D01*
X125023809Y-71962619D02*
X124928571Y-72010238D01*
X124928571Y-72010238D02*
X124880952Y-72057857D01*
X124880952Y-72057857D02*
X124785714Y-72200714D01*
X124785714Y-72200714D02*
X124738095Y-72391190D01*
X124738095Y-72391190D02*
X124738095Y-72772142D01*
X124738095Y-72772142D02*
X124785714Y-72867380D01*
X124785714Y-72867380D02*
X124833333Y-72915000D01*
X124833333Y-72915000D02*
X124928571Y-72962619D01*
X124928571Y-72962619D02*
X125119047Y-72962619D01*
X125119047Y-72962619D02*
X125214285Y-72915000D01*
X125214285Y-72915000D02*
X125261904Y-72867380D01*
X125261904Y-72867380D02*
X125309523Y-72772142D01*
X125309523Y-72772142D02*
X125309523Y-72534047D01*
X125309523Y-72534047D02*
X125261904Y-72438809D01*
X125261904Y-72438809D02*
X125214285Y-72391190D01*
X125214285Y-72391190D02*
X125119047Y-72343571D01*
X125119047Y-72343571D02*
X124928571Y-72343571D01*
X124928571Y-72343571D02*
X124833333Y-72391190D01*
X124833333Y-72391190D02*
X124785714Y-72438809D01*
X124785714Y-72438809D02*
X124738095Y-72534047D01*
X112833333Y-80327380D02*
X112785714Y-80375000D01*
X112785714Y-80375000D02*
X112642857Y-80422619D01*
X112642857Y-80422619D02*
X112547619Y-80422619D01*
X112547619Y-80422619D02*
X112404762Y-80375000D01*
X112404762Y-80375000D02*
X112309524Y-80279761D01*
X112309524Y-80279761D02*
X112261905Y-80184523D01*
X112261905Y-80184523D02*
X112214286Y-79994047D01*
X112214286Y-79994047D02*
X112214286Y-79851190D01*
X112214286Y-79851190D02*
X112261905Y-79660714D01*
X112261905Y-79660714D02*
X112309524Y-79565476D01*
X112309524Y-79565476D02*
X112404762Y-79470238D01*
X112404762Y-79470238D02*
X112547619Y-79422619D01*
X112547619Y-79422619D02*
X112642857Y-79422619D01*
X112642857Y-79422619D02*
X112785714Y-79470238D01*
X112785714Y-79470238D02*
X112833333Y-79517857D01*
X113833333Y-80422619D02*
X113500000Y-79946428D01*
X113261905Y-80422619D02*
X113261905Y-79422619D01*
X113261905Y-79422619D02*
X113642857Y-79422619D01*
X113642857Y-79422619D02*
X113738095Y-79470238D01*
X113738095Y-79470238D02*
X113785714Y-79517857D01*
X113785714Y-79517857D02*
X113833333Y-79613095D01*
X113833333Y-79613095D02*
X113833333Y-79755952D01*
X113833333Y-79755952D02*
X113785714Y-79851190D01*
X113785714Y-79851190D02*
X113738095Y-79898809D01*
X113738095Y-79898809D02*
X113642857Y-79946428D01*
X113642857Y-79946428D02*
X113261905Y-79946428D01*
X114214286Y-79517857D02*
X114261905Y-79470238D01*
X114261905Y-79470238D02*
X114357143Y-79422619D01*
X114357143Y-79422619D02*
X114595238Y-79422619D01*
X114595238Y-79422619D02*
X114690476Y-79470238D01*
X114690476Y-79470238D02*
X114738095Y-79517857D01*
X114738095Y-79517857D02*
X114785714Y-79613095D01*
X114785714Y-79613095D02*
X114785714Y-79708333D01*
X114785714Y-79708333D02*
X114738095Y-79851190D01*
X114738095Y-79851190D02*
X114166667Y-80422619D01*
X114166667Y-80422619D02*
X114785714Y-80422619D01*
X115106550Y-84614419D02*
X115106550Y-84852514D01*
X114868455Y-84757276D02*
X115106550Y-84852514D01*
X115106550Y-84852514D02*
X115344645Y-84757276D01*
X114963693Y-85042990D02*
X115106550Y-84852514D01*
X115106550Y-84852514D02*
X115249407Y-85042990D01*
X115106550Y-84614419D02*
X115106550Y-84852514D01*
X114868455Y-84757276D02*
X115106550Y-84852514D01*
X115106550Y-84852514D02*
X115344645Y-84757276D01*
X114963693Y-85042990D02*
X115106550Y-84852514D01*
X115106550Y-84852514D02*
X115249407Y-85042990D01*
X104938809Y-60333333D02*
X104938809Y-60666666D01*
X105462619Y-60666666D02*
X104462619Y-60666666D01*
X104462619Y-60666666D02*
X104462619Y-60190476D01*
X105462619Y-59285714D02*
X105462619Y-59857142D01*
X105462619Y-59571428D02*
X104462619Y-59571428D01*
X104462619Y-59571428D02*
X104605476Y-59666666D01*
X104605476Y-59666666D02*
X104700714Y-59761904D01*
X104700714Y-59761904D02*
X104748333Y-59857142D01*
D14*
X150247000Y-84630800D02*
X134753000Y-84630800D01*
X150247000Y-84407440D02*
X150247000Y-84630800D01*
X150247000Y-74592560D02*
X150247000Y-74369200D01*
X150247000Y-74369200D02*
X134753000Y-74369200D01*
X134753000Y-84407440D02*
X134753000Y-84630800D01*
X134753000Y-74592560D02*
X134753000Y-74369200D01*
X150247000Y-73630800D02*
X134753000Y-73630800D01*
X150247000Y-73407440D02*
X150247000Y-73630800D01*
X150247000Y-63592560D02*
X150247000Y-63369200D01*
X150247000Y-63369200D02*
X134753000Y-63369200D01*
X134753000Y-73407440D02*
X134753000Y-73630800D01*
X134753000Y-63592560D02*
X134753000Y-63369200D01*
D11*
X114000000Y-54350000D02*
X98000000Y-54350000D01*
X114000000Y-49450000D02*
X114000000Y-54350000D01*
X112000000Y-50450000D02*
X112000000Y-49450000D01*
X112000000Y-49450000D02*
X114000000Y-49450000D01*
X100000000Y-50450000D02*
X112000000Y-50450000D01*
X100000000Y-49450000D02*
X100000000Y-50450000D01*
X98000000Y-54350000D02*
X98000000Y-49450000D01*
X98000000Y-49450000D02*
X100000000Y-49450000D01*
X90450000Y-96500000D02*
X90450000Y-94500000D01*
X95350000Y-96500000D02*
X90450000Y-96500000D01*
X90450000Y-94500000D02*
X91450000Y-94500000D01*
X91450000Y-94500000D02*
X91450000Y-88500000D01*
X90450000Y-88500000D02*
X90450000Y-86500000D01*
X91450000Y-88500000D02*
X90450000Y-88500000D01*
X90450000Y-86500000D02*
X95350000Y-86500000D01*
X95350000Y-86500000D02*
X95350000Y-96500000D01*
X90500000Y-85000000D02*
X90500000Y-83000000D01*
X95400000Y-85000000D02*
X90500000Y-85000000D01*
X90500000Y-83000000D02*
X91500000Y-83000000D01*
X91500000Y-83000000D02*
X91500000Y-71000000D01*
X90500000Y-71000000D02*
X90500000Y-69000000D01*
X91500000Y-71000000D02*
X90500000Y-71000000D01*
X90500000Y-69000000D02*
X95400000Y-69000000D01*
X95400000Y-69000000D02*
X95400000Y-85000000D01*
X95350000Y-51500000D02*
X95350000Y-67500000D01*
X90450000Y-51500000D02*
X95350000Y-51500000D01*
X91450000Y-53500000D02*
X90450000Y-53500000D01*
X90450000Y-53500000D02*
X90450000Y-51500000D01*
X91450000Y-65500000D02*
X91450000Y-53500000D01*
X90450000Y-65500000D02*
X91450000Y-65500000D01*
X95350000Y-67500000D02*
X90450000Y-67500000D01*
X90450000Y-67500000D02*
X90450000Y-65500000D01*
D15*
X111365000Y-60500000D02*
X111365000Y-63950000D01*
X111365000Y-60500000D02*
X111365000Y-58550000D01*
X116635000Y-60500000D02*
X116635000Y-62450000D01*
X116635000Y-60500000D02*
X116635000Y-58550000D01*
D14*
X104151000Y-89651000D02*
X104151000Y-86349000D01*
X100849000Y-86349000D02*
X100849000Y-89651000D01*
G36*
X101690499Y-84863100D02*
G01*
X101309499Y-84863100D01*
X101309499Y-84609100D01*
X101690499Y-84609100D01*
X101690499Y-84863100D01*
G37*
D16*
X109950000Y-70050000D02*
X109950000Y-77950000D01*
X102050000Y-70050000D02*
X109950000Y-70050000D01*
D17*
X101500000Y-72100000D02*
X101500000Y-72100000D01*
X101500000Y-72300000D02*
X101500000Y-72300000D01*
D16*
X109950000Y-77950000D02*
X102050000Y-77950000D01*
X102050000Y-77950000D02*
X102050000Y-70050000D01*
D17*
X101500000Y-72300000D02*
G75*
G03*
X101500000Y-72100000I0J100000D01*
G01*
X101500000Y-72100000D02*
G75*
G03*
X101500000Y-72300000I0J-100000D01*
G01*
D13*
X105316130Y-86445000D02*
X105316130Y-80555000D01*
X110216130Y-86445000D02*
X110216130Y-80555000D01*
X105442800Y-87328670D02*
G75*
G03*
X105442800Y-87328670I-85000J0D01*
G01*
D15*
X141250000Y-86600000D02*
X141250000Y-87250000D01*
X141250000Y-88750000D02*
X141250000Y-91250000D01*
X141250000Y-93400000D02*
X141250000Y-92750000D01*
X147750000Y-86600000D02*
X141250000Y-86600000D01*
X147750000Y-87250000D02*
X147750000Y-86600000D01*
X147750000Y-88750000D02*
X147750000Y-91250000D01*
X147750000Y-92750000D02*
X147750000Y-93400000D01*
X147750000Y-93400000D02*
X141250000Y-93400000D01*
X131360000Y-85260000D02*
X130885000Y-85260000D01*
X127140000Y-84785000D02*
X127140000Y-85260000D01*
X131360000Y-84785000D02*
X131360000Y-85260000D01*
X127140000Y-81515000D02*
X127140000Y-81040000D01*
X131360000Y-81515000D02*
X131360000Y-81040000D01*
X127140000Y-81040000D02*
X127615000Y-81040000D01*
X131360000Y-81040000D02*
X130885000Y-81040000D01*
X138370000Y-62330000D02*
X138370000Y-61000000D01*
X139700000Y-62330000D02*
X138370000Y-62330000D01*
X140970000Y-62330000D02*
X148650000Y-62330000D01*
X140970000Y-62330000D02*
X140970000Y-59670000D01*
X148650000Y-62330000D02*
X148650000Y-59670000D01*
X140970000Y-59670000D02*
X148650000Y-59670000D01*
X100815000Y-66540000D02*
X100815000Y-68460000D01*
X100815000Y-68460000D02*
X103500000Y-68460000D01*
X103500000Y-66540000D02*
X100815000Y-66540000D01*
X102727064Y-81735000D02*
X102272936Y-81735000D01*
X102727064Y-80265000D02*
X102272936Y-80265000D01*
X99830000Y-70855000D02*
X98500000Y-70855000D01*
X99830000Y-69525000D02*
X99830000Y-70855000D01*
X99830000Y-68255000D02*
X99830000Y-65655000D01*
X99830000Y-68255000D02*
X97170000Y-68255000D01*
X99830000Y-65655000D02*
X97170000Y-65655000D01*
X97170000Y-68255000D02*
X97170000Y-65655000D01*
X117865000Y-60500000D02*
X117865000Y-63950000D01*
X117865000Y-60500000D02*
X117865000Y-58550000D01*
X123135000Y-60500000D02*
X123135000Y-62450000D01*
X123135000Y-60500000D02*
X123135000Y-58550000D01*
X128250000Y-86600000D02*
X128250000Y-87250000D01*
X128250000Y-88750000D02*
X128250000Y-91250000D01*
X128250000Y-93400000D02*
X128250000Y-92750000D01*
X134750000Y-86600000D02*
X128250000Y-86600000D01*
X134750000Y-87250000D02*
X134750000Y-86600000D01*
X134750000Y-88750000D02*
X134750000Y-91250000D01*
X134750000Y-92750000D02*
X134750000Y-93400000D01*
X134750000Y-93400000D02*
X128250000Y-93400000D01*
D17*
X125255000Y-51900000D02*
X125255000Y-51900000D01*
X125255000Y-52100000D02*
X125255000Y-52100000D01*
D16*
X126045000Y-48900000D02*
X147845000Y-48900000D01*
X126045000Y-58100000D02*
X126045000Y-48900000D01*
X147845000Y-48900000D02*
X147845000Y-58100000D01*
X147845000Y-58100000D02*
X126045000Y-58100000D01*
D17*
X125255000Y-52100000D02*
G75*
G03*
X125255000Y-51900000I0J100000D01*
G01*
X125255000Y-51900000D02*
G75*
G03*
X125255000Y-52100000I0J-100000D01*
G01*
D15*
X100890000Y-94150000D02*
X100890000Y-95850000D01*
X100890000Y-94150000D02*
X103550000Y-94150000D01*
X100890000Y-95850000D02*
X103550000Y-95850000D01*
X129600000Y-94437500D02*
X130050000Y-94437500D01*
X129600000Y-96287500D02*
X129600000Y-94437500D01*
X129600000Y-98837500D02*
X129600000Y-98587500D01*
X131800000Y-93887500D02*
X131800000Y-94337500D01*
X131800000Y-93887500D02*
X132250000Y-93887500D01*
X137400000Y-94437500D02*
X136950000Y-94437500D01*
X137400000Y-96287500D02*
X137400000Y-94437500D01*
X137400000Y-98837500D02*
X137400000Y-98587500D01*
X104185000Y-60460000D02*
X104185000Y-58540000D01*
X104185000Y-58540000D02*
X101500000Y-58540000D01*
X101500000Y-60460000D02*
X104185000Y-60460000D01*
X100815000Y-64540000D02*
X100815000Y-66460000D01*
X100815000Y-66460000D02*
X103500000Y-66460000D01*
X103500000Y-64540000D02*
X100815000Y-64540000D01*
X102761252Y-93735000D02*
X102238748Y-93735000D01*
X102761252Y-92265000D02*
X102238748Y-92265000D01*
D17*
X126025000Y-59420000D02*
X127552000Y-59420000D01*
X127902000Y-59548000D02*
X131098000Y-59548000D01*
X127902000Y-64452000D02*
X127902000Y-59548000D01*
X131098000Y-59548000D02*
X131098000Y-64452000D01*
X131098000Y-64452000D02*
X127902000Y-64452000D01*
D15*
X97765000Y-63727064D02*
X97765000Y-63272936D01*
X99235000Y-63727064D02*
X99235000Y-63272936D01*
X110000000Y-68630000D02*
X108860000Y-68630000D01*
X108860000Y-68860000D02*
X108860000Y-68630000D01*
X108860000Y-68860000D02*
X106140000Y-68860000D01*
X108860000Y-64140000D02*
X108860000Y-64370000D01*
X106140000Y-68860000D02*
X106140000Y-67550000D01*
X106140000Y-65450000D02*
X106140000Y-64140000D01*
X106140000Y-64140000D02*
X108860000Y-64140000D01*
X100815000Y-60540000D02*
X100815000Y-62460000D01*
X100815000Y-62460000D02*
X103500000Y-62460000D01*
X103500000Y-60540000D02*
X100815000Y-60540000D01*
X108711252Y-63409999D02*
X107288748Y-63409999D01*
X108711252Y-61589999D02*
X107288748Y-61589999D01*
D17*
X119500000Y-81900000D02*
X124500000Y-81900000D01*
X119500000Y-85100000D02*
X124400000Y-85100000D01*
D16*
X119800000Y-85700000D02*
X119800000Y-85700000D01*
X119900000Y-85700000D02*
X119900000Y-85700000D01*
X119900000Y-85700000D02*
G75*
G03*
X119800000Y-85700000I-50000J0D01*
G01*
X119800000Y-85700000D02*
G75*
G03*
X119900000Y-85700000I50000J0D01*
G01*
D13*
X110216130Y-89555000D02*
X110216130Y-95445000D01*
X105316130Y-89555000D02*
X105316130Y-95445000D01*
X110259460Y-88671330D02*
G75*
G03*
X110259460Y-88671330I-85000J0D01*
G01*
D15*
X102272936Y-82265000D02*
X102727064Y-82265000D01*
X102272936Y-83735000D02*
X102727064Y-83735000D01*
X119390000Y-77610000D02*
X120340000Y-77610000D01*
X120340000Y-77610000D02*
X120340000Y-78950000D01*
X129610000Y-77610000D02*
X128660000Y-77610000D01*
X119390000Y-76660000D02*
X119390000Y-77610000D01*
X129610000Y-76660000D02*
X129610000Y-77610000D01*
X119390000Y-68340000D02*
X119390000Y-67390000D01*
X129610000Y-68340000D02*
X129610000Y-67390000D01*
X119390000Y-67390000D02*
X120340000Y-67390000D01*
X129610000Y-67390000D02*
X128660000Y-67390000D01*
D14*
X114477900Y-80823600D02*
X112522100Y-80823600D01*
X112522100Y-84176400D02*
X114477900Y-84176400D01*
D15*
X108602064Y-60910000D02*
X107397936Y-60910000D01*
X108602064Y-59090000D02*
X107397936Y-59090000D01*
%LPC*%
D18*
X149948550Y-83300000D03*
X149948550Y-81399999D03*
X149948550Y-79500000D03*
X149948550Y-77600001D03*
X149948550Y-75700000D03*
X135051450Y-75700000D03*
X135051450Y-77600001D03*
X135051450Y-79500000D03*
X135051450Y-81399999D03*
X135051450Y-83300000D03*
X149948550Y-72300000D03*
X149948550Y-70399999D03*
X149948550Y-68500000D03*
X149948550Y-66600001D03*
X149948550Y-64700000D03*
X135051450Y-64700000D03*
X135051450Y-66600001D03*
X135051450Y-68500000D03*
X135051450Y-70399999D03*
X135051450Y-72300000D03*
D19*
X110500000Y-52450000D03*
X107500000Y-52450000D03*
X104500000Y-52450000D03*
X101500000Y-52450000D03*
D20*
X113500000Y-50490000D03*
X98500000Y-50490000D03*
X91490000Y-96000000D03*
X91490000Y-87000000D03*
D19*
X93450000Y-93000000D03*
X93450000Y-90000000D03*
D20*
X91540000Y-84500000D03*
X91540000Y-69500000D03*
D19*
X93500000Y-81500000D03*
X93500000Y-78500000D03*
X93500000Y-75500000D03*
X93500000Y-72500000D03*
X93450000Y-55000000D03*
X93450000Y-58000000D03*
X93450000Y-61000000D03*
X93450000Y-64000000D03*
D20*
X91490000Y-52000000D03*
X91490000Y-67000000D03*
D21*
X112095000Y-63175000D03*
X113365000Y-63175000D03*
X114635000Y-63175000D03*
X115905000Y-63175000D03*
X115905000Y-57825000D03*
X114635000Y-57825000D03*
X113365000Y-57825000D03*
X112095000Y-57825000D03*
D22*
X101499999Y-90203450D03*
X102000001Y-90203450D03*
X102500000Y-90203450D03*
X102999999Y-90203450D03*
X103500001Y-90203450D03*
X103500001Y-85796550D03*
X102999999Y-85796550D03*
X102500000Y-85796550D03*
X102000001Y-85796550D03*
X101499999Y-85796550D03*
D23*
X120025000Y-93500000D03*
D24*
X103025000Y-72200000D03*
X103025000Y-74000000D03*
X103025000Y-75800000D03*
D25*
X106000000Y-76975000D03*
D24*
X108975000Y-75800000D03*
X108975000Y-74000000D03*
X108975000Y-72200000D03*
D25*
X106000000Y-71025000D03*
D26*
X106000000Y-74000000D03*
D27*
X105861130Y-86232500D03*
X107131130Y-86232500D03*
X108401130Y-86232500D03*
X109671130Y-86232500D03*
D28*
X109671130Y-80767500D03*
D29*
X108401130Y-80767500D03*
X107131130Y-80767500D03*
X105861130Y-80767500D03*
D30*
X141625000Y-88000000D03*
X147375000Y-88000000D03*
X141625000Y-92000000D03*
X147375000Y-92000000D03*
D31*
X128000000Y-85087500D03*
X128500000Y-85087500D03*
X129000000Y-85087500D03*
X129500000Y-85087500D03*
X130000000Y-85087500D03*
X130500000Y-85087500D03*
D32*
X131187500Y-84400000D03*
X131187500Y-83900000D03*
X131187500Y-83400000D03*
X131187500Y-82900000D03*
X131187500Y-82400000D03*
X131187500Y-81900000D03*
D31*
X130500000Y-81212500D03*
X130000000Y-81212500D03*
X129500000Y-81212500D03*
X129000000Y-81212500D03*
X128500000Y-81212500D03*
X128000000Y-81212500D03*
D32*
X127312500Y-81900000D03*
X127312500Y-82400000D03*
X127312500Y-82900000D03*
X127312500Y-83400000D03*
X127312500Y-83900000D03*
X127312500Y-84400000D03*
D26*
X129250000Y-83150000D03*
D33*
X139700000Y-61000000D03*
D34*
X142240000Y-61000000D03*
X144780000Y-61000000D03*
X147320000Y-61000000D03*
D35*
X101562500Y-67500000D03*
X103437500Y-67500000D03*
D36*
X103412500Y-81000000D03*
X101587500Y-81000000D03*
D33*
X98500000Y-69525000D03*
D34*
X98500000Y-66985000D03*
D37*
X114300000Y-77000000D03*
X114300000Y-71000000D03*
D21*
X118595000Y-63175000D03*
X119865000Y-63175000D03*
X121135000Y-63175000D03*
X122405000Y-63175000D03*
X122405000Y-57825000D03*
X121135000Y-57825000D03*
X119865000Y-57825000D03*
X118595000Y-57825000D03*
D30*
X128625000Y-88000000D03*
X134375000Y-88000000D03*
X128625000Y-92000000D03*
X134375000Y-92000000D03*
D38*
X128055000Y-52100000D03*
X130595000Y-52100000D03*
X133135000Y-52100000D03*
X138215000Y-52100000D03*
X140755000Y-52100000D03*
X143295000Y-52100000D03*
X145835000Y-52100000D03*
D39*
X101450000Y-95000000D03*
X103550000Y-95000000D03*
D40*
X132200000Y-94737500D03*
X132850000Y-94737500D03*
X133500000Y-94737500D03*
X134150000Y-94737500D03*
X134800000Y-94737500D03*
D41*
X130000000Y-97437500D03*
D42*
X130600000Y-97437500D03*
D43*
X131000000Y-94737500D03*
D44*
X132500000Y-97437500D03*
X134500000Y-97437500D03*
D43*
X136000000Y-94737500D03*
D42*
X136400000Y-97437500D03*
D41*
X137000000Y-97437500D03*
D45*
X103437500Y-59500000D03*
X101562500Y-59500000D03*
D35*
X101562500Y-65500000D03*
X103437500Y-65500000D03*
D46*
X103450000Y-93000000D03*
X101550000Y-93000000D03*
D47*
X126789000Y-60095000D03*
X126789000Y-61365000D03*
X126789000Y-62635000D03*
X126789000Y-63905000D03*
X132211000Y-63905000D03*
X132211000Y-62635000D03*
X132211000Y-61365000D03*
X132211000Y-60095000D03*
D48*
X98500000Y-64412500D03*
X98500000Y-62587500D03*
D49*
X109450000Y-68000000D03*
D50*
X109362500Y-66500000D03*
D49*
X109450000Y-65000000D03*
D37*
X112500000Y-68000000D03*
D23*
X120000000Y-53000000D03*
D35*
X101562500Y-61500000D03*
X103437500Y-61500000D03*
D51*
X109475000Y-62499999D03*
X106525000Y-62499999D03*
D52*
X119950000Y-83500000D03*
X124050000Y-83500000D03*
D27*
X109671130Y-89767500D03*
X108401130Y-89767500D03*
X107131130Y-89767500D03*
X105861130Y-89767500D03*
D53*
X105861130Y-95232500D03*
D29*
X107131130Y-95232500D03*
X108401130Y-95232500D03*
X109671130Y-95232500D03*
D54*
X101587500Y-83000000D03*
X103412500Y-83000000D03*
D55*
X120750000Y-78175000D03*
X121250000Y-78175000D03*
X121750000Y-78175000D03*
X122250000Y-78175000D03*
X122750000Y-78175000D03*
X123250000Y-78175000D03*
X123750000Y-78175000D03*
X124250000Y-78175000D03*
X124750000Y-78175000D03*
X125250000Y-78175000D03*
X125750000Y-78175000D03*
X126250000Y-78175000D03*
X126750000Y-78175000D03*
X127250000Y-78175000D03*
X127750000Y-78175000D03*
X128250000Y-78175000D03*
D56*
X130175000Y-76250000D03*
X130175000Y-75750000D03*
X130175000Y-75250000D03*
X130175000Y-74750000D03*
X130175000Y-74250000D03*
X130175000Y-73750000D03*
X130175000Y-73250000D03*
X130175000Y-72750000D03*
X130175000Y-72250000D03*
X130175000Y-71750000D03*
X130175000Y-71250000D03*
X130175000Y-70750000D03*
X130175000Y-70250000D03*
X130175000Y-69750000D03*
X130175000Y-69250000D03*
X130175000Y-68750000D03*
D55*
X128250000Y-66825000D03*
X127750000Y-66825000D03*
X127250000Y-66825000D03*
X126750000Y-66825000D03*
X126250000Y-66825000D03*
X125750000Y-66825000D03*
X125250000Y-66825000D03*
X124750000Y-66825000D03*
X124250000Y-66825000D03*
X123750000Y-66825000D03*
X123250000Y-66825000D03*
X122750000Y-66825000D03*
X122250000Y-66825000D03*
X121750000Y-66825000D03*
X121250000Y-66825000D03*
X120750000Y-66825000D03*
D56*
X118825000Y-68750000D03*
X118825000Y-69250000D03*
X118825000Y-69750000D03*
X118825000Y-70250000D03*
X118825000Y-70750000D03*
X118825000Y-71250000D03*
X118825000Y-71750000D03*
X118825000Y-72250000D03*
X118825000Y-72750000D03*
X118825000Y-73250000D03*
X118825000Y-73750000D03*
X118825000Y-74250000D03*
X118825000Y-74750000D03*
X118825000Y-75250000D03*
X118825000Y-75750000D03*
X118825000Y-76250000D03*
D57*
X112500000Y-74000000D03*
D58*
X114852550Y-83450001D03*
X114852550Y-82500000D03*
X114852550Y-81549999D03*
X112147450Y-81549999D03*
X112147450Y-82500000D03*
X112147450Y-83450001D03*
D59*
X109400000Y-60000000D03*
X106600000Y-60000000D03*
D60*
X147250000Y-84500000D03*
X147250000Y-75500000D03*
X147250000Y-72500000D03*
X147250000Y-63500000D03*
%LPD*%
M02*
