%TF.GenerationSoftware,KiCad,Pcbnew,7.0.2*%
%TF.CreationDate,2023-11-20T11:28:28-06:00*%
%TF.ProjectId,LeaderSOM,4c656164-6572-4534-9f4d-2e6b69636164,rev?*%
%TF.SameCoordinates,Original*%
%TF.FileFunction,Drillmap*%
%TF.FilePolarity,Positive*%
%FSLAX45Y45*%
G04 Gerber Fmt 4.5, Leading zero omitted, Abs format (unit mm)*
G04 Created by KiCad (PCBNEW 7.0.2) date 2023-11-20 11:28:28*
%MOMM*%
%LPD*%
G01*
G04 APERTURE LIST*
%ADD10C,0.100000*%
%ADD11C,0.200000*%
%ADD12C,0.030000*%
%ADD13C,0.040000*%
%ADD14C,0.060000*%
%ADD15C,0.085000*%
%ADD16C,0.102000*%
%ADD17C,0.115000*%
G04 APERTURE END LIST*
D10*
X15100000Y-6350000D02*
X15100000Y-8450000D01*
X9400000Y-9900000D02*
X14600000Y-9900000D01*
X15000000Y-6250000D02*
X15100000Y-6350000D01*
X15000000Y-5300000D02*
G75*
G03*
X14600000Y-4900000I-400000J0D01*
G01*
X15000000Y-5300000D02*
X15000000Y-6250000D01*
X14600000Y-9900000D02*
G75*
G03*
X15000000Y-9500000I0J400000D01*
G01*
X15100000Y-8450000D02*
X15000000Y-8550000D01*
X15000000Y-8550000D02*
X15000000Y-9500000D01*
X9400000Y-4900000D02*
G75*
G03*
X9000000Y-5300000I0J-400000D01*
G01*
X9000000Y-5300000D02*
X9000000Y-9500000D01*
X9000000Y-9500000D02*
G75*
G03*
X9400000Y-9900000I400000J0D01*
G01*
X9400000Y-4900000D02*
X14600000Y-4900000D01*
D11*
D12*
X9735000Y-8485000D02*
X9765000Y-8515000D01*
X9765000Y-8485000D02*
X9735000Y-8515000D01*
X9880000Y-5665000D02*
X9910000Y-5695000D01*
X9910000Y-5665000D02*
X9880000Y-5695000D01*
X9945000Y-5755000D02*
X9975000Y-5785000D01*
X9975000Y-5755000D02*
X9945000Y-5785000D01*
X10035000Y-5885000D02*
X10065000Y-5915000D01*
X10065000Y-5885000D02*
X10035000Y-5915000D01*
X10035000Y-6015000D02*
X10065000Y-6045000D01*
X10065000Y-6015000D02*
X10035000Y-6045000D01*
X10045000Y-6805000D02*
X10075000Y-6835000D01*
X10075000Y-6805000D02*
X10045000Y-6835000D01*
X10067500Y-9472500D02*
X10097500Y-9502500D01*
X10097500Y-9472500D02*
X10067500Y-9502500D01*
X10135000Y-6875000D02*
X10165000Y-6905000D01*
X10165000Y-6875000D02*
X10135000Y-6905000D01*
X10141250Y-6149950D02*
X10171250Y-6179950D01*
X10171250Y-6149950D02*
X10141250Y-6179950D01*
X10143750Y-7535000D02*
X10173750Y-7565000D01*
X10173750Y-7535000D02*
X10143750Y-7565000D01*
X10145000Y-8085000D02*
X10175000Y-8115000D01*
X10175000Y-8085000D02*
X10145000Y-8115000D01*
X10145000Y-8435000D02*
X10175000Y-8465000D01*
X10175000Y-8435000D02*
X10145000Y-8465000D01*
X10235000Y-6635000D02*
X10265000Y-6665000D01*
X10265000Y-6635000D02*
X10235000Y-6665000D01*
X10235000Y-8865000D02*
X10265000Y-8895000D01*
X10265000Y-8865000D02*
X10235000Y-8895000D01*
X10375000Y-8435000D02*
X10405000Y-8465000D01*
X10405000Y-8435000D02*
X10375000Y-8465000D01*
X10435000Y-6075000D02*
X10465000Y-6105000D01*
X10465000Y-6075000D02*
X10435000Y-6105000D01*
X10495000Y-6745000D02*
X10525000Y-6775000D01*
X10525000Y-6745000D02*
X10495000Y-6775000D01*
X10495000Y-8185000D02*
X10525000Y-8215000D01*
X10525000Y-8185000D02*
X10495000Y-8215000D01*
X10495000Y-9415000D02*
X10525000Y-9445000D01*
X10525000Y-9415000D02*
X10495000Y-9445000D01*
X10535000Y-6475000D02*
X10565000Y-6505000D01*
X10565000Y-6475000D02*
X10535000Y-6505000D01*
X10635000Y-7435000D02*
X10665000Y-7465000D01*
X10665000Y-7435000D02*
X10635000Y-7465000D01*
X10665000Y-5705000D02*
X10695000Y-5735000D01*
X10695000Y-5705000D02*
X10665000Y-5735000D01*
X10735000Y-6415000D02*
X10765000Y-6445000D01*
X10765000Y-6415000D02*
X10735000Y-6445000D01*
X10745000Y-6825000D02*
X10775000Y-6855000D01*
X10775000Y-6825000D02*
X10745000Y-6855000D01*
X10785000Y-7855000D02*
X10815000Y-7885000D01*
X10815000Y-7855000D02*
X10785000Y-7885000D01*
X10790000Y-5505000D02*
X10820000Y-5535000D01*
X10820000Y-5505000D02*
X10790000Y-5535000D01*
X10882500Y-7205000D02*
X10912500Y-7235000D01*
X10912500Y-7205000D02*
X10882500Y-7235000D01*
X10921250Y-6639950D02*
X10951250Y-6669950D01*
X10951250Y-6639950D02*
X10921250Y-6669950D01*
X10930000Y-6485000D02*
X10960000Y-6515000D01*
X10960000Y-6485000D02*
X10930000Y-6515000D01*
X10935000Y-7735000D02*
X10965000Y-7765000D01*
X10965000Y-7735000D02*
X10935000Y-7765000D01*
X10980000Y-5465000D02*
X11010000Y-5495000D01*
X11010000Y-5465000D02*
X10980000Y-5495000D01*
X11015000Y-8235000D02*
X11045000Y-8265000D01*
X11045000Y-8235000D02*
X11015000Y-8265000D01*
X11095000Y-8315000D02*
X11125000Y-8345000D01*
X11125000Y-8315000D02*
X11095000Y-8345000D01*
X11105000Y-7385000D02*
X11135000Y-7415000D01*
X11135000Y-7385000D02*
X11105000Y-7415000D01*
X11115000Y-6855000D02*
X11145000Y-6885000D01*
X11145000Y-6855000D02*
X11115000Y-6885000D01*
X11135000Y-7045000D02*
X11165000Y-7075000D01*
X11165000Y-7045000D02*
X11135000Y-7075000D01*
X11235000Y-9485000D02*
X11265000Y-9515000D01*
X11265000Y-9485000D02*
X11235000Y-9515000D01*
X11245000Y-6165000D02*
X11275000Y-6195000D01*
X11275000Y-6165000D02*
X11245000Y-6195000D01*
X11335000Y-8205000D02*
X11365000Y-8235000D01*
X11365000Y-8205000D02*
X11335000Y-8235000D01*
X11425000Y-7935000D02*
X11455000Y-7965000D01*
X11455000Y-7935000D02*
X11425000Y-7965000D01*
X11436467Y-7472302D02*
X11466467Y-7502302D01*
X11466467Y-7472302D02*
X11436467Y-7502302D01*
X11535000Y-7965000D02*
X11565000Y-7995000D01*
X11565000Y-7965000D02*
X11535000Y-7995000D01*
X11595000Y-8235000D02*
X11625000Y-8265000D01*
X11625000Y-8235000D02*
X11595000Y-8265000D01*
X11605000Y-8095000D02*
X11635000Y-8125000D01*
X11635000Y-8095000D02*
X11605000Y-8125000D01*
X11645000Y-6295000D02*
X11675000Y-6325000D01*
X11675000Y-6295000D02*
X11645000Y-6325000D01*
X11675000Y-8165000D02*
X11705000Y-8195000D01*
X11705000Y-8165000D02*
X11675000Y-8195000D01*
X11715000Y-7265000D02*
X11745000Y-7295000D01*
X11745000Y-7265000D02*
X11715000Y-7295000D01*
X11735000Y-8485000D02*
X11765000Y-8515000D01*
X11765000Y-8485000D02*
X11735000Y-8515000D01*
X11865000Y-6655000D02*
X11895000Y-6685000D01*
X11895000Y-6655000D02*
X11865000Y-6685000D01*
X11895000Y-6165000D02*
X11925000Y-6195000D01*
X11925000Y-6165000D02*
X11895000Y-6195000D01*
X11985000Y-7680000D02*
X12015000Y-7710000D01*
X12015000Y-7680000D02*
X11985000Y-7710000D01*
X11985000Y-8230000D02*
X12015000Y-8260000D01*
X12015000Y-8230000D02*
X11985000Y-8260000D01*
X12005000Y-7175000D02*
X12035000Y-7205000D01*
X12035000Y-7175000D02*
X12005000Y-7205000D01*
X12015000Y-7455000D02*
X12045000Y-7485000D01*
X12045000Y-7455000D02*
X12015000Y-7485000D01*
X12045000Y-6485000D02*
X12075000Y-6515000D01*
X12075000Y-6485000D02*
X12045000Y-6515000D01*
X12059908Y-7255193D02*
X12089908Y-7285193D01*
X12089908Y-7255193D02*
X12059908Y-7285193D01*
X12065000Y-6839152D02*
X12095000Y-6869152D01*
X12095000Y-6839152D02*
X12065000Y-6869152D01*
X12115000Y-7435000D02*
X12145000Y-7465000D01*
X12145000Y-7435000D02*
X12115000Y-7465000D01*
X12185000Y-6525000D02*
X12215000Y-6555000D01*
X12215000Y-6525000D02*
X12185000Y-6555000D01*
X12235412Y-6934889D02*
X12265412Y-6964889D01*
X12265412Y-6934889D02*
X12235412Y-6964889D01*
X12250000Y-6450000D02*
X12280000Y-6480000D01*
X12280000Y-6450000D02*
X12250000Y-6480000D01*
X12295000Y-6235000D02*
X12325000Y-6265000D01*
X12325000Y-6235000D02*
X12295000Y-6265000D01*
X12325000Y-7005000D02*
X12355000Y-7035000D01*
X12355000Y-7005000D02*
X12325000Y-7035000D01*
X12335000Y-6455000D02*
X12365000Y-6485000D01*
X12365000Y-6455000D02*
X12335000Y-6485000D01*
X12355000Y-7645000D02*
X12385000Y-7675000D01*
X12385000Y-7645000D02*
X12355000Y-7675000D01*
X12375000Y-6525000D02*
X12405000Y-6555000D01*
X12405000Y-6525000D02*
X12375000Y-6555000D01*
X12375000Y-6825000D02*
X12405000Y-6855000D01*
X12405000Y-6825000D02*
X12375000Y-6855000D01*
X12375000Y-6935000D02*
X12405000Y-6965000D01*
X12405000Y-6935000D02*
X12375000Y-6965000D01*
X12385000Y-7060050D02*
X12415000Y-7090050D01*
X12415000Y-7060050D02*
X12385000Y-7090050D01*
X12385000Y-8230000D02*
X12415000Y-8260000D01*
X12415000Y-8230000D02*
X12385000Y-8260000D01*
X12435000Y-7595000D02*
X12465000Y-7625000D01*
X12465000Y-7595000D02*
X12435000Y-7625000D01*
X12445000Y-7115000D02*
X12475000Y-7145000D01*
X12475000Y-7115000D02*
X12445000Y-7145000D01*
X12465000Y-6935000D02*
X12495000Y-6965000D01*
X12495000Y-6935000D02*
X12465000Y-6965000D01*
X12485000Y-9485000D02*
X12515000Y-9515000D01*
X12515000Y-9485000D02*
X12485000Y-9515000D01*
X12505000Y-7175000D02*
X12535000Y-7205000D01*
X12535000Y-7175000D02*
X12505000Y-7205000D01*
X12525000Y-7965000D02*
X12555000Y-7995000D01*
X12555000Y-7965000D02*
X12525000Y-7995000D01*
X12535000Y-5595000D02*
X12565000Y-5625000D01*
X12565000Y-5595000D02*
X12535000Y-5625000D01*
X12555000Y-6935000D02*
X12585000Y-6965000D01*
X12585000Y-6935000D02*
X12555000Y-6965000D01*
X12625000Y-7965000D02*
X12655000Y-7995000D01*
X12655000Y-7965000D02*
X12625000Y-7995000D01*
X12635000Y-6539950D02*
X12665000Y-6569950D01*
X12665000Y-6539950D02*
X12635000Y-6569950D01*
X12635000Y-7545000D02*
X12665000Y-7575000D01*
X12665000Y-7545000D02*
X12635000Y-7575000D01*
X12645000Y-8045000D02*
X12675000Y-8075000D01*
X12675000Y-8045000D02*
X12645000Y-8075000D01*
X12660000Y-7675000D02*
X12690000Y-7705000D01*
X12690000Y-7675000D02*
X12660000Y-7705000D01*
X12663900Y-6248500D02*
X12693900Y-6278500D01*
X12693900Y-6248500D02*
X12663900Y-6278500D01*
X12685000Y-9176250D02*
X12715000Y-9206250D01*
X12715000Y-9176250D02*
X12685000Y-9206250D01*
X12705000Y-6865000D02*
X12735000Y-6895000D01*
X12735000Y-6865000D02*
X12705000Y-6895000D01*
X12715000Y-6950050D02*
X12745000Y-6980050D01*
X12745000Y-6950050D02*
X12715000Y-6980050D01*
X12755000Y-7355000D02*
X12785000Y-7385000D01*
X12785000Y-7355000D02*
X12755000Y-7385000D01*
X12775000Y-7985000D02*
X12805000Y-8015000D01*
X12805000Y-7985000D02*
X12775000Y-8015000D01*
X12785000Y-5676250D02*
X12815000Y-5706250D01*
X12815000Y-5676250D02*
X12785000Y-5706250D01*
X12830000Y-7035000D02*
X12860000Y-7065000D01*
X12860000Y-7035000D02*
X12830000Y-7065000D01*
X12830000Y-7235000D02*
X12860000Y-7265000D01*
X12860000Y-7235000D02*
X12830000Y-7265000D01*
X12835000Y-6539950D02*
X12865000Y-6569950D01*
X12865000Y-6539950D02*
X12835000Y-6569950D01*
X12835000Y-7545000D02*
X12865000Y-7575000D01*
X12865000Y-7545000D02*
X12835000Y-7575000D01*
X12845000Y-7355000D02*
X12875000Y-7385000D01*
X12875000Y-7355000D02*
X12845000Y-7385000D01*
X12845000Y-8785000D02*
X12875000Y-8815000D01*
X12875000Y-8785000D02*
X12845000Y-8815000D01*
X12905000Y-8295000D02*
X12935000Y-8325000D01*
X12935000Y-8295000D02*
X12905000Y-8325000D01*
X12945000Y-6015000D02*
X12975000Y-6045000D01*
X12975000Y-6015000D02*
X12945000Y-6045000D01*
X12945000Y-6175000D02*
X12975000Y-6205000D01*
X12975000Y-6175000D02*
X12945000Y-6205000D01*
X13035000Y-6526250D02*
X13065000Y-6556250D01*
X13065000Y-6526250D02*
X13035000Y-6556250D01*
X13065000Y-6175000D02*
X13095000Y-6205000D01*
X13095000Y-6175000D02*
X13065000Y-6205000D01*
X13105000Y-7695000D02*
X13135000Y-7725000D01*
X13135000Y-7695000D02*
X13105000Y-7725000D01*
X13105000Y-7775000D02*
X13135000Y-7805000D01*
X13135000Y-7775000D02*
X13105000Y-7805000D01*
X13125000Y-8535000D02*
X13155000Y-8565000D01*
X13155000Y-8535000D02*
X13125000Y-8565000D01*
X13125000Y-8883856D02*
X13155000Y-8913856D01*
X13155000Y-8883856D02*
X13125000Y-8913856D01*
X13155000Y-7460000D02*
X13185000Y-7490000D01*
X13185000Y-7460000D02*
X13155000Y-7490000D01*
X13155000Y-9315000D02*
X13185000Y-9345000D01*
X13185000Y-9315000D02*
X13155000Y-9345000D01*
X13155271Y-7364865D02*
X13185271Y-7394865D01*
X13185271Y-7364865D02*
X13155271Y-7394865D01*
X13185000Y-6835000D02*
X13215000Y-6865000D01*
X13215000Y-6835000D02*
X13185000Y-6865000D01*
X13190000Y-8985000D02*
X13220000Y-9015000D01*
X13220000Y-8985000D02*
X13190000Y-9015000D01*
X13215000Y-8345000D02*
X13245000Y-8375000D01*
X13245000Y-8345000D02*
X13215000Y-8375000D01*
X13225000Y-7035000D02*
X13255000Y-7065000D01*
X13255000Y-7035000D02*
X13225000Y-7065000D01*
X13225000Y-8755000D02*
X13255000Y-8785000D01*
X13255000Y-8755000D02*
X13225000Y-8785000D01*
X13235000Y-6526250D02*
X13265000Y-6556250D01*
X13265000Y-6526250D02*
X13235000Y-6556250D01*
X13245000Y-8225000D02*
X13275000Y-8255000D01*
X13275000Y-8225000D02*
X13245000Y-8255000D01*
X13265000Y-8005000D02*
X13295000Y-8035000D01*
X13295000Y-8005000D02*
X13265000Y-8035000D01*
X13305000Y-6829950D02*
X13335000Y-6859950D01*
X13335000Y-6829950D02*
X13305000Y-6859950D01*
X13325000Y-7950050D02*
X13355000Y-7980050D01*
X13355000Y-7950050D02*
X13325000Y-7980050D01*
X13335000Y-7585000D02*
X13365000Y-7615000D01*
X13365000Y-7585000D02*
X13335000Y-7615000D01*
X13335000Y-7785000D02*
X13365000Y-7815000D01*
X13365000Y-7785000D02*
X13335000Y-7815000D01*
X13335000Y-8335000D02*
X13365000Y-8365000D01*
X13365000Y-8335000D02*
X13335000Y-8365000D01*
X13343750Y-7035000D02*
X13373750Y-7065000D01*
X13373750Y-7035000D02*
X13343750Y-7065000D01*
X13355000Y-8175000D02*
X13385000Y-8205000D01*
X13385000Y-8175000D02*
X13355000Y-8205000D01*
X13375461Y-7165000D02*
X13405461Y-7195000D01*
X13405461Y-7165000D02*
X13375461Y-7195000D01*
X13380000Y-8985000D02*
X13410000Y-9015000D01*
X13410000Y-8985000D02*
X13380000Y-9015000D01*
X13422500Y-8785000D02*
X13452500Y-8815000D01*
X13452500Y-8785000D02*
X13422500Y-8815000D01*
X13585000Y-9185000D02*
X13615000Y-9215000D01*
X13615000Y-9185000D02*
X13585000Y-9215000D01*
X13615000Y-7585000D02*
X13645000Y-7615000D01*
X13645000Y-7585000D02*
X13615000Y-7615000D01*
X13625000Y-6835000D02*
X13655000Y-6865000D01*
X13655000Y-6835000D02*
X13625000Y-6865000D01*
X13625000Y-7035000D02*
X13655000Y-7065000D01*
X13655000Y-7035000D02*
X13625000Y-7065000D01*
X13625000Y-7235000D02*
X13655000Y-7265000D01*
X13655000Y-7235000D02*
X13625000Y-7265000D01*
X13685000Y-6680050D02*
X13715000Y-6710050D01*
X13715000Y-6680050D02*
X13685000Y-6710050D01*
X13735000Y-8485000D02*
X13765000Y-8515000D01*
X13765000Y-8485000D02*
X13735000Y-8515000D01*
X13745000Y-6735000D02*
X13775000Y-6765000D01*
X13775000Y-6735000D02*
X13745000Y-6765000D01*
X13745000Y-6835000D02*
X13775000Y-6865000D01*
X13775000Y-6835000D02*
X13745000Y-6865000D01*
X13745000Y-7035000D02*
X13775000Y-7065000D01*
X13775000Y-7035000D02*
X13745000Y-7065000D01*
X13745000Y-7235000D02*
X13775000Y-7265000D01*
X13775000Y-7235000D02*
X13745000Y-7265000D01*
X13745000Y-8135000D02*
X13775000Y-8165000D01*
X13775000Y-8135000D02*
X13745000Y-8165000D01*
X13975000Y-6705000D02*
X14005000Y-6735000D01*
X14005000Y-6705000D02*
X13975000Y-6735000D01*
X13980000Y-7900000D02*
X14010000Y-7930000D01*
X14010000Y-7900000D02*
X13980000Y-7930000D01*
X14026250Y-6835000D02*
X14056250Y-6865000D01*
X14056250Y-6835000D02*
X14026250Y-6865000D01*
X14026250Y-7035000D02*
X14056250Y-7065000D01*
X14056250Y-7035000D02*
X14026250Y-7065000D01*
X14026250Y-7235000D02*
X14056250Y-7265000D01*
X14056250Y-7235000D02*
X14026250Y-7265000D01*
X14026250Y-7785000D02*
X14056250Y-7815000D01*
X14056250Y-7785000D02*
X14026250Y-7815000D01*
X14026250Y-8135000D02*
X14056250Y-8165000D01*
X14056250Y-8135000D02*
X14026250Y-8165000D01*
X14026250Y-8335000D02*
X14056250Y-8365000D01*
X14056250Y-8335000D02*
X14026250Y-8365000D01*
X14035000Y-9180000D02*
X14065000Y-9210000D01*
X14065000Y-9180000D02*
X14035000Y-9210000D01*
X14147500Y-8785000D02*
X14177500Y-8815000D01*
X14177500Y-8785000D02*
X14147500Y-8815000D01*
X14185000Y-6285000D02*
X14215000Y-6315000D01*
X14215000Y-6285000D02*
X14185000Y-6315000D01*
X14265000Y-6585000D02*
X14295000Y-6615000D01*
X14295000Y-6585000D02*
X14265000Y-6615000D01*
X14265000Y-6665000D02*
X14295000Y-6695000D01*
X14295000Y-6665000D02*
X14265000Y-6695000D01*
X14265000Y-6905000D02*
X14295000Y-6935000D01*
X14295000Y-6905000D02*
X14265000Y-6935000D01*
X14265000Y-6985000D02*
X14295000Y-7015000D01*
X14295000Y-6985000D02*
X14265000Y-7015000D01*
X14265000Y-7865000D02*
X14295000Y-7895000D01*
X14295000Y-7865000D02*
X14265000Y-7895000D01*
X14265000Y-8105000D02*
X14295000Y-8135000D01*
X14295000Y-8105000D02*
X14265000Y-8135000D01*
X14390000Y-7785000D02*
X14420000Y-7815000D01*
X14420000Y-7785000D02*
X14390000Y-7815000D01*
X14485000Y-9485000D02*
X14515000Y-9515000D01*
X14515000Y-9485000D02*
X14485000Y-9515000D01*
X14535000Y-6925000D02*
X14565000Y-6955000D01*
X14565000Y-6925000D02*
X14535000Y-6955000D01*
X14595000Y-6605000D02*
X14625000Y-6635000D01*
X14625000Y-6605000D02*
X14595000Y-6635000D01*
X14645000Y-6725000D02*
X14675000Y-6755000D01*
X14675000Y-6725000D02*
X14645000Y-6755000D01*
X14645000Y-6845000D02*
X14675000Y-6875000D01*
X14675000Y-6845000D02*
X14645000Y-6875000D01*
X14645000Y-7785000D02*
X14675000Y-7815000D01*
X14675000Y-7785000D02*
X14645000Y-7815000D01*
X14645000Y-7865000D02*
X14675000Y-7895000D01*
X14675000Y-7865000D02*
X14645000Y-7895000D01*
X14770000Y-6905000D02*
X14800000Y-6935000D01*
X14800000Y-6905000D02*
X14770000Y-6935000D01*
X14770000Y-8105000D02*
X14800000Y-8135000D01*
X14800000Y-8105000D02*
X14770000Y-8135000D01*
X14770000Y-8185000D02*
X14800000Y-8215000D01*
X14800000Y-8185000D02*
X14770000Y-8215000D01*
D13*
X10120000Y-9250000D02*
G75*
G03*
X10120000Y-9250000I-20000J0D01*
G01*
X10620000Y-5900000D02*
G75*
G03*
X10620000Y-5900000I-20000J0D01*
G01*
X10710000Y-7750000D02*
G75*
G03*
X10710000Y-7750000I-20000J0D01*
G01*
X10830000Y-7650000D02*
G75*
G03*
X10830000Y-7650000I-20000J0D01*
G01*
X11000000Y-6880000D02*
G75*
G03*
X11000000Y-6880000I-20000J0D01*
G01*
X11050000Y-6000000D02*
G75*
G03*
X11050000Y-6000000I-20000J0D01*
G01*
X11090000Y-5872500D02*
G75*
G03*
X11090000Y-5872500I-20000J0D01*
G01*
X11160000Y-6560000D02*
G75*
G03*
X11160000Y-6560000I-20000J0D01*
G01*
X11325000Y-6000000D02*
G75*
G03*
X11325000Y-6000000I-20000J0D01*
G01*
X11340000Y-6530000D02*
G75*
G03*
X11340000Y-6530000I-20000J0D01*
G01*
X11515000Y-6000000D02*
G75*
G03*
X11515000Y-6000000I-20000J0D01*
G01*
X11740000Y-5629950D02*
G75*
G03*
X11740000Y-5629950I-20000J0D01*
G01*
X11750000Y-6550000D02*
G75*
G03*
X11750000Y-6550000I-20000J0D01*
G01*
X11890000Y-5630000D02*
G75*
G03*
X11890000Y-5630000I-20000J0D01*
G01*
X13280000Y-5700000D02*
G75*
G03*
X13280000Y-5700000I-20000J0D01*
G01*
X14490000Y-8420000D02*
G75*
G03*
X14490000Y-8420000I-20000J0D01*
G01*
X14560000Y-6410000D02*
G75*
G03*
X14560000Y-6410000I-20000J0D01*
G01*
X14560000Y-7180000D02*
G75*
G03*
X14560000Y-7180000I-20000J0D01*
G01*
X14570000Y-7970000D02*
G75*
G03*
X14570000Y-7970000I-20000J0D01*
G01*
X14670000Y-6470000D02*
G75*
G03*
X14670000Y-6470000I-20000J0D01*
G01*
X14670000Y-7140000D02*
G75*
G03*
X14670000Y-7140000I-20000J0D01*
G01*
X14880000Y-8420000D02*
G75*
G03*
X14880000Y-8420000I-20000J0D01*
G01*
D14*
X13000000Y-9713750D02*
X13000000Y-9773750D01*
X12970000Y-9743750D02*
X13030000Y-9743750D01*
D11*
X13030000Y-9778750D02*
X13030000Y-9708750D01*
X13030000Y-9708750D02*
G75*
G03*
X12970000Y-9708750I-30000J0D01*
G01*
X12970000Y-9708750D02*
X12970000Y-9778750D01*
X12970000Y-9778750D02*
G75*
G03*
X13030000Y-9778750I30000J0D01*
G01*
D14*
X13700000Y-9713750D02*
X13700000Y-9773750D01*
X13670000Y-9743750D02*
X13730000Y-9743750D01*
D11*
X13670000Y-9708750D02*
X13670000Y-9778750D01*
X13670000Y-9778750D02*
G75*
G03*
X13730000Y-9778750I30000J0D01*
G01*
X13730000Y-9778750D02*
X13730000Y-9708750D01*
X13730000Y-9708750D02*
G75*
G03*
X13670000Y-9708750I-30000J0D01*
G01*
D15*
X13130052Y-9503802D02*
X13130052Y-9443698D01*
X13069948Y-9443698D01*
X13069948Y-9503802D01*
X13130052Y-9503802D01*
X13630052Y-9503802D02*
X13630052Y-9443698D01*
X13569948Y-9443698D01*
X13569948Y-9503802D01*
X13630052Y-9503802D01*
D10*
X9850000Y-6748500D02*
X9900000Y-6698500D01*
X9850000Y-6648500D01*
X9800000Y-6698500D01*
X9850000Y-6748500D01*
X9850000Y-7002500D02*
X9900000Y-6952500D01*
X9850000Y-6902500D01*
X9800000Y-6952500D01*
X9850000Y-7002500D01*
X13970000Y-6150000D02*
X14020000Y-6100000D01*
X13970000Y-6050000D01*
X13920000Y-6100000D01*
X13970000Y-6150000D01*
X14224000Y-6150000D02*
X14274000Y-6100000D01*
X14224000Y-6050000D01*
X14174000Y-6100000D01*
X14224000Y-6150000D01*
X14478000Y-6150000D02*
X14528000Y-6100000D01*
X14478000Y-6050000D01*
X14428000Y-6100000D01*
X14478000Y-6150000D01*
X14732000Y-6150000D02*
X14782000Y-6100000D01*
X14732000Y-6050000D01*
X14682000Y-6100000D01*
X14732000Y-6150000D01*
D16*
X9294000Y-5449000D02*
X9396000Y-5551000D01*
X9396000Y-5449000D02*
X9294000Y-5551000D01*
X9396000Y-5500000D02*
G75*
G03*
X9396000Y-5500000I-51000J0D01*
G01*
X9294000Y-5749000D02*
X9396000Y-5851000D01*
X9396000Y-5749000D02*
X9294000Y-5851000D01*
X9396000Y-5800000D02*
G75*
G03*
X9396000Y-5800000I-51000J0D01*
G01*
X9294000Y-6049000D02*
X9396000Y-6151000D01*
X9396000Y-6049000D02*
X9294000Y-6151000D01*
X9396000Y-6100000D02*
G75*
G03*
X9396000Y-6100000I-51000J0D01*
G01*
X9294000Y-6349000D02*
X9396000Y-6451000D01*
X9396000Y-6349000D02*
X9294000Y-6451000D01*
X9396000Y-6400000D02*
G75*
G03*
X9396000Y-6400000I-51000J0D01*
G01*
X9294000Y-8949000D02*
X9396000Y-9051000D01*
X9396000Y-8949000D02*
X9294000Y-9051000D01*
X9396000Y-9000000D02*
G75*
G03*
X9396000Y-9000000I-51000J0D01*
G01*
X9294000Y-9249000D02*
X9396000Y-9351000D01*
X9396000Y-9249000D02*
X9294000Y-9351000D01*
X9396000Y-9300000D02*
G75*
G03*
X9396000Y-9300000I-51000J0D01*
G01*
X9299000Y-7199000D02*
X9401000Y-7301000D01*
X9401000Y-7199000D02*
X9299000Y-7301000D01*
X9401000Y-7250000D02*
G75*
G03*
X9401000Y-7250000I-51000J0D01*
G01*
X9299000Y-7499000D02*
X9401000Y-7601000D01*
X9401000Y-7499000D02*
X9299000Y-7601000D01*
X9401000Y-7550000D02*
G75*
G03*
X9401000Y-7550000I-51000J0D01*
G01*
X9299000Y-7799000D02*
X9401000Y-7901000D01*
X9401000Y-7799000D02*
X9299000Y-7901000D01*
X9401000Y-7850000D02*
G75*
G03*
X9401000Y-7850000I-51000J0D01*
G01*
X9299000Y-8099000D02*
X9401000Y-8201000D01*
X9401000Y-8099000D02*
X9299000Y-8201000D01*
X9401000Y-8150000D02*
G75*
G03*
X9401000Y-8150000I-51000J0D01*
G01*
X10099000Y-5194000D02*
X10201000Y-5296000D01*
X10201000Y-5194000D02*
X10099000Y-5296000D01*
X10201000Y-5245000D02*
G75*
G03*
X10201000Y-5245000I-51000J0D01*
G01*
X10399000Y-5194000D02*
X10501000Y-5296000D01*
X10501000Y-5194000D02*
X10399000Y-5296000D01*
X10501000Y-5245000D02*
G75*
G03*
X10501000Y-5245000I-51000J0D01*
G01*
X10699000Y-5194000D02*
X10801000Y-5296000D01*
X10801000Y-5194000D02*
X10699000Y-5296000D01*
X10801000Y-5245000D02*
G75*
G03*
X10801000Y-5245000I-51000J0D01*
G01*
X10999000Y-5194000D02*
X11101000Y-5296000D01*
X11101000Y-5194000D02*
X10999000Y-5296000D01*
X11101000Y-5245000D02*
G75*
G03*
X11101000Y-5245000I-51000J0D01*
G01*
D17*
X12748000Y-5152500D02*
X12863000Y-5267500D01*
X12863000Y-5152500D02*
X12748000Y-5267500D01*
X12805500Y-5152500D02*
X12805500Y-5267500D01*
X12748000Y-5210000D02*
X12863000Y-5210000D01*
X13002000Y-5152500D02*
X13117000Y-5267500D01*
X13117000Y-5152500D02*
X13002000Y-5267500D01*
X13059500Y-5152500D02*
X13059500Y-5267500D01*
X13002000Y-5210000D02*
X13117000Y-5210000D01*
X13256000Y-5152500D02*
X13371000Y-5267500D01*
X13371000Y-5152500D02*
X13256000Y-5267500D01*
X13313500Y-5152500D02*
X13313500Y-5267500D01*
X13256000Y-5210000D02*
X13371000Y-5210000D01*
X13764000Y-5152500D02*
X13879000Y-5267500D01*
X13879000Y-5152500D02*
X13764000Y-5267500D01*
X13821500Y-5152500D02*
X13821500Y-5267500D01*
X13764000Y-5210000D02*
X13879000Y-5210000D01*
X14018000Y-5152500D02*
X14133000Y-5267500D01*
X14133000Y-5152500D02*
X14018000Y-5267500D01*
X14075500Y-5152500D02*
X14075500Y-5267500D01*
X14018000Y-5210000D02*
X14133000Y-5210000D01*
X14272000Y-5152500D02*
X14387000Y-5267500D01*
X14387000Y-5152500D02*
X14272000Y-5267500D01*
X14329500Y-5152500D02*
X14329500Y-5267500D01*
X14272000Y-5210000D02*
X14387000Y-5210000D01*
X14526000Y-5152500D02*
X14641000Y-5267500D01*
X14641000Y-5152500D02*
X14526000Y-5267500D01*
X14583500Y-5152500D02*
X14583500Y-5267500D01*
X14526000Y-5210000D02*
X14641000Y-5210000D01*
D11*
X9242619Y-10217524D02*
X9242619Y-10017524D01*
X9242619Y-10017524D02*
X9290238Y-10017524D01*
X9290238Y-10017524D02*
X9318810Y-10027048D01*
X9318810Y-10027048D02*
X9337857Y-10046095D01*
X9337857Y-10046095D02*
X9347381Y-10065143D01*
X9347381Y-10065143D02*
X9356905Y-10103238D01*
X9356905Y-10103238D02*
X9356905Y-10131810D01*
X9356905Y-10131810D02*
X9347381Y-10169905D01*
X9347381Y-10169905D02*
X9337857Y-10188952D01*
X9337857Y-10188952D02*
X9318810Y-10208000D01*
X9318810Y-10208000D02*
X9290238Y-10217524D01*
X9290238Y-10217524D02*
X9242619Y-10217524D01*
X9442619Y-10217524D02*
X9442619Y-10084190D01*
X9442619Y-10122286D02*
X9452143Y-10103238D01*
X9452143Y-10103238D02*
X9461667Y-10093714D01*
X9461667Y-10093714D02*
X9480714Y-10084190D01*
X9480714Y-10084190D02*
X9499762Y-10084190D01*
X9566429Y-10217524D02*
X9566429Y-10084190D01*
X9566429Y-10017524D02*
X9556905Y-10027048D01*
X9556905Y-10027048D02*
X9566429Y-10036571D01*
X9566429Y-10036571D02*
X9575952Y-10027048D01*
X9575952Y-10027048D02*
X9566429Y-10017524D01*
X9566429Y-10017524D02*
X9566429Y-10036571D01*
X9690238Y-10217524D02*
X9671190Y-10208000D01*
X9671190Y-10208000D02*
X9661667Y-10188952D01*
X9661667Y-10188952D02*
X9661667Y-10017524D01*
X9795000Y-10217524D02*
X9775952Y-10208000D01*
X9775952Y-10208000D02*
X9766429Y-10188952D01*
X9766429Y-10188952D02*
X9766429Y-10017524D01*
X10023571Y-10217524D02*
X10023571Y-10017524D01*
X10023571Y-10017524D02*
X10090238Y-10160381D01*
X10090238Y-10160381D02*
X10156905Y-10017524D01*
X10156905Y-10017524D02*
X10156905Y-10217524D01*
X10337857Y-10217524D02*
X10337857Y-10112762D01*
X10337857Y-10112762D02*
X10328333Y-10093714D01*
X10328333Y-10093714D02*
X10309286Y-10084190D01*
X10309286Y-10084190D02*
X10271190Y-10084190D01*
X10271190Y-10084190D02*
X10252143Y-10093714D01*
X10337857Y-10208000D02*
X10318810Y-10217524D01*
X10318810Y-10217524D02*
X10271190Y-10217524D01*
X10271190Y-10217524D02*
X10252143Y-10208000D01*
X10252143Y-10208000D02*
X10242619Y-10188952D01*
X10242619Y-10188952D02*
X10242619Y-10169905D01*
X10242619Y-10169905D02*
X10252143Y-10150857D01*
X10252143Y-10150857D02*
X10271190Y-10141333D01*
X10271190Y-10141333D02*
X10318810Y-10141333D01*
X10318810Y-10141333D02*
X10337857Y-10131810D01*
X10433095Y-10084190D02*
X10433095Y-10284190D01*
X10433095Y-10093714D02*
X10452143Y-10084190D01*
X10452143Y-10084190D02*
X10490238Y-10084190D01*
X10490238Y-10084190D02*
X10509286Y-10093714D01*
X10509286Y-10093714D02*
X10518810Y-10103238D01*
X10518810Y-10103238D02*
X10528333Y-10122286D01*
X10528333Y-10122286D02*
X10528333Y-10179429D01*
X10528333Y-10179429D02*
X10518810Y-10198476D01*
X10518810Y-10198476D02*
X10509286Y-10208000D01*
X10509286Y-10208000D02*
X10490238Y-10217524D01*
X10490238Y-10217524D02*
X10452143Y-10217524D01*
X10452143Y-10217524D02*
X10433095Y-10208000D01*
X10614048Y-10198476D02*
X10623571Y-10208000D01*
X10623571Y-10208000D02*
X10614048Y-10217524D01*
X10614048Y-10217524D02*
X10604524Y-10208000D01*
X10604524Y-10208000D02*
X10614048Y-10198476D01*
X10614048Y-10198476D02*
X10614048Y-10217524D01*
X10614048Y-10093714D02*
X10623571Y-10103238D01*
X10623571Y-10103238D02*
X10614048Y-10112762D01*
X10614048Y-10112762D02*
X10604524Y-10103238D01*
X10604524Y-10103238D02*
X10614048Y-10093714D01*
X10614048Y-10093714D02*
X10614048Y-10112762D01*
D12*
X8965000Y-10530000D02*
X8995000Y-10560000D01*
X8995000Y-10530000D02*
X8965000Y-10560000D01*
D11*
X9280714Y-10437524D02*
X9299762Y-10437524D01*
X9299762Y-10437524D02*
X9318810Y-10447048D01*
X9318810Y-10447048D02*
X9328333Y-10456571D01*
X9328333Y-10456571D02*
X9337857Y-10475619D01*
X9337857Y-10475619D02*
X9347381Y-10513714D01*
X9347381Y-10513714D02*
X9347381Y-10561333D01*
X9347381Y-10561333D02*
X9337857Y-10599429D01*
X9337857Y-10599429D02*
X9328333Y-10618476D01*
X9328333Y-10618476D02*
X9318810Y-10628000D01*
X9318810Y-10628000D02*
X9299762Y-10637524D01*
X9299762Y-10637524D02*
X9280714Y-10637524D01*
X9280714Y-10637524D02*
X9261667Y-10628000D01*
X9261667Y-10628000D02*
X9252143Y-10618476D01*
X9252143Y-10618476D02*
X9242619Y-10599429D01*
X9242619Y-10599429D02*
X9233095Y-10561333D01*
X9233095Y-10561333D02*
X9233095Y-10513714D01*
X9233095Y-10513714D02*
X9242619Y-10475619D01*
X9242619Y-10475619D02*
X9252143Y-10456571D01*
X9252143Y-10456571D02*
X9261667Y-10447048D01*
X9261667Y-10447048D02*
X9280714Y-10437524D01*
X9433095Y-10618476D02*
X9442619Y-10628000D01*
X9442619Y-10628000D02*
X9433095Y-10637524D01*
X9433095Y-10637524D02*
X9423571Y-10628000D01*
X9423571Y-10628000D02*
X9433095Y-10618476D01*
X9433095Y-10618476D02*
X9433095Y-10637524D01*
X9509286Y-10437524D02*
X9633095Y-10437524D01*
X9633095Y-10437524D02*
X9566429Y-10513714D01*
X9566429Y-10513714D02*
X9595000Y-10513714D01*
X9595000Y-10513714D02*
X9614048Y-10523238D01*
X9614048Y-10523238D02*
X9623571Y-10532762D01*
X9623571Y-10532762D02*
X9633095Y-10551810D01*
X9633095Y-10551810D02*
X9633095Y-10599429D01*
X9633095Y-10599429D02*
X9623571Y-10618476D01*
X9623571Y-10618476D02*
X9614048Y-10628000D01*
X9614048Y-10628000D02*
X9595000Y-10637524D01*
X9595000Y-10637524D02*
X9537857Y-10637524D01*
X9537857Y-10637524D02*
X9518810Y-10628000D01*
X9518810Y-10628000D02*
X9509286Y-10618476D01*
X9756905Y-10437524D02*
X9775952Y-10437524D01*
X9775952Y-10437524D02*
X9795000Y-10447048D01*
X9795000Y-10447048D02*
X9804524Y-10456571D01*
X9804524Y-10456571D02*
X9814048Y-10475619D01*
X9814048Y-10475619D02*
X9823571Y-10513714D01*
X9823571Y-10513714D02*
X9823571Y-10561333D01*
X9823571Y-10561333D02*
X9814048Y-10599429D01*
X9814048Y-10599429D02*
X9804524Y-10618476D01*
X9804524Y-10618476D02*
X9795000Y-10628000D01*
X9795000Y-10628000D02*
X9775952Y-10637524D01*
X9775952Y-10637524D02*
X9756905Y-10637524D01*
X9756905Y-10637524D02*
X9737857Y-10628000D01*
X9737857Y-10628000D02*
X9728333Y-10618476D01*
X9728333Y-10618476D02*
X9718810Y-10599429D01*
X9718810Y-10599429D02*
X9709286Y-10561333D01*
X9709286Y-10561333D02*
X9709286Y-10513714D01*
X9709286Y-10513714D02*
X9718810Y-10475619D01*
X9718810Y-10475619D02*
X9728333Y-10456571D01*
X9728333Y-10456571D02*
X9737857Y-10447048D01*
X9737857Y-10447048D02*
X9756905Y-10437524D01*
X9947381Y-10437524D02*
X9966429Y-10437524D01*
X9966429Y-10437524D02*
X9985476Y-10447048D01*
X9985476Y-10447048D02*
X9995000Y-10456571D01*
X9995000Y-10456571D02*
X10004524Y-10475619D01*
X10004524Y-10475619D02*
X10014048Y-10513714D01*
X10014048Y-10513714D02*
X10014048Y-10561333D01*
X10014048Y-10561333D02*
X10004524Y-10599429D01*
X10004524Y-10599429D02*
X9995000Y-10618476D01*
X9995000Y-10618476D02*
X9985476Y-10628000D01*
X9985476Y-10628000D02*
X9966429Y-10637524D01*
X9966429Y-10637524D02*
X9947381Y-10637524D01*
X9947381Y-10637524D02*
X9928333Y-10628000D01*
X9928333Y-10628000D02*
X9918810Y-10618476D01*
X9918810Y-10618476D02*
X9909286Y-10599429D01*
X9909286Y-10599429D02*
X9899762Y-10561333D01*
X9899762Y-10561333D02*
X9899762Y-10513714D01*
X9899762Y-10513714D02*
X9909286Y-10475619D01*
X9909286Y-10475619D02*
X9918810Y-10456571D01*
X9918810Y-10456571D02*
X9928333Y-10447048D01*
X9928333Y-10447048D02*
X9947381Y-10437524D01*
X10099762Y-10637524D02*
X10099762Y-10504190D01*
X10099762Y-10523238D02*
X10109286Y-10513714D01*
X10109286Y-10513714D02*
X10128333Y-10504190D01*
X10128333Y-10504190D02*
X10156905Y-10504190D01*
X10156905Y-10504190D02*
X10175952Y-10513714D01*
X10175952Y-10513714D02*
X10185476Y-10532762D01*
X10185476Y-10532762D02*
X10185476Y-10637524D01*
X10185476Y-10532762D02*
X10195000Y-10513714D01*
X10195000Y-10513714D02*
X10214048Y-10504190D01*
X10214048Y-10504190D02*
X10242619Y-10504190D01*
X10242619Y-10504190D02*
X10261667Y-10513714D01*
X10261667Y-10513714D02*
X10271191Y-10532762D01*
X10271191Y-10532762D02*
X10271191Y-10637524D01*
X10366429Y-10637524D02*
X10366429Y-10504190D01*
X10366429Y-10523238D02*
X10375952Y-10513714D01*
X10375952Y-10513714D02*
X10395000Y-10504190D01*
X10395000Y-10504190D02*
X10423572Y-10504190D01*
X10423572Y-10504190D02*
X10442619Y-10513714D01*
X10442619Y-10513714D02*
X10452143Y-10532762D01*
X10452143Y-10532762D02*
X10452143Y-10637524D01*
X10452143Y-10532762D02*
X10461667Y-10513714D01*
X10461667Y-10513714D02*
X10480714Y-10504190D01*
X10480714Y-10504190D02*
X10509286Y-10504190D01*
X10509286Y-10504190D02*
X10528333Y-10513714D01*
X10528333Y-10513714D02*
X10537857Y-10532762D01*
X10537857Y-10532762D02*
X10537857Y-10637524D01*
X10928333Y-10428000D02*
X10756905Y-10685143D01*
X11185476Y-10437524D02*
X11204524Y-10437524D01*
X11204524Y-10437524D02*
X11223572Y-10447048D01*
X11223572Y-10447048D02*
X11233095Y-10456571D01*
X11233095Y-10456571D02*
X11242619Y-10475619D01*
X11242619Y-10475619D02*
X11252143Y-10513714D01*
X11252143Y-10513714D02*
X11252143Y-10561333D01*
X11252143Y-10561333D02*
X11242619Y-10599429D01*
X11242619Y-10599429D02*
X11233095Y-10618476D01*
X11233095Y-10618476D02*
X11223572Y-10628000D01*
X11223572Y-10628000D02*
X11204524Y-10637524D01*
X11204524Y-10637524D02*
X11185476Y-10637524D01*
X11185476Y-10637524D02*
X11166429Y-10628000D01*
X11166429Y-10628000D02*
X11156905Y-10618476D01*
X11156905Y-10618476D02*
X11147381Y-10599429D01*
X11147381Y-10599429D02*
X11137857Y-10561333D01*
X11137857Y-10561333D02*
X11137857Y-10513714D01*
X11137857Y-10513714D02*
X11147381Y-10475619D01*
X11147381Y-10475619D02*
X11156905Y-10456571D01*
X11156905Y-10456571D02*
X11166429Y-10447048D01*
X11166429Y-10447048D02*
X11185476Y-10437524D01*
X11337857Y-10618476D02*
X11347381Y-10628000D01*
X11347381Y-10628000D02*
X11337857Y-10637524D01*
X11337857Y-10637524D02*
X11328333Y-10628000D01*
X11328333Y-10628000D02*
X11337857Y-10618476D01*
X11337857Y-10618476D02*
X11337857Y-10637524D01*
X11471191Y-10437524D02*
X11490238Y-10437524D01*
X11490238Y-10437524D02*
X11509286Y-10447048D01*
X11509286Y-10447048D02*
X11518810Y-10456571D01*
X11518810Y-10456571D02*
X11528333Y-10475619D01*
X11528333Y-10475619D02*
X11537857Y-10513714D01*
X11537857Y-10513714D02*
X11537857Y-10561333D01*
X11537857Y-10561333D02*
X11528333Y-10599429D01*
X11528333Y-10599429D02*
X11518810Y-10618476D01*
X11518810Y-10618476D02*
X11509286Y-10628000D01*
X11509286Y-10628000D02*
X11490238Y-10637524D01*
X11490238Y-10637524D02*
X11471191Y-10637524D01*
X11471191Y-10637524D02*
X11452143Y-10628000D01*
X11452143Y-10628000D02*
X11442619Y-10618476D01*
X11442619Y-10618476D02*
X11433095Y-10599429D01*
X11433095Y-10599429D02*
X11423572Y-10561333D01*
X11423572Y-10561333D02*
X11423572Y-10513714D01*
X11423572Y-10513714D02*
X11433095Y-10475619D01*
X11433095Y-10475619D02*
X11442619Y-10456571D01*
X11442619Y-10456571D02*
X11452143Y-10447048D01*
X11452143Y-10447048D02*
X11471191Y-10437524D01*
X11728333Y-10637524D02*
X11614048Y-10637524D01*
X11671191Y-10637524D02*
X11671191Y-10437524D01*
X11671191Y-10437524D02*
X11652143Y-10466095D01*
X11652143Y-10466095D02*
X11633095Y-10485143D01*
X11633095Y-10485143D02*
X11614048Y-10494667D01*
X11918810Y-10637524D02*
X11804524Y-10637524D01*
X11861667Y-10637524D02*
X11861667Y-10437524D01*
X11861667Y-10437524D02*
X11842619Y-10466095D01*
X11842619Y-10466095D02*
X11823572Y-10485143D01*
X11823572Y-10485143D02*
X11804524Y-10494667D01*
X12033095Y-10523238D02*
X12014048Y-10513714D01*
X12014048Y-10513714D02*
X12004524Y-10504190D01*
X12004524Y-10504190D02*
X11995000Y-10485143D01*
X11995000Y-10485143D02*
X11995000Y-10475619D01*
X11995000Y-10475619D02*
X12004524Y-10456571D01*
X12004524Y-10456571D02*
X12014048Y-10447048D01*
X12014048Y-10447048D02*
X12033095Y-10437524D01*
X12033095Y-10437524D02*
X12071191Y-10437524D01*
X12071191Y-10437524D02*
X12090238Y-10447048D01*
X12090238Y-10447048D02*
X12099762Y-10456571D01*
X12099762Y-10456571D02*
X12109286Y-10475619D01*
X12109286Y-10475619D02*
X12109286Y-10485143D01*
X12109286Y-10485143D02*
X12099762Y-10504190D01*
X12099762Y-10504190D02*
X12090238Y-10513714D01*
X12090238Y-10513714D02*
X12071191Y-10523238D01*
X12071191Y-10523238D02*
X12033095Y-10523238D01*
X12033095Y-10523238D02*
X12014048Y-10532762D01*
X12014048Y-10532762D02*
X12004524Y-10542286D01*
X12004524Y-10542286D02*
X11995000Y-10561333D01*
X11995000Y-10561333D02*
X11995000Y-10599429D01*
X11995000Y-10599429D02*
X12004524Y-10618476D01*
X12004524Y-10618476D02*
X12014048Y-10628000D01*
X12014048Y-10628000D02*
X12033095Y-10637524D01*
X12033095Y-10637524D02*
X12071191Y-10637524D01*
X12071191Y-10637524D02*
X12090238Y-10628000D01*
X12090238Y-10628000D02*
X12099762Y-10618476D01*
X12099762Y-10618476D02*
X12109286Y-10599429D01*
X12109286Y-10599429D02*
X12109286Y-10561333D01*
X12109286Y-10561333D02*
X12099762Y-10542286D01*
X12099762Y-10542286D02*
X12090238Y-10532762D01*
X12090238Y-10532762D02*
X12071191Y-10523238D01*
X12185476Y-10437524D02*
X12185476Y-10475619D01*
X12261667Y-10437524D02*
X12261667Y-10475619D01*
X12556905Y-10713714D02*
X12547381Y-10704190D01*
X12547381Y-10704190D02*
X12528334Y-10675619D01*
X12528334Y-10675619D02*
X12518810Y-10656571D01*
X12518810Y-10656571D02*
X12509286Y-10628000D01*
X12509286Y-10628000D02*
X12499762Y-10580381D01*
X12499762Y-10580381D02*
X12499762Y-10542286D01*
X12499762Y-10542286D02*
X12509286Y-10494667D01*
X12509286Y-10494667D02*
X12518810Y-10466095D01*
X12518810Y-10466095D02*
X12528334Y-10447048D01*
X12528334Y-10447048D02*
X12547381Y-10418476D01*
X12547381Y-10418476D02*
X12556905Y-10408952D01*
X12737857Y-10637524D02*
X12623572Y-10637524D01*
X12680714Y-10637524D02*
X12680714Y-10437524D01*
X12680714Y-10437524D02*
X12661667Y-10466095D01*
X12661667Y-10466095D02*
X12642619Y-10485143D01*
X12642619Y-10485143D02*
X12623572Y-10494667D01*
X12909286Y-10437524D02*
X12871191Y-10437524D01*
X12871191Y-10437524D02*
X12852143Y-10447048D01*
X12852143Y-10447048D02*
X12842619Y-10456571D01*
X12842619Y-10456571D02*
X12823572Y-10485143D01*
X12823572Y-10485143D02*
X12814048Y-10523238D01*
X12814048Y-10523238D02*
X12814048Y-10599429D01*
X12814048Y-10599429D02*
X12823572Y-10618476D01*
X12823572Y-10618476D02*
X12833095Y-10628000D01*
X12833095Y-10628000D02*
X12852143Y-10637524D01*
X12852143Y-10637524D02*
X12890238Y-10637524D01*
X12890238Y-10637524D02*
X12909286Y-10628000D01*
X12909286Y-10628000D02*
X12918810Y-10618476D01*
X12918810Y-10618476D02*
X12928334Y-10599429D01*
X12928334Y-10599429D02*
X12928334Y-10551810D01*
X12928334Y-10551810D02*
X12918810Y-10532762D01*
X12918810Y-10532762D02*
X12909286Y-10523238D01*
X12909286Y-10523238D02*
X12890238Y-10513714D01*
X12890238Y-10513714D02*
X12852143Y-10513714D01*
X12852143Y-10513714D02*
X12833095Y-10523238D01*
X12833095Y-10523238D02*
X12823572Y-10532762D01*
X12823572Y-10532762D02*
X12814048Y-10551810D01*
X13099762Y-10437524D02*
X13061667Y-10437524D01*
X13061667Y-10437524D02*
X13042619Y-10447048D01*
X13042619Y-10447048D02*
X13033095Y-10456571D01*
X13033095Y-10456571D02*
X13014048Y-10485143D01*
X13014048Y-10485143D02*
X13004524Y-10523238D01*
X13004524Y-10523238D02*
X13004524Y-10599429D01*
X13004524Y-10599429D02*
X13014048Y-10618476D01*
X13014048Y-10618476D02*
X13023572Y-10628000D01*
X13023572Y-10628000D02*
X13042619Y-10637524D01*
X13042619Y-10637524D02*
X13080715Y-10637524D01*
X13080715Y-10637524D02*
X13099762Y-10628000D01*
X13099762Y-10628000D02*
X13109286Y-10618476D01*
X13109286Y-10618476D02*
X13118810Y-10599429D01*
X13118810Y-10599429D02*
X13118810Y-10551810D01*
X13118810Y-10551810D02*
X13109286Y-10532762D01*
X13109286Y-10532762D02*
X13099762Y-10523238D01*
X13099762Y-10523238D02*
X13080715Y-10513714D01*
X13080715Y-10513714D02*
X13042619Y-10513714D01*
X13042619Y-10513714D02*
X13023572Y-10523238D01*
X13023572Y-10523238D02*
X13014048Y-10532762D01*
X13014048Y-10532762D02*
X13004524Y-10551810D01*
X13356905Y-10637524D02*
X13356905Y-10437524D01*
X13442619Y-10637524D02*
X13442619Y-10532762D01*
X13442619Y-10532762D02*
X13433096Y-10513714D01*
X13433096Y-10513714D02*
X13414048Y-10504190D01*
X13414048Y-10504190D02*
X13385476Y-10504190D01*
X13385476Y-10504190D02*
X13366429Y-10513714D01*
X13366429Y-10513714D02*
X13356905Y-10523238D01*
X13566429Y-10637524D02*
X13547381Y-10628000D01*
X13547381Y-10628000D02*
X13537857Y-10618476D01*
X13537857Y-10618476D02*
X13528334Y-10599429D01*
X13528334Y-10599429D02*
X13528334Y-10542286D01*
X13528334Y-10542286D02*
X13537857Y-10523238D01*
X13537857Y-10523238D02*
X13547381Y-10513714D01*
X13547381Y-10513714D02*
X13566429Y-10504190D01*
X13566429Y-10504190D02*
X13595000Y-10504190D01*
X13595000Y-10504190D02*
X13614048Y-10513714D01*
X13614048Y-10513714D02*
X13623572Y-10523238D01*
X13623572Y-10523238D02*
X13633096Y-10542286D01*
X13633096Y-10542286D02*
X13633096Y-10599429D01*
X13633096Y-10599429D02*
X13623572Y-10618476D01*
X13623572Y-10618476D02*
X13614048Y-10628000D01*
X13614048Y-10628000D02*
X13595000Y-10637524D01*
X13595000Y-10637524D02*
X13566429Y-10637524D01*
X13747381Y-10637524D02*
X13728334Y-10628000D01*
X13728334Y-10628000D02*
X13718810Y-10608952D01*
X13718810Y-10608952D02*
X13718810Y-10437524D01*
X13899762Y-10628000D02*
X13880715Y-10637524D01*
X13880715Y-10637524D02*
X13842619Y-10637524D01*
X13842619Y-10637524D02*
X13823572Y-10628000D01*
X13823572Y-10628000D02*
X13814048Y-10608952D01*
X13814048Y-10608952D02*
X13814048Y-10532762D01*
X13814048Y-10532762D02*
X13823572Y-10513714D01*
X13823572Y-10513714D02*
X13842619Y-10504190D01*
X13842619Y-10504190D02*
X13880715Y-10504190D01*
X13880715Y-10504190D02*
X13899762Y-10513714D01*
X13899762Y-10513714D02*
X13909286Y-10532762D01*
X13909286Y-10532762D02*
X13909286Y-10551810D01*
X13909286Y-10551810D02*
X13814048Y-10570857D01*
X13985477Y-10628000D02*
X14004524Y-10637524D01*
X14004524Y-10637524D02*
X14042619Y-10637524D01*
X14042619Y-10637524D02*
X14061667Y-10628000D01*
X14061667Y-10628000D02*
X14071191Y-10608952D01*
X14071191Y-10608952D02*
X14071191Y-10599429D01*
X14071191Y-10599429D02*
X14061667Y-10580381D01*
X14061667Y-10580381D02*
X14042619Y-10570857D01*
X14042619Y-10570857D02*
X14014048Y-10570857D01*
X14014048Y-10570857D02*
X13995000Y-10561333D01*
X13995000Y-10561333D02*
X13985477Y-10542286D01*
X13985477Y-10542286D02*
X13985477Y-10532762D01*
X13985477Y-10532762D02*
X13995000Y-10513714D01*
X13995000Y-10513714D02*
X14014048Y-10504190D01*
X14014048Y-10504190D02*
X14042619Y-10504190D01*
X14042619Y-10504190D02*
X14061667Y-10513714D01*
X14137858Y-10713714D02*
X14147381Y-10704190D01*
X14147381Y-10704190D02*
X14166429Y-10675619D01*
X14166429Y-10675619D02*
X14175953Y-10656571D01*
X14175953Y-10656571D02*
X14185477Y-10628000D01*
X14185477Y-10628000D02*
X14195000Y-10580381D01*
X14195000Y-10580381D02*
X14195000Y-10542286D01*
X14195000Y-10542286D02*
X14185477Y-10494667D01*
X14185477Y-10494667D02*
X14175953Y-10466095D01*
X14175953Y-10466095D02*
X14166429Y-10447048D01*
X14166429Y-10447048D02*
X14147381Y-10418476D01*
X14147381Y-10418476D02*
X14137858Y-10408952D01*
D13*
X8995000Y-10809000D02*
G75*
G03*
X8995000Y-10809000I-20000J0D01*
G01*
D11*
X9280714Y-10701524D02*
X9299762Y-10701524D01*
X9299762Y-10701524D02*
X9318810Y-10711048D01*
X9318810Y-10711048D02*
X9328333Y-10720571D01*
X9328333Y-10720571D02*
X9337857Y-10739619D01*
X9337857Y-10739619D02*
X9347381Y-10777714D01*
X9347381Y-10777714D02*
X9347381Y-10825333D01*
X9347381Y-10825333D02*
X9337857Y-10863429D01*
X9337857Y-10863429D02*
X9328333Y-10882476D01*
X9328333Y-10882476D02*
X9318810Y-10892000D01*
X9318810Y-10892000D02*
X9299762Y-10901524D01*
X9299762Y-10901524D02*
X9280714Y-10901524D01*
X9280714Y-10901524D02*
X9261667Y-10892000D01*
X9261667Y-10892000D02*
X9252143Y-10882476D01*
X9252143Y-10882476D02*
X9242619Y-10863429D01*
X9242619Y-10863429D02*
X9233095Y-10825333D01*
X9233095Y-10825333D02*
X9233095Y-10777714D01*
X9233095Y-10777714D02*
X9242619Y-10739619D01*
X9242619Y-10739619D02*
X9252143Y-10720571D01*
X9252143Y-10720571D02*
X9261667Y-10711048D01*
X9261667Y-10711048D02*
X9280714Y-10701524D01*
X9433095Y-10882476D02*
X9442619Y-10892000D01*
X9442619Y-10892000D02*
X9433095Y-10901524D01*
X9433095Y-10901524D02*
X9423571Y-10892000D01*
X9423571Y-10892000D02*
X9433095Y-10882476D01*
X9433095Y-10882476D02*
X9433095Y-10901524D01*
X9614048Y-10768190D02*
X9614048Y-10901524D01*
X9566429Y-10692000D02*
X9518810Y-10834857D01*
X9518810Y-10834857D02*
X9642619Y-10834857D01*
X9756905Y-10701524D02*
X9775952Y-10701524D01*
X9775952Y-10701524D02*
X9795000Y-10711048D01*
X9795000Y-10711048D02*
X9804524Y-10720571D01*
X9804524Y-10720571D02*
X9814048Y-10739619D01*
X9814048Y-10739619D02*
X9823571Y-10777714D01*
X9823571Y-10777714D02*
X9823571Y-10825333D01*
X9823571Y-10825333D02*
X9814048Y-10863429D01*
X9814048Y-10863429D02*
X9804524Y-10882476D01*
X9804524Y-10882476D02*
X9795000Y-10892000D01*
X9795000Y-10892000D02*
X9775952Y-10901524D01*
X9775952Y-10901524D02*
X9756905Y-10901524D01*
X9756905Y-10901524D02*
X9737857Y-10892000D01*
X9737857Y-10892000D02*
X9728333Y-10882476D01*
X9728333Y-10882476D02*
X9718810Y-10863429D01*
X9718810Y-10863429D02*
X9709286Y-10825333D01*
X9709286Y-10825333D02*
X9709286Y-10777714D01*
X9709286Y-10777714D02*
X9718810Y-10739619D01*
X9718810Y-10739619D02*
X9728333Y-10720571D01*
X9728333Y-10720571D02*
X9737857Y-10711048D01*
X9737857Y-10711048D02*
X9756905Y-10701524D01*
X9947381Y-10701524D02*
X9966429Y-10701524D01*
X9966429Y-10701524D02*
X9985476Y-10711048D01*
X9985476Y-10711048D02*
X9995000Y-10720571D01*
X9995000Y-10720571D02*
X10004524Y-10739619D01*
X10004524Y-10739619D02*
X10014048Y-10777714D01*
X10014048Y-10777714D02*
X10014048Y-10825333D01*
X10014048Y-10825333D02*
X10004524Y-10863429D01*
X10004524Y-10863429D02*
X9995000Y-10882476D01*
X9995000Y-10882476D02*
X9985476Y-10892000D01*
X9985476Y-10892000D02*
X9966429Y-10901524D01*
X9966429Y-10901524D02*
X9947381Y-10901524D01*
X9947381Y-10901524D02*
X9928333Y-10892000D01*
X9928333Y-10892000D02*
X9918810Y-10882476D01*
X9918810Y-10882476D02*
X9909286Y-10863429D01*
X9909286Y-10863429D02*
X9899762Y-10825333D01*
X9899762Y-10825333D02*
X9899762Y-10777714D01*
X9899762Y-10777714D02*
X9909286Y-10739619D01*
X9909286Y-10739619D02*
X9918810Y-10720571D01*
X9918810Y-10720571D02*
X9928333Y-10711048D01*
X9928333Y-10711048D02*
X9947381Y-10701524D01*
X10099762Y-10901524D02*
X10099762Y-10768190D01*
X10099762Y-10787238D02*
X10109286Y-10777714D01*
X10109286Y-10777714D02*
X10128333Y-10768190D01*
X10128333Y-10768190D02*
X10156905Y-10768190D01*
X10156905Y-10768190D02*
X10175952Y-10777714D01*
X10175952Y-10777714D02*
X10185476Y-10796762D01*
X10185476Y-10796762D02*
X10185476Y-10901524D01*
X10185476Y-10796762D02*
X10195000Y-10777714D01*
X10195000Y-10777714D02*
X10214048Y-10768190D01*
X10214048Y-10768190D02*
X10242619Y-10768190D01*
X10242619Y-10768190D02*
X10261667Y-10777714D01*
X10261667Y-10777714D02*
X10271191Y-10796762D01*
X10271191Y-10796762D02*
X10271191Y-10901524D01*
X10366429Y-10901524D02*
X10366429Y-10768190D01*
X10366429Y-10787238D02*
X10375952Y-10777714D01*
X10375952Y-10777714D02*
X10395000Y-10768190D01*
X10395000Y-10768190D02*
X10423572Y-10768190D01*
X10423572Y-10768190D02*
X10442619Y-10777714D01*
X10442619Y-10777714D02*
X10452143Y-10796762D01*
X10452143Y-10796762D02*
X10452143Y-10901524D01*
X10452143Y-10796762D02*
X10461667Y-10777714D01*
X10461667Y-10777714D02*
X10480714Y-10768190D01*
X10480714Y-10768190D02*
X10509286Y-10768190D01*
X10509286Y-10768190D02*
X10528333Y-10777714D01*
X10528333Y-10777714D02*
X10537857Y-10796762D01*
X10537857Y-10796762D02*
X10537857Y-10901524D01*
X10928333Y-10692000D02*
X10756905Y-10949143D01*
X11185476Y-10701524D02*
X11204524Y-10701524D01*
X11204524Y-10701524D02*
X11223572Y-10711048D01*
X11223572Y-10711048D02*
X11233095Y-10720571D01*
X11233095Y-10720571D02*
X11242619Y-10739619D01*
X11242619Y-10739619D02*
X11252143Y-10777714D01*
X11252143Y-10777714D02*
X11252143Y-10825333D01*
X11252143Y-10825333D02*
X11242619Y-10863429D01*
X11242619Y-10863429D02*
X11233095Y-10882476D01*
X11233095Y-10882476D02*
X11223572Y-10892000D01*
X11223572Y-10892000D02*
X11204524Y-10901524D01*
X11204524Y-10901524D02*
X11185476Y-10901524D01*
X11185476Y-10901524D02*
X11166429Y-10892000D01*
X11166429Y-10892000D02*
X11156905Y-10882476D01*
X11156905Y-10882476D02*
X11147381Y-10863429D01*
X11147381Y-10863429D02*
X11137857Y-10825333D01*
X11137857Y-10825333D02*
X11137857Y-10777714D01*
X11137857Y-10777714D02*
X11147381Y-10739619D01*
X11147381Y-10739619D02*
X11156905Y-10720571D01*
X11156905Y-10720571D02*
X11166429Y-10711048D01*
X11166429Y-10711048D02*
X11185476Y-10701524D01*
X11337857Y-10882476D02*
X11347381Y-10892000D01*
X11347381Y-10892000D02*
X11337857Y-10901524D01*
X11337857Y-10901524D02*
X11328333Y-10892000D01*
X11328333Y-10892000D02*
X11337857Y-10882476D01*
X11337857Y-10882476D02*
X11337857Y-10901524D01*
X11471191Y-10701524D02*
X11490238Y-10701524D01*
X11490238Y-10701524D02*
X11509286Y-10711048D01*
X11509286Y-10711048D02*
X11518810Y-10720571D01*
X11518810Y-10720571D02*
X11528333Y-10739619D01*
X11528333Y-10739619D02*
X11537857Y-10777714D01*
X11537857Y-10777714D02*
X11537857Y-10825333D01*
X11537857Y-10825333D02*
X11528333Y-10863429D01*
X11528333Y-10863429D02*
X11518810Y-10882476D01*
X11518810Y-10882476D02*
X11509286Y-10892000D01*
X11509286Y-10892000D02*
X11490238Y-10901524D01*
X11490238Y-10901524D02*
X11471191Y-10901524D01*
X11471191Y-10901524D02*
X11452143Y-10892000D01*
X11452143Y-10892000D02*
X11442619Y-10882476D01*
X11442619Y-10882476D02*
X11433095Y-10863429D01*
X11433095Y-10863429D02*
X11423572Y-10825333D01*
X11423572Y-10825333D02*
X11423572Y-10777714D01*
X11423572Y-10777714D02*
X11433095Y-10739619D01*
X11433095Y-10739619D02*
X11442619Y-10720571D01*
X11442619Y-10720571D02*
X11452143Y-10711048D01*
X11452143Y-10711048D02*
X11471191Y-10701524D01*
X11728333Y-10901524D02*
X11614048Y-10901524D01*
X11671191Y-10901524D02*
X11671191Y-10701524D01*
X11671191Y-10701524D02*
X11652143Y-10730095D01*
X11652143Y-10730095D02*
X11633095Y-10749143D01*
X11633095Y-10749143D02*
X11614048Y-10758667D01*
X11909286Y-10701524D02*
X11814048Y-10701524D01*
X11814048Y-10701524D02*
X11804524Y-10796762D01*
X11804524Y-10796762D02*
X11814048Y-10787238D01*
X11814048Y-10787238D02*
X11833095Y-10777714D01*
X11833095Y-10777714D02*
X11880714Y-10777714D01*
X11880714Y-10777714D02*
X11899762Y-10787238D01*
X11899762Y-10787238D02*
X11909286Y-10796762D01*
X11909286Y-10796762D02*
X11918810Y-10815810D01*
X11918810Y-10815810D02*
X11918810Y-10863429D01*
X11918810Y-10863429D02*
X11909286Y-10882476D01*
X11909286Y-10882476D02*
X11899762Y-10892000D01*
X11899762Y-10892000D02*
X11880714Y-10901524D01*
X11880714Y-10901524D02*
X11833095Y-10901524D01*
X11833095Y-10901524D02*
X11814048Y-10892000D01*
X11814048Y-10892000D02*
X11804524Y-10882476D01*
X11985476Y-10701524D02*
X12118810Y-10701524D01*
X12118810Y-10701524D02*
X12033095Y-10901524D01*
X12185476Y-10701524D02*
X12185476Y-10739619D01*
X12261667Y-10701524D02*
X12261667Y-10739619D01*
X12556905Y-10977714D02*
X12547381Y-10968190D01*
X12547381Y-10968190D02*
X12528334Y-10939619D01*
X12528334Y-10939619D02*
X12518810Y-10920571D01*
X12518810Y-10920571D02*
X12509286Y-10892000D01*
X12509286Y-10892000D02*
X12499762Y-10844381D01*
X12499762Y-10844381D02*
X12499762Y-10806286D01*
X12499762Y-10806286D02*
X12509286Y-10758667D01*
X12509286Y-10758667D02*
X12518810Y-10730095D01*
X12518810Y-10730095D02*
X12528334Y-10711048D01*
X12528334Y-10711048D02*
X12547381Y-10682476D01*
X12547381Y-10682476D02*
X12556905Y-10672952D01*
X12623572Y-10720571D02*
X12633095Y-10711048D01*
X12633095Y-10711048D02*
X12652143Y-10701524D01*
X12652143Y-10701524D02*
X12699762Y-10701524D01*
X12699762Y-10701524D02*
X12718810Y-10711048D01*
X12718810Y-10711048D02*
X12728334Y-10720571D01*
X12728334Y-10720571D02*
X12737857Y-10739619D01*
X12737857Y-10739619D02*
X12737857Y-10758667D01*
X12737857Y-10758667D02*
X12728334Y-10787238D01*
X12728334Y-10787238D02*
X12614048Y-10901524D01*
X12614048Y-10901524D02*
X12737857Y-10901524D01*
X12814048Y-10720571D02*
X12823572Y-10711048D01*
X12823572Y-10711048D02*
X12842619Y-10701524D01*
X12842619Y-10701524D02*
X12890238Y-10701524D01*
X12890238Y-10701524D02*
X12909286Y-10711048D01*
X12909286Y-10711048D02*
X12918810Y-10720571D01*
X12918810Y-10720571D02*
X12928334Y-10739619D01*
X12928334Y-10739619D02*
X12928334Y-10758667D01*
X12928334Y-10758667D02*
X12918810Y-10787238D01*
X12918810Y-10787238D02*
X12804524Y-10901524D01*
X12804524Y-10901524D02*
X12928334Y-10901524D01*
X13166429Y-10901524D02*
X13166429Y-10701524D01*
X13252143Y-10901524D02*
X13252143Y-10796762D01*
X13252143Y-10796762D02*
X13242619Y-10777714D01*
X13242619Y-10777714D02*
X13223572Y-10768190D01*
X13223572Y-10768190D02*
X13195000Y-10768190D01*
X13195000Y-10768190D02*
X13175953Y-10777714D01*
X13175953Y-10777714D02*
X13166429Y-10787238D01*
X13375953Y-10901524D02*
X13356905Y-10892000D01*
X13356905Y-10892000D02*
X13347381Y-10882476D01*
X13347381Y-10882476D02*
X13337857Y-10863429D01*
X13337857Y-10863429D02*
X13337857Y-10806286D01*
X13337857Y-10806286D02*
X13347381Y-10787238D01*
X13347381Y-10787238D02*
X13356905Y-10777714D01*
X13356905Y-10777714D02*
X13375953Y-10768190D01*
X13375953Y-10768190D02*
X13404524Y-10768190D01*
X13404524Y-10768190D02*
X13423572Y-10777714D01*
X13423572Y-10777714D02*
X13433096Y-10787238D01*
X13433096Y-10787238D02*
X13442619Y-10806286D01*
X13442619Y-10806286D02*
X13442619Y-10863429D01*
X13442619Y-10863429D02*
X13433096Y-10882476D01*
X13433096Y-10882476D02*
X13423572Y-10892000D01*
X13423572Y-10892000D02*
X13404524Y-10901524D01*
X13404524Y-10901524D02*
X13375953Y-10901524D01*
X13556905Y-10901524D02*
X13537857Y-10892000D01*
X13537857Y-10892000D02*
X13528334Y-10872952D01*
X13528334Y-10872952D02*
X13528334Y-10701524D01*
X13709286Y-10892000D02*
X13690238Y-10901524D01*
X13690238Y-10901524D02*
X13652143Y-10901524D01*
X13652143Y-10901524D02*
X13633096Y-10892000D01*
X13633096Y-10892000D02*
X13623572Y-10872952D01*
X13623572Y-10872952D02*
X13623572Y-10796762D01*
X13623572Y-10796762D02*
X13633096Y-10777714D01*
X13633096Y-10777714D02*
X13652143Y-10768190D01*
X13652143Y-10768190D02*
X13690238Y-10768190D01*
X13690238Y-10768190D02*
X13709286Y-10777714D01*
X13709286Y-10777714D02*
X13718810Y-10796762D01*
X13718810Y-10796762D02*
X13718810Y-10815810D01*
X13718810Y-10815810D02*
X13623572Y-10834857D01*
X13795000Y-10892000D02*
X13814048Y-10901524D01*
X13814048Y-10901524D02*
X13852143Y-10901524D01*
X13852143Y-10901524D02*
X13871191Y-10892000D01*
X13871191Y-10892000D02*
X13880715Y-10872952D01*
X13880715Y-10872952D02*
X13880715Y-10863429D01*
X13880715Y-10863429D02*
X13871191Y-10844381D01*
X13871191Y-10844381D02*
X13852143Y-10834857D01*
X13852143Y-10834857D02*
X13823572Y-10834857D01*
X13823572Y-10834857D02*
X13804524Y-10825333D01*
X13804524Y-10825333D02*
X13795000Y-10806286D01*
X13795000Y-10806286D02*
X13795000Y-10796762D01*
X13795000Y-10796762D02*
X13804524Y-10777714D01*
X13804524Y-10777714D02*
X13823572Y-10768190D01*
X13823572Y-10768190D02*
X13852143Y-10768190D01*
X13852143Y-10768190D02*
X13871191Y-10777714D01*
X13947381Y-10977714D02*
X13956905Y-10968190D01*
X13956905Y-10968190D02*
X13975953Y-10939619D01*
X13975953Y-10939619D02*
X13985477Y-10920571D01*
X13985477Y-10920571D02*
X13995000Y-10892000D01*
X13995000Y-10892000D02*
X14004524Y-10844381D01*
X14004524Y-10844381D02*
X14004524Y-10806286D01*
X14004524Y-10806286D02*
X13995000Y-10758667D01*
X13995000Y-10758667D02*
X13985477Y-10730095D01*
X13985477Y-10730095D02*
X13975953Y-10711048D01*
X13975953Y-10711048D02*
X13956905Y-10682476D01*
X13956905Y-10682476D02*
X13947381Y-10672952D01*
D14*
X8965000Y-11043000D02*
X8965000Y-11103000D01*
X8935000Y-11073000D02*
X8995000Y-11073000D01*
D11*
X9280714Y-10965524D02*
X9299762Y-10965524D01*
X9299762Y-10965524D02*
X9318810Y-10975048D01*
X9318810Y-10975048D02*
X9328333Y-10984571D01*
X9328333Y-10984571D02*
X9337857Y-11003619D01*
X9337857Y-11003619D02*
X9347381Y-11041714D01*
X9347381Y-11041714D02*
X9347381Y-11089333D01*
X9347381Y-11089333D02*
X9337857Y-11127429D01*
X9337857Y-11127429D02*
X9328333Y-11146476D01*
X9328333Y-11146476D02*
X9318810Y-11156000D01*
X9318810Y-11156000D02*
X9299762Y-11165524D01*
X9299762Y-11165524D02*
X9280714Y-11165524D01*
X9280714Y-11165524D02*
X9261667Y-11156000D01*
X9261667Y-11156000D02*
X9252143Y-11146476D01*
X9252143Y-11146476D02*
X9242619Y-11127429D01*
X9242619Y-11127429D02*
X9233095Y-11089333D01*
X9233095Y-11089333D02*
X9233095Y-11041714D01*
X9233095Y-11041714D02*
X9242619Y-11003619D01*
X9242619Y-11003619D02*
X9252143Y-10984571D01*
X9252143Y-10984571D02*
X9261667Y-10975048D01*
X9261667Y-10975048D02*
X9280714Y-10965524D01*
X9433095Y-11146476D02*
X9442619Y-11156000D01*
X9442619Y-11156000D02*
X9433095Y-11165524D01*
X9433095Y-11165524D02*
X9423571Y-11156000D01*
X9423571Y-11156000D02*
X9433095Y-11146476D01*
X9433095Y-11146476D02*
X9433095Y-11165524D01*
X9614048Y-10965524D02*
X9575952Y-10965524D01*
X9575952Y-10965524D02*
X9556905Y-10975048D01*
X9556905Y-10975048D02*
X9547381Y-10984571D01*
X9547381Y-10984571D02*
X9528333Y-11013143D01*
X9528333Y-11013143D02*
X9518810Y-11051238D01*
X9518810Y-11051238D02*
X9518810Y-11127429D01*
X9518810Y-11127429D02*
X9528333Y-11146476D01*
X9528333Y-11146476D02*
X9537857Y-11156000D01*
X9537857Y-11156000D02*
X9556905Y-11165524D01*
X9556905Y-11165524D02*
X9595000Y-11165524D01*
X9595000Y-11165524D02*
X9614048Y-11156000D01*
X9614048Y-11156000D02*
X9623571Y-11146476D01*
X9623571Y-11146476D02*
X9633095Y-11127429D01*
X9633095Y-11127429D02*
X9633095Y-11079810D01*
X9633095Y-11079810D02*
X9623571Y-11060762D01*
X9623571Y-11060762D02*
X9614048Y-11051238D01*
X9614048Y-11051238D02*
X9595000Y-11041714D01*
X9595000Y-11041714D02*
X9556905Y-11041714D01*
X9556905Y-11041714D02*
X9537857Y-11051238D01*
X9537857Y-11051238D02*
X9528333Y-11060762D01*
X9528333Y-11060762D02*
X9518810Y-11079810D01*
X9756905Y-10965524D02*
X9775952Y-10965524D01*
X9775952Y-10965524D02*
X9795000Y-10975048D01*
X9795000Y-10975048D02*
X9804524Y-10984571D01*
X9804524Y-10984571D02*
X9814048Y-11003619D01*
X9814048Y-11003619D02*
X9823571Y-11041714D01*
X9823571Y-11041714D02*
X9823571Y-11089333D01*
X9823571Y-11089333D02*
X9814048Y-11127429D01*
X9814048Y-11127429D02*
X9804524Y-11146476D01*
X9804524Y-11146476D02*
X9795000Y-11156000D01*
X9795000Y-11156000D02*
X9775952Y-11165524D01*
X9775952Y-11165524D02*
X9756905Y-11165524D01*
X9756905Y-11165524D02*
X9737857Y-11156000D01*
X9737857Y-11156000D02*
X9728333Y-11146476D01*
X9728333Y-11146476D02*
X9718810Y-11127429D01*
X9718810Y-11127429D02*
X9709286Y-11089333D01*
X9709286Y-11089333D02*
X9709286Y-11041714D01*
X9709286Y-11041714D02*
X9718810Y-11003619D01*
X9718810Y-11003619D02*
X9728333Y-10984571D01*
X9728333Y-10984571D02*
X9737857Y-10975048D01*
X9737857Y-10975048D02*
X9756905Y-10965524D01*
X9947381Y-10965524D02*
X9966429Y-10965524D01*
X9966429Y-10965524D02*
X9985476Y-10975048D01*
X9985476Y-10975048D02*
X9995000Y-10984571D01*
X9995000Y-10984571D02*
X10004524Y-11003619D01*
X10004524Y-11003619D02*
X10014048Y-11041714D01*
X10014048Y-11041714D02*
X10014048Y-11089333D01*
X10014048Y-11089333D02*
X10004524Y-11127429D01*
X10004524Y-11127429D02*
X9995000Y-11146476D01*
X9995000Y-11146476D02*
X9985476Y-11156000D01*
X9985476Y-11156000D02*
X9966429Y-11165524D01*
X9966429Y-11165524D02*
X9947381Y-11165524D01*
X9947381Y-11165524D02*
X9928333Y-11156000D01*
X9928333Y-11156000D02*
X9918810Y-11146476D01*
X9918810Y-11146476D02*
X9909286Y-11127429D01*
X9909286Y-11127429D02*
X9899762Y-11089333D01*
X9899762Y-11089333D02*
X9899762Y-11041714D01*
X9899762Y-11041714D02*
X9909286Y-11003619D01*
X9909286Y-11003619D02*
X9918810Y-10984571D01*
X9918810Y-10984571D02*
X9928333Y-10975048D01*
X9928333Y-10975048D02*
X9947381Y-10965524D01*
X10099762Y-11165524D02*
X10099762Y-11032190D01*
X10099762Y-11051238D02*
X10109286Y-11041714D01*
X10109286Y-11041714D02*
X10128333Y-11032190D01*
X10128333Y-11032190D02*
X10156905Y-11032190D01*
X10156905Y-11032190D02*
X10175952Y-11041714D01*
X10175952Y-11041714D02*
X10185476Y-11060762D01*
X10185476Y-11060762D02*
X10185476Y-11165524D01*
X10185476Y-11060762D02*
X10195000Y-11041714D01*
X10195000Y-11041714D02*
X10214048Y-11032190D01*
X10214048Y-11032190D02*
X10242619Y-11032190D01*
X10242619Y-11032190D02*
X10261667Y-11041714D01*
X10261667Y-11041714D02*
X10271191Y-11060762D01*
X10271191Y-11060762D02*
X10271191Y-11165524D01*
X10366429Y-11165524D02*
X10366429Y-11032190D01*
X10366429Y-11051238D02*
X10375952Y-11041714D01*
X10375952Y-11041714D02*
X10395000Y-11032190D01*
X10395000Y-11032190D02*
X10423572Y-11032190D01*
X10423572Y-11032190D02*
X10442619Y-11041714D01*
X10442619Y-11041714D02*
X10452143Y-11060762D01*
X10452143Y-11060762D02*
X10452143Y-11165524D01*
X10452143Y-11060762D02*
X10461667Y-11041714D01*
X10461667Y-11041714D02*
X10480714Y-11032190D01*
X10480714Y-11032190D02*
X10509286Y-11032190D01*
X10509286Y-11032190D02*
X10528333Y-11041714D01*
X10528333Y-11041714D02*
X10537857Y-11060762D01*
X10537857Y-11060762D02*
X10537857Y-11165524D01*
X10928333Y-10956000D02*
X10756905Y-11213143D01*
X11185476Y-10965524D02*
X11204524Y-10965524D01*
X11204524Y-10965524D02*
X11223572Y-10975048D01*
X11223572Y-10975048D02*
X11233095Y-10984571D01*
X11233095Y-10984571D02*
X11242619Y-11003619D01*
X11242619Y-11003619D02*
X11252143Y-11041714D01*
X11252143Y-11041714D02*
X11252143Y-11089333D01*
X11252143Y-11089333D02*
X11242619Y-11127429D01*
X11242619Y-11127429D02*
X11233095Y-11146476D01*
X11233095Y-11146476D02*
X11223572Y-11156000D01*
X11223572Y-11156000D02*
X11204524Y-11165524D01*
X11204524Y-11165524D02*
X11185476Y-11165524D01*
X11185476Y-11165524D02*
X11166429Y-11156000D01*
X11166429Y-11156000D02*
X11156905Y-11146476D01*
X11156905Y-11146476D02*
X11147381Y-11127429D01*
X11147381Y-11127429D02*
X11137857Y-11089333D01*
X11137857Y-11089333D02*
X11137857Y-11041714D01*
X11137857Y-11041714D02*
X11147381Y-11003619D01*
X11147381Y-11003619D02*
X11156905Y-10984571D01*
X11156905Y-10984571D02*
X11166429Y-10975048D01*
X11166429Y-10975048D02*
X11185476Y-10965524D01*
X11337857Y-11146476D02*
X11347381Y-11156000D01*
X11347381Y-11156000D02*
X11337857Y-11165524D01*
X11337857Y-11165524D02*
X11328333Y-11156000D01*
X11328333Y-11156000D02*
X11337857Y-11146476D01*
X11337857Y-11146476D02*
X11337857Y-11165524D01*
X11471191Y-10965524D02*
X11490238Y-10965524D01*
X11490238Y-10965524D02*
X11509286Y-10975048D01*
X11509286Y-10975048D02*
X11518810Y-10984571D01*
X11518810Y-10984571D02*
X11528333Y-11003619D01*
X11528333Y-11003619D02*
X11537857Y-11041714D01*
X11537857Y-11041714D02*
X11537857Y-11089333D01*
X11537857Y-11089333D02*
X11528333Y-11127429D01*
X11528333Y-11127429D02*
X11518810Y-11146476D01*
X11518810Y-11146476D02*
X11509286Y-11156000D01*
X11509286Y-11156000D02*
X11490238Y-11165524D01*
X11490238Y-11165524D02*
X11471191Y-11165524D01*
X11471191Y-11165524D02*
X11452143Y-11156000D01*
X11452143Y-11156000D02*
X11442619Y-11146476D01*
X11442619Y-11146476D02*
X11433095Y-11127429D01*
X11433095Y-11127429D02*
X11423572Y-11089333D01*
X11423572Y-11089333D02*
X11423572Y-11041714D01*
X11423572Y-11041714D02*
X11433095Y-11003619D01*
X11433095Y-11003619D02*
X11442619Y-10984571D01*
X11442619Y-10984571D02*
X11452143Y-10975048D01*
X11452143Y-10975048D02*
X11471191Y-10965524D01*
X11614048Y-10984571D02*
X11623572Y-10975048D01*
X11623572Y-10975048D02*
X11642619Y-10965524D01*
X11642619Y-10965524D02*
X11690238Y-10965524D01*
X11690238Y-10965524D02*
X11709286Y-10975048D01*
X11709286Y-10975048D02*
X11718810Y-10984571D01*
X11718810Y-10984571D02*
X11728333Y-11003619D01*
X11728333Y-11003619D02*
X11728333Y-11022667D01*
X11728333Y-11022667D02*
X11718810Y-11051238D01*
X11718810Y-11051238D02*
X11604524Y-11165524D01*
X11604524Y-11165524D02*
X11728333Y-11165524D01*
X11795000Y-10965524D02*
X11918810Y-10965524D01*
X11918810Y-10965524D02*
X11852143Y-11041714D01*
X11852143Y-11041714D02*
X11880714Y-11041714D01*
X11880714Y-11041714D02*
X11899762Y-11051238D01*
X11899762Y-11051238D02*
X11909286Y-11060762D01*
X11909286Y-11060762D02*
X11918810Y-11079810D01*
X11918810Y-11079810D02*
X11918810Y-11127429D01*
X11918810Y-11127429D02*
X11909286Y-11146476D01*
X11909286Y-11146476D02*
X11899762Y-11156000D01*
X11899762Y-11156000D02*
X11880714Y-11165524D01*
X11880714Y-11165524D02*
X11823572Y-11165524D01*
X11823572Y-11165524D02*
X11804524Y-11156000D01*
X11804524Y-11156000D02*
X11795000Y-11146476D01*
X12090238Y-10965524D02*
X12052143Y-10965524D01*
X12052143Y-10965524D02*
X12033095Y-10975048D01*
X12033095Y-10975048D02*
X12023572Y-10984571D01*
X12023572Y-10984571D02*
X12004524Y-11013143D01*
X12004524Y-11013143D02*
X11995000Y-11051238D01*
X11995000Y-11051238D02*
X11995000Y-11127429D01*
X11995000Y-11127429D02*
X12004524Y-11146476D01*
X12004524Y-11146476D02*
X12014048Y-11156000D01*
X12014048Y-11156000D02*
X12033095Y-11165524D01*
X12033095Y-11165524D02*
X12071191Y-11165524D01*
X12071191Y-11165524D02*
X12090238Y-11156000D01*
X12090238Y-11156000D02*
X12099762Y-11146476D01*
X12099762Y-11146476D02*
X12109286Y-11127429D01*
X12109286Y-11127429D02*
X12109286Y-11079810D01*
X12109286Y-11079810D02*
X12099762Y-11060762D01*
X12099762Y-11060762D02*
X12090238Y-11051238D01*
X12090238Y-11051238D02*
X12071191Y-11041714D01*
X12071191Y-11041714D02*
X12033095Y-11041714D01*
X12033095Y-11041714D02*
X12014048Y-11051238D01*
X12014048Y-11051238D02*
X12004524Y-11060762D01*
X12004524Y-11060762D02*
X11995000Y-11079810D01*
X12185476Y-10965524D02*
X12185476Y-11003619D01*
X12261667Y-10965524D02*
X12261667Y-11003619D01*
X12556905Y-11241714D02*
X12547381Y-11232190D01*
X12547381Y-11232190D02*
X12528334Y-11203619D01*
X12528334Y-11203619D02*
X12518810Y-11184571D01*
X12518810Y-11184571D02*
X12509286Y-11156000D01*
X12509286Y-11156000D02*
X12499762Y-11108381D01*
X12499762Y-11108381D02*
X12499762Y-11070286D01*
X12499762Y-11070286D02*
X12509286Y-11022667D01*
X12509286Y-11022667D02*
X12518810Y-10994095D01*
X12518810Y-10994095D02*
X12528334Y-10975048D01*
X12528334Y-10975048D02*
X12547381Y-10946476D01*
X12547381Y-10946476D02*
X12556905Y-10936952D01*
X12671191Y-10965524D02*
X12690238Y-10965524D01*
X12690238Y-10965524D02*
X12709286Y-10975048D01*
X12709286Y-10975048D02*
X12718810Y-10984571D01*
X12718810Y-10984571D02*
X12728334Y-11003619D01*
X12728334Y-11003619D02*
X12737857Y-11041714D01*
X12737857Y-11041714D02*
X12737857Y-11089333D01*
X12737857Y-11089333D02*
X12728334Y-11127429D01*
X12728334Y-11127429D02*
X12718810Y-11146476D01*
X12718810Y-11146476D02*
X12709286Y-11156000D01*
X12709286Y-11156000D02*
X12690238Y-11165524D01*
X12690238Y-11165524D02*
X12671191Y-11165524D01*
X12671191Y-11165524D02*
X12652143Y-11156000D01*
X12652143Y-11156000D02*
X12642619Y-11146476D01*
X12642619Y-11146476D02*
X12633095Y-11127429D01*
X12633095Y-11127429D02*
X12623572Y-11089333D01*
X12623572Y-11089333D02*
X12623572Y-11041714D01*
X12623572Y-11041714D02*
X12633095Y-11003619D01*
X12633095Y-11003619D02*
X12642619Y-10984571D01*
X12642619Y-10984571D02*
X12652143Y-10975048D01*
X12652143Y-10975048D02*
X12671191Y-10965524D01*
X12975953Y-11165524D02*
X12975953Y-10965524D01*
X13061667Y-11165524D02*
X13061667Y-11060762D01*
X13061667Y-11060762D02*
X13052143Y-11041714D01*
X13052143Y-11041714D02*
X13033096Y-11032190D01*
X13033096Y-11032190D02*
X13004524Y-11032190D01*
X13004524Y-11032190D02*
X12985476Y-11041714D01*
X12985476Y-11041714D02*
X12975953Y-11051238D01*
X13185476Y-11165524D02*
X13166429Y-11156000D01*
X13166429Y-11156000D02*
X13156905Y-11146476D01*
X13156905Y-11146476D02*
X13147381Y-11127429D01*
X13147381Y-11127429D02*
X13147381Y-11070286D01*
X13147381Y-11070286D02*
X13156905Y-11051238D01*
X13156905Y-11051238D02*
X13166429Y-11041714D01*
X13166429Y-11041714D02*
X13185476Y-11032190D01*
X13185476Y-11032190D02*
X13214048Y-11032190D01*
X13214048Y-11032190D02*
X13233096Y-11041714D01*
X13233096Y-11041714D02*
X13242619Y-11051238D01*
X13242619Y-11051238D02*
X13252143Y-11070286D01*
X13252143Y-11070286D02*
X13252143Y-11127429D01*
X13252143Y-11127429D02*
X13242619Y-11146476D01*
X13242619Y-11146476D02*
X13233096Y-11156000D01*
X13233096Y-11156000D02*
X13214048Y-11165524D01*
X13214048Y-11165524D02*
X13185476Y-11165524D01*
X13366429Y-11165524D02*
X13347381Y-11156000D01*
X13347381Y-11156000D02*
X13337857Y-11136952D01*
X13337857Y-11136952D02*
X13337857Y-10965524D01*
X13518810Y-11156000D02*
X13499762Y-11165524D01*
X13499762Y-11165524D02*
X13461667Y-11165524D01*
X13461667Y-11165524D02*
X13442619Y-11156000D01*
X13442619Y-11156000D02*
X13433096Y-11136952D01*
X13433096Y-11136952D02*
X13433096Y-11060762D01*
X13433096Y-11060762D02*
X13442619Y-11041714D01*
X13442619Y-11041714D02*
X13461667Y-11032190D01*
X13461667Y-11032190D02*
X13499762Y-11032190D01*
X13499762Y-11032190D02*
X13518810Y-11041714D01*
X13518810Y-11041714D02*
X13528334Y-11060762D01*
X13528334Y-11060762D02*
X13528334Y-11079810D01*
X13528334Y-11079810D02*
X13433096Y-11098857D01*
X13604524Y-11156000D02*
X13623572Y-11165524D01*
X13623572Y-11165524D02*
X13661667Y-11165524D01*
X13661667Y-11165524D02*
X13680715Y-11156000D01*
X13680715Y-11156000D02*
X13690238Y-11136952D01*
X13690238Y-11136952D02*
X13690238Y-11127429D01*
X13690238Y-11127429D02*
X13680715Y-11108381D01*
X13680715Y-11108381D02*
X13661667Y-11098857D01*
X13661667Y-11098857D02*
X13633096Y-11098857D01*
X13633096Y-11098857D02*
X13614048Y-11089333D01*
X13614048Y-11089333D02*
X13604524Y-11070286D01*
X13604524Y-11070286D02*
X13604524Y-11060762D01*
X13604524Y-11060762D02*
X13614048Y-11041714D01*
X13614048Y-11041714D02*
X13633096Y-11032190D01*
X13633096Y-11032190D02*
X13661667Y-11032190D01*
X13661667Y-11032190D02*
X13680715Y-11041714D01*
X13928334Y-11089333D02*
X14080715Y-11089333D01*
X14004524Y-11165524D02*
X14004524Y-11013143D01*
X14318810Y-10984571D02*
X14328334Y-10975048D01*
X14328334Y-10975048D02*
X14347381Y-10965524D01*
X14347381Y-10965524D02*
X14395000Y-10965524D01*
X14395000Y-10965524D02*
X14414048Y-10975048D01*
X14414048Y-10975048D02*
X14423572Y-10984571D01*
X14423572Y-10984571D02*
X14433096Y-11003619D01*
X14433096Y-11003619D02*
X14433096Y-11022667D01*
X14433096Y-11022667D02*
X14423572Y-11051238D01*
X14423572Y-11051238D02*
X14309286Y-11165524D01*
X14309286Y-11165524D02*
X14433096Y-11165524D01*
X14661667Y-11156000D02*
X14680715Y-11165524D01*
X14680715Y-11165524D02*
X14718810Y-11165524D01*
X14718810Y-11165524D02*
X14737858Y-11156000D01*
X14737858Y-11156000D02*
X14747381Y-11136952D01*
X14747381Y-11136952D02*
X14747381Y-11127429D01*
X14747381Y-11127429D02*
X14737858Y-11108381D01*
X14737858Y-11108381D02*
X14718810Y-11098857D01*
X14718810Y-11098857D02*
X14690239Y-11098857D01*
X14690239Y-11098857D02*
X14671191Y-11089333D01*
X14671191Y-11089333D02*
X14661667Y-11070286D01*
X14661667Y-11070286D02*
X14661667Y-11060762D01*
X14661667Y-11060762D02*
X14671191Y-11041714D01*
X14671191Y-11041714D02*
X14690239Y-11032190D01*
X14690239Y-11032190D02*
X14718810Y-11032190D01*
X14718810Y-11032190D02*
X14737858Y-11041714D01*
X14861667Y-11165524D02*
X14842620Y-11156000D01*
X14842620Y-11156000D02*
X14833096Y-11136952D01*
X14833096Y-11136952D02*
X14833096Y-10965524D01*
X14966429Y-11165524D02*
X14947381Y-11156000D01*
X14947381Y-11156000D02*
X14937858Y-11146476D01*
X14937858Y-11146476D02*
X14928334Y-11127429D01*
X14928334Y-11127429D02*
X14928334Y-11070286D01*
X14928334Y-11070286D02*
X14937858Y-11051238D01*
X14937858Y-11051238D02*
X14947381Y-11041714D01*
X14947381Y-11041714D02*
X14966429Y-11032190D01*
X14966429Y-11032190D02*
X14995001Y-11032190D01*
X14995001Y-11032190D02*
X15014048Y-11041714D01*
X15014048Y-11041714D02*
X15023572Y-11051238D01*
X15023572Y-11051238D02*
X15033096Y-11070286D01*
X15033096Y-11070286D02*
X15033096Y-11127429D01*
X15033096Y-11127429D02*
X15023572Y-11146476D01*
X15023572Y-11146476D02*
X15014048Y-11156000D01*
X15014048Y-11156000D02*
X14995001Y-11165524D01*
X14995001Y-11165524D02*
X14966429Y-11165524D01*
X15090239Y-11032190D02*
X15166429Y-11032190D01*
X15118810Y-10965524D02*
X15118810Y-11136952D01*
X15118810Y-11136952D02*
X15128334Y-11156000D01*
X15128334Y-11156000D02*
X15147381Y-11165524D01*
X15147381Y-11165524D02*
X15166429Y-11165524D01*
X15223572Y-11156000D02*
X15242620Y-11165524D01*
X15242620Y-11165524D02*
X15280715Y-11165524D01*
X15280715Y-11165524D02*
X15299762Y-11156000D01*
X15299762Y-11156000D02*
X15309286Y-11136952D01*
X15309286Y-11136952D02*
X15309286Y-11127429D01*
X15309286Y-11127429D02*
X15299762Y-11108381D01*
X15299762Y-11108381D02*
X15280715Y-11098857D01*
X15280715Y-11098857D02*
X15252143Y-11098857D01*
X15252143Y-11098857D02*
X15233096Y-11089333D01*
X15233096Y-11089333D02*
X15223572Y-11070286D01*
X15223572Y-11070286D02*
X15223572Y-11060762D01*
X15223572Y-11060762D02*
X15233096Y-11041714D01*
X15233096Y-11041714D02*
X15252143Y-11032190D01*
X15252143Y-11032190D02*
X15280715Y-11032190D01*
X15280715Y-11032190D02*
X15299762Y-11041714D01*
X15375953Y-11241714D02*
X15385477Y-11232190D01*
X15385477Y-11232190D02*
X15404524Y-11203619D01*
X15404524Y-11203619D02*
X15414048Y-11184571D01*
X15414048Y-11184571D02*
X15423572Y-11156000D01*
X15423572Y-11156000D02*
X15433096Y-11108381D01*
X15433096Y-11108381D02*
X15433096Y-11070286D01*
X15433096Y-11070286D02*
X15423572Y-11022667D01*
X15423572Y-11022667D02*
X15414048Y-10994095D01*
X15414048Y-10994095D02*
X15404524Y-10975048D01*
X15404524Y-10975048D02*
X15385477Y-10946476D01*
X15385477Y-10946476D02*
X15375953Y-10936952D01*
D15*
X8982552Y-11367052D02*
X8982552Y-11306948D01*
X8922448Y-11306948D01*
X8922448Y-11367052D01*
X8982552Y-11367052D01*
D11*
X9280714Y-11229524D02*
X9299762Y-11229524D01*
X9299762Y-11229524D02*
X9318810Y-11239048D01*
X9318810Y-11239048D02*
X9328333Y-11248571D01*
X9328333Y-11248571D02*
X9337857Y-11267619D01*
X9337857Y-11267619D02*
X9347381Y-11305714D01*
X9347381Y-11305714D02*
X9347381Y-11353333D01*
X9347381Y-11353333D02*
X9337857Y-11391428D01*
X9337857Y-11391428D02*
X9328333Y-11410476D01*
X9328333Y-11410476D02*
X9318810Y-11420000D01*
X9318810Y-11420000D02*
X9299762Y-11429524D01*
X9299762Y-11429524D02*
X9280714Y-11429524D01*
X9280714Y-11429524D02*
X9261667Y-11420000D01*
X9261667Y-11420000D02*
X9252143Y-11410476D01*
X9252143Y-11410476D02*
X9242619Y-11391428D01*
X9242619Y-11391428D02*
X9233095Y-11353333D01*
X9233095Y-11353333D02*
X9233095Y-11305714D01*
X9233095Y-11305714D02*
X9242619Y-11267619D01*
X9242619Y-11267619D02*
X9252143Y-11248571D01*
X9252143Y-11248571D02*
X9261667Y-11239048D01*
X9261667Y-11239048D02*
X9280714Y-11229524D01*
X9433095Y-11410476D02*
X9442619Y-11420000D01*
X9442619Y-11420000D02*
X9433095Y-11429524D01*
X9433095Y-11429524D02*
X9423571Y-11420000D01*
X9423571Y-11420000D02*
X9433095Y-11410476D01*
X9433095Y-11410476D02*
X9433095Y-11429524D01*
X9556905Y-11315238D02*
X9537857Y-11305714D01*
X9537857Y-11305714D02*
X9528333Y-11296190D01*
X9528333Y-11296190D02*
X9518810Y-11277143D01*
X9518810Y-11277143D02*
X9518810Y-11267619D01*
X9518810Y-11267619D02*
X9528333Y-11248571D01*
X9528333Y-11248571D02*
X9537857Y-11239048D01*
X9537857Y-11239048D02*
X9556905Y-11229524D01*
X9556905Y-11229524D02*
X9595000Y-11229524D01*
X9595000Y-11229524D02*
X9614048Y-11239048D01*
X9614048Y-11239048D02*
X9623571Y-11248571D01*
X9623571Y-11248571D02*
X9633095Y-11267619D01*
X9633095Y-11267619D02*
X9633095Y-11277143D01*
X9633095Y-11277143D02*
X9623571Y-11296190D01*
X9623571Y-11296190D02*
X9614048Y-11305714D01*
X9614048Y-11305714D02*
X9595000Y-11315238D01*
X9595000Y-11315238D02*
X9556905Y-11315238D01*
X9556905Y-11315238D02*
X9537857Y-11324762D01*
X9537857Y-11324762D02*
X9528333Y-11334286D01*
X9528333Y-11334286D02*
X9518810Y-11353333D01*
X9518810Y-11353333D02*
X9518810Y-11391428D01*
X9518810Y-11391428D02*
X9528333Y-11410476D01*
X9528333Y-11410476D02*
X9537857Y-11420000D01*
X9537857Y-11420000D02*
X9556905Y-11429524D01*
X9556905Y-11429524D02*
X9595000Y-11429524D01*
X9595000Y-11429524D02*
X9614048Y-11420000D01*
X9614048Y-11420000D02*
X9623571Y-11410476D01*
X9623571Y-11410476D02*
X9633095Y-11391428D01*
X9633095Y-11391428D02*
X9633095Y-11353333D01*
X9633095Y-11353333D02*
X9623571Y-11334286D01*
X9623571Y-11334286D02*
X9614048Y-11324762D01*
X9614048Y-11324762D02*
X9595000Y-11315238D01*
X9814048Y-11229524D02*
X9718810Y-11229524D01*
X9718810Y-11229524D02*
X9709286Y-11324762D01*
X9709286Y-11324762D02*
X9718810Y-11315238D01*
X9718810Y-11315238D02*
X9737857Y-11305714D01*
X9737857Y-11305714D02*
X9785476Y-11305714D01*
X9785476Y-11305714D02*
X9804524Y-11315238D01*
X9804524Y-11315238D02*
X9814048Y-11324762D01*
X9814048Y-11324762D02*
X9823571Y-11343809D01*
X9823571Y-11343809D02*
X9823571Y-11391428D01*
X9823571Y-11391428D02*
X9814048Y-11410476D01*
X9814048Y-11410476D02*
X9804524Y-11420000D01*
X9804524Y-11420000D02*
X9785476Y-11429524D01*
X9785476Y-11429524D02*
X9737857Y-11429524D01*
X9737857Y-11429524D02*
X9718810Y-11420000D01*
X9718810Y-11420000D02*
X9709286Y-11410476D01*
X9947381Y-11229524D02*
X9966429Y-11229524D01*
X9966429Y-11229524D02*
X9985476Y-11239048D01*
X9985476Y-11239048D02*
X9995000Y-11248571D01*
X9995000Y-11248571D02*
X10004524Y-11267619D01*
X10004524Y-11267619D02*
X10014048Y-11305714D01*
X10014048Y-11305714D02*
X10014048Y-11353333D01*
X10014048Y-11353333D02*
X10004524Y-11391428D01*
X10004524Y-11391428D02*
X9995000Y-11410476D01*
X9995000Y-11410476D02*
X9985476Y-11420000D01*
X9985476Y-11420000D02*
X9966429Y-11429524D01*
X9966429Y-11429524D02*
X9947381Y-11429524D01*
X9947381Y-11429524D02*
X9928333Y-11420000D01*
X9928333Y-11420000D02*
X9918810Y-11410476D01*
X9918810Y-11410476D02*
X9909286Y-11391428D01*
X9909286Y-11391428D02*
X9899762Y-11353333D01*
X9899762Y-11353333D02*
X9899762Y-11305714D01*
X9899762Y-11305714D02*
X9909286Y-11267619D01*
X9909286Y-11267619D02*
X9918810Y-11248571D01*
X9918810Y-11248571D02*
X9928333Y-11239048D01*
X9928333Y-11239048D02*
X9947381Y-11229524D01*
X10099762Y-11429524D02*
X10099762Y-11296190D01*
X10099762Y-11315238D02*
X10109286Y-11305714D01*
X10109286Y-11305714D02*
X10128333Y-11296190D01*
X10128333Y-11296190D02*
X10156905Y-11296190D01*
X10156905Y-11296190D02*
X10175952Y-11305714D01*
X10175952Y-11305714D02*
X10185476Y-11324762D01*
X10185476Y-11324762D02*
X10185476Y-11429524D01*
X10185476Y-11324762D02*
X10195000Y-11305714D01*
X10195000Y-11305714D02*
X10214048Y-11296190D01*
X10214048Y-11296190D02*
X10242619Y-11296190D01*
X10242619Y-11296190D02*
X10261667Y-11305714D01*
X10261667Y-11305714D02*
X10271191Y-11324762D01*
X10271191Y-11324762D02*
X10271191Y-11429524D01*
X10366429Y-11429524D02*
X10366429Y-11296190D01*
X10366429Y-11315238D02*
X10375952Y-11305714D01*
X10375952Y-11305714D02*
X10395000Y-11296190D01*
X10395000Y-11296190D02*
X10423572Y-11296190D01*
X10423572Y-11296190D02*
X10442619Y-11305714D01*
X10442619Y-11305714D02*
X10452143Y-11324762D01*
X10452143Y-11324762D02*
X10452143Y-11429524D01*
X10452143Y-11324762D02*
X10461667Y-11305714D01*
X10461667Y-11305714D02*
X10480714Y-11296190D01*
X10480714Y-11296190D02*
X10509286Y-11296190D01*
X10509286Y-11296190D02*
X10528333Y-11305714D01*
X10528333Y-11305714D02*
X10537857Y-11324762D01*
X10537857Y-11324762D02*
X10537857Y-11429524D01*
X10928333Y-11220000D02*
X10756905Y-11477143D01*
X11185476Y-11229524D02*
X11204524Y-11229524D01*
X11204524Y-11229524D02*
X11223572Y-11239048D01*
X11223572Y-11239048D02*
X11233095Y-11248571D01*
X11233095Y-11248571D02*
X11242619Y-11267619D01*
X11242619Y-11267619D02*
X11252143Y-11305714D01*
X11252143Y-11305714D02*
X11252143Y-11353333D01*
X11252143Y-11353333D02*
X11242619Y-11391428D01*
X11242619Y-11391428D02*
X11233095Y-11410476D01*
X11233095Y-11410476D02*
X11223572Y-11420000D01*
X11223572Y-11420000D02*
X11204524Y-11429524D01*
X11204524Y-11429524D02*
X11185476Y-11429524D01*
X11185476Y-11429524D02*
X11166429Y-11420000D01*
X11166429Y-11420000D02*
X11156905Y-11410476D01*
X11156905Y-11410476D02*
X11147381Y-11391428D01*
X11147381Y-11391428D02*
X11137857Y-11353333D01*
X11137857Y-11353333D02*
X11137857Y-11305714D01*
X11137857Y-11305714D02*
X11147381Y-11267619D01*
X11147381Y-11267619D02*
X11156905Y-11248571D01*
X11156905Y-11248571D02*
X11166429Y-11239048D01*
X11166429Y-11239048D02*
X11185476Y-11229524D01*
X11337857Y-11410476D02*
X11347381Y-11420000D01*
X11347381Y-11420000D02*
X11337857Y-11429524D01*
X11337857Y-11429524D02*
X11328333Y-11420000D01*
X11328333Y-11420000D02*
X11337857Y-11410476D01*
X11337857Y-11410476D02*
X11337857Y-11429524D01*
X11471191Y-11229524D02*
X11490238Y-11229524D01*
X11490238Y-11229524D02*
X11509286Y-11239048D01*
X11509286Y-11239048D02*
X11518810Y-11248571D01*
X11518810Y-11248571D02*
X11528333Y-11267619D01*
X11528333Y-11267619D02*
X11537857Y-11305714D01*
X11537857Y-11305714D02*
X11537857Y-11353333D01*
X11537857Y-11353333D02*
X11528333Y-11391428D01*
X11528333Y-11391428D02*
X11518810Y-11410476D01*
X11518810Y-11410476D02*
X11509286Y-11420000D01*
X11509286Y-11420000D02*
X11490238Y-11429524D01*
X11490238Y-11429524D02*
X11471191Y-11429524D01*
X11471191Y-11429524D02*
X11452143Y-11420000D01*
X11452143Y-11420000D02*
X11442619Y-11410476D01*
X11442619Y-11410476D02*
X11433095Y-11391428D01*
X11433095Y-11391428D02*
X11423572Y-11353333D01*
X11423572Y-11353333D02*
X11423572Y-11305714D01*
X11423572Y-11305714D02*
X11433095Y-11267619D01*
X11433095Y-11267619D02*
X11442619Y-11248571D01*
X11442619Y-11248571D02*
X11452143Y-11239048D01*
X11452143Y-11239048D02*
X11471191Y-11229524D01*
X11604524Y-11229524D02*
X11728333Y-11229524D01*
X11728333Y-11229524D02*
X11661667Y-11305714D01*
X11661667Y-11305714D02*
X11690238Y-11305714D01*
X11690238Y-11305714D02*
X11709286Y-11315238D01*
X11709286Y-11315238D02*
X11718810Y-11324762D01*
X11718810Y-11324762D02*
X11728333Y-11343809D01*
X11728333Y-11343809D02*
X11728333Y-11391428D01*
X11728333Y-11391428D02*
X11718810Y-11410476D01*
X11718810Y-11410476D02*
X11709286Y-11420000D01*
X11709286Y-11420000D02*
X11690238Y-11429524D01*
X11690238Y-11429524D02*
X11633095Y-11429524D01*
X11633095Y-11429524D02*
X11614048Y-11420000D01*
X11614048Y-11420000D02*
X11604524Y-11410476D01*
X11795000Y-11229524D02*
X11918810Y-11229524D01*
X11918810Y-11229524D02*
X11852143Y-11305714D01*
X11852143Y-11305714D02*
X11880714Y-11305714D01*
X11880714Y-11305714D02*
X11899762Y-11315238D01*
X11899762Y-11315238D02*
X11909286Y-11324762D01*
X11909286Y-11324762D02*
X11918810Y-11343809D01*
X11918810Y-11343809D02*
X11918810Y-11391428D01*
X11918810Y-11391428D02*
X11909286Y-11410476D01*
X11909286Y-11410476D02*
X11899762Y-11420000D01*
X11899762Y-11420000D02*
X11880714Y-11429524D01*
X11880714Y-11429524D02*
X11823572Y-11429524D01*
X11823572Y-11429524D02*
X11804524Y-11420000D01*
X11804524Y-11420000D02*
X11795000Y-11410476D01*
X12099762Y-11229524D02*
X12004524Y-11229524D01*
X12004524Y-11229524D02*
X11995000Y-11324762D01*
X11995000Y-11324762D02*
X12004524Y-11315238D01*
X12004524Y-11315238D02*
X12023572Y-11305714D01*
X12023572Y-11305714D02*
X12071191Y-11305714D01*
X12071191Y-11305714D02*
X12090238Y-11315238D01*
X12090238Y-11315238D02*
X12099762Y-11324762D01*
X12099762Y-11324762D02*
X12109286Y-11343809D01*
X12109286Y-11343809D02*
X12109286Y-11391428D01*
X12109286Y-11391428D02*
X12099762Y-11410476D01*
X12099762Y-11410476D02*
X12090238Y-11420000D01*
X12090238Y-11420000D02*
X12071191Y-11429524D01*
X12071191Y-11429524D02*
X12023572Y-11429524D01*
X12023572Y-11429524D02*
X12004524Y-11420000D01*
X12004524Y-11420000D02*
X11995000Y-11410476D01*
X12185476Y-11229524D02*
X12185476Y-11267619D01*
X12261667Y-11229524D02*
X12261667Y-11267619D01*
X12556905Y-11505714D02*
X12547381Y-11496190D01*
X12547381Y-11496190D02*
X12528334Y-11467619D01*
X12528334Y-11467619D02*
X12518810Y-11448571D01*
X12518810Y-11448571D02*
X12509286Y-11420000D01*
X12509286Y-11420000D02*
X12499762Y-11372381D01*
X12499762Y-11372381D02*
X12499762Y-11334286D01*
X12499762Y-11334286D02*
X12509286Y-11286667D01*
X12509286Y-11286667D02*
X12518810Y-11258095D01*
X12518810Y-11258095D02*
X12528334Y-11239048D01*
X12528334Y-11239048D02*
X12547381Y-11210476D01*
X12547381Y-11210476D02*
X12556905Y-11200952D01*
X12623572Y-11248571D02*
X12633095Y-11239048D01*
X12633095Y-11239048D02*
X12652143Y-11229524D01*
X12652143Y-11229524D02*
X12699762Y-11229524D01*
X12699762Y-11229524D02*
X12718810Y-11239048D01*
X12718810Y-11239048D02*
X12728334Y-11248571D01*
X12728334Y-11248571D02*
X12737857Y-11267619D01*
X12737857Y-11267619D02*
X12737857Y-11286667D01*
X12737857Y-11286667D02*
X12728334Y-11315238D01*
X12728334Y-11315238D02*
X12614048Y-11429524D01*
X12614048Y-11429524D02*
X12737857Y-11429524D01*
X12975953Y-11429524D02*
X12975953Y-11229524D01*
X13061667Y-11429524D02*
X13061667Y-11324762D01*
X13061667Y-11324762D02*
X13052143Y-11305714D01*
X13052143Y-11305714D02*
X13033096Y-11296190D01*
X13033096Y-11296190D02*
X13004524Y-11296190D01*
X13004524Y-11296190D02*
X12985476Y-11305714D01*
X12985476Y-11305714D02*
X12975953Y-11315238D01*
X13185476Y-11429524D02*
X13166429Y-11420000D01*
X13166429Y-11420000D02*
X13156905Y-11410476D01*
X13156905Y-11410476D02*
X13147381Y-11391428D01*
X13147381Y-11391428D02*
X13147381Y-11334286D01*
X13147381Y-11334286D02*
X13156905Y-11315238D01*
X13156905Y-11315238D02*
X13166429Y-11305714D01*
X13166429Y-11305714D02*
X13185476Y-11296190D01*
X13185476Y-11296190D02*
X13214048Y-11296190D01*
X13214048Y-11296190D02*
X13233096Y-11305714D01*
X13233096Y-11305714D02*
X13242619Y-11315238D01*
X13242619Y-11315238D02*
X13252143Y-11334286D01*
X13252143Y-11334286D02*
X13252143Y-11391428D01*
X13252143Y-11391428D02*
X13242619Y-11410476D01*
X13242619Y-11410476D02*
X13233096Y-11420000D01*
X13233096Y-11420000D02*
X13214048Y-11429524D01*
X13214048Y-11429524D02*
X13185476Y-11429524D01*
X13366429Y-11429524D02*
X13347381Y-11420000D01*
X13347381Y-11420000D02*
X13337857Y-11400952D01*
X13337857Y-11400952D02*
X13337857Y-11229524D01*
X13518810Y-11420000D02*
X13499762Y-11429524D01*
X13499762Y-11429524D02*
X13461667Y-11429524D01*
X13461667Y-11429524D02*
X13442619Y-11420000D01*
X13442619Y-11420000D02*
X13433096Y-11400952D01*
X13433096Y-11400952D02*
X13433096Y-11324762D01*
X13433096Y-11324762D02*
X13442619Y-11305714D01*
X13442619Y-11305714D02*
X13461667Y-11296190D01*
X13461667Y-11296190D02*
X13499762Y-11296190D01*
X13499762Y-11296190D02*
X13518810Y-11305714D01*
X13518810Y-11305714D02*
X13528334Y-11324762D01*
X13528334Y-11324762D02*
X13528334Y-11343809D01*
X13528334Y-11343809D02*
X13433096Y-11362857D01*
X13604524Y-11420000D02*
X13623572Y-11429524D01*
X13623572Y-11429524D02*
X13661667Y-11429524D01*
X13661667Y-11429524D02*
X13680715Y-11420000D01*
X13680715Y-11420000D02*
X13690238Y-11400952D01*
X13690238Y-11400952D02*
X13690238Y-11391428D01*
X13690238Y-11391428D02*
X13680715Y-11372381D01*
X13680715Y-11372381D02*
X13661667Y-11362857D01*
X13661667Y-11362857D02*
X13633096Y-11362857D01*
X13633096Y-11362857D02*
X13614048Y-11353333D01*
X13614048Y-11353333D02*
X13604524Y-11334286D01*
X13604524Y-11334286D02*
X13604524Y-11324762D01*
X13604524Y-11324762D02*
X13614048Y-11305714D01*
X13614048Y-11305714D02*
X13633096Y-11296190D01*
X13633096Y-11296190D02*
X13661667Y-11296190D01*
X13661667Y-11296190D02*
X13680715Y-11305714D01*
X13756905Y-11505714D02*
X13766429Y-11496190D01*
X13766429Y-11496190D02*
X13785477Y-11467619D01*
X13785477Y-11467619D02*
X13795000Y-11448571D01*
X13795000Y-11448571D02*
X13804524Y-11420000D01*
X13804524Y-11420000D02*
X13814048Y-11372381D01*
X13814048Y-11372381D02*
X13814048Y-11334286D01*
X13814048Y-11334286D02*
X13804524Y-11286667D01*
X13804524Y-11286667D02*
X13795000Y-11258095D01*
X13795000Y-11258095D02*
X13785477Y-11239048D01*
X13785477Y-11239048D02*
X13766429Y-11210476D01*
X13766429Y-11210476D02*
X13756905Y-11200952D01*
D10*
X8945000Y-11651000D02*
X8995000Y-11601000D01*
X8945000Y-11551000D01*
X8895000Y-11601000D01*
X8945000Y-11651000D01*
D11*
X9347381Y-11693524D02*
X9233095Y-11693524D01*
X9290238Y-11693524D02*
X9290238Y-11493524D01*
X9290238Y-11493524D02*
X9271190Y-11522095D01*
X9271190Y-11522095D02*
X9252143Y-11541143D01*
X9252143Y-11541143D02*
X9233095Y-11550667D01*
X9433095Y-11674476D02*
X9442619Y-11684000D01*
X9442619Y-11684000D02*
X9433095Y-11693524D01*
X9433095Y-11693524D02*
X9423571Y-11684000D01*
X9423571Y-11684000D02*
X9433095Y-11674476D01*
X9433095Y-11674476D02*
X9433095Y-11693524D01*
X9566429Y-11493524D02*
X9585476Y-11493524D01*
X9585476Y-11493524D02*
X9604524Y-11503048D01*
X9604524Y-11503048D02*
X9614048Y-11512571D01*
X9614048Y-11512571D02*
X9623571Y-11531619D01*
X9623571Y-11531619D02*
X9633095Y-11569714D01*
X9633095Y-11569714D02*
X9633095Y-11617333D01*
X9633095Y-11617333D02*
X9623571Y-11655428D01*
X9623571Y-11655428D02*
X9614048Y-11674476D01*
X9614048Y-11674476D02*
X9604524Y-11684000D01*
X9604524Y-11684000D02*
X9585476Y-11693524D01*
X9585476Y-11693524D02*
X9566429Y-11693524D01*
X9566429Y-11693524D02*
X9547381Y-11684000D01*
X9547381Y-11684000D02*
X9537857Y-11674476D01*
X9537857Y-11674476D02*
X9528333Y-11655428D01*
X9528333Y-11655428D02*
X9518810Y-11617333D01*
X9518810Y-11617333D02*
X9518810Y-11569714D01*
X9518810Y-11569714D02*
X9528333Y-11531619D01*
X9528333Y-11531619D02*
X9537857Y-11512571D01*
X9537857Y-11512571D02*
X9547381Y-11503048D01*
X9547381Y-11503048D02*
X9566429Y-11493524D01*
X9756905Y-11493524D02*
X9775952Y-11493524D01*
X9775952Y-11493524D02*
X9795000Y-11503048D01*
X9795000Y-11503048D02*
X9804524Y-11512571D01*
X9804524Y-11512571D02*
X9814048Y-11531619D01*
X9814048Y-11531619D02*
X9823571Y-11569714D01*
X9823571Y-11569714D02*
X9823571Y-11617333D01*
X9823571Y-11617333D02*
X9814048Y-11655428D01*
X9814048Y-11655428D02*
X9804524Y-11674476D01*
X9804524Y-11674476D02*
X9795000Y-11684000D01*
X9795000Y-11684000D02*
X9775952Y-11693524D01*
X9775952Y-11693524D02*
X9756905Y-11693524D01*
X9756905Y-11693524D02*
X9737857Y-11684000D01*
X9737857Y-11684000D02*
X9728333Y-11674476D01*
X9728333Y-11674476D02*
X9718810Y-11655428D01*
X9718810Y-11655428D02*
X9709286Y-11617333D01*
X9709286Y-11617333D02*
X9709286Y-11569714D01*
X9709286Y-11569714D02*
X9718810Y-11531619D01*
X9718810Y-11531619D02*
X9728333Y-11512571D01*
X9728333Y-11512571D02*
X9737857Y-11503048D01*
X9737857Y-11503048D02*
X9756905Y-11493524D01*
X9947381Y-11493524D02*
X9966429Y-11493524D01*
X9966429Y-11493524D02*
X9985476Y-11503048D01*
X9985476Y-11503048D02*
X9995000Y-11512571D01*
X9995000Y-11512571D02*
X10004524Y-11531619D01*
X10004524Y-11531619D02*
X10014048Y-11569714D01*
X10014048Y-11569714D02*
X10014048Y-11617333D01*
X10014048Y-11617333D02*
X10004524Y-11655428D01*
X10004524Y-11655428D02*
X9995000Y-11674476D01*
X9995000Y-11674476D02*
X9985476Y-11684000D01*
X9985476Y-11684000D02*
X9966429Y-11693524D01*
X9966429Y-11693524D02*
X9947381Y-11693524D01*
X9947381Y-11693524D02*
X9928333Y-11684000D01*
X9928333Y-11684000D02*
X9918810Y-11674476D01*
X9918810Y-11674476D02*
X9909286Y-11655428D01*
X9909286Y-11655428D02*
X9899762Y-11617333D01*
X9899762Y-11617333D02*
X9899762Y-11569714D01*
X9899762Y-11569714D02*
X9909286Y-11531619D01*
X9909286Y-11531619D02*
X9918810Y-11512571D01*
X9918810Y-11512571D02*
X9928333Y-11503048D01*
X9928333Y-11503048D02*
X9947381Y-11493524D01*
X10099762Y-11693524D02*
X10099762Y-11560190D01*
X10099762Y-11579238D02*
X10109286Y-11569714D01*
X10109286Y-11569714D02*
X10128333Y-11560190D01*
X10128333Y-11560190D02*
X10156905Y-11560190D01*
X10156905Y-11560190D02*
X10175952Y-11569714D01*
X10175952Y-11569714D02*
X10185476Y-11588762D01*
X10185476Y-11588762D02*
X10185476Y-11693524D01*
X10185476Y-11588762D02*
X10195000Y-11569714D01*
X10195000Y-11569714D02*
X10214048Y-11560190D01*
X10214048Y-11560190D02*
X10242619Y-11560190D01*
X10242619Y-11560190D02*
X10261667Y-11569714D01*
X10261667Y-11569714D02*
X10271191Y-11588762D01*
X10271191Y-11588762D02*
X10271191Y-11693524D01*
X10366429Y-11693524D02*
X10366429Y-11560190D01*
X10366429Y-11579238D02*
X10375952Y-11569714D01*
X10375952Y-11569714D02*
X10395000Y-11560190D01*
X10395000Y-11560190D02*
X10423572Y-11560190D01*
X10423572Y-11560190D02*
X10442619Y-11569714D01*
X10442619Y-11569714D02*
X10452143Y-11588762D01*
X10452143Y-11588762D02*
X10452143Y-11693524D01*
X10452143Y-11588762D02*
X10461667Y-11569714D01*
X10461667Y-11569714D02*
X10480714Y-11560190D01*
X10480714Y-11560190D02*
X10509286Y-11560190D01*
X10509286Y-11560190D02*
X10528333Y-11569714D01*
X10528333Y-11569714D02*
X10537857Y-11588762D01*
X10537857Y-11588762D02*
X10537857Y-11693524D01*
X10928333Y-11484000D02*
X10756905Y-11741143D01*
X11185476Y-11493524D02*
X11204524Y-11493524D01*
X11204524Y-11493524D02*
X11223572Y-11503048D01*
X11223572Y-11503048D02*
X11233095Y-11512571D01*
X11233095Y-11512571D02*
X11242619Y-11531619D01*
X11242619Y-11531619D02*
X11252143Y-11569714D01*
X11252143Y-11569714D02*
X11252143Y-11617333D01*
X11252143Y-11617333D02*
X11242619Y-11655428D01*
X11242619Y-11655428D02*
X11233095Y-11674476D01*
X11233095Y-11674476D02*
X11223572Y-11684000D01*
X11223572Y-11684000D02*
X11204524Y-11693524D01*
X11204524Y-11693524D02*
X11185476Y-11693524D01*
X11185476Y-11693524D02*
X11166429Y-11684000D01*
X11166429Y-11684000D02*
X11156905Y-11674476D01*
X11156905Y-11674476D02*
X11147381Y-11655428D01*
X11147381Y-11655428D02*
X11137857Y-11617333D01*
X11137857Y-11617333D02*
X11137857Y-11569714D01*
X11137857Y-11569714D02*
X11147381Y-11531619D01*
X11147381Y-11531619D02*
X11156905Y-11512571D01*
X11156905Y-11512571D02*
X11166429Y-11503048D01*
X11166429Y-11503048D02*
X11185476Y-11493524D01*
X11337857Y-11674476D02*
X11347381Y-11684000D01*
X11347381Y-11684000D02*
X11337857Y-11693524D01*
X11337857Y-11693524D02*
X11328333Y-11684000D01*
X11328333Y-11684000D02*
X11337857Y-11674476D01*
X11337857Y-11674476D02*
X11337857Y-11693524D01*
X11471191Y-11493524D02*
X11490238Y-11493524D01*
X11490238Y-11493524D02*
X11509286Y-11503048D01*
X11509286Y-11503048D02*
X11518810Y-11512571D01*
X11518810Y-11512571D02*
X11528333Y-11531619D01*
X11528333Y-11531619D02*
X11537857Y-11569714D01*
X11537857Y-11569714D02*
X11537857Y-11617333D01*
X11537857Y-11617333D02*
X11528333Y-11655428D01*
X11528333Y-11655428D02*
X11518810Y-11674476D01*
X11518810Y-11674476D02*
X11509286Y-11684000D01*
X11509286Y-11684000D02*
X11490238Y-11693524D01*
X11490238Y-11693524D02*
X11471191Y-11693524D01*
X11471191Y-11693524D02*
X11452143Y-11684000D01*
X11452143Y-11684000D02*
X11442619Y-11674476D01*
X11442619Y-11674476D02*
X11433095Y-11655428D01*
X11433095Y-11655428D02*
X11423572Y-11617333D01*
X11423572Y-11617333D02*
X11423572Y-11569714D01*
X11423572Y-11569714D02*
X11433095Y-11531619D01*
X11433095Y-11531619D02*
X11442619Y-11512571D01*
X11442619Y-11512571D02*
X11452143Y-11503048D01*
X11452143Y-11503048D02*
X11471191Y-11493524D01*
X11604524Y-11493524D02*
X11728333Y-11493524D01*
X11728333Y-11493524D02*
X11661667Y-11569714D01*
X11661667Y-11569714D02*
X11690238Y-11569714D01*
X11690238Y-11569714D02*
X11709286Y-11579238D01*
X11709286Y-11579238D02*
X11718810Y-11588762D01*
X11718810Y-11588762D02*
X11728333Y-11607809D01*
X11728333Y-11607809D02*
X11728333Y-11655428D01*
X11728333Y-11655428D02*
X11718810Y-11674476D01*
X11718810Y-11674476D02*
X11709286Y-11684000D01*
X11709286Y-11684000D02*
X11690238Y-11693524D01*
X11690238Y-11693524D02*
X11633095Y-11693524D01*
X11633095Y-11693524D02*
X11614048Y-11684000D01*
X11614048Y-11684000D02*
X11604524Y-11674476D01*
X11823572Y-11693524D02*
X11861667Y-11693524D01*
X11861667Y-11693524D02*
X11880714Y-11684000D01*
X11880714Y-11684000D02*
X11890238Y-11674476D01*
X11890238Y-11674476D02*
X11909286Y-11645905D01*
X11909286Y-11645905D02*
X11918810Y-11607809D01*
X11918810Y-11607809D02*
X11918810Y-11531619D01*
X11918810Y-11531619D02*
X11909286Y-11512571D01*
X11909286Y-11512571D02*
X11899762Y-11503048D01*
X11899762Y-11503048D02*
X11880714Y-11493524D01*
X11880714Y-11493524D02*
X11842619Y-11493524D01*
X11842619Y-11493524D02*
X11823572Y-11503048D01*
X11823572Y-11503048D02*
X11814048Y-11512571D01*
X11814048Y-11512571D02*
X11804524Y-11531619D01*
X11804524Y-11531619D02*
X11804524Y-11579238D01*
X11804524Y-11579238D02*
X11814048Y-11598286D01*
X11814048Y-11598286D02*
X11823572Y-11607809D01*
X11823572Y-11607809D02*
X11842619Y-11617333D01*
X11842619Y-11617333D02*
X11880714Y-11617333D01*
X11880714Y-11617333D02*
X11899762Y-11607809D01*
X11899762Y-11607809D02*
X11909286Y-11598286D01*
X11909286Y-11598286D02*
X11918810Y-11579238D01*
X12090238Y-11560190D02*
X12090238Y-11693524D01*
X12042619Y-11484000D02*
X11995000Y-11626857D01*
X11995000Y-11626857D02*
X12118810Y-11626857D01*
X12185476Y-11493524D02*
X12185476Y-11531619D01*
X12261667Y-11493524D02*
X12261667Y-11531619D01*
X12556905Y-11769714D02*
X12547381Y-11760190D01*
X12547381Y-11760190D02*
X12528334Y-11731619D01*
X12528334Y-11731619D02*
X12518810Y-11712571D01*
X12518810Y-11712571D02*
X12509286Y-11684000D01*
X12509286Y-11684000D02*
X12499762Y-11636381D01*
X12499762Y-11636381D02*
X12499762Y-11598286D01*
X12499762Y-11598286D02*
X12509286Y-11550667D01*
X12509286Y-11550667D02*
X12518810Y-11522095D01*
X12518810Y-11522095D02*
X12528334Y-11503048D01*
X12528334Y-11503048D02*
X12547381Y-11474476D01*
X12547381Y-11474476D02*
X12556905Y-11464952D01*
X12718810Y-11493524D02*
X12680714Y-11493524D01*
X12680714Y-11493524D02*
X12661667Y-11503048D01*
X12661667Y-11503048D02*
X12652143Y-11512571D01*
X12652143Y-11512571D02*
X12633095Y-11541143D01*
X12633095Y-11541143D02*
X12623572Y-11579238D01*
X12623572Y-11579238D02*
X12623572Y-11655428D01*
X12623572Y-11655428D02*
X12633095Y-11674476D01*
X12633095Y-11674476D02*
X12642619Y-11684000D01*
X12642619Y-11684000D02*
X12661667Y-11693524D01*
X12661667Y-11693524D02*
X12699762Y-11693524D01*
X12699762Y-11693524D02*
X12718810Y-11684000D01*
X12718810Y-11684000D02*
X12728334Y-11674476D01*
X12728334Y-11674476D02*
X12737857Y-11655428D01*
X12737857Y-11655428D02*
X12737857Y-11607809D01*
X12737857Y-11607809D02*
X12728334Y-11588762D01*
X12728334Y-11588762D02*
X12718810Y-11579238D01*
X12718810Y-11579238D02*
X12699762Y-11569714D01*
X12699762Y-11569714D02*
X12661667Y-11569714D01*
X12661667Y-11569714D02*
X12642619Y-11579238D01*
X12642619Y-11579238D02*
X12633095Y-11588762D01*
X12633095Y-11588762D02*
X12623572Y-11607809D01*
X12975953Y-11693524D02*
X12975953Y-11493524D01*
X13061667Y-11693524D02*
X13061667Y-11588762D01*
X13061667Y-11588762D02*
X13052143Y-11569714D01*
X13052143Y-11569714D02*
X13033096Y-11560190D01*
X13033096Y-11560190D02*
X13004524Y-11560190D01*
X13004524Y-11560190D02*
X12985476Y-11569714D01*
X12985476Y-11569714D02*
X12975953Y-11579238D01*
X13185476Y-11693524D02*
X13166429Y-11684000D01*
X13166429Y-11684000D02*
X13156905Y-11674476D01*
X13156905Y-11674476D02*
X13147381Y-11655428D01*
X13147381Y-11655428D02*
X13147381Y-11598286D01*
X13147381Y-11598286D02*
X13156905Y-11579238D01*
X13156905Y-11579238D02*
X13166429Y-11569714D01*
X13166429Y-11569714D02*
X13185476Y-11560190D01*
X13185476Y-11560190D02*
X13214048Y-11560190D01*
X13214048Y-11560190D02*
X13233096Y-11569714D01*
X13233096Y-11569714D02*
X13242619Y-11579238D01*
X13242619Y-11579238D02*
X13252143Y-11598286D01*
X13252143Y-11598286D02*
X13252143Y-11655428D01*
X13252143Y-11655428D02*
X13242619Y-11674476D01*
X13242619Y-11674476D02*
X13233096Y-11684000D01*
X13233096Y-11684000D02*
X13214048Y-11693524D01*
X13214048Y-11693524D02*
X13185476Y-11693524D01*
X13366429Y-11693524D02*
X13347381Y-11684000D01*
X13347381Y-11684000D02*
X13337857Y-11664952D01*
X13337857Y-11664952D02*
X13337857Y-11493524D01*
X13518810Y-11684000D02*
X13499762Y-11693524D01*
X13499762Y-11693524D02*
X13461667Y-11693524D01*
X13461667Y-11693524D02*
X13442619Y-11684000D01*
X13442619Y-11684000D02*
X13433096Y-11664952D01*
X13433096Y-11664952D02*
X13433096Y-11588762D01*
X13433096Y-11588762D02*
X13442619Y-11569714D01*
X13442619Y-11569714D02*
X13461667Y-11560190D01*
X13461667Y-11560190D02*
X13499762Y-11560190D01*
X13499762Y-11560190D02*
X13518810Y-11569714D01*
X13518810Y-11569714D02*
X13528334Y-11588762D01*
X13528334Y-11588762D02*
X13528334Y-11607809D01*
X13528334Y-11607809D02*
X13433096Y-11626857D01*
X13604524Y-11684000D02*
X13623572Y-11693524D01*
X13623572Y-11693524D02*
X13661667Y-11693524D01*
X13661667Y-11693524D02*
X13680715Y-11684000D01*
X13680715Y-11684000D02*
X13690238Y-11664952D01*
X13690238Y-11664952D02*
X13690238Y-11655428D01*
X13690238Y-11655428D02*
X13680715Y-11636381D01*
X13680715Y-11636381D02*
X13661667Y-11626857D01*
X13661667Y-11626857D02*
X13633096Y-11626857D01*
X13633096Y-11626857D02*
X13614048Y-11617333D01*
X13614048Y-11617333D02*
X13604524Y-11598286D01*
X13604524Y-11598286D02*
X13604524Y-11588762D01*
X13604524Y-11588762D02*
X13614048Y-11569714D01*
X13614048Y-11569714D02*
X13633096Y-11560190D01*
X13633096Y-11560190D02*
X13661667Y-11560190D01*
X13661667Y-11560190D02*
X13680715Y-11569714D01*
X13756905Y-11769714D02*
X13766429Y-11760190D01*
X13766429Y-11760190D02*
X13785477Y-11731619D01*
X13785477Y-11731619D02*
X13795000Y-11712571D01*
X13795000Y-11712571D02*
X13804524Y-11684000D01*
X13804524Y-11684000D02*
X13814048Y-11636381D01*
X13814048Y-11636381D02*
X13814048Y-11598286D01*
X13814048Y-11598286D02*
X13804524Y-11550667D01*
X13804524Y-11550667D02*
X13795000Y-11522095D01*
X13795000Y-11522095D02*
X13785477Y-11503048D01*
X13785477Y-11503048D02*
X13766429Y-11474476D01*
X13766429Y-11474476D02*
X13756905Y-11464952D01*
D16*
X8893000Y-11814000D02*
X8995000Y-11916000D01*
X8995000Y-11814000D02*
X8893000Y-11916000D01*
X8995000Y-11865000D02*
G75*
G03*
X8995000Y-11865000I-51000J0D01*
G01*
D11*
X9347381Y-11957524D02*
X9233095Y-11957524D01*
X9290238Y-11957524D02*
X9290238Y-11757524D01*
X9290238Y-11757524D02*
X9271190Y-11786095D01*
X9271190Y-11786095D02*
X9252143Y-11805143D01*
X9252143Y-11805143D02*
X9233095Y-11814667D01*
X9433095Y-11938476D02*
X9442619Y-11948000D01*
X9442619Y-11948000D02*
X9433095Y-11957524D01*
X9433095Y-11957524D02*
X9423571Y-11948000D01*
X9423571Y-11948000D02*
X9433095Y-11938476D01*
X9433095Y-11938476D02*
X9433095Y-11957524D01*
X9566429Y-11757524D02*
X9585476Y-11757524D01*
X9585476Y-11757524D02*
X9604524Y-11767048D01*
X9604524Y-11767048D02*
X9614048Y-11776571D01*
X9614048Y-11776571D02*
X9623571Y-11795619D01*
X9623571Y-11795619D02*
X9633095Y-11833714D01*
X9633095Y-11833714D02*
X9633095Y-11881333D01*
X9633095Y-11881333D02*
X9623571Y-11919428D01*
X9623571Y-11919428D02*
X9614048Y-11938476D01*
X9614048Y-11938476D02*
X9604524Y-11948000D01*
X9604524Y-11948000D02*
X9585476Y-11957524D01*
X9585476Y-11957524D02*
X9566429Y-11957524D01*
X9566429Y-11957524D02*
X9547381Y-11948000D01*
X9547381Y-11948000D02*
X9537857Y-11938476D01*
X9537857Y-11938476D02*
X9528333Y-11919428D01*
X9528333Y-11919428D02*
X9518810Y-11881333D01*
X9518810Y-11881333D02*
X9518810Y-11833714D01*
X9518810Y-11833714D02*
X9528333Y-11795619D01*
X9528333Y-11795619D02*
X9537857Y-11776571D01*
X9537857Y-11776571D02*
X9547381Y-11767048D01*
X9547381Y-11767048D02*
X9566429Y-11757524D01*
X9709286Y-11776571D02*
X9718810Y-11767048D01*
X9718810Y-11767048D02*
X9737857Y-11757524D01*
X9737857Y-11757524D02*
X9785476Y-11757524D01*
X9785476Y-11757524D02*
X9804524Y-11767048D01*
X9804524Y-11767048D02*
X9814048Y-11776571D01*
X9814048Y-11776571D02*
X9823571Y-11795619D01*
X9823571Y-11795619D02*
X9823571Y-11814667D01*
X9823571Y-11814667D02*
X9814048Y-11843238D01*
X9814048Y-11843238D02*
X9699762Y-11957524D01*
X9699762Y-11957524D02*
X9823571Y-11957524D01*
X9947381Y-11757524D02*
X9966429Y-11757524D01*
X9966429Y-11757524D02*
X9985476Y-11767048D01*
X9985476Y-11767048D02*
X9995000Y-11776571D01*
X9995000Y-11776571D02*
X10004524Y-11795619D01*
X10004524Y-11795619D02*
X10014048Y-11833714D01*
X10014048Y-11833714D02*
X10014048Y-11881333D01*
X10014048Y-11881333D02*
X10004524Y-11919428D01*
X10004524Y-11919428D02*
X9995000Y-11938476D01*
X9995000Y-11938476D02*
X9985476Y-11948000D01*
X9985476Y-11948000D02*
X9966429Y-11957524D01*
X9966429Y-11957524D02*
X9947381Y-11957524D01*
X9947381Y-11957524D02*
X9928333Y-11948000D01*
X9928333Y-11948000D02*
X9918810Y-11938476D01*
X9918810Y-11938476D02*
X9909286Y-11919428D01*
X9909286Y-11919428D02*
X9899762Y-11881333D01*
X9899762Y-11881333D02*
X9899762Y-11833714D01*
X9899762Y-11833714D02*
X9909286Y-11795619D01*
X9909286Y-11795619D02*
X9918810Y-11776571D01*
X9918810Y-11776571D02*
X9928333Y-11767048D01*
X9928333Y-11767048D02*
X9947381Y-11757524D01*
X10099762Y-11957524D02*
X10099762Y-11824190D01*
X10099762Y-11843238D02*
X10109286Y-11833714D01*
X10109286Y-11833714D02*
X10128333Y-11824190D01*
X10128333Y-11824190D02*
X10156905Y-11824190D01*
X10156905Y-11824190D02*
X10175952Y-11833714D01*
X10175952Y-11833714D02*
X10185476Y-11852762D01*
X10185476Y-11852762D02*
X10185476Y-11957524D01*
X10185476Y-11852762D02*
X10195000Y-11833714D01*
X10195000Y-11833714D02*
X10214048Y-11824190D01*
X10214048Y-11824190D02*
X10242619Y-11824190D01*
X10242619Y-11824190D02*
X10261667Y-11833714D01*
X10261667Y-11833714D02*
X10271191Y-11852762D01*
X10271191Y-11852762D02*
X10271191Y-11957524D01*
X10366429Y-11957524D02*
X10366429Y-11824190D01*
X10366429Y-11843238D02*
X10375952Y-11833714D01*
X10375952Y-11833714D02*
X10395000Y-11824190D01*
X10395000Y-11824190D02*
X10423572Y-11824190D01*
X10423572Y-11824190D02*
X10442619Y-11833714D01*
X10442619Y-11833714D02*
X10452143Y-11852762D01*
X10452143Y-11852762D02*
X10452143Y-11957524D01*
X10452143Y-11852762D02*
X10461667Y-11833714D01*
X10461667Y-11833714D02*
X10480714Y-11824190D01*
X10480714Y-11824190D02*
X10509286Y-11824190D01*
X10509286Y-11824190D02*
X10528333Y-11833714D01*
X10528333Y-11833714D02*
X10537857Y-11852762D01*
X10537857Y-11852762D02*
X10537857Y-11957524D01*
X10928333Y-11748000D02*
X10756905Y-12005143D01*
X11185476Y-11757524D02*
X11204524Y-11757524D01*
X11204524Y-11757524D02*
X11223572Y-11767048D01*
X11223572Y-11767048D02*
X11233095Y-11776571D01*
X11233095Y-11776571D02*
X11242619Y-11795619D01*
X11242619Y-11795619D02*
X11252143Y-11833714D01*
X11252143Y-11833714D02*
X11252143Y-11881333D01*
X11252143Y-11881333D02*
X11242619Y-11919428D01*
X11242619Y-11919428D02*
X11233095Y-11938476D01*
X11233095Y-11938476D02*
X11223572Y-11948000D01*
X11223572Y-11948000D02*
X11204524Y-11957524D01*
X11204524Y-11957524D02*
X11185476Y-11957524D01*
X11185476Y-11957524D02*
X11166429Y-11948000D01*
X11166429Y-11948000D02*
X11156905Y-11938476D01*
X11156905Y-11938476D02*
X11147381Y-11919428D01*
X11147381Y-11919428D02*
X11137857Y-11881333D01*
X11137857Y-11881333D02*
X11137857Y-11833714D01*
X11137857Y-11833714D02*
X11147381Y-11795619D01*
X11147381Y-11795619D02*
X11156905Y-11776571D01*
X11156905Y-11776571D02*
X11166429Y-11767048D01*
X11166429Y-11767048D02*
X11185476Y-11757524D01*
X11337857Y-11938476D02*
X11347381Y-11948000D01*
X11347381Y-11948000D02*
X11337857Y-11957524D01*
X11337857Y-11957524D02*
X11328333Y-11948000D01*
X11328333Y-11948000D02*
X11337857Y-11938476D01*
X11337857Y-11938476D02*
X11337857Y-11957524D01*
X11471191Y-11757524D02*
X11490238Y-11757524D01*
X11490238Y-11757524D02*
X11509286Y-11767048D01*
X11509286Y-11767048D02*
X11518810Y-11776571D01*
X11518810Y-11776571D02*
X11528333Y-11795619D01*
X11528333Y-11795619D02*
X11537857Y-11833714D01*
X11537857Y-11833714D02*
X11537857Y-11881333D01*
X11537857Y-11881333D02*
X11528333Y-11919428D01*
X11528333Y-11919428D02*
X11518810Y-11938476D01*
X11518810Y-11938476D02*
X11509286Y-11948000D01*
X11509286Y-11948000D02*
X11490238Y-11957524D01*
X11490238Y-11957524D02*
X11471191Y-11957524D01*
X11471191Y-11957524D02*
X11452143Y-11948000D01*
X11452143Y-11948000D02*
X11442619Y-11938476D01*
X11442619Y-11938476D02*
X11433095Y-11919428D01*
X11433095Y-11919428D02*
X11423572Y-11881333D01*
X11423572Y-11881333D02*
X11423572Y-11833714D01*
X11423572Y-11833714D02*
X11433095Y-11795619D01*
X11433095Y-11795619D02*
X11442619Y-11776571D01*
X11442619Y-11776571D02*
X11452143Y-11767048D01*
X11452143Y-11767048D02*
X11471191Y-11757524D01*
X11709286Y-11824190D02*
X11709286Y-11957524D01*
X11661667Y-11748000D02*
X11614048Y-11890857D01*
X11614048Y-11890857D02*
X11737857Y-11890857D01*
X11852143Y-11757524D02*
X11871191Y-11757524D01*
X11871191Y-11757524D02*
X11890238Y-11767048D01*
X11890238Y-11767048D02*
X11899762Y-11776571D01*
X11899762Y-11776571D02*
X11909286Y-11795619D01*
X11909286Y-11795619D02*
X11918810Y-11833714D01*
X11918810Y-11833714D02*
X11918810Y-11881333D01*
X11918810Y-11881333D02*
X11909286Y-11919428D01*
X11909286Y-11919428D02*
X11899762Y-11938476D01*
X11899762Y-11938476D02*
X11890238Y-11948000D01*
X11890238Y-11948000D02*
X11871191Y-11957524D01*
X11871191Y-11957524D02*
X11852143Y-11957524D01*
X11852143Y-11957524D02*
X11833095Y-11948000D01*
X11833095Y-11948000D02*
X11823572Y-11938476D01*
X11823572Y-11938476D02*
X11814048Y-11919428D01*
X11814048Y-11919428D02*
X11804524Y-11881333D01*
X11804524Y-11881333D02*
X11804524Y-11833714D01*
X11804524Y-11833714D02*
X11814048Y-11795619D01*
X11814048Y-11795619D02*
X11823572Y-11776571D01*
X11823572Y-11776571D02*
X11833095Y-11767048D01*
X11833095Y-11767048D02*
X11852143Y-11757524D01*
X11995000Y-11776571D02*
X12004524Y-11767048D01*
X12004524Y-11767048D02*
X12023572Y-11757524D01*
X12023572Y-11757524D02*
X12071191Y-11757524D01*
X12071191Y-11757524D02*
X12090238Y-11767048D01*
X12090238Y-11767048D02*
X12099762Y-11776571D01*
X12099762Y-11776571D02*
X12109286Y-11795619D01*
X12109286Y-11795619D02*
X12109286Y-11814667D01*
X12109286Y-11814667D02*
X12099762Y-11843238D01*
X12099762Y-11843238D02*
X11985476Y-11957524D01*
X11985476Y-11957524D02*
X12109286Y-11957524D01*
X12185476Y-11757524D02*
X12185476Y-11795619D01*
X12261667Y-11757524D02*
X12261667Y-11795619D01*
X12556905Y-12033714D02*
X12547381Y-12024190D01*
X12547381Y-12024190D02*
X12528334Y-11995619D01*
X12528334Y-11995619D02*
X12518810Y-11976571D01*
X12518810Y-11976571D02*
X12509286Y-11948000D01*
X12509286Y-11948000D02*
X12499762Y-11900381D01*
X12499762Y-11900381D02*
X12499762Y-11862286D01*
X12499762Y-11862286D02*
X12509286Y-11814667D01*
X12509286Y-11814667D02*
X12518810Y-11786095D01*
X12518810Y-11786095D02*
X12528334Y-11767048D01*
X12528334Y-11767048D02*
X12547381Y-11738476D01*
X12547381Y-11738476D02*
X12556905Y-11728952D01*
X12737857Y-11957524D02*
X12623572Y-11957524D01*
X12680714Y-11957524D02*
X12680714Y-11757524D01*
X12680714Y-11757524D02*
X12661667Y-11786095D01*
X12661667Y-11786095D02*
X12642619Y-11805143D01*
X12642619Y-11805143D02*
X12623572Y-11814667D01*
X12909286Y-11824190D02*
X12909286Y-11957524D01*
X12861667Y-11748000D02*
X12814048Y-11890857D01*
X12814048Y-11890857D02*
X12937857Y-11890857D01*
X13166429Y-11957524D02*
X13166429Y-11757524D01*
X13252143Y-11957524D02*
X13252143Y-11852762D01*
X13252143Y-11852762D02*
X13242619Y-11833714D01*
X13242619Y-11833714D02*
X13223572Y-11824190D01*
X13223572Y-11824190D02*
X13195000Y-11824190D01*
X13195000Y-11824190D02*
X13175953Y-11833714D01*
X13175953Y-11833714D02*
X13166429Y-11843238D01*
X13375953Y-11957524D02*
X13356905Y-11948000D01*
X13356905Y-11948000D02*
X13347381Y-11938476D01*
X13347381Y-11938476D02*
X13337857Y-11919428D01*
X13337857Y-11919428D02*
X13337857Y-11862286D01*
X13337857Y-11862286D02*
X13347381Y-11843238D01*
X13347381Y-11843238D02*
X13356905Y-11833714D01*
X13356905Y-11833714D02*
X13375953Y-11824190D01*
X13375953Y-11824190D02*
X13404524Y-11824190D01*
X13404524Y-11824190D02*
X13423572Y-11833714D01*
X13423572Y-11833714D02*
X13433096Y-11843238D01*
X13433096Y-11843238D02*
X13442619Y-11862286D01*
X13442619Y-11862286D02*
X13442619Y-11919428D01*
X13442619Y-11919428D02*
X13433096Y-11938476D01*
X13433096Y-11938476D02*
X13423572Y-11948000D01*
X13423572Y-11948000D02*
X13404524Y-11957524D01*
X13404524Y-11957524D02*
X13375953Y-11957524D01*
X13556905Y-11957524D02*
X13537857Y-11948000D01*
X13537857Y-11948000D02*
X13528334Y-11928952D01*
X13528334Y-11928952D02*
X13528334Y-11757524D01*
X13709286Y-11948000D02*
X13690238Y-11957524D01*
X13690238Y-11957524D02*
X13652143Y-11957524D01*
X13652143Y-11957524D02*
X13633096Y-11948000D01*
X13633096Y-11948000D02*
X13623572Y-11928952D01*
X13623572Y-11928952D02*
X13623572Y-11852762D01*
X13623572Y-11852762D02*
X13633096Y-11833714D01*
X13633096Y-11833714D02*
X13652143Y-11824190D01*
X13652143Y-11824190D02*
X13690238Y-11824190D01*
X13690238Y-11824190D02*
X13709286Y-11833714D01*
X13709286Y-11833714D02*
X13718810Y-11852762D01*
X13718810Y-11852762D02*
X13718810Y-11871809D01*
X13718810Y-11871809D02*
X13623572Y-11890857D01*
X13795000Y-11948000D02*
X13814048Y-11957524D01*
X13814048Y-11957524D02*
X13852143Y-11957524D01*
X13852143Y-11957524D02*
X13871191Y-11948000D01*
X13871191Y-11948000D02*
X13880715Y-11928952D01*
X13880715Y-11928952D02*
X13880715Y-11919428D01*
X13880715Y-11919428D02*
X13871191Y-11900381D01*
X13871191Y-11900381D02*
X13852143Y-11890857D01*
X13852143Y-11890857D02*
X13823572Y-11890857D01*
X13823572Y-11890857D02*
X13804524Y-11881333D01*
X13804524Y-11881333D02*
X13795000Y-11862286D01*
X13795000Y-11862286D02*
X13795000Y-11852762D01*
X13795000Y-11852762D02*
X13804524Y-11833714D01*
X13804524Y-11833714D02*
X13823572Y-11824190D01*
X13823572Y-11824190D02*
X13852143Y-11824190D01*
X13852143Y-11824190D02*
X13871191Y-11833714D01*
X13947381Y-12033714D02*
X13956905Y-12024190D01*
X13956905Y-12024190D02*
X13975953Y-11995619D01*
X13975953Y-11995619D02*
X13985477Y-11976571D01*
X13985477Y-11976571D02*
X13995000Y-11948000D01*
X13995000Y-11948000D02*
X14004524Y-11900381D01*
X14004524Y-11900381D02*
X14004524Y-11862286D01*
X14004524Y-11862286D02*
X13995000Y-11814667D01*
X13995000Y-11814667D02*
X13985477Y-11786095D01*
X13985477Y-11786095D02*
X13975953Y-11767048D01*
X13975953Y-11767048D02*
X13956905Y-11738476D01*
X13956905Y-11738476D02*
X13947381Y-11728952D01*
D17*
X8880000Y-12071500D02*
X8995000Y-12186500D01*
X8995000Y-12071500D02*
X8880000Y-12186500D01*
X8937500Y-12071500D02*
X8937500Y-12186500D01*
X8880000Y-12129000D02*
X8995000Y-12129000D01*
D11*
X9347381Y-12221524D02*
X9233095Y-12221524D01*
X9290238Y-12221524D02*
X9290238Y-12021524D01*
X9290238Y-12021524D02*
X9271190Y-12050095D01*
X9271190Y-12050095D02*
X9252143Y-12069143D01*
X9252143Y-12069143D02*
X9233095Y-12078667D01*
X9433095Y-12202476D02*
X9442619Y-12212000D01*
X9442619Y-12212000D02*
X9433095Y-12221524D01*
X9433095Y-12221524D02*
X9423571Y-12212000D01*
X9423571Y-12212000D02*
X9433095Y-12202476D01*
X9433095Y-12202476D02*
X9433095Y-12221524D01*
X9633095Y-12221524D02*
X9518810Y-12221524D01*
X9575952Y-12221524D02*
X9575952Y-12021524D01*
X9575952Y-12021524D02*
X9556905Y-12050095D01*
X9556905Y-12050095D02*
X9537857Y-12069143D01*
X9537857Y-12069143D02*
X9518810Y-12078667D01*
X9814048Y-12021524D02*
X9718810Y-12021524D01*
X9718810Y-12021524D02*
X9709286Y-12116762D01*
X9709286Y-12116762D02*
X9718810Y-12107238D01*
X9718810Y-12107238D02*
X9737857Y-12097714D01*
X9737857Y-12097714D02*
X9785476Y-12097714D01*
X9785476Y-12097714D02*
X9804524Y-12107238D01*
X9804524Y-12107238D02*
X9814048Y-12116762D01*
X9814048Y-12116762D02*
X9823571Y-12135809D01*
X9823571Y-12135809D02*
X9823571Y-12183428D01*
X9823571Y-12183428D02*
X9814048Y-12202476D01*
X9814048Y-12202476D02*
X9804524Y-12212000D01*
X9804524Y-12212000D02*
X9785476Y-12221524D01*
X9785476Y-12221524D02*
X9737857Y-12221524D01*
X9737857Y-12221524D02*
X9718810Y-12212000D01*
X9718810Y-12212000D02*
X9709286Y-12202476D01*
X9947381Y-12021524D02*
X9966429Y-12021524D01*
X9966429Y-12021524D02*
X9985476Y-12031048D01*
X9985476Y-12031048D02*
X9995000Y-12040571D01*
X9995000Y-12040571D02*
X10004524Y-12059619D01*
X10004524Y-12059619D02*
X10014048Y-12097714D01*
X10014048Y-12097714D02*
X10014048Y-12145333D01*
X10014048Y-12145333D02*
X10004524Y-12183428D01*
X10004524Y-12183428D02*
X9995000Y-12202476D01*
X9995000Y-12202476D02*
X9985476Y-12212000D01*
X9985476Y-12212000D02*
X9966429Y-12221524D01*
X9966429Y-12221524D02*
X9947381Y-12221524D01*
X9947381Y-12221524D02*
X9928333Y-12212000D01*
X9928333Y-12212000D02*
X9918810Y-12202476D01*
X9918810Y-12202476D02*
X9909286Y-12183428D01*
X9909286Y-12183428D02*
X9899762Y-12145333D01*
X9899762Y-12145333D02*
X9899762Y-12097714D01*
X9899762Y-12097714D02*
X9909286Y-12059619D01*
X9909286Y-12059619D02*
X9918810Y-12040571D01*
X9918810Y-12040571D02*
X9928333Y-12031048D01*
X9928333Y-12031048D02*
X9947381Y-12021524D01*
X10099762Y-12221524D02*
X10099762Y-12088190D01*
X10099762Y-12107238D02*
X10109286Y-12097714D01*
X10109286Y-12097714D02*
X10128333Y-12088190D01*
X10128333Y-12088190D02*
X10156905Y-12088190D01*
X10156905Y-12088190D02*
X10175952Y-12097714D01*
X10175952Y-12097714D02*
X10185476Y-12116762D01*
X10185476Y-12116762D02*
X10185476Y-12221524D01*
X10185476Y-12116762D02*
X10195000Y-12097714D01*
X10195000Y-12097714D02*
X10214048Y-12088190D01*
X10214048Y-12088190D02*
X10242619Y-12088190D01*
X10242619Y-12088190D02*
X10261667Y-12097714D01*
X10261667Y-12097714D02*
X10271191Y-12116762D01*
X10271191Y-12116762D02*
X10271191Y-12221524D01*
X10366429Y-12221524D02*
X10366429Y-12088190D01*
X10366429Y-12107238D02*
X10375952Y-12097714D01*
X10375952Y-12097714D02*
X10395000Y-12088190D01*
X10395000Y-12088190D02*
X10423572Y-12088190D01*
X10423572Y-12088190D02*
X10442619Y-12097714D01*
X10442619Y-12097714D02*
X10452143Y-12116762D01*
X10452143Y-12116762D02*
X10452143Y-12221524D01*
X10452143Y-12116762D02*
X10461667Y-12097714D01*
X10461667Y-12097714D02*
X10480714Y-12088190D01*
X10480714Y-12088190D02*
X10509286Y-12088190D01*
X10509286Y-12088190D02*
X10528333Y-12097714D01*
X10528333Y-12097714D02*
X10537857Y-12116762D01*
X10537857Y-12116762D02*
X10537857Y-12221524D01*
X10928333Y-12012000D02*
X10756905Y-12269143D01*
X11185476Y-12021524D02*
X11204524Y-12021524D01*
X11204524Y-12021524D02*
X11223572Y-12031048D01*
X11223572Y-12031048D02*
X11233095Y-12040571D01*
X11233095Y-12040571D02*
X11242619Y-12059619D01*
X11242619Y-12059619D02*
X11252143Y-12097714D01*
X11252143Y-12097714D02*
X11252143Y-12145333D01*
X11252143Y-12145333D02*
X11242619Y-12183428D01*
X11242619Y-12183428D02*
X11233095Y-12202476D01*
X11233095Y-12202476D02*
X11223572Y-12212000D01*
X11223572Y-12212000D02*
X11204524Y-12221524D01*
X11204524Y-12221524D02*
X11185476Y-12221524D01*
X11185476Y-12221524D02*
X11166429Y-12212000D01*
X11166429Y-12212000D02*
X11156905Y-12202476D01*
X11156905Y-12202476D02*
X11147381Y-12183428D01*
X11147381Y-12183428D02*
X11137857Y-12145333D01*
X11137857Y-12145333D02*
X11137857Y-12097714D01*
X11137857Y-12097714D02*
X11147381Y-12059619D01*
X11147381Y-12059619D02*
X11156905Y-12040571D01*
X11156905Y-12040571D02*
X11166429Y-12031048D01*
X11166429Y-12031048D02*
X11185476Y-12021524D01*
X11337857Y-12202476D02*
X11347381Y-12212000D01*
X11347381Y-12212000D02*
X11337857Y-12221524D01*
X11337857Y-12221524D02*
X11328333Y-12212000D01*
X11328333Y-12212000D02*
X11337857Y-12202476D01*
X11337857Y-12202476D02*
X11337857Y-12221524D01*
X11471191Y-12021524D02*
X11490238Y-12021524D01*
X11490238Y-12021524D02*
X11509286Y-12031048D01*
X11509286Y-12031048D02*
X11518810Y-12040571D01*
X11518810Y-12040571D02*
X11528333Y-12059619D01*
X11528333Y-12059619D02*
X11537857Y-12097714D01*
X11537857Y-12097714D02*
X11537857Y-12145333D01*
X11537857Y-12145333D02*
X11528333Y-12183428D01*
X11528333Y-12183428D02*
X11518810Y-12202476D01*
X11518810Y-12202476D02*
X11509286Y-12212000D01*
X11509286Y-12212000D02*
X11490238Y-12221524D01*
X11490238Y-12221524D02*
X11471191Y-12221524D01*
X11471191Y-12221524D02*
X11452143Y-12212000D01*
X11452143Y-12212000D02*
X11442619Y-12202476D01*
X11442619Y-12202476D02*
X11433095Y-12183428D01*
X11433095Y-12183428D02*
X11423572Y-12145333D01*
X11423572Y-12145333D02*
X11423572Y-12097714D01*
X11423572Y-12097714D02*
X11433095Y-12059619D01*
X11433095Y-12059619D02*
X11442619Y-12040571D01*
X11442619Y-12040571D02*
X11452143Y-12031048D01*
X11452143Y-12031048D02*
X11471191Y-12021524D01*
X11709286Y-12088190D02*
X11709286Y-12221524D01*
X11661667Y-12012000D02*
X11614048Y-12154857D01*
X11614048Y-12154857D02*
X11737857Y-12154857D01*
X11909286Y-12021524D02*
X11814048Y-12021524D01*
X11814048Y-12021524D02*
X11804524Y-12116762D01*
X11804524Y-12116762D02*
X11814048Y-12107238D01*
X11814048Y-12107238D02*
X11833095Y-12097714D01*
X11833095Y-12097714D02*
X11880714Y-12097714D01*
X11880714Y-12097714D02*
X11899762Y-12107238D01*
X11899762Y-12107238D02*
X11909286Y-12116762D01*
X11909286Y-12116762D02*
X11918810Y-12135809D01*
X11918810Y-12135809D02*
X11918810Y-12183428D01*
X11918810Y-12183428D02*
X11909286Y-12202476D01*
X11909286Y-12202476D02*
X11899762Y-12212000D01*
X11899762Y-12212000D02*
X11880714Y-12221524D01*
X11880714Y-12221524D02*
X11833095Y-12221524D01*
X11833095Y-12221524D02*
X11814048Y-12212000D01*
X11814048Y-12212000D02*
X11804524Y-12202476D01*
X11985476Y-12021524D02*
X12109286Y-12021524D01*
X12109286Y-12021524D02*
X12042619Y-12097714D01*
X12042619Y-12097714D02*
X12071191Y-12097714D01*
X12071191Y-12097714D02*
X12090238Y-12107238D01*
X12090238Y-12107238D02*
X12099762Y-12116762D01*
X12099762Y-12116762D02*
X12109286Y-12135809D01*
X12109286Y-12135809D02*
X12109286Y-12183428D01*
X12109286Y-12183428D02*
X12099762Y-12202476D01*
X12099762Y-12202476D02*
X12090238Y-12212000D01*
X12090238Y-12212000D02*
X12071191Y-12221524D01*
X12071191Y-12221524D02*
X12014048Y-12221524D01*
X12014048Y-12221524D02*
X11995000Y-12212000D01*
X11995000Y-12212000D02*
X11985476Y-12202476D01*
X12185476Y-12021524D02*
X12185476Y-12059619D01*
X12261667Y-12021524D02*
X12261667Y-12059619D01*
X12556905Y-12297714D02*
X12547381Y-12288190D01*
X12547381Y-12288190D02*
X12528334Y-12259619D01*
X12528334Y-12259619D02*
X12518810Y-12240571D01*
X12518810Y-12240571D02*
X12509286Y-12212000D01*
X12509286Y-12212000D02*
X12499762Y-12164381D01*
X12499762Y-12164381D02*
X12499762Y-12126286D01*
X12499762Y-12126286D02*
X12509286Y-12078667D01*
X12509286Y-12078667D02*
X12518810Y-12050095D01*
X12518810Y-12050095D02*
X12528334Y-12031048D01*
X12528334Y-12031048D02*
X12547381Y-12002476D01*
X12547381Y-12002476D02*
X12556905Y-11992952D01*
X12614048Y-12021524D02*
X12747381Y-12021524D01*
X12747381Y-12021524D02*
X12661667Y-12221524D01*
X12975953Y-12221524D02*
X12975953Y-12021524D01*
X13061667Y-12221524D02*
X13061667Y-12116762D01*
X13061667Y-12116762D02*
X13052143Y-12097714D01*
X13052143Y-12097714D02*
X13033096Y-12088190D01*
X13033096Y-12088190D02*
X13004524Y-12088190D01*
X13004524Y-12088190D02*
X12985476Y-12097714D01*
X12985476Y-12097714D02*
X12975953Y-12107238D01*
X13185476Y-12221524D02*
X13166429Y-12212000D01*
X13166429Y-12212000D02*
X13156905Y-12202476D01*
X13156905Y-12202476D02*
X13147381Y-12183428D01*
X13147381Y-12183428D02*
X13147381Y-12126286D01*
X13147381Y-12126286D02*
X13156905Y-12107238D01*
X13156905Y-12107238D02*
X13166429Y-12097714D01*
X13166429Y-12097714D02*
X13185476Y-12088190D01*
X13185476Y-12088190D02*
X13214048Y-12088190D01*
X13214048Y-12088190D02*
X13233096Y-12097714D01*
X13233096Y-12097714D02*
X13242619Y-12107238D01*
X13242619Y-12107238D02*
X13252143Y-12126286D01*
X13252143Y-12126286D02*
X13252143Y-12183428D01*
X13252143Y-12183428D02*
X13242619Y-12202476D01*
X13242619Y-12202476D02*
X13233096Y-12212000D01*
X13233096Y-12212000D02*
X13214048Y-12221524D01*
X13214048Y-12221524D02*
X13185476Y-12221524D01*
X13366429Y-12221524D02*
X13347381Y-12212000D01*
X13347381Y-12212000D02*
X13337857Y-12192952D01*
X13337857Y-12192952D02*
X13337857Y-12021524D01*
X13518810Y-12212000D02*
X13499762Y-12221524D01*
X13499762Y-12221524D02*
X13461667Y-12221524D01*
X13461667Y-12221524D02*
X13442619Y-12212000D01*
X13442619Y-12212000D02*
X13433096Y-12192952D01*
X13433096Y-12192952D02*
X13433096Y-12116762D01*
X13433096Y-12116762D02*
X13442619Y-12097714D01*
X13442619Y-12097714D02*
X13461667Y-12088190D01*
X13461667Y-12088190D02*
X13499762Y-12088190D01*
X13499762Y-12088190D02*
X13518810Y-12097714D01*
X13518810Y-12097714D02*
X13528334Y-12116762D01*
X13528334Y-12116762D02*
X13528334Y-12135809D01*
X13528334Y-12135809D02*
X13433096Y-12154857D01*
X13604524Y-12212000D02*
X13623572Y-12221524D01*
X13623572Y-12221524D02*
X13661667Y-12221524D01*
X13661667Y-12221524D02*
X13680715Y-12212000D01*
X13680715Y-12212000D02*
X13690238Y-12192952D01*
X13690238Y-12192952D02*
X13690238Y-12183428D01*
X13690238Y-12183428D02*
X13680715Y-12164381D01*
X13680715Y-12164381D02*
X13661667Y-12154857D01*
X13661667Y-12154857D02*
X13633096Y-12154857D01*
X13633096Y-12154857D02*
X13614048Y-12145333D01*
X13614048Y-12145333D02*
X13604524Y-12126286D01*
X13604524Y-12126286D02*
X13604524Y-12116762D01*
X13604524Y-12116762D02*
X13614048Y-12097714D01*
X13614048Y-12097714D02*
X13633096Y-12088190D01*
X13633096Y-12088190D02*
X13661667Y-12088190D01*
X13661667Y-12088190D02*
X13680715Y-12097714D01*
X13756905Y-12297714D02*
X13766429Y-12288190D01*
X13766429Y-12288190D02*
X13785477Y-12259619D01*
X13785477Y-12259619D02*
X13795000Y-12240571D01*
X13795000Y-12240571D02*
X13804524Y-12212000D01*
X13804524Y-12212000D02*
X13814048Y-12164381D01*
X13814048Y-12164381D02*
X13814048Y-12126286D01*
X13814048Y-12126286D02*
X13804524Y-12078667D01*
X13804524Y-12078667D02*
X13795000Y-12050095D01*
X13795000Y-12050095D02*
X13785477Y-12031048D01*
X13785477Y-12031048D02*
X13766429Y-12002476D01*
X13766429Y-12002476D02*
X13756905Y-11992952D01*
M02*
