%TF.GenerationSoftware,KiCad,Pcbnew,9.0.0*%
%TF.CreationDate,2025-10-24T21:07:41-05:00*%
%TF.ProjectId,LeaderSOM,4c656164-6572-4534-9f4d-2e6b69636164,rev?*%
%TF.SameCoordinates,Original*%
%TF.FileFunction,Soldermask,Bot*%
%TF.FilePolarity,Negative*%
%FSLAX46Y46*%
G04 Gerber Fmt 4.6, Leading zero omitted, Abs format (unit mm)*
G04 Created by KiCad (PCBNEW 9.0.0) date 2025-10-24 21:07:41*
%MOMM*%
%LPD*%
G01*
G04 APERTURE LIST*
G04 Aperture macros list*
%AMRoundRect*
0 Rectangle with rounded corners*
0 $1 Rounding radius*
0 $2 $3 $4 $5 $6 $7 $8 $9 X,Y pos of 4 corners*
0 Add a 4 corners polygon primitive as box body*
4,1,4,$2,$3,$4,$5,$6,$7,$8,$9,$2,$3,0*
0 Add four circle primitives for the rounded corners*
1,1,$1+$1,$2,$3*
1,1,$1+$1,$4,$5*
1,1,$1+$1,$6,$7*
1,1,$1+$1,$8,$9*
0 Add four rect primitives between the rounded corners*
20,1,$1+$1,$2,$3,$4,$5,0*
20,1,$1+$1,$4,$5,$6,$7,0*
20,1,$1+$1,$6,$7,$8,$9,0*
20,1,$1+$1,$8,$9,$2,$3,0*%
G04 Aperture macros list end*
%ADD10C,0.000000*%
%ADD11C,3.600000*%
%ADD12C,6.400000*%
%ADD13R,1.700000X1.700000*%
%ADD14O,1.700000X1.700000*%
%ADD15C,0.650000*%
%ADD16O,2.100000X1.000000*%
%ADD17O,1.800000X1.000000*%
%ADD18C,1.300000*%
%ADD19RoundRect,0.250000X-0.600000X0.850000X-0.600000X-0.850000X0.600000X-0.850000X0.600000X0.850000X0*%
%ADD20O,1.700000X2.200000*%
%ADD21RoundRect,0.175000X0.175000X-0.325000X0.175000X0.325000X-0.175000X0.325000X-0.175000X-0.325000X0*%
%ADD22R,0.600000X1.150000*%
%ADD23R,0.450000X1.200000*%
%ADD24C,0.850000*%
%ADD25R,0.550000X1.500000*%
%ADD26R,1.200000X0.700000*%
%ADD27R,0.800000X1.000000*%
%ADD28R,2.800000X1.000000*%
%ADD29R,1.200000X1.000000*%
%ADD30R,1.900000X1.300000*%
G04 APERTURE END LIST*
D10*
%TO.C,LOGO2*%
G36*
X156942166Y-118361488D02*
G01*
X156955562Y-119760000D01*
X155619249Y-119760000D01*
X154282936Y-119760000D01*
X154282936Y-119509059D01*
X154282936Y-119258119D01*
X155303472Y-119244476D01*
X156324007Y-119230833D01*
X156349206Y-118096905D01*
X156374404Y-116962976D01*
X156651587Y-116962976D01*
X156928769Y-116962976D01*
X156942166Y-118361488D01*
G37*
G36*
X145500000Y-118088968D02*
G01*
X145500000Y-118794524D01*
X144718849Y-118794524D01*
X143937699Y-118794524D01*
X143937699Y-119046508D01*
X143937699Y-119298492D01*
X144718849Y-119298492D01*
X145500000Y-119298492D01*
X145500000Y-119525278D01*
X145500000Y-119752063D01*
X144492064Y-119752063D01*
X143484127Y-119752063D01*
X143484127Y-119046508D01*
X143484127Y-118340952D01*
X144265278Y-118340952D01*
X145046429Y-118340952D01*
X145046429Y-118088968D01*
X145046429Y-117836984D01*
X144265278Y-117836984D01*
X143484127Y-117836984D01*
X143484127Y-117610198D01*
X143484127Y-117383413D01*
X144492064Y-117383413D01*
X145500000Y-117383413D01*
X145500000Y-118088968D01*
G37*
G36*
X150770010Y-116947105D02*
G01*
X150846219Y-116996509D01*
X150888229Y-117099779D01*
X150907939Y-117272555D01*
X150917248Y-117530474D01*
X150931547Y-118071706D01*
X152015079Y-118071706D01*
X153098611Y-118071706D01*
X153113153Y-117570561D01*
X153119124Y-117433801D01*
X153135949Y-117231243D01*
X153158725Y-117078573D01*
X153184272Y-117001244D01*
X153189637Y-116995420D01*
X153298210Y-116952861D01*
X153497309Y-116948025D01*
X153753769Y-116962976D01*
X153767170Y-118363914D01*
X153780571Y-119764851D01*
X153464789Y-119749826D01*
X153149007Y-119734801D01*
X153134749Y-119166859D01*
X153120490Y-118598916D01*
X152026018Y-118612494D01*
X150931547Y-118626071D01*
X150917297Y-119193036D01*
X150903048Y-119760000D01*
X150576322Y-119760000D01*
X150249596Y-119760000D01*
X150262992Y-118361488D01*
X150276388Y-116962976D01*
X150473172Y-116946870D01*
X150647702Y-116935930D01*
X150770010Y-116947105D01*
G37*
G36*
X149495238Y-118375047D02*
G01*
X149495238Y-119760000D01*
X149167658Y-119760000D01*
X148840079Y-119760000D01*
X148840079Y-119331627D01*
X148840079Y-118903254D01*
X147886197Y-118903254D01*
X146932315Y-118903254D01*
X146827864Y-119036042D01*
X146778102Y-119114351D01*
X146735658Y-119257713D01*
X146723412Y-119464415D01*
X146723412Y-119760000D01*
X146389668Y-119760000D01*
X146055924Y-119760000D01*
X146077562Y-119307429D01*
X146079366Y-119270905D01*
X146094684Y-119053634D01*
X146117770Y-118908775D01*
X146154437Y-118811351D01*
X146210501Y-118736385D01*
X146219712Y-118726572D01*
X146286703Y-118646382D01*
X146286870Y-118594076D01*
X146222629Y-118528160D01*
X146178578Y-118472966D01*
X146108305Y-118312348D01*
X146057812Y-118103805D01*
X146040385Y-117939462D01*
X146698214Y-117939462D01*
X146698593Y-117974497D01*
X146722805Y-118165962D01*
X146788147Y-118284093D01*
X146804651Y-118298897D01*
X146855141Y-118327551D01*
X146933859Y-118348885D01*
X147055319Y-118364404D01*
X147234035Y-118375610D01*
X147484518Y-118384007D01*
X147821281Y-118391098D01*
X147822842Y-118391126D01*
X148121655Y-118394519D01*
X148385436Y-118393761D01*
X148597756Y-118389204D01*
X148742181Y-118381199D01*
X148802281Y-118370099D01*
X148808184Y-118359012D01*
X148824458Y-118267374D01*
X148835812Y-118109653D01*
X148840079Y-117912116D01*
X148840079Y-117492143D01*
X147888122Y-117492143D01*
X147632936Y-117492554D01*
X147360760Y-117495123D01*
X147163212Y-117501247D01*
X147025186Y-117512287D01*
X146931577Y-117529601D01*
X146867280Y-117554546D01*
X146817190Y-117588484D01*
X146746590Y-117663196D01*
X146708209Y-117770129D01*
X146698214Y-117939462D01*
X146040385Y-117939462D01*
X146034219Y-117881314D01*
X146044648Y-117678856D01*
X146073307Y-117519132D01*
X146113728Y-117362094D01*
X146170818Y-117237992D01*
X146255092Y-117142721D01*
X146377066Y-117072178D01*
X146547256Y-117022257D01*
X146776177Y-116988856D01*
X147074345Y-116967869D01*
X147452275Y-116955193D01*
X147920483Y-116946724D01*
X148243611Y-116942880D01*
X148580996Y-116941106D01*
X148877153Y-116941903D01*
X149117195Y-116945150D01*
X149286236Y-116950726D01*
X149369392Y-116958509D01*
X149495238Y-116990095D01*
X149495238Y-117912116D01*
X149495238Y-118375047D01*
G37*
%TD*%
D11*
%TO.C,H4*%
X188750000Y-116750000D03*
D12*
X188750000Y-116750000D03*
%TD*%
D13*
%TO.C,CC_Term1*%
X182085000Y-87800000D03*
D14*
X184625000Y-87800000D03*
%TD*%
D15*
%TO.C,J3*%
X140589000Y-88735000D03*
X140589000Y-94515000D03*
D16*
X141089000Y-87305000D03*
D17*
X136909000Y-87305000D03*
D16*
X141089000Y-95945000D03*
D17*
X136909000Y-95945000D03*
%TD*%
D18*
%TO.C,SWD1*%
X178625000Y-116110000D03*
D19*
X182375000Y-117450000D03*
D20*
X179875000Y-117450000D03*
X177375000Y-117450000D03*
X174875000Y-117450000D03*
%TD*%
D11*
%TO.C,H1*%
X139250000Y-82250000D03*
D12*
X139250000Y-82250000D03*
%TD*%
D11*
%TO.C,H2*%
X188750000Y-82250000D03*
D12*
X188750000Y-82250000D03*
%TD*%
D11*
%TO.C,H3*%
X139250000Y-116750000D03*
D12*
X139250000Y-116750000D03*
%TD*%
D13*
%TO.C,CC_Term2*%
X188250000Y-87800000D03*
D14*
X190790000Y-87800000D03*
%TD*%
D21*
%TO.C,U3*%
X189575000Y-95625000D03*
X187675000Y-95625000D03*
X188625000Y-93225000D03*
%TD*%
D22*
%TO.C,CR2*%
X182200000Y-81600000D03*
X183150000Y-81600000D03*
X184100000Y-81600000D03*
X184100000Y-84200000D03*
X183150000Y-84200000D03*
X182200000Y-84200000D03*
%TD*%
D23*
%TO.C,IC1*%
X175400000Y-95125000D03*
X174750000Y-95125000D03*
X174100000Y-95125000D03*
X173450000Y-95125000D03*
X173450000Y-92625000D03*
X174100000Y-92625000D03*
X174750000Y-92625000D03*
X175400000Y-92625000D03*
%TD*%
D24*
%TO.C,J1*%
X177000000Y-81500000D03*
X166400000Y-81500000D03*
D25*
X167300000Y-84700000D03*
X167300000Y-80900000D03*
X168100000Y-84700000D03*
X168100000Y-80900000D03*
X168900000Y-84700000D03*
X168900000Y-80900000D03*
X169700000Y-84700000D03*
X169700000Y-80900000D03*
X170500000Y-84700000D03*
X170500000Y-80900000D03*
X171300000Y-84700000D03*
X171300000Y-80900000D03*
X172100000Y-84700000D03*
X172100000Y-80900000D03*
X172900000Y-84700000D03*
X172900000Y-80900000D03*
X173700000Y-84700000D03*
X173700000Y-80900000D03*
X174500000Y-84700000D03*
X174500000Y-80900000D03*
X175300000Y-84700000D03*
X175300000Y-80900000D03*
X176100000Y-84700000D03*
X176100000Y-80900000D03*
%TD*%
D26*
%TO.C,J4*%
X152000000Y-102420000D03*
X152000000Y-103520000D03*
X152000000Y-104620000D03*
X152000000Y-105720000D03*
X152000000Y-106820000D03*
X152000000Y-107920000D03*
X152000000Y-109020000D03*
X152000000Y-110120000D03*
X152000000Y-111070000D03*
D27*
X141500000Y-112020000D03*
D28*
X137350000Y-112020000D03*
D29*
X147700000Y-112020000D03*
X152000000Y-100870000D03*
D30*
X136900000Y-98520000D03*
%TD*%
D24*
%TO.C,J2*%
X161250000Y-81500000D03*
X150650000Y-81500000D03*
D25*
X151550000Y-84700000D03*
X151550000Y-80900000D03*
X152350000Y-84700000D03*
X152350000Y-80900000D03*
X153150000Y-84700000D03*
X153150000Y-80900000D03*
X153950000Y-84700000D03*
X153950000Y-80900000D03*
X154750000Y-84700000D03*
X154750000Y-80900000D03*
X155550000Y-84700000D03*
X155550000Y-80900000D03*
X156350000Y-84700000D03*
X156350000Y-80900000D03*
X157150000Y-84700000D03*
X157150000Y-80900000D03*
X157950000Y-84700000D03*
X157950000Y-80900000D03*
X158750000Y-84700000D03*
X158750000Y-80900000D03*
X159550000Y-84700000D03*
X159550000Y-80900000D03*
X160350000Y-84700000D03*
X160350000Y-80900000D03*
%TD*%
D23*
%TO.C,IC2*%
X189600000Y-99775000D03*
X188950000Y-99775000D03*
X188300000Y-99775000D03*
X187650000Y-99775000D03*
X187650000Y-97275000D03*
X188300000Y-97275000D03*
X188950000Y-97275000D03*
X189600000Y-97275000D03*
%TD*%
D22*
%TO.C,CR1*%
X155050000Y-109000000D03*
X156000000Y-109000000D03*
X156950000Y-109000000D03*
X156950000Y-111600000D03*
X156000000Y-111600000D03*
X155050000Y-111600000D03*
%TD*%
%TO.C,CR3*%
X163930000Y-89040000D03*
X164880000Y-89040000D03*
X165830000Y-89040000D03*
X165830000Y-91640000D03*
X164880000Y-91640000D03*
X163930000Y-91640000D03*
%TD*%
D21*
%TO.C,U1*%
X175375000Y-90975000D03*
X173475000Y-90975000D03*
X174425000Y-88575000D03*
%TD*%
M02*
