M48
; DRILL file {KiCad 9.0.6} date 2026-04-27T12:39:51-0500
; FORMAT={-:-/ absolute / inch / decimal}
; #@! TF.CreationDate,2026-04-27T12:39:51-05:00
; #@! TF.GenerationSoftware,Kicad,Pcbnew,9.0.6
; #@! TF.FileFunction,Plated,1,4,PTH
FMAT,2
INCH
; #@! TA.AperFunction,Plated,PTH,ViaDrill
T1C0.0118
; #@! TA.AperFunction,Plated,PTH,ComponentDrill
T2C0.0236
; #@! TA.AperFunction,Plated,PTH,ComponentDrill
T3C0.0394
; #@! TA.AperFunction,Plated,PTH,ComponentDrill
T4C0.0472
; #@! TA.AperFunction,Plated,PTH,ComponentDrill
T5C0.1260
%
G90
G05
T1
X5.3374Y-4.202
X5.3425Y-4.3907
X5.3848Y-4.4764
X5.4083Y-3.3882
X5.4516Y-3.3882
X5.4567Y-3.8724
X5.4949Y-3.3882
X5.5114Y-3.8425
X5.5382Y-3.3882
X5.5421Y-4.442
X5.5476Y-3.9969
X5.5476Y-4.1142
X5.5477Y-4.2879
X5.5848Y-4.3385
X5.593Y-4.6881
X5.6299Y-4.3327
X5.6327Y-3.1756
X5.6327Y-3.2189
X5.6327Y-3.2661
X5.6327Y-3.3094
X5.6476Y-4.4862
X5.6575Y-3.6713
X5.6614Y-3.9055
X5.663Y-3.5815
X5.7126Y-4.0738
X5.7323Y-3.5866
X5.739Y-3.676
X5.748Y-3.9055
X5.7717Y-3.8327
X5.7862Y-3.5485
X5.8022Y-3.6959
X5.8051Y-4.2028
X5.8169Y-4.1588
X5.8209Y-4.3819
X5.8238Y-3.5738
X5.8248Y-3.6083
X5.8248Y-3.6476
X5.8386Y-4.2874
X5.8386Y-4.3228
X5.8406Y-3.8701
X5.8435Y-3.4459
X5.8496Y-3.7252
X5.8543Y-4.3563
X5.8563Y-3.8169
X5.8583Y-3.9528
X5.8661Y-3.1291
X5.8719Y-4.0363
X5.878Y-3.5492
X5.8858Y-4.5079
X5.8858Y-4.5433
X5.8858Y-4.5787
X5.9035Y-4.3563
X5.9094Y-4.0807
X5.9213Y-3.5906
X5.9213Y-3.6654
X5.9244Y-3.1126
X5.9331Y-4.378
X5.937Y-3.9606
X5.937Y-4.0
X5.9442Y-4.0984
X5.9528Y-4.2362
X5.9606Y-3.8386
X5.9665Y-3.2323
X5.9665Y-3.2874
X5.9807Y-3.0972
X5.9843Y-3.5906
X5.9843Y-3.6657
X5.9847Y-3.9713
X5.9884Y-4.4057
X5.998Y-3.2323
X5.998Y-3.2874
X5.998Y-3.7521
X6.0148Y-3.5659
X6.0157Y-4.4242
X6.0295Y-3.1445
X6.0295Y-3.2874
X6.0354Y-3.9508
X6.0374Y-3.5217
X6.0374Y-3.7461
X6.0512Y-4.0787
X6.061Y-3.1445
X6.064Y-4.5079
X6.064Y-4.5433
X6.064Y-4.5787
X6.0709Y-3.6122
X6.0709Y-3.6437
X6.0733Y-4.474
X6.0791Y-3.6831
X6.0866Y-3.2597
X6.0925Y-3.2283
X6.0984Y-3.5822
X6.1004Y-3.4429
X6.1058Y-4.247
X6.1113Y-4.4508
X6.124Y-3.2283
X6.124Y-3.4665
X6.1417Y-4.2254
X6.1417Y-4.3622
X6.1467Y-3.2598
X6.1811Y-4.5299
X6.187Y-3.2268
X6.2079Y-4.197
X6.2106Y-4.4843
X6.2165Y-4.4173
X6.2201Y-3.278
X6.2205Y-4.2687
X6.2283Y-4.1673
X6.2303Y-4.2224
X6.2461Y-4.38
X6.2496Y-4.5713
X6.25Y-3.2248
X6.2815Y-3.2256
X6.2844Y-4.2874
X6.2915Y-3.451
X6.2992Y-4.5837
X6.3021Y-4.439
X6.3209Y-3.1063
X6.3286Y-4.4737
X6.3515Y-3.5709
X6.3681Y-3.687
X6.3681Y-4.3583
X6.3701Y-3.3878
X6.384Y-4.4608
X6.3976Y-3.1241
X6.3998Y-4.0018
X6.4055Y-4.5516
X6.4075Y-4.3957
X6.4094Y-3.8583
X6.4134Y-3.7913
X6.4291Y-3.6299
X6.4291Y-3.6713
X6.435Y-3.4724
X6.437Y-4.0354
X6.4449Y-3.5769
X6.4611Y-4.2043
X6.4843Y-3.9035
X6.4843Y-3.975
X6.4882Y-3.5689
X6.4921Y-4.1811
X6.502Y-3.1969
X6.5098Y-3.6299
X6.5098Y-3.6732
X6.51Y-3.786
X6.5144Y-3.8204
X6.5197Y-3.935
X6.5254Y-3.4731
X6.5329Y-4.0191
X6.5433Y-4.1811
X6.5472Y-3.1319
X6.5495Y-3.4151
X6.5571Y-4.2913
X6.5591Y-4.248
X6.5842Y-4.3804
X6.5876Y-4.6506
X6.5906Y-4.1811
X6.5965Y-3.2402
X6.6043Y-3.5846
X6.6074Y-3.2904
X6.6102Y-4.248
X6.6102Y-4.2913
X6.6142Y-4.3386
X6.6142Y-4.7303
X6.6146Y-4.4818
X6.6335Y-3.1241
X6.6417Y-3.5531
X6.6457Y-4.4902
X6.6555Y-4.5516
X6.6654Y-4.1791
X6.6732Y-3.4217
X6.6826Y-3.5866
X6.7126Y-3.2323
X6.7165Y-3.5844
X6.7182Y-3.3735
X6.7205Y-4.5886
X6.7303Y-4.1732
X6.7303Y-4.3563
X6.7382Y-3.1437
X6.7402Y-3.7697
X6.7431Y-3.253
X6.7431Y-3.2864
X6.7441Y-3.7224
X6.7462Y-3.3967
X6.748Y-3.9193
X6.752Y-4.4134
X6.7555Y-3.9917
X6.7579Y-4.5945
X6.7657Y-3.128
X6.7677Y-3.7461
X6.7795Y-3.253
X6.7795Y-3.2864
X6.7795Y-3.8125
X6.7902Y-4.3701
X6.7909Y-4.5516
X6.7913Y-4.1729
X6.7933Y-4.3346
X6.7933Y-4.4016
X6.7937Y-3.9732
X6.796Y-3.7742
X6.7971Y-3.1398
X6.7993Y-3.4468
X6.8012Y-3.4786
X6.8027Y-3.374
X6.8141Y-3.5106
X6.8146Y-4.6059
X6.8159Y-3.253
X6.8159Y-3.2864
X6.8301Y-3.1426
X6.8375Y-3.4232
X6.8386Y-3.9911
X6.8467Y-3.688
X6.8492Y-4.4224
X6.8509Y-4.2047
X6.8564Y-3.8434
X6.8614Y-4.2622
X6.8622Y-3.8957
X6.8701Y-3.4232
X6.8732Y-3.5581
X6.8973Y-3.5268
X6.9345Y-3.5511
X6.9429Y-3.8366
X6.9429Y-3.874
X6.9429Y-4.563
X6.9449Y-4.0433
X6.9502Y-3.4603
X6.9539Y-3.3031
X6.9539Y-3.337
X6.9626Y-4.4252
X6.9699Y-3.5935
X6.9764Y-3.9715
X6.9764Y-4.0197
X6.979Y-3.7539
X6.9843Y-3.8587
X6.9882Y-3.3031
X6.989Y-3.3362
X6.9906Y-3.8922
X6.999Y-3.5697
X7.0075Y-3.7819
X7.0167Y-3.6854
X7.0207Y-3.4616
X7.0246Y-4.0384
X7.0401Y-3.7251
X7.0403Y-3.8769
X7.058Y-3.3789
X7.0591Y-3.2087
X7.0679Y-4.4272
X7.0692Y-4.0161
X7.0827Y-3.4764
X7.0846Y-3.8526
X7.0885Y-3.4237
X7.093Y-3.7574
X7.0965Y-4.5516
X7.0994Y-4.127
X7.1012Y-3.6921
X7.1091Y-3.9971
X7.1142Y-3.9311
X7.115Y-3.7326
X7.1329Y-3.7057
X7.1329Y-3.1584
X7.137Y-4.1531
X7.1502Y-3.9876
X7.1563Y-3.4016
X7.1581Y-3.7558
X7.1614Y-3.2776
X7.1634Y-3.5539
X7.1693Y-4.1516
X7.1693Y-4.4252
X7.1693Y-4.5516
X7.1803Y-3.9752
X7.1811Y-3.1555
X7.1817Y-3.6845
X7.1849Y-3.5953
X7.1944Y-3.367
X7.2102Y-3.8
X7.2162Y-3.8783
X7.2166Y-3.1811
X7.2187Y-3.9734
X7.2209Y-3.6929
X7.2224Y-3.7244
X7.2236Y-4.2941
X7.2318Y-3.8292
X7.2319Y-3.5264
X7.2422Y-3.4111
X7.248Y-3.9144
X7.249Y-3.1259
X7.2539Y-3.6929
X7.2555Y-3.9603
X7.2559Y-4.7224
X7.2674Y-3.8684
X7.2797Y-3.3346
X7.2811Y-3.5244
X7.2848Y-4.6927
X7.2851Y-3.1259
X7.2854Y-3.6929
X7.2879Y-3.9724
X7.2913Y-3.3988
X7.2915Y-4.1268
X7.2974Y-3.5741
X7.3051Y-3.7638
X7.3055Y-3.8658
X7.3071Y-4.4921
X7.3082Y-3.812
X7.313Y-3.6752
X7.313Y-4.2402
X7.313Y-4.2717
X7.3189Y-4.1818
X7.3213Y-3.1315
X7.3236Y-4.6918
X7.3287Y-4.4685
X7.3288Y-4.0406
X7.3288Y-4.0738
X7.3362Y-3.418
X7.3445Y-3.3529
X7.3511Y-4.7158
X7.3622Y-4.4055
X7.3653Y-3.1105
X7.372Y-3.5142
X7.378Y-3.3858
X7.378Y-4.0551
X7.3789Y-3.685
X7.3878Y-4.0217
X7.3891Y-4.2832
X7.3926Y-4.4241
X7.4047Y-3.9695
X7.4272Y-3.6427
X7.4413Y-3.585
X7.4461Y-4.4516
X7.4478Y-4.2467
X7.4543Y-3.8869
X7.4803Y-4.4567
X7.4882Y-4.1752
X7.4921Y-3.3858
X7.4953Y-3.5882
X7.4961Y-3.6693
X7.5079Y-3.7701
X7.5079Y-4.0523
X7.5085Y-4.0006
X7.5197Y-4.4803
X7.5512Y-4.5118
X7.5748Y-3.665
X7.5768Y-3.9331
T3
X7.1687Y-3.4567
X7.2687Y-3.4567
X7.4114Y-3.4567
X7.5114Y-3.4567
T4
X6.8848Y-4.624
X6.9833Y-4.624
X7.0817Y-4.624
X7.1801Y-4.624
T5
X5.4823Y-3.2382
X5.4823Y-4.5965
X7.4311Y-3.2382
X7.4311Y-4.5965
T2
G00X5.4059Y-3.4372
M15
G01X5.3744Y-3.4372
M16
G05
G00X5.4059Y-3.7774
M15
G01X5.3744Y-3.7774
M16
G05
G00X5.5763Y-3.4372
M15
G01X5.533Y-3.4372
M16
G05
G00X5.5763Y-3.7774
M15
G01X5.533Y-3.7774
M16
G05
M30
